<svg width="24" height="24" viewBox="0 0 24 24" fill="none" xmlns="http://www.w3.org/2000/svg">
<path d="M16.65 20.75C16.64 20.75 16.62 20.75 16.61 20.75C16.2 20.75 15.86 20.41 15.87 19.99C15.87 19.58 16.21 19.25 16.62 19.25C16.63 19.25 16.65 19.25 16.66 19.25C17.8 19.25 18.89 18.83 19.73 18.05C21.28 16.69 21.39 14.75 20.97 13.38C20.55 12.01 19.39 10.46 17.36 10.2C17.03 10.16 16.77 9.91001 16.71 9.58001C16.31 7.19001 15.02 5.54001 13.08 4.94001C11.06 4.32001 8.72997 4.93001 7.26997 6.46001C5.84997 7.95002 5.51997 10.02 6.33997 12.31C6.47997 12.7 6.27997 13.13 5.88997 13.27C5.49997 13.41 5.06997 13.21 4.92997 12.82C3.91997 10.01 4.37997 7.32001 6.18997 5.43001C8.03997 3.50001 10.98 2.73001 13.53 3.52001C15.86 4.24001 17.51 6.16001 18.1 8.82001C20.14 9.28001 21.77 10.82 22.42 12.95C23.13 15.27 22.48 17.65 20.75 19.17C19.61 20.19 18.16 20.75 16.65 20.75Z" fill="#353535"/>
<path d="M5.57008 20.75C5.55008 20.75 5.53008 20.75 5.52008 20.75C2.64008 20.55 1.33008 18.29 1.33008 16.28C1.33008 14.27 2.64008 12.02 5.52008 11.81C6.26008 11.8 6.99008 11.97 7.63008 12.29C8.00008 12.48 8.14008 12.93 7.96008 13.3C7.77008 13.67 7.32008 13.81 6.95008 13.63C6.53008 13.41 6.05008 13.32 5.59008 13.31C3.70008 13.45 2.84008 14.9 2.84008 16.28C2.84008 17.66 3.70008 19.11 5.64008 19.25C6.05008 19.28 6.36008 19.64 6.33008 20.05C6.29008 20.45 5.96008 20.75 5.57008 20.75Z" fill="#353535"/>
<path d="M15.8201 10.64C15.5501 10.64 15.2801 10.49 15.1501 10.22C14.9601 9.84997 15.1101 9.39997 15.4901 9.20997C16.1001 8.89997 16.7901 8.72997 17.4701 8.71997C17.8501 8.73997 18.2301 9.03997 18.2301 9.45997C18.2401 9.86997 17.9101 10.22 17.4901 10.22C17.0301 10.23 16.5701 10.34 16.1501 10.55C16.0501 10.62 15.9301 10.64 15.8201 10.64Z" fill="#353535"/>
<path d="M7.96991 22.7499C7.77991 22.7499 7.58991 22.6799 7.43991 22.5299C7.14991 22.2399 7.14991 21.7599 7.43991 21.4699L9.43991 19.4699C9.72991 19.1799 10.2099 19.1799 10.4999 19.4699C10.7899 19.7599 10.7899 20.2399 10.4999 20.5299L8.49991 22.5299C8.35991 22.6799 8.16991 22.7499 7.96991 22.7499Z" fill="#353535"/>
<path d="M11.9699 22.7499C11.7799 22.7499 11.5899 22.6799 11.4399 22.5299C11.1499 22.2399 11.1499 21.7599 11.4399 21.4699L13.4399 19.4699C13.7299 19.1799 14.2099 19.1799 14.4999 19.4699C14.7899 19.7599 14.7899 20.2399 14.4999 20.5299L12.4999 22.5299C12.3599 22.6799 12.1699 22.7499 11.9699 22.7499Z" fill="#353535"/>
<path d="M11.9699 18.7499C11.7799 18.7499 11.5899 18.6799 11.4399 18.5299C11.1499 18.2399 11.1499 17.7599 11.4399 17.4699L13.4399 15.4699C13.7299 15.1799 14.2099 15.1799 14.4999 15.4699C14.7899 15.7599 14.7899 16.2399 14.4999 16.5299L12.4999 18.5299C12.3599 18.6799 12.1699 18.7499 11.9699 18.7499Z" fill="#353535"/>
<path d="M7.96991 18.7499C7.77991 18.7499 7.58991 18.6799 7.43991 18.5299C7.14991 18.2399 7.14991 17.7599 7.43991 17.4699L9.43991 15.4699C9.72991 15.1799 10.2099 15.1799 10.4999 15.4699C10.7899 15.7599 10.7899 16.2399 10.4999 16.5299L8.49991 18.5299C8.35991 18.6799 8.16991 18.7499 7.96991 18.7499Z" fill="#353535"/>
</svg>
