<svg width="24" height="24" viewBox="0 0 24 24" fill="none" xmlns="http://www.w3.org/2000/svg">
<path d="M16.67 20.83C16.65 20.83 16.64 20.83 16.63 20.83H5.54003C2.60003 20.62 1.28003 18.35 1.28003 16.34C1.28003 14.54 2.33003 12.54 4.61003 11.99C3.98003 9.47001 4.53003 7.11001 6.19003 5.40001C8.07003 3.46001 11.06 2.71001 13.61 3.54001C14 3.67001 14.22 4.09001 14.09 4.48001C13.96 4.87001 13.54 5.09001 13.15 4.96001C11.12 4.31001 8.75003 4.90001 7.26003 6.45001C5.81003 7.95001 5.47003 10.04 6.30003 12.35C6.38003 12.58 6.35003 12.84 6.21003 13.03C6.07003 13.22 5.84003 13.35 5.60003 13.35C3.66003 13.49 2.79003 14.95 2.79003 16.34C2.79003 17.73 3.66003 19.19 5.60003 19.34H16.64C17.78 19.35 18.92 18.92 19.77 18.14C20.92 17.13 21.42 15.66 21.17 14.1C21.1 13.69 21.38 13.31 21.79 13.24C22.2 13.17 22.58 13.45 22.65 13.86C22.99 15.92 22.28 17.94 20.78 19.26C19.66 20.26 18.2 20.83 16.67 20.83Z" fill="#353535"/>
<path d="M7.26009 13.7599C7.15009 13.7599 7.03009 13.7299 6.93009 13.6799C6.51009 13.4699 6.05009 13.3599 5.58009 13.3499C5.17009 13.3399 4.84009 12.9999 4.84009 12.5899C4.85009 12.1799 5.24009 11.8399 5.60009 11.8499C6.29009 11.8599 6.98009 12.0299 7.59009 12.3399C7.96009 12.5199 8.11009 12.9799 7.93009 13.3499C7.80009 13.6099 7.54009 13.7599 7.26009 13.7599Z" fill="#353535"/>
<path d="M18.47 12.75C16.13 12.75 14.22 10.84 14.22 8.50001C14.22 7.40001 14.64 6.36001 15.4 5.58001C15.42 5.55001 15.44 5.53001 15.46 5.51001C16.26 4.70001 17.32 4.26001 18.46 4.26001C20.8 4.26001 22.71 6.17001 22.71 8.51001C22.71 9.81001 22.13 11.02 21.11 11.83C20.38 12.42 19.44 12.75 18.47 12.75ZM16.6 6.50001C16.58 6.53001 16.56 6.55001 16.53 6.58001C16.01 7.09001 15.72 7.78001 15.72 8.51001C15.72 10.03 16.95 11.26 18.47 11.26C19.09 11.26 19.7 11.05 20.18 10.66C20.85 10.13 21.22 9.35001 21.22 8.51001C21.22 6.99001 19.99 5.76001 18.47 5.76001C17.76 5.75001 17.1 6.02001 16.6 6.50001Z" fill="#353535"/>
</svg>
