<svg width="24" height="24" viewBox="0 0 24 24" fill="none" xmlns="http://www.w3.org/2000/svg">
<path d="M12 9.25C11.59 9.25 11.25 8.91 11.25 8.5V3C11.25 2.59 11.59 2.25 12 2.25C12.41 2.25 12.75 2.59 12.75 3V8.5C12.75 8.91 12.41 9.25 12 9.25Z" fill="#353535"/>
<path d="M12 21.75C11.59 21.75 11.25 21.41 11.25 21V15.5C11.25 15.09 11.59 14.75 12 14.75C12.41 14.75 12.75 15.09 12.75 15.5V21C12.75 21.41 12.41 21.75 12 21.75Z" fill="#353535"/>
<path d="M14 3.75H10C9.59 3.75 9.25 3.41 9.25 3C9.25 2.59 9.59 2.25 10 2.25H14C14.41 2.25 14.75 2.59 14.75 3C14.75 3.41 14.41 3.75 14 3.75Z" fill="#353535"/>
<path d="M14 21.75H10C9.59 21.75 9.25 21.41 9.25 21C9.25 20.59 9.59 20.25 10 20.25H14C14.41 20.25 14.75 20.59 14.75 21C14.75 21.41 14.41 21.75 14 21.75Z" fill="#353535"/>
<path d="M8.97013 11C8.84013 11 8.71013 10.97 8.60013 10.9L3.84013 8.14998C3.48013 7.93998 3.36013 7.47999 3.57013 7.12999C3.78013 6.76999 4.24013 6.64999 4.59013 6.85999L9.35013 9.60999C9.71013 9.81999 9.83013 10.28 9.62013 10.63C9.48013 10.87 9.23013 11 8.97013 11Z" fill="#353535"/>
<path d="M19.79 17.25C19.66 17.25 19.53 17.22 19.42 17.15L14.66 14.4C14.3 14.19 14.18 13.73 14.39 13.38C14.6 13.02 15.06 12.9 15.41 13.11L20.17 15.86C20.53 16.07 20.65 16.53 20.44 16.88C20.3 17.12 20.05 17.25 19.79 17.25Z" fill="#353535"/>
<path d="M3.21013 9.98C3.08013 9.98 2.95013 9.95001 2.84013 9.88001C2.48013 9.67001 2.36013 9.21 2.57013 8.86L4.57013 5.4C4.78013 5.04 5.24013 4.92001 5.59013 5.13001C5.95013 5.34001 6.07013 5.8 5.86013 6.15L3.86013 9.61C3.72013 9.85 3.46013 9.98 3.21013 9.98Z" fill="#353535"/>
<path d="M18.7902 18.98C18.6602 18.98 18.5302 18.95 18.4202 18.88C18.0602 18.67 17.9402 18.21 18.1502 17.86L20.1502 14.4C20.3602 14.04 20.8202 13.92 21.1702 14.13C21.5302 14.34 21.6502 14.8 21.4402 15.15L19.4402 18.61C19.3102 18.85 19.0502 18.98 18.7902 18.98Z" fill="#353535"/>
<path d="M12 16.25C10.49 16.25 9.08 15.44 8.32 14.13C7.94 13.47 7.75 12.76 7.75 12C7.75 11.24 7.94 10.53 8.32 9.88002C9.08 8.57002 10.49 7.76001 12 7.76001C13.51 7.76001 14.92 8.57002 15.68 9.88002C16.06 10.54 16.25 11.25 16.25 12.01C16.25 12.77 16.06 13.48 15.68 14.13C14.92 15.44 13.51 16.25 12 16.25ZM12 9.25002C11.02 9.25002 10.11 9.78002 9.62 10.63C9.38 11.05 9.25 11.52 9.25 12C9.25 12.48 9.37 12.95 9.62 13.38C10.11 14.23 11.02 14.76 12 14.76C12.98 14.76 13.89 14.23 14.38 13.38C14.62 12.96 14.75 12.49 14.75 12.01C14.75 11.53 14.63 11.06 14.38 10.63C13.89 9.78002 12.98 9.25002 12 9.25002Z" fill="#353535"/>
<path d="M15.0299 11C14.7699 11 14.5199 10.87 14.3799 10.62C14.1699 10.26 14.2999 9.80004 14.6499 9.60004L19.4099 6.85004C19.7699 6.64004 20.2299 6.77003 20.4299 7.12003C20.6399 7.48003 20.5099 7.94004 20.1599 8.14004L15.3999 10.89C15.2899 10.97 15.1599 11 15.0299 11Z" fill="#353535"/>
<path d="M4.21012 17.25C3.95012 17.25 3.70012 17.12 3.56012 16.87C3.35012 16.51 3.48012 16.05 3.83012 15.85L8.59012 13.1C8.95012 12.89 9.41012 13.02 9.61012 13.37C9.82012 13.73 9.69012 14.19 9.34012 14.39L4.58012 17.14C4.47012 17.22 4.34012 17.25 4.21012 17.25Z" fill="#353535"/>
<path d="M20.7902 9.98C20.5302 9.98 20.2802 9.85001 20.1402 9.60001L18.1402 6.14C17.9302 5.78 18.0602 5.32 18.4102 5.12C18.7702 4.91 19.2302 5.04 19.4302 5.39L21.4302 8.85001C21.6402 9.21001 21.5102 9.67 21.1602 9.87C21.0502 9.95 20.9202 9.98 20.7902 9.98Z" fill="#353535"/>
<path d="M5.21012 18.98C4.95012 18.98 4.70012 18.85 4.56012 18.6L2.56012 15.14C2.35012 14.78 2.48012 14.32 2.83012 14.12C3.19012 13.91 3.65012 14.04 3.85012 14.39L5.85012 17.85C6.06012 18.21 5.93012 18.67 5.58012 18.87C5.46012 18.95 5.33012 18.98 5.21012 18.98Z" fill="#353535"/>
</svg>
