<svg width="24" height="24" viewBox="0 0 24 24" fill="none" xmlns="http://www.w3.org/2000/svg">
<path d="M13.4 14.6C13.21 14.6 13.02 14.53 12.87 14.38L11.47 12.98C11.33 12.84 11.25 12.65 11.25 12.45V9.65997C11.25 9.24997 11.59 8.90997 12 8.90997C12.41 8.90997 12.75 9.24997 12.75 9.65997V12.14L13.93 13.32C14.22 13.61 14.22 14.09 13.93 14.38C13.78 14.53 13.59 14.6 13.4 14.6Z" fill="#353535"/>
<path d="M12 19.25C10.41 19.25 8.91 18.75 7.65 17.8C7.62 17.78 7.6 17.77 7.57 17.75C5.78 16.36 4.75 14.26 4.75 12C4.75 8 8 4.75 12 4.75C16 4.75 19.25 8 19.25 12C19.25 14.25 18.23 16.33 16.46 17.72C16.43 17.74 16.41 17.76 16.38 17.78C15.11 18.74 13.6 19.25 12 19.25ZM8.43 16.51C8.46 16.53 8.48 16.54 8.5 16.56C10.53 18.13 13.51 18.12 15.53 16.54C15.55 16.52 15.58 16.5 15.6 16.49C16.97 15.39 17.75 13.76 17.75 12C17.75 8.83 15.17 6.25 12 6.25C8.83 6.25 6.25 8.83 6.25 12C6.25 13.77 7.04 15.41 8.43 16.51Z" fill="#353535"/>
<path d="M12.55 22.75H11.46C9.49996 22.75 8.29996 21.78 7.78996 19.77L7.28996 17.3C7.24996 17.08 7.29996 16.85 7.44996 16.68C7.59996 16.51 7.80996 16.41 8.02996 16.41H8.03996C8.20996 16.41 8.36996 16.46 8.49996 16.57C10.53 18.14 13.51 18.13 15.53 16.55C15.84 16.31 16.33 16.36 16.58 16.67C16.72 16.84 16.78 17.07 16.74 17.29L16.23 19.76C15.7 21.78 14.5 22.75 12.55 22.75ZM9.08996 18.64L9.24996 19.44C9.62996 20.94 10.41 21.25 11.46 21.25H12.55C13.59 21.25 14.37 20.94 14.76 19.42L14.92 18.64C13.11 19.44 10.91 19.45 9.08996 18.64Z" fill="#353535"/>
<path d="M16 7.62C15.83 7.62 15.66 7.56 15.53 7.46C13.51 5.88 10.53 5.87 8.50001 7.44C8.19001 7.68 7.70001 7.63 7.46001 7.33C7.32001 7.16 7.26001 6.93 7.30001 6.71L7.79001 4.27C8.30001 2.22 9.50001 1.25 11.46 1.25H12.55C14.5 1.25 15.7 2.22 16.21 4.21L16.73 6.72C16.78 6.94 16.72 7.17 16.58 7.34C16.44 7.52 16.23 7.62 16 7.62ZM12 4.75C13.03 4.75 14.01 4.96 14.92 5.36L14.75 4.55C14.36 3.07 13.59 2.75 12.55 2.75H11.46C10.41 2.75 9.63001 3.06 9.25001 4.6L9.09001 5.36C10 4.96 10.98 4.75 12 4.75Z" fill="#353535"/>
</svg>
