<svg width="24" height="24" viewBox="0 0 24 24" fill="none" xmlns="http://www.w3.org/2000/svg">
<path d="M15.0301 11.52C14.7901 11.52 14.5501 11.4 14.4101 11.19L11.2101 6.41C11.1001 6.24 11.0601 6.04 11.1001 5.85C11.1401 5.66 11.2501 5.47999 11.4201 5.36999L17.0801 1.57998C17.5201 1.27998 18.0501 1.17999 18.5701 1.27999C19.0901 1.37999 19.5401 1.67999 19.8401 2.11999L21.6601 4.82998C22.2701 5.73998 22.0301 6.97999 21.1101 7.58999L15.4601 11.38C15.3201 11.48 15.1801 11.52 15.0301 11.52ZM12.8801 6.20001L15.2401 9.73001L20.2701 6.35998C20.5001 6.20998 20.5601 5.89999 20.4001 5.67999L18.5801 2.97C18.5101 2.86 18.4001 2.79001 18.2701 2.76001C18.1401 2.73001 18.0101 2.75998 17.9001 2.82998L12.8801 6.20001Z" fill="#353535"/>
<path d="M9.94022 14.24C9.70022 14.24 9.46022 14.12 9.32022 13.91L6.76022 10.09C6.53022 9.75002 6.62022 9.28001 6.97022 9.05001L11.7502 5.85003C11.9202 5.74003 12.1202 5.70001 12.3102 5.74001C12.5102 5.78001 12.6802 5.89002 12.7902 6.06002L15.3502 9.88003C15.5802 10.22 15.4902 10.69 15.1402 10.92L10.3602 14.12C10.2302 14.2 10.0802 14.24 9.94022 14.24ZM8.42022 9.88003L10.1402 12.45L13.6702 10.09L11.9502 7.51003L8.42022 9.88003Z" fill="#353535"/>
<path d="M5.2799 16.82C4.7199 16.82 4.1599 16.55 3.8199 16.04L2.68991 14.36C2.42991 13.97 2.3399 13.51 2.4299 13.05C2.5199 12.59 2.7799 12.2 3.1699 11.94L7.11991 9.30001C7.45991 9.07001 7.92991 9.16003 8.15991 9.51003L10.3999 12.85C10.6299 13.19 10.5399 13.66 10.1899 13.89L6.2399 16.53C5.9499 16.72 5.6099 16.82 5.2799 16.82ZM7.32991 10.95L4.00991 13.17C3.89991 13.25 3.85991 13.4 3.93991 13.52L5.0699 15.2C5.1499 15.31 5.2999 15.35 5.4199 15.27L8.7399 13.05L7.32991 10.95Z" fill="#353535"/>
<path d="M7.56019 22.75C7.46019 22.75 7.3502 22.73 7.2502 22.68C6.8702 22.51 6.71019 22.06 6.88019 21.69L11.3702 11.89C11.5402 11.51 11.9902 11.35 12.3602 11.52C12.7402 11.69 12.9002 12.14 12.7302 12.51L8.24019 22.31C8.11019 22.59 7.84019 22.75 7.56019 22.75Z" fill="#353535"/>
<path d="M16.44 22.75C16.15 22.75 15.88 22.59 15.76 22.31L11.32 12.51C11.15 12.13 11.32 11.69 11.69 11.52C12.06 11.35 12.51 11.52 12.68 11.89L17.12 21.69C17.29 22.07 17.12 22.51 16.75 22.68C16.65 22.73 16.55 22.75 16.44 22.75Z" fill="#353535"/>
</svg>
