<svg width="24" height="24" viewBox="0 0 24 24" fill="none" xmlns="http://www.w3.org/2000/svg">
<path d="M15.5 22.75H8.5C4.79 22.75 2.75 20.71 2.75 17V7C2.75 3.29 4.79 1.25 8.5 1.25H15.5C19.15 1.25 21.25 3.35 21.25 7V8C21.25 8.96 20.46 9.75 19.5 9.75C19.36 9.75 19.25 9.86 19.25 10V12.17C19.25 12.5 19.38 12.82 19.62 13.05L20.45 13.88C20.97 14.4 21.26 15.09 21.26 15.82V17C21.25 20.65 19.15 22.75 15.5 22.75ZM8.5 2.75C5.64 2.75 4.25 4.14 4.25 7V17C4.25 19.86 5.64 21.25 8.5 21.25H15.5C18.32 21.25 19.75 19.82 19.75 17V15.83C19.75 15.5 19.62 15.18 19.38 14.95L18.55 14.12C18.03 13.6 17.74 12.91 17.74 12.18V10C17.74 9.04 18.53 8.25 19.49 8.25C19.63 8.25 19.74 8.14 19.74 8V7C19.74 4.18 18.31 2.75 15.49 2.75H8.5Z" fill="#353535"/>
<path d="M16.01 22.72C15.6 22.72 15.26 22.39 15.26 21.98L15.23 18.99C15.23 18.3 14.66 17.75 13.98 17.75H9.97998C9.64998 17.75 9.32998 17.88 9.08998 18.12C8.85998 18.35 8.72998 18.67 8.72998 19L8.73998 21.97C8.73998 22.38 8.40998 22.72 7.98998 22.72C7.57998 22.72 7.23998 22.39 7.23998 21.97L7.22998 19C7.22998 18.26 7.50998 17.57 8.02998 17.05C8.54998 16.53 9.23998 16.24 9.97998 16.24H13.99C15.5 16.24 16.73 17.47 16.74 18.97L16.77 21.95C16.77 22.38 16.43 22.72 16.01 22.72C16.02 22.72 16.01 22.72 16.01 22.72Z" fill="#353535"/>
<path d="M8.94004 5.69999H8.93004C8.51004 5.68999 8.18004 5.34999 8.19004 4.92999L8.24004 2.03999C8.25004 1.62999 8.58004 1.29999 8.99004 1.29999H9.00004C9.41004 1.30999 9.74004 1.64999 9.74004 2.05999L9.69004 4.95999C9.68004 5.36999 9.35004 5.69999 8.94004 5.69999Z" fill="#353535"/>
<path d="M11.9399 5.7H11.9299C11.5199 5.69 11.1899 5.35 11.1899 4.94L11.2399 2.05C11.2499 1.64 11.5799 1.31 11.9899 1.31H11.9999C12.4099 1.32 12.7399 1.66 12.7399 2.07L12.6899 4.96C12.6799 5.37 12.3499 5.7 11.9399 5.7Z" fill="#353535"/>
<path d="M14.9399 5.67003H14.9299C14.5199 5.66003 14.1899 5.32003 14.1899 4.91003L14.2399 2.02003C14.2499 1.61003 14.5799 1.28003 14.9899 1.28003H14.9999C15.4099 1.29003 15.7399 1.63003 15.7399 2.04003L15.6899 4.93003C15.6799 5.34003 15.3499 5.67003 14.9399 5.67003Z" fill="#353535"/>
</svg>
