<svg width="24" height="24" viewBox="0 0 24 24" fill="none" xmlns="http://www.w3.org/2000/svg">
<path d="M15.5 22.75H8.5C4.79 22.75 2.75 20.71 2.75 17V7C2.75 3.29 4.79 1.25 8.5 1.25H15.5C19.15 1.25 21.25 3.35 21.25 7V8C21.25 8.96 20.46 9.75 19.5 9.75C19.36 9.75 19.25 9.86 19.25 10V12.17C19.25 12.5 19.38 12.82 19.62 13.05L20.45 13.88C20.97 14.4 21.26 15.09 21.26 15.82V17C21.25 20.65 19.15 22.75 15.5 22.75ZM8.5 2.75C5.64 2.75 4.25 4.14 4.25 7V17C4.25 19.86 5.64 21.25 8.5 21.25H15.5C18.32 21.25 19.75 19.82 19.75 17V15.83C19.75 15.5 19.62 15.18 19.38 14.95L18.55 14.12C18.03 13.6 17.74 12.91 17.74 12.18V10C17.74 9.04 18.53 8.25 19.49 8.25C19.63 8.25 19.74 8.14 19.74 8V7C19.74 4.18 18.31 2.75 15.49 2.75H8.5Z" fill="#353535"/>
<path d="M16.01 22.72C15.6 22.72 15.26 22.39 15.26 21.98L15.23 18.99C15.23 18.3 14.66 17.75 13.98 17.75H9.97998C9.64998 17.75 9.32998 17.88 9.08998 18.12C8.85998 18.35 8.72998 18.67 8.72998 19L8.73998 21.97C8.73998 22.38 8.40998 22.72 7.98998 22.72C7.57998 22.72 7.23998 22.39 7.23998 21.97L7.22998 19C7.22998 18.26 7.50998 17.57 8.02998 17.05C8.54998 16.53 9.23998 16.24 9.97998 16.24H13.99C15.5 16.24 16.73 17.47 16.74 18.97L16.77 21.95C16.77 22.38 16.43 22.72 16.01 22.72C16.02 22.72 16.01 22.72 16.01 22.72Z" fill="#353535"/>
<path d="M13.97 8.53003H7.96997C7.55997 8.53003 7.21997 8.19003 7.21997 7.78003C7.21997 7.37003 7.55997 7.03003 7.96997 7.03003H13.97C14.38 7.03003 14.72 7.37003 14.72 7.78003C14.72 8.19003 14.39 8.53003 13.97 8.53003Z" fill="#353535"/>
</svg>
