<svg width="24" height="24" viewBox="0 0 24 24" fill="none" xmlns="http://www.w3.org/2000/svg">
<path d="M12.11 22.72H5.89C3.16 22.72 1.25 20.81 1.25 18.08V10.31C1.25 7.57998 3.16 5.66998 5.89 5.66998H9.72C10.94 5.66998 12.14 6.16998 13 7.02998L15.39 9.40998C16.26 10.28 16.75 11.47 16.75 12.69V18.08C16.75 20.81 14.84 22.72 12.11 22.72ZM5.89 7.16998C3.98 7.16998 2.75 8.39998 2.75 10.31V18.08C2.75 19.99 3.98 21.22 5.89 21.22H12.11C14.02 21.22 15.25 19.99 15.25 18.08V12.69C15.25 11.86 14.91 11.06 14.33 10.47L11.94 8.08998C11.35 7.49998 10.54 7.16998 9.72 7.16998H5.89Z" fill="#353535"/>
<path d="M18.11 18.28H16C15.59 18.28 15.25 17.94 15.25 17.53V12.69C15.25 11.86 14.91 11.06 14.33 10.47L11.94 8.08997C11.35 7.49997 10.54 7.16997 9.72 7.16997H8C7.59 7.16997 7.25 6.82997 7.25 6.41997V5.85997C7.25 3.12997 9.16 1.21997 11.89 1.21997H15.72C16.94 1.21997 18.14 1.71997 19 2.57997L21.39 4.96997C22.27 5.84997 22.75 7.00997 22.75 8.24997V13.64C22.75 16.37 20.84 18.28 18.11 18.28ZM16.75 16.78H18.11C20.02 16.78 21.25 15.55 21.25 13.64V8.24997C21.25 7.40997 20.92 6.61997 20.33 6.02997L17.94 3.63997C17.36 3.05997 16.55 2.71997 15.72 2.71997H11.89C10.05 2.71997 8.83 3.86997 8.75 5.66997H9.72C10.94 5.66997 12.14 6.16997 13 7.02997L15.39 9.40997C16.26 10.28 16.75 11.47 16.75 12.69V16.78Z" fill="#353535"/>
</svg>
