<svg width="24" height="24" viewBox="0 0 24 24" fill="none" xmlns="http://www.w3.org/2000/svg">
<path d="M11.9998 13.3C11.8698 13.3 11.7398 13.27 11.6198 13.2L2.78985 8.09002C2.42985 7.88002 2.30983 7.41999 2.51983 7.05999C2.72983 6.69999 3.17983 6.57997 3.54983 6.78997L11.9998 11.68L20.3998 6.82C20.7598 6.61 21.2198 6.74002 21.4298 7.09002C21.6398 7.45002 21.5098 7.90999 21.1598 8.11999L12.3899 13.2C12.2599 13.26 12.1298 13.3 11.9998 13.3Z" fill="#353535"/>
<path d="M12 22.36C11.59 22.36 11.25 22.02 11.25 21.61V12.54C11.25 12.13 11.59 11.79 12 11.79C12.41 11.79 12.75 12.13 12.75 12.54V21.61C12.75 22.02 12.41 22.36 12 22.36Z" fill="#353535"/>
<path d="M11.9999 22.75C11.1199 22.75 10.2399 22.56 9.55988 22.17L4.21988 19.21C2.76988 18.41 1.62988 16.48 1.62988 14.82V9.15997C1.62988 7.49997 2.76988 5.58001 4.21988 4.77001L9.55988 1.80999C10.9199 1.04999 13.0599 1.04999 14.4299 1.80999L19.7699 4.77001C21.2199 5.57001 22.3599 7.49997 22.3599 9.15997V14.82C22.3599 14.89 22.3599 14.99 22.3299 15.12C22.2699 15.38 22.0799 15.59 21.8299 15.67C21.5799 15.75 21.2999 15.7 21.0999 15.52C19.9599 14.52 18.1799 14.48 16.9599 15.45C16.1899 16.06 15.7399 16.99 15.7399 17.98C15.7399 18.57 15.8999 19.15 16.2099 19.65C16.2899 19.79 16.3699 19.9 16.4599 20C16.6099 20.17 16.6699 20.4 16.6299 20.62C16.5899 20.84 16.4499 21.04 16.2499 21.14L14.4199 22.15C13.7499 22.56 12.8799 22.75 11.9999 22.75ZM11.9999 2.74999C11.3799 2.74999 10.7499 2.88 10.2999 3.13L4.95987 6.09002C3.98987 6.63002 3.14987 8.05997 3.14987 9.15997V14.82C3.14987 15.92 3.99987 17.36 4.95987 17.89L10.2999 20.85C11.2099 21.36 12.7999 21.36 13.7099 20.85L14.8299 20.23C14.4599 19.56 14.2599 18.78 14.2599 17.98C14.2599 16.52 14.9099 15.17 16.0399 14.27C17.4099 13.18 19.3499 12.95 20.8699 13.61V9.15002C20.8699 8.05002 20.0199 6.61001 19.0599 6.08001L13.7199 3.11999C13.2499 2.87999 12.6199 2.74999 11.9999 2.74999Z" fill="#353535"/>
<path d="M19 22.75C16.38 22.75 14.25 20.62 14.25 18C14.25 16.54 14.9 15.19 16.03 14.29C16.87 13.62 17.93 13.25 19 13.25C21.62 13.25 23.75 15.38 23.75 18C23.75 19.36 23.16 20.66 22.13 21.56C21.26 22.33 20.15 22.75 19 22.75ZM19 14.75C18.26 14.75 17.56 15 16.97 15.47C16.2 16.08 15.75 17.01 15.75 18C15.75 19.79 17.21 21.25 19 21.25C19.78 21.25 20.54 20.96 21.15 20.44C21.85 19.82 22.25 18.94 22.25 18C22.25 16.21 20.79 14.75 19 14.75Z" fill="#353535"/>
<path d="M17.9999 19.75C17.7499 19.75 17.4999 19.62 17.3599 19.39C17.1499 19.03 17.2599 18.57 17.6199 18.36L18.5099 17.83V16.75C18.5099 16.34 18.8499 16 19.2599 16C19.6699 16 20.0099 16.34 20.0099 16.75V18.25C20.0099 18.51 19.8699 18.76 19.6499 18.89L18.3999 19.64C18.2599 19.72 18.1299 19.75 17.9999 19.75Z" fill="#353535"/>
</svg>
