<svg width="24" height="24" viewBox="0 0 24 24" fill="none" xmlns="http://www.w3.org/2000/svg">
<path d="M15.0002 22.75C14.7302 22.75 14.4802 22.6 14.3502 22.37C14.2202 22.14 14.2202 21.85 14.3602 21.62L15.4102 19.87C15.6202 19.51 16.0802 19.4 16.4402 19.61C16.8002 19.82 16.9102 20.28 16.7002 20.64L16.4302 21.09C19.1902 20.44 21.2602 17.96 21.2602 15C21.2602 14.59 21.6002 14.25 22.0102 14.25C22.4202 14.25 22.7602 14.59 22.7602 15C22.7502 19.27 19.2702 22.75 15.0002 22.75Z" fill="#353535"/>
<path d="M2 9.75C1.59 9.75 1.25 9.41 1.25 9C1.25 4.73 4.73 1.25 9 1.25C9.27 1.25 9.51999 1.4 9.64999 1.63C9.77999 1.86 9.78 2.15 9.64 2.38L8.59 4.13C8.38 4.49001 7.92 4.60001 7.56 4.39001C7.2 4.18001 7.09 3.71999 7.3 3.35999L7.57001 2.90997C4.81001 3.55997 2.74001 6.04 2.74001 9C2.75001 9.41 2.41 9.75 2 9.75Z" fill="#353535"/>
<path d="M17.6799 7.49987C17.5499 7.49987 17.4199 7.4699 17.2999 7.3999L13.3299 5.09985C12.9699 4.88985 12.8499 4.42988 13.0599 4.06988C13.2699 3.70988 13.7299 3.58986 14.0799 3.79986L17.6799 5.87988L21.2499 3.80987C21.6099 3.59987 22.0699 3.72989 22.2699 4.07989C22.4799 4.43989 22.3499 4.89986 21.9999 5.10986L18.0499 7.38989C17.9399 7.45989 17.8099 7.49987 17.6799 7.49987Z" fill="#353535"/>
<path d="M17.6802 11.5699C17.2702 11.5699 16.9302 11.2299 16.9302 10.8199V6.73987C16.9302 6.32987 17.2702 5.98987 17.6802 5.98987C18.0902 5.98987 18.4302 6.32987 18.4302 6.73987V10.8199C18.4302 11.2399 18.0902 11.5699 17.6802 11.5699Z" fill="#353535"/>
<path d="M17.6799 11.7499C17.2199 11.7499 16.7499 11.6499 16.3799 11.4399L13.9799 10.1099C13.1999 9.67993 12.6099 8.66997 12.6099 7.77997V5.23993C12.6099 4.33993 13.1999 3.33997 13.9899 2.89997L16.3899 1.56995C17.1299 1.15995 18.2399 1.15995 18.9899 1.56995L21.3899 2.89997C22.1699 3.32997 22.7599 4.33992 22.7599 5.22992V7.76996C22.7599 8.66996 22.1699 9.66992 21.3899 10.0999L18.9899 11.4299C18.5999 11.6499 18.1399 11.7499 17.6799 11.7499ZM17.1099 2.86994L14.7099 4.19996C14.4099 4.36996 14.1099 4.87991 14.1099 5.21991V7.75995C14.1099 8.10995 14.4099 8.61997 14.7099 8.77997L17.1099 10.1199C17.3999 10.2799 17.9599 10.2799 18.2499 10.1199L20.6499 8.78992C20.9499 8.61992 21.2499 8.10996 21.2499 7.76996V5.22992C21.2499 4.87992 20.9499 4.36997 20.6499 4.20997L18.2499 2.87995C17.9599 2.70995 17.3899 2.70994 17.1099 2.86994Z" fill="#353535"/>
<path d="M6.32002 18.4999C6.19002 18.4999 6.06002 18.4699 5.94002 18.3999L1.97002 16.0998C1.61002 15.8898 1.49001 15.4299 1.70001 15.0699C1.91001 14.7099 2.37002 14.5899 2.72002 14.7999L6.32002 16.8799L9.89001 14.8099C10.25 14.5999 10.71 14.7299 10.91 15.0799C11.12 15.4399 10.99 15.8999 10.64 16.1099L6.69002 18.3899C6.58002 18.4599 6.45002 18.4999 6.32002 18.4999Z" fill="#353535"/>
<path d="M6.31982 22.5699C5.90982 22.5699 5.56982 22.2299 5.56982 21.8199V17.7399C5.56982 17.3299 5.90982 16.9899 6.31982 16.9899C6.72982 16.9899 7.06982 17.3299 7.06982 17.7399V21.8199C7.06982 22.2399 6.73982 22.5699 6.31982 22.5699Z" fill="#353535"/>
<path d="M6.32001 22.7499C5.86001 22.7499 5.39 22.6499 5.02 22.4399L2.62 21.1099C1.84 20.6799 1.25 19.67 1.25 18.78V16.2399C1.25 15.3399 1.84 14.3399 2.62 13.9099L5.02 12.58C5.76 12.17 6.88 12.17 7.62 12.58L10.02 13.9099C10.8 14.3399 11.39 15.3499 11.39 16.2399V18.78C11.39 19.68 10.8 20.6799 10.01 21.1199L7.61 22.45C7.25 22.65 6.79001 22.7499 6.32001 22.7499ZM5.75 13.8699L3.35001 15.2C3.05001 15.37 2.75 15.8799 2.75 16.2199V18.76C2.75 19.11 3.05001 19.62 3.35001 19.78L5.75 21.1099C6.04 21.2699 6.6 21.2699 6.89 21.1099L9.28999 19.78C9.58999 19.61 9.89 19.1 9.89 18.76V16.2199C9.89 15.8699 9.58999 15.36 9.28999 15.2L6.89 13.8599C6.61 13.7099 6.04 13.7099 5.75 13.8699Z" fill="#353535"/>
</svg>
