<svg width="24" height="24" viewBox="0 0 24 24" fill="none" xmlns="http://www.w3.org/2000/svg">
<path d="M19 8C20.6569 8 22 6.65685 22 5C22 3.34315 20.6569 2 19 2C17.3431 2 16 3.34315 16 5C16 6.65685 17.3431 8 19 8Z" fill="#353535"/>
<path d="M17.79 9.34C16.28 8.94 15.06 7.72 14.66 6.21C14.4 5.25 14.46 4.33 14.75 3.51C14.95 2.95 14.61 2.33 14.03 2.21C12.56 1.9 10.97 1.91 9.30997 2.36C5.52997 3.42 2.63997 6.69 2.09997 10.58C1.17997 17.2 6.78997 22.81 13.41 21.9C17.31 21.36 20.57 18.47 21.62 14.68C22.08 13.03 22.09 11.44 21.78 9.96C21.66 9.38 21.04 9.05 20.48 9.24C19.67 9.53 18.75 9.59 17.79 9.34Z" fill="#353535"/>
</svg>
