<svg width="24" height="24" viewBox="0 0 24 24" fill="none" xmlns="http://www.w3.org/2000/svg">
<path d="M11 22.75H9C3.57 22.75 1.25 20.43 1.25 15V9C1.25 3.57 3.57 1.25 9 1.25H15C20.43 1.25 22.75 3.57 22.75 9V10C22.75 10.41 22.41 10.75 22 10.75C21.59 10.75 21.25 10.41 21.25 10V9C21.25 4.39 19.61 2.75 15 2.75H9C4.39 2.75 2.75 4.39 2.75 9V15C2.75 19.61 4.39 21.25 9 21.25H11C11.41 21.25 11.75 21.59 11.75 22C11.75 22.41 11.41 22.75 11 22.75Z" fill="#353535"/>
<path d="M15.2701 22.7501C14.0601 22.7501 13.0801 21.7701 13.0801 20.5601C13.0801 19.3501 14.0601 18.3701 15.2701 18.3701C16.4801 18.3701 17.4601 19.3501 17.4601 20.5601C17.4601 21.7701 16.4801 22.7501 15.2701 22.7501ZM15.2701 19.8601C14.8901 19.8601 14.5801 20.1701 14.5801 20.5501C14.5801 20.9301 14.8901 21.2401 15.2701 21.2401C15.6501 21.2401 15.9601 20.9301 15.9601 20.5501C15.9601 20.1701 15.6501 19.8601 15.2701 19.8601Z" fill="#353535"/>
<path d="M16.71 21.31C16.3 21.31 15.96 20.97 15.96 20.56V14.74C15.96 13.83 16.52 13.09 17.4 12.86L20.29 12.07C21.19 11.82 21.75 12.06 22.07 12.3C22.38 12.54 22.75 13.0201 22.75 13.9501V19.5901C22.75 20.0001 22.41 20.3401 22 20.3401C21.59 20.3401 21.25 20.0001 21.25 19.5901V13.9501C21.25 13.6301 21.18 13.51 21.15 13.49C21.12 13.47 20.98 13.43 20.67 13.51L17.78 14.3C17.48 14.38 17.45 14.59 17.45 14.74V20.56C17.46 20.97 17.12 21.31 16.71 21.31Z" fill="#353535"/>
<path d="M20.5601 21.7902C19.3501 21.7902 18.3701 20.8102 18.3701 19.6002C18.3701 18.3902 19.3501 17.4102 20.5601 17.4102C21.7701 17.4102 22.7501 18.3902 22.7501 19.6002C22.7501 20.8102 21.7701 21.7902 20.5601 21.7902ZM20.5601 18.9002C20.1801 18.9002 19.8701 19.2102 19.8701 19.5902C19.8701 19.9702 20.1801 20.2802 20.5601 20.2802C20.9401 20.2802 21.2501 19.9702 21.2501 19.5902C21.2501 19.2102 20.9401 18.9002 20.5601 18.9002Z" fill="#353535"/>
<path d="M16.7101 17.1801C16.3801 17.1801 16.0801 16.9601 15.9901 16.6301C15.8801 16.2301 16.1201 15.8201 16.5201 15.7101L21.8101 14.2701C22.2101 14.1601 22.6201 14.4001 22.7301 14.8001C22.8401 15.2001 22.6001 15.6101 22.2001 15.7201L16.9101 17.1601C16.8401 17.1701 16.7701 17.1801 16.7101 17.1801Z" fill="#353535"/>
</svg>
