<svg width="24" height="24" viewBox="0 0 24 24" fill="none" xmlns="http://www.w3.org/2000/svg">
<path d="M6.27991 22.75C4.14991 22.75 2.40991 21.01 2.40991 18.88C2.40991 16.75 4.14991 15.01 6.27991 15.01C8.40991 15.01 10.1499 16.75 10.1499 18.88C10.1499 21.01 8.40991 22.75 6.27991 22.75ZM6.27991 16.51C4.96991 16.51 3.90991 17.57 3.90991 18.88C3.90991 20.19 4.96991 21.25 6.27991 21.25C7.58991 21.25 8.64991 20.19 8.64991 18.88C8.64991 17.57 7.58991 16.51 6.27991 16.51Z" fill="#353535"/>
<path d="M9.3999 19.6299C8.9899 19.6299 8.6499 19.2899 8.6499 18.8799V6.29989C8.6499 4.71989 9.5999 3.47989 11.1199 3.06989L17.3599 1.36989C18.6299 1.01989 19.6999 1.14989 20.4499 1.72989C21.2099 2.30989 21.5899 3.27989 21.5899 4.60989V16.8099C21.5899 17.2199 21.2499 17.5599 20.8399 17.5599C20.4299 17.5599 20.0899 17.2199 20.0899 16.8099V4.59989C20.0899 4.01989 19.9899 3.25989 19.5399 2.91989C19.0499 2.53989 18.2099 2.68989 17.7499 2.81989L11.5099 4.51989C10.6399 4.75989 10.1499 5.40989 10.1499 6.30989V18.8899C10.1499 19.2899 9.8099 19.6299 9.3999 19.6299Z" fill="#353535"/>
<path d="M17.7201 20.6699C15.5901 20.6699 13.8501 18.9299 13.8501 16.7999C13.8501 14.6699 15.5901 12.9299 17.7201 12.9299C19.8501 12.9299 21.5901 14.6699 21.5901 16.7999C21.5901 18.9299 19.8501 20.6699 17.7201 20.6699ZM17.7201 14.4299C16.4101 14.4299 15.3501 15.4899 15.3501 16.7999C15.3501 18.1099 16.4101 19.1699 17.7201 19.1699C19.0301 19.1699 20.0901 18.1099 20.0901 16.7999C20.0901 15.4899 19.0301 14.4299 17.7201 14.4299Z" fill="#353535"/>
<path d="M9.40005 10.27C9.07005 10.27 8.77005 10.05 8.68005 9.72003C8.57005 9.32003 8.80005 8.90003 9.20005 8.79003L20.64 5.67003C21.04 5.56003 21.45 5.80003 21.56 6.20003C21.67 6.60003 21.43 7.01003 21.03 7.12003L9.60005 10.24C9.53005 10.26 9.46005 10.27 9.40005 10.27Z" fill="#353535"/>
</svg>
