<svg width="24" height="24" viewBox="0 0 24 24" fill="none" xmlns="http://www.w3.org/2000/svg">
<path d="M11.97 22.75C6.04997 22.75 1.21997 17.93 1.21997 12C1.21997 6.07 6.04997 1.25 11.97 1.25C17.89 1.25 22.72 6.07 22.72 12C22.72 17.93 17.9 22.75 11.97 22.75ZM11.97 2.75C6.86997 2.75 2.71997 6.9 2.71997 12C2.71997 17.1 6.86997 21.25 11.97 21.25C17.07 21.25 21.22 17.1 21.22 12C21.22 6.9 17.07 2.75 11.97 2.75Z" fill="#353535"/>
<path d="M10.01 15.95H8.71C7.79 15.95 7.25 15.42 7.25 14.53V9.47005C7.25 8.58005 7.8 8.05005 8.71 8.05005H10C10.92 8.05005 11.46 8.58005 11.46 9.47005V14.53C11.47 15.42 10.92 15.95 10.01 15.95ZM8.75 14.45H9.97V9.55005H8.76L8.75 14.45Z" fill="#353535"/>
<path d="M15.29 15.95H14C13.08 15.95 12.54 15.42 12.54 14.53V9.47005C12.54 8.58005 13.09 8.05005 14 8.05005H15.29C16.21 8.05005 16.75 8.58005 16.75 9.47005V14.53C16.75 15.42 16.2 15.95 15.29 15.95ZM14.03 14.45H15.25V9.55005H14.04L14.03 14.45Z" fill="#353535"/>
</svg>
