<svg width="24" height="24" viewBox="0 0 24 24" fill="none" xmlns="http://www.w3.org/2000/svg">
<path d="M15 22.75H9C3.57 22.75 1.25 20.43 1.25 15V9C1.25 3.57 3.57 1.25 9 1.25H15C20.43 1.25 22.75 3.57 22.75 9V15C22.75 20.43 20.43 22.75 15 22.75ZM9 2.75C4.39 2.75 2.75 4.39 2.75 9V15C2.75 19.61 4.39 21.25 9 21.25H15C19.61 21.25 21.25 19.61 21.25 15V9C21.25 4.39 19.61 2.75 15 2.75H9Z" fill="#353535"/>
<path d="M21.48 17.8601H2.52002C2.11002 17.8601 1.77002 17.5201 1.77002 17.1101C1.77002 16.7001 2.11002 16.3601 2.52002 16.3601H21.48C21.89 16.3601 22.23 16.7001 22.23 17.1101C22.23 17.5201 21.9 17.8601 21.48 17.8601Z" fill="#353535"/>
<path d="M21.48 7.86011H2.52002C2.11002 7.86011 1.77002 7.52011 1.77002 7.11011C1.77002 6.70011 2.10002 6.36011 2.52002 6.36011H21.48C21.89 6.36011 22.23 6.70011 22.23 7.11011C22.23 7.52011 21.9 7.86011 21.48 7.86011Z" fill="#353535"/>
<path d="M6.96997 22.2101C6.55997 22.2101 6.21997 21.8701 6.21997 21.4601V17.1101C6.21997 16.7001 6.55997 16.3601 6.96997 16.3601C7.37997 16.3601 7.71997 16.7001 7.71997 17.1101V21.4601C7.71997 21.8801 7.37997 22.2101 6.96997 22.2101Z" fill="#353535"/>
<path d="M12 22.7201C11.59 22.7201 11.25 22.3801 11.25 21.9701V17.1101C11.25 16.7001 11.59 16.3601 12 16.3601C12.41 16.3601 12.75 16.7001 12.75 17.1101V21.9701C12.75 22.3801 12.41 22.7201 12 22.7201Z" fill="#353535"/>
<path d="M16.97 22.2701C16.56 22.2701 16.22 21.9301 16.22 21.5201V17.1101C16.22 16.7001 16.56 16.3601 16.97 16.3601C17.38 16.3601 17.72 16.7001 17.72 17.1101V21.5201C17.72 21.9401 17.38 22.2701 16.97 22.2701Z" fill="#353535"/>
<path d="M6.96997 7.21011C6.55997 7.21011 6.21997 6.87011 6.21997 6.46011V2.11011C6.21997 1.70011 6.55997 1.36011 6.96997 1.36011C7.37997 1.36011 7.71997 1.70011 7.71997 2.11011V6.46011C7.71997 6.88011 7.37997 7.21011 6.96997 7.21011Z" fill="#353535"/>
<path d="M12 7.72011C11.59 7.72011 11.25 7.38011 11.25 6.97011V2.11011C11.25 1.70011 11.59 1.36011 12 1.36011C12.41 1.36011 12.75 1.70011 12.75 2.11011V6.97011C12.75 7.38011 12.41 7.72011 12 7.72011Z" fill="#353535"/>
<path d="M12 18.78C11.59 18.78 11.25 18.44 11.25 18.03V7.03003C11.25 6.62003 11.59 6.28003 12 6.28003C12.41 6.28003 12.75 6.62003 12.75 7.03003V18.03C12.75 18.44 12.41 18.78 12 18.78Z" fill="#353535"/>
<path d="M16.97 7.27011C16.56 7.27011 16.22 6.93011 16.22 6.52011V2.11011C16.22 1.70011 16.56 1.36011 16.97 1.36011C17.38 1.36011 17.72 1.70011 17.72 2.11011V6.52011C17.72 6.94011 17.38 7.27011 16.97 7.27011Z" fill="#353535"/>
</svg>
