<svg width="24" height="24" viewBox="0 0 24 24" fill="none" xmlns="http://www.w3.org/2000/svg">
<path d="M13.6 14.5101L13.07 13.9801L13.57 13.4801C13.86 13.1901 13.86 12.7101 13.57 12.4201C13.28 12.1301 12.8 12.1301 12.51 12.4201L12.01 12.9201L11.48 12.3901C11.19 12.1001 10.71 12.1001 10.42 12.3901C10.13 12.6801 10.13 13.1601 10.42 13.4501L10.95 13.9801L10.4 14.5301C10.11 14.8201 10.11 15.3001 10.4 15.5901C10.55 15.7401 10.74 15.8101 10.93 15.8101C11.12 15.8101 11.31 15.7401 11.46 15.5901L12.01 15.0401L12.54 15.5701C12.69 15.7201 12.88 15.7901 13.07 15.7901C13.26 15.7901 13.45 15.7201 13.6 15.5701C13.89 15.2801 13.89 14.8101 13.6 14.5101Z" fill="#353535"/>
<path d="M21.09 6.98002C20.24 6.04002 18.83 5.57002 16.76 5.57002H16.52V5.53002C16.52 3.85002 16.52 1.77002 12.76 1.77002H11.24C7.48004 1.77002 7.48004 3.85002 7.48004 5.53002V5.57002H7.24004C5.17004 5.57002 3.75004 6.04002 2.91004 6.98002C1.92004 8.09002 1.95004 9.56002 2.05004 10.57L2.06004 10.64L2.12912 11.446C2.14232 11.5999 2.22586 11.7392 2.35558 11.8232C2.63927 12.0068 2.94109 12.1995 3.23004 12.36C3.37004 12.45 3.52004 12.53 3.67004 12.61C4.80004 13.23 6.01004 13.72 7.25004 14.06C7.28004 16.65 9.40004 18.75 12 18.75C14.62 18.75 16.75 16.62 16.75 14V13.96C18.01 13.58 19.22 13.05 20.35 12.39C20.41 12.36 20.45 12.33 20.5 12.3C20.8949 12.0854 21.3045 11.8045 21.6782 11.5395C21.7941 11.4573 21.869 11.3293 21.8847 11.1881L21.9 11.05L21.95 10.58C21.96 10.52 21.96 10.47 21.97 10.4C22.05 9.40002 22.03 8.02002 21.09 6.98002ZM8.91004 5.53002C8.91004 3.83002 8.91004 3.19002 11.24 3.19002H12.76C15.09 3.19002 15.09 3.83002 15.09 5.53002V5.57002H8.91004V5.53002ZM12 17.25C10.35 17.25 8.98004 16.01 8.78004 14.41C8.76004 14.28 8.75004 14.14 8.75004 14C8.75004 12.21 10.21 10.75 12 10.75C13.79 10.75 15.25 12.21 15.25 14C15.25 14.12 15.24 14.23 15.23 14.34V14.35C15.05 15.98 13.67 17.25 12 17.25Z" fill="#353535"/>
<path d="M21.0416 13.7311C21.2903 13.5929 21.6129 13.7931 21.587 14.0765L21.2316 17.9611C21.0216 19.9611 20.2016 22.0011 15.8016 22.0011H8.18156C3.78156 22.0011 2.96156 19.9611 2.76156 17.9711L2.41569 14.2678C2.38884 13.9802 2.69635 13.786 2.95156 13.9211C3.73156 14.3511 4.54156 14.7311 5.37156 15.0311C5.68156 15.1411 5.90156 15.4011 5.99156 15.7211C6.74156 18.3211 9.16156 20.2511 12.0016 20.2511C14.8916 20.2511 17.3316 18.2811 18.0416 15.5811C18.1216 15.2611 18.3416 15.0011 18.6516 14.8811C19.4916 14.5511 20.2916 14.1611 21.0416 13.7311Z" fill="#353535"/>
</svg>
