<svg width="24" height="24" viewBox="0 0 24 24" fill="none" xmlns="http://www.w3.org/2000/svg">
<path d="M13.89 2.8799L9.19999 2.1399C5.28999 1.5299 3.47999 2.8499 2.85999 6.7599L2.11999 11.4499C1.71999 14.0099 2.13999 15.6699 3.58999 16.6799C4.34999 17.2199 5.38999 17.5799 6.73999 17.7899L11.43 18.5299C15.34 19.1399 17.15 17.8199 17.77 13.9099L18.5 9.2199C18.62 8.4499 18.67 7.7599 18.63 7.1499C18.5 4.6499 17.03 3.3699 13.89 2.8799ZM8.23999 9.3499C7.06999 9.3499 6.11999 8.3999 6.11999 7.2399C6.11999 6.0699 7.06999 5.1199 8.23999 5.1199C9.39999 5.1199 10.35 6.0699 10.35 7.2399C10.35 8.3999 9.39999 9.3499 8.23999 9.3499Z" fill="#353535"/>
<path d="M20.5 13.4701L19 17.9801C17.75 21.7401 15.75 22.7401 11.99 21.4901L7.48001 19.9901C6.07001 19.5201 5.05001 18.9401 4.39001 18.2101C5.02001 18.4601 5.75001 18.6501 6.58001 18.7801L11.28 19.5201C11.92 19.6201 12.52 19.6701 13.08 19.6701C16.38 19.6701 18.15 17.8901 18.76 14.0601L19.49 9.37006C19.59 8.79006 19.63 8.28006 19.63 7.81006C21.15 9.06006 21.37 10.8401 20.5 13.4701Z" fill="#353535"/>
</svg>
