<svg width="24" height="24" viewBox="0 0 24 24" fill="none" xmlns="http://www.w3.org/2000/svg">
<path d="M12.6777 19.957C12.9524 20.0209 12.9776 20.3807 12.71 20.4699L11.13 20.9899C7.15998 22.2699 5.06997 21.1999 3.77998 17.2299L2.49997 13.2799C1.21997 9.30992 2.27997 7.20992 6.24997 5.92992L6.77397 5.75639C7.17684 5.62297 7.5689 6.02703 7.45451 6.43571C7.3978 6.63828 7.34326 6.84968 7.28997 7.06992L6.30997 11.2599C5.20997 15.9699 6.81997 18.5699 11.53 19.6899L12.6777 19.957Z" fill="#353535"/>
<path d="M17.1701 3.21001L15.5001 2.82001C12.1601 2.03001 10.1701 2.68001 9.00006 5.10001C8.70006 5.71001 8.46006 6.45001 8.26006 7.30001L7.28006 11.49C6.30006 15.67 7.59006 17.73 11.7601 18.72L13.4401 19.12C14.0201 19.26 14.5601 19.35 15.0601 19.39C18.1801 19.69 19.8401 18.23 20.6801 14.62L21.6601 10.44C22.6401 6.26001 21.3601 4.19001 17.1701 3.21001ZM15.2901 13.33C15.2001 13.67 14.9001 13.89 14.5601 13.89C14.5001 13.89 14.4401 13.88 14.3701 13.87L11.4601 13.13C11.0601 13.03 10.8201 12.62 10.9201 12.22C11.0201 11.82 11.4301 11.58 11.8301 11.68L14.7401 12.42C15.1501 12.52 15.3901 12.93 15.2901 13.33ZM18.2201 9.95001C18.1301 10.29 17.8301 10.51 17.4901 10.51C17.4301 10.51 17.3701 10.5 17.3001 10.49L12.4501 9.26001C12.0501 9.16001 11.8101 8.75001 11.9101 8.35001C12.0101 7.95001 12.4201 7.71001 12.8201 7.81001L17.6701 9.04001C18.0801 9.13001 18.3201 9.54001 18.2201 9.95001Z" fill="#353535"/>
</svg>
