<svg width="24" height="24" viewBox="0 0 24 24" fill="none" xmlns="http://www.w3.org/2000/svg">
<path d="M13.55 20.1599C13.29 20.2699 13.01 20.3699 12.71 20.4699L11.13 20.9899C7.15998 22.2699 5.06997 21.1999 3.77997 17.2299L2.49997 13.2799C1.21997 9.30992 2.27997 7.20992 6.24997 5.92992L7.78997 5.41992C7.59997 5.89992 7.43997 6.44992 7.28997 7.06992L6.30997 11.2599C5.20997 15.9699 6.81997 18.5699 11.53 19.6899L13.21 20.0899C13.32 20.1199 13.44 20.1399 13.55 20.1599Z" fill="#353535"/>
<path d="M17.1701 3.21001L15.5001 2.82001C12.1601 2.03001 10.1701 2.68001 9.00006 5.10001C8.70006 5.71001 8.46006 6.45001 8.26006 7.30001L7.28006 11.49C6.30006 15.67 7.59006 17.73 11.7601 18.72L13.4401 19.12C14.0201 19.26 14.5601 19.35 15.0601 19.39C18.1801 19.69 19.8401 18.23 20.6801 14.62L21.6601 10.44C22.6401 6.26001 21.3601 4.19001 17.1701 3.21001Z" fill="#353535"/>
</svg>
