<svg width="24" height="24" viewBox="0 0 24 24" fill="none" xmlns="http://www.w3.org/2000/svg">
<path d="M4.47018 12.17C4.28018 12.17 4.09018 12.1 3.94018 11.95L2.73018 10.74L1.52017 11.95C1.23017 12.24 0.750176 12.24 0.460176 11.95C0.170176 11.66 0.170176 11.18 0.460176 10.89L2.20017 9.15C2.49017 8.86 2.97018 8.86 3.26018 9.15L5.00018 10.89C5.29018 11.18 5.29018 11.66 5.00018 11.95C4.86018 12.1 4.66018 12.17 4.47018 12.17Z" fill="#353535"/>
<path d="M21.26 15.07C21.07 15.07 20.88 15 20.73 14.85L18.99 13.11C18.7 12.82 18.7 12.34 18.99 12.05C19.28 11.76 19.76 11.76 20.05 12.05L21.26 13.26L22.47 12.05C22.76 11.76 23.24 11.76 23.53 12.05C23.82 12.34 23.82 12.82 23.53 13.11L21.79 14.85C21.65 14.99 21.45 15.07 21.26 15.07Z" fill="#353535"/>
<path d="M21.2601 15.07C20.8501 15.07 20.5101 14.73 20.5101 14.32V12C20.5101 7.31 16.6901 3.48999 12.0001 3.48999C9.41005 3.48999 6.99005 4.64999 5.36005 6.67999C5.10005 6.99999 4.63005 7.04999 4.31005 6.79999C3.99005 6.53999 3.93006 6.07 4.19005 5.75C6.10005 3.36 8.95005 2 12.0001 2C17.5201 2 22.0101 6.49001 22.0101 12.01V14.33C22.0101 14.73 21.6801 15.07 21.2601 15.07Z" fill="#353535"/>
<path d="M12.0002 22.0099C6.48024 22.0099 1.99023 17.5199 1.99023 11.9999V9.67993C1.99023 9.26993 2.33023 8.92993 2.74023 8.92993C3.15023 8.92993 3.49023 9.26993 3.49023 9.67993V11.9999C3.49023 16.6899 7.31024 20.5099 12.0002 20.5099C14.5902 20.5099 17.0102 19.3499 18.6402 17.3199C18.9002 16.9999 19.3702 16.94 19.6902 17.2C20.0102 17.46 20.0702 17.9299 19.8102 18.2499C17.9002 20.6399 15.0502 22.0099 12.0002 22.0099Z" fill="#353535"/>
<path d="M13.38 12.75H9C8.59 12.75 8.25 12.41 8.25 12V8.5C8.25 8.09 8.59 7.75 9 7.75H13.38C14.71 7.75 15.88 8.92 15.88 10.25C15.88 11.63 14.75 12.75 13.38 12.75ZM9.75 11.25H13.37C13.92 11.25 14.37 10.8 14.37 10.25C14.37 9.8 13.92 9.25 13.37 9.25H9.75V11.25Z" fill="#353535"/>
<path d="M14 16.25H9C8.59 16.25 8.25 15.91 8.25 15.5V12C8.25 11.59 8.59 11.25 9 11.25H14C15.52 11.25 16.75 12.37 16.75 13.75C16.75 15.13 15.52 16.25 14 16.25ZM9.75 14.75H14C14.69 14.75 15.25 14.3 15.25 13.75C15.25 13.2 14.69 12.75 14 12.75H9.75V14.75Z" fill="#353535"/>
<path d="M11.7998 18C11.3898 18 11.0498 17.66 11.0498 17.25V15.5C11.0498 15.09 11.3898 14.75 11.7998 14.75C12.2098 14.75 12.5498 15.09 12.5498 15.5V17.25C12.5498 17.66 12.2098 18 11.7998 18Z" fill="#353535"/>
<path d="M11.7998 9.25C11.3898 9.25 11.0498 8.91 11.0498 8.5V6.75C11.0498 6.34 11.3898 6 11.7998 6C12.2098 6 12.5498 6.34 12.5498 6.75V8.5C12.5498 8.91 12.2098 9.25 11.7998 9.25Z" fill="#353535"/>
</svg>
