<svg width="24" height="24" viewBox="0 0 24 24" fill="none" xmlns="http://www.w3.org/2000/svg">
<path d="M10.8 22.1C10.51 22.1 10.22 22.05 9.95001 21.95C8.70001 21.54 7.90001 20.16 8.18001 18.88L8.67001 15.73C8.68001 15.66 8.68001 15.56 8.61001 15.48C8.56001 15.43 8.49001 15.4 8.41001 15.4H4.41001C3.43001 15.4 2.58001 14.99 2.08001 14.28C1.59001 13.59 1.49001 12.68 1.81001 11.8L4.20001 4.51999C4.57001 3.06999 6.12001 1.89999 7.72001 1.89999H11.52C12.08 1.89999 13.3 2.06999 13.95 2.71999L16.98 5.05999L16.06 6.24999L12.96 3.84999C12.71 3.59999 12.08 3.39999 11.52 3.39999H7.72001C6.82001 3.39999 5.85001 4.11999 5.65001 4.92999L3.23001 12.28C3.07001 12.72 3.10001 13.12 3.31001 13.41C3.53001 13.72 3.93001 13.9 4.42001 13.9H8.42001C8.94001 13.9 9.42001 14.12 9.75001 14.5C10.09 14.89 10.24 15.41 10.16 15.95L9.66001 19.16C9.54001 19.72 9.92001 20.35 10.46 20.53C10.94 20.71 11.58 20.45 11.8 20.13L15.9 14.03L17.14 14.87L13.04 20.97C12.57 21.67 11.68 22.1 10.8 22.1Z" fill="#353535"/>
<path d="M19.62 18.1H18.62C16.77 18.1 15.87 17.23 15.87 15.45V5.65C15.87 3.87 16.77 3 18.62 3H19.62C21.47 3 22.37 3.87 22.37 5.65V15.45C22.37 17.23 21.47 18.1 19.62 18.1ZM18.62 4.5C17.53 4.5 17.37 4.76 17.37 5.65V15.45C17.37 16.34 17.53 16.6 18.62 16.6H19.62C20.71 16.6 20.87 16.34 20.87 15.45V5.65C20.87 4.76 20.71 4.5 19.62 4.5H18.62Z" fill="#353535"/>
</svg>
