<svg width="24" height="24" viewBox="0 0 24 24" fill="none" xmlns="http://www.w3.org/2000/svg">
<path d="M17.1999 22.75C15.6299 22.75 14.1299 22.08 13.0699 20.9C12.1499 19.87 11.6499 18.56 11.6499 17.2C11.6499 14.14 14.1399 11.65 17.1999 11.65C18.7399 11.65 20.1699 12.27 21.2399 13.39C21.2699 13.42 21.2999 13.46 21.3199 13.49C22.2599 14.55 22.7499 15.84 22.7499 17.19C22.7499 20.26 20.2599 22.75 17.1999 22.75ZM17.1999 13.15C14.9699 13.15 13.1499 14.97 13.1499 17.2C13.1499 18.19 13.5199 19.15 14.1899 19.9C14.9599 20.76 16.0599 21.25 17.1999 21.25C19.4299 21.25 21.2499 19.43 21.2499 17.2C21.2499 16.17 20.8599 15.19 20.1399 14.43C20.1199 14.41 20.0999 14.38 20.0799 14.36C19.3099 13.58 18.2899 13.15 17.1999 13.15Z" fill="#353535"/>
<path d="M18.4799 19.2899C18.2899 19.2899 18.0999 19.22 17.9499 19.07L15.4099 16.53C15.1199 16.24 15.1199 15.7599 15.4099 15.4699C15.6999 15.1799 16.1799 15.1799 16.4699 15.4699L19.0099 18.01C19.2999 18.3 19.2999 18.78 19.0099 19.07C18.8699 19.21 18.6699 19.2899 18.4799 19.2899Z" fill="#353535"/>
<path d="M15.9198 19.32C15.7298 19.32 15.5399 19.2499 15.3899 19.0999C15.0999 18.8099 15.0999 18.3299 15.3899 18.0399L17.9298 15.5C18.2198 15.21 18.6998 15.21 18.9898 15.5C19.2798 15.79 19.2798 16.27 18.9898 16.56L16.4499 19.0999C16.2999 19.2399 16.1098 19.32 15.9198 19.32Z" fill="#353535"/>
<path d="M12 21.65C11.69 21.65 11.38 21.61 11.13 21.52C8.57 20.65 1.25 16.41 1.25 8.69C1.25 5.19 4.08 2.34998 7.56 2.34998C9.23 2.34998 10.83 3.02 12 4.19C13.17 3.02 14.78 2.34998 16.44 2.34998C19.92 2.34998 22.75 5.19 22.75 8.69C22.75 10.64 22.28 12.51 21.35 14.26C21.24 14.47 21.03 14.62 20.79 14.65C20.55 14.68 20.31 14.6 20.14 14.42C19.36 13.6 18.31 13.14 17.19 13.14C14.96 13.14 13.14 14.96 13.14 17.19C13.14 18.18 13.51 19.14 14.18 19.89C14.34 20.07 14.4 20.31 14.35 20.54C14.3 20.77 14.14 20.97 13.93 21.07C13.53 21.25 13.17 21.4 12.84 21.51C12.61 21.61 12.31 21.65 12 21.65ZM7.56 3.84998C4.91 3.84998 2.75 6.02 2.75 8.69C2.75 15.53 9.31999 19.31 11.62 20.1C11.8 20.17 12.19 20.16 12.37 20.1C12.4 20.09 12.43 20.08 12.46 20.07C11.94 19.21 11.65 18.22 11.65 17.2C11.65 14.14 14.14 11.65 17.2 11.65C18.38 11.65 19.5 12.02 20.44 12.69C20.98 11.41 21.25 10.07 21.25 8.69C21.25 6.02 19.09 3.84998 16.44 3.84998C14.94 3.84998 13.5 4.57003 12.6 5.78003C12.32 6.16003 11.68 6.16003 11.4 5.78003C10.5 4.57003 9.06 3.84998 7.56 3.84998Z" fill="#353535"/>
</svg>
