<svg width="24" height="24" viewBox="0 0 24 24" fill="none" xmlns="http://www.w3.org/2000/svg">
<path d="M12 21.65C11.78 21.65 11.45 21.63 11.14 21.52C7.32 20.21 1.25 15.57 1.25 8.69C1.25 5.19 4.08 2.34998 7.56 2.34998C9.25 2.34998 10.83 3.01 12 4.19C13.17 3.01 14.75 2.34998 16.44 2.34998C19.92 2.34998 22.75 5.19 22.75 8.69C22.75 9.9 22.57 11.09 22.21 12.23C22.09 12.62 21.66 12.85 21.27 12.72C20.87 12.6 20.66 12.17 20.78 11.78C21.09 10.79 21.25 9.75001 21.25 8.70001C21.25 6.03001 19.09 3.85999 16.44 3.85999C14.92 3.85999 13.51 4.56998 12.6 5.78998C12.32 6.16998 11.68 6.16998 11.4 5.78998C10.48 4.55998 9.08 3.85999 7.56 3.85999C4.91 3.85999 2.75 6.03001 2.75 8.70001C2.75 15.54 9.32 19.33 11.63 20.12C11.69 20.14 11.83 20.17 12 20.17C12.41 20.17 12.75 20.51 12.75 20.92C12.75 21.33 12.41 21.65 12 21.65Z" fill="#353535"/>
<path d="M15.8201 22.7501C15.4401 22.7501 15.0801 22.6101 14.8201 22.3501C14.5101 22.0401 14.3701 21.5901 14.4401 21.1201L14.6301 19.7701C14.6801 19.4201 14.8901 19.0001 15.1401 18.7501L18.6801 15.2101C19.1601 14.7301 19.6301 14.4801 20.1401 14.4301C20.7701 14.3701 21.3801 14.6301 21.9601 15.2101C22.5401 15.7901 22.8001 16.4001 22.7401 17.0301C22.6901 17.5301 22.4301 18.0101 21.9601 18.4901L18.4201 22.0301C18.1701 22.2801 17.7601 22.4901 17.4101 22.5401L16.0601 22.7301C15.9701 22.7401 15.9001 22.7501 15.8201 22.7501ZM20.3101 15.9201C20.3001 15.9201 20.2901 15.9201 20.2801 15.9201C20.1401 15.9301 19.9501 16.0501 19.7401 16.2701L16.2001 19.8101C16.1701 19.8401 16.1201 19.9401 16.1201 19.9801L15.9401 21.2301L17.1901 21.0501C17.2301 21.0401 17.3301 20.9901 17.3601 20.9601L20.9001 17.4201C21.1101 17.2101 21.2401 17.0201 21.2501 16.8801C21.2701 16.6801 21.0701 16.4401 20.9001 16.2701C20.7401 16.1101 20.5101 15.9201 20.3101 15.9201Z" fill="#353535"/>
<path d="M20.9201 19.2201C20.8501 19.2201 20.7801 19.2101 20.7201 19.1901C19.4001 18.8201 18.3501 17.7701 17.9801 16.4501C17.8701 16.0501 18.1001 15.6401 18.5001 15.5301C18.9001 15.4201 19.3101 15.6501 19.4301 16.0501C19.6601 16.8701 20.3101 17.5201 21.1301 17.7501C21.5301 17.8601 21.7601 18.2801 21.6501 18.6701C21.5501 19.0001 21.2501 19.2201 20.9201 19.2201Z" fill="#353535"/>
</svg>
