<svg width="24" height="24" viewBox="0 0 24 24" fill="none" xmlns="http://www.w3.org/2000/svg">
<path d="M6.10999 18.25C5.92999 18.25 5.73998 18.18 5.59998 18.05C3.61998 16.19 1.25 13.06 1.25 8.69C1.25 5.19 4.08 2.34998 7.56 2.34998C9.25 2.34998 10.83 3.01 12 4.19C13.17 3.01 14.75 2.34998 16.44 2.34998C17.7 2.34998 18.92 2.72999 19.97 3.42999C20.31 3.65999 20.4 4.12997 20.17 4.46997C19.94 4.80997 19.47 4.89998 19.13 4.66998C18.34 4.12998 17.41 3.84003 16.45 3.84003C14.93 3.84003 13.52 4.55003 12.61 5.78003C12.33 6.16003 11.69 6.16003 11.41 5.78003C10.49 4.55003 9.09001 3.84003 7.57001 3.84003C4.92001 3.84003 2.76001 6.00999 2.76001 8.67999C2.76001 12.52 4.87001 15.29 6.64001 16.95C6.94001 17.23 6.95999 17.71 6.67999 18.01C6.50999 18.17 6.30999 18.25 6.10999 18.25Z" fill="#353535"/>
<path d="M11.9999 21.65C11.6899 21.65 11.3899 21.61 11.1399 21.52C10.3899 21.26 9.49991 20.84 8.63991 20.33C8.27991 20.12 8.1699 19.66 8.3799 19.3C8.5899 18.95 9.04987 18.83 9.40987 19.04C10.1899 19.5 10.9799 19.88 11.6299 20.1C11.8099 20.16 12.1999 20.16 12.3799 20.1C14.6799 19.31 21.2599 15.52 21.2599 8.67998C21.2599 8.17998 21.1799 7.68996 21.0399 7.21996C20.9199 6.81996 21.1299 6.40002 21.5299 6.28002C21.9299 6.16002 22.3499 6.38001 22.4699 6.77001C22.6599 7.39001 22.7599 8.02998 22.7599 8.67998C22.7599 15.56 16.6899 20.2 12.8699 21.51C12.6099 21.61 12.3099 21.65 11.9999 21.65Z" fill="#353535"/>
<path d="M1.99997 22.75C1.80997 22.75 1.61994 22.68 1.46994 22.53C1.17994 22.24 1.17994 21.7599 1.46994 21.4699L21.4699 1.46994C21.7599 1.17994 22.24 1.17994 22.53 1.46994C22.82 1.75994 22.82 2.24 22.53 2.53L2.53 22.53C2.38 22.68 2.18997 22.75 1.99997 22.75Z" fill="#353535"/>
</svg>
