<svg width="24" height="24" viewBox="0 0 24 24" fill="none" xmlns="http://www.w3.org/2000/svg">
<path d="M9.94978 22.75H7.77979C7.38979 22.75 6.60979 22.6299 6.15979 22.1899L4.45979 20.88L5.37978 19.6899L7.14979 21.06C7.27979 21.17 7.54979 21.25 7.77979 21.25H9.94978C10.3198 21.25 10.7398 20.94 10.8198 20.62L12.2098 16.39C12.2498 16.29 12.2798 16.14 12.2098 16.03C12.1498 15.94 12.0098 15.89 11.8398 15.89H9.54979C9.15979 15.89 8.79979 15.72 8.53979 15.43C8.27979 15.13 8.16979 14.7499 8.22979 14.3399L8.51978 12.5C8.55978 12.33 8.43979 12.1199 8.27979 12.0699C8.14979 12.0199 7.92978 12.11 7.87978 12.18L5.52979 15.67L4.27979 14.8299L6.61979 11.3399C7.05979 10.6799 8.01979 10.38 8.75979 10.66C9.60979 10.94 10.1698 11.9 9.96979 12.78L9.71979 14.38H11.8098C12.4798 14.38 13.0598 14.66 13.4098 15.16C13.7498 15.64 13.8198 16.27 13.5998 16.87L12.2298 21.03C12.0298 21.97 11.0098 22.75 9.94978 22.75Z" fill="#353535"/>
<path d="M3.71976 22.12H3.14977C1.58977 22.12 1.25977 21.12 1.25977 20.28V14.6801C1.25977 13.8401 1.58977 12.84 3.14977 12.84H3.71976C5.27976 12.84 5.60976 13.8401 5.60976 14.6801V20.28C5.60976 21.12 5.27976 22.12 3.71976 22.12ZM2.78976 20.58C2.79976 20.58 2.89976 20.62 3.13976 20.62H3.70976C3.96976 20.62 4.05977 20.5799 4.07977 20.5699C4.07977 20.5599 4.10976 20.49 4.10976 20.28V14.6801C4.10976 14.4701 4.07976 14.39 4.06976 14.38C4.06976 14.4 3.96976 14.34 3.71976 14.34H3.14977C2.88977 14.34 2.79976 14.38 2.77976 14.39C2.77976 14.4 2.74976 14.4701 2.74976 14.6801V20.28C2.74976 20.49 2.77976 20.57 2.78976 20.58Z" fill="#353535"/>
<path d="M15.8102 13.4399C15.6102 13.4399 15.4102 13.41 15.2202 13.34C14.3702 13.06 13.8102 12.1 14.0102 11.22L14.2602 9.62H12.1702C11.5002 9.62 10.9202 9.33997 10.5702 8.83997C10.2302 8.35997 10.1602 7.73 10.3802 7.13L11.7502 2.96997C11.9802 2.02997 13.0102 1.25 14.0602 1.25H16.2302C16.6202 1.25 17.4002 1.37006 17.8502 1.81006L19.5502 3.12L18.6302 4.31006L16.8602 2.93994C16.7302 2.82994 16.4602 2.75 16.2302 2.75H14.0602C13.6902 2.75 13.2702 3.06 13.1902 3.38L11.8002 7.60999C11.7602 7.70999 11.7302 7.85997 11.8002 7.96997C11.8602 8.05997 12.0002 8.10999 12.1702 8.10999H14.4602C14.8502 8.10999 15.2102 8.27995 15.4702 8.56995C15.7302 8.86995 15.8402 9.25003 15.7802 9.66003L15.4902 11.5C15.4502 11.67 15.5702 11.8801 15.7302 11.9301C15.8702 11.9801 16.0802 11.8999 16.1302 11.8199L18.4802 8.32996L19.7302 9.17004L17.3902 12.66C17.0302 13.14 16.4102 13.4399 15.8102 13.4399Z" fill="#353535"/>
<path d="M20.8599 11.16H20.2899C18.7299 11.16 18.3999 10.1599 18.3999 9.31995V3.71997C18.3999 2.87997 18.7299 1.88 20.2899 1.88H20.8599C22.4199 1.88 22.7499 2.87997 22.7499 3.71997V9.31995C22.7499 10.1599 22.4199 11.16 20.8599 11.16ZM19.9299 9.62C19.9399 9.62 20.0399 9.66003 20.2799 9.66003H20.8499C21.1099 9.66003 21.1999 9.61999 21.2199 9.60999C21.2199 9.59999 21.2499 9.52995 21.2499 9.31995V3.71997C21.2499 3.50997 21.2199 3.44004 21.2099 3.42004C21.2199 3.46004 21.1099 3.38 20.8599 3.38H20.2899C20.0299 3.38 19.9399 3.42005 19.9199 3.43005C19.9199 3.44005 19.8899 3.50997 19.8899 3.71997V9.31995C19.8899 9.52995 19.9199 9.6 19.9299 9.62Z" fill="#353535"/>
</svg>
