<svg width="24" height="24" viewBox="0 0 24 24" fill="none" xmlns="http://www.w3.org/2000/svg">
<path d="M12.0099 22.75C11.3799 22.75 10.7499 22.54 10.2599 22.12L8.67988 20.76C8.51988 20.62 8.11989 20.48 7.90989 20.48H6.17988C4.69988 20.48 3.49989 19.28 3.49989 17.8V16.09C3.49989 15.88 3.35989 15.49 3.21989 15.33L1.86988 13.74C1.04988 12.77 1.04988 11.24 1.86988 10.27L3.21989 8.68005C3.35989 8.52005 3.49989 8.13004 3.49989 7.92004V6.20996C3.49989 4.72996 4.69988 3.53002 6.17988 3.53002H7.90989C8.11989 3.53002 8.51988 3.38 8.67988 3.25L10.2599 1.89001C11.2399 1.05001 12.7699 1.05001 13.7499 1.89001L15.3299 3.25C15.4899 3.39 15.8899 3.53002 16.0999 3.53002H17.7999C19.2799 3.53002 20.4799 4.72996 20.4799 6.20996V7.91003C20.4799 8.12003 20.6299 8.52005 20.7699 8.68005L22.1199 10.26C22.9599 11.24 22.9599 12.77 22.1199 13.75L20.7699 15.33C20.6299 15.49 20.4899 15.89 20.4899 16.1V17.8C20.4899 19.28 19.2899 20.48 17.8099 20.48H16.1099C15.8999 20.48 15.4999 20.63 15.3399 20.76L13.7599 22.12C13.2599 22.54 12.6299 22.75 12.0099 22.75ZM6.17988 5.02001C5.52988 5.02001 4.99989 5.54995 4.99989 6.19995V7.91003C4.99989 8.48003 4.72988 9.21001 4.36988 9.64001L3.01988 11.23C2.66988 11.64 2.66988 12.35 3.01988 12.76L4.36988 14.35C4.73988 14.79 5.0099 15.52 5.0099 16.08V17.79C5.0099 18.44 5.53989 18.97 6.18989 18.97H7.9199C8.4999 18.97 9.2299 19.24 9.6699 19.62L11.2499 20.98C11.6599 21.33 12.3799 21.33 12.7899 20.98L14.3699 19.62C14.8099 19.25 15.5399 18.97 16.1199 18.97H17.8199C18.4699 18.97 18.9999 18.44 18.9999 17.79V16.09C18.9999 15.51 19.2699 14.78 19.6499 14.34L20.9999 12.76C21.3499 12.35 21.3499 11.63 20.9999 11.22L19.6499 9.64001C19.2799 9.20001 18.9999 8.47001 18.9999 7.89001V6.18994C18.9999 5.53994 18.4699 5.01 17.8199 5.01H16.1199C15.5499 5.01 14.8099 4.73998 14.3699 4.35998L12.7899 3C12.3799 2.65 11.6599 2.65 11.2499 3L9.6699 4.35998C9.2299 4.72998 8.4999 5.01 7.9199 5.01H6.17988V5.02001Z" fill="#353535"/>
<path d="M13.9998 16.97H12.2198C11.7998 16.97 11.1697 16.84 10.7997 16.47L9.41977 15.41L10.3398 14.22L11.7898 15.3399C11.8898 15.4099 12.0698 15.4599 12.2198 15.4599H13.9998C14.2398 15.4599 14.5297 15.25 14.5797 15.04L15.7198 11.5699C15.7498 11.4799 15.7497 11.42 15.7397 11.4C15.7197 11.37 15.6497 11.3399 15.5497 11.3399H13.6797C13.3197 11.3399 12.9898 11.19 12.7498 10.92C12.5198 10.65 12.4097 10.29 12.4597 9.92002L12.6998 8.41001C12.7198 8.33001 12.6598 8.22994 12.5998 8.20994C12.5398 8.19994 12.4498 8.21998 12.4198 8.24998L10.5098 11.0899L9.25977 10.25L11.1797 7.4C11.5797 6.8 12.4198 6.54002 13.0998 6.79002C13.8598 7.04002 14.3497 7.90003 14.1797 8.68003L13.9998 9.81993H15.5497C16.1397 9.81993 16.6598 10.07 16.9698 10.51C17.2698 10.94 17.3397 11.5 17.1497 12.03L16.0298 15.43C15.8198 16.29 14.9298 16.97 13.9998 16.97Z" fill="#353535"/>
<path d="M8.90024 16.46H8.43024C6.96024 16.46 6.74023 15.4299 6.74023 14.8199V10.24C6.74023 9.62999 6.96024 8.59998 8.43024 8.59998H8.90024C10.3702 8.59998 10.5902 9.62999 10.5902 10.24V14.8199C10.5902 15.4299 10.3702 16.46 8.90024 16.46ZM8.26025 14.95C8.30025 14.96 8.36025 14.96 8.44025 14.96H8.91025C8.99025 14.96 9.05024 14.96 9.09024 14.95C9.09024 14.92 9.10025 14.8799 9.10025 14.8199V10.24C9.10025 10.18 9.10024 10.14 9.09024 10.11C9.05024 10.1 8.99025 10.1 8.91025 10.1H8.44025C8.36025 10.1 8.30025 10.1 8.26025 10.11C8.26025 10.14 8.25024 10.18 8.25024 10.24V14.8199C8.25024 14.8799 8.25025 14.92 8.26025 14.95Z" fill="#353535"/>
</svg>
