<svg width="24" height="24" viewBox="0 0 24 24" fill="none" xmlns="http://www.w3.org/2000/svg">
<path d="M14.2298 16.11H12.2498C11.7898 16.11 11.1198 15.97 10.7298 15.58L9.18979 14.39L10.1098 13.2L11.7198 14.45C11.8398 14.54 12.0598 14.6 12.2498 14.6H14.2298C14.5298 14.6 14.8898 14.34 14.9598 14.08L16.2198 10.23C16.2498 10.15 16.2798 10.04 16.2298 9.95996C16.1898 9.89996 16.0798 9.85999 15.9498 9.85999H13.8698C13.4998 9.85999 13.1498 9.70005 12.8998 9.42005C12.6598 9.14005 12.5498 8.76001 12.5998 8.38001L12.8598 6.70996C12.8898 6.57996 12.7998 6.43002 12.6898 6.39002C12.5998 6.36002 12.4498 6.40996 12.4098 6.45996L10.2798 9.63001L9.02979 8.79004L11.1598 5.62C11.5798 4.99 12.4698 4.69997 13.1898 4.96997C13.9998 5.23997 14.5198 6.13998 14.3398 6.97998L14.1298 8.34998H15.9498C16.5798 8.34998 17.1298 8.61997 17.4598 9.08997C17.7798 9.54997 17.8498 10.14 17.6498 10.71L16.4098 14.49C16.1798 15.38 15.2198 16.11 14.2298 16.11Z" fill="#353535"/>
<path d="M8.56 15.54H8.03999C6.47999 15.54 6.25 14.45 6.25 13.8V8.70996C6.25 8.05996 6.47999 6.96997 8.03999 6.96997H8.56C10.12 6.96997 10.35 8.05996 10.35 8.70996V13.8C10.35 14.45 10.12 15.54 8.56 15.54ZM7.78 14.03C7.81 14.03 7.88999 14.04 8.03999 14.04H8.56C8.72 14.04 8.81 14.02 8.84 14.01C8.84 13.99 8.85001 13.93 8.85001 13.8V8.70996C8.85001 8.57996 8.84 8.50999 8.83 8.48999C8.81 8.48999 8.73 8.47998 8.56 8.47998H8.03999C7.87999 8.47998 7.78999 8.50001 7.75999 8.51001C7.75999 8.53001 7.75 8.58997 7.75 8.71997V13.8101C7.75 13.9401 7.76 14.01 7.77 14.04C7.77 14.03 7.78 14.03 7.78 14.03Z" fill="#353535"/>
<path d="M12 22.75C11.3 22.75 10.59 22.48 10.06 21.95L8.35001 20.26C7.92001 19.84 7.35999 19.61 6.75999 19.61H6C3.93 19.61 2.25 17.94 2.25 15.89V4.97998C2.25 2.92998 3.93 1.26001 6 1.26001H18C20.07 1.26001 21.75 2.92998 21.75 4.97998V15.89C21.75 17.94 20.07 19.61 18 19.61H17.24C16.64 19.61 16.07 19.84 15.65 20.26L13.94 21.95C13.41 22.48 12.7 22.75 12 22.75ZM6 2.75C4.76 2.75 3.75 3.74997 3.75 4.96997V15.88C3.75 17.11 4.76 18.1 6 18.1H6.75999C7.75999 18.1 8.7 18.4899 9.41 19.1899L11.12 20.88C11.61 21.36 12.4 21.36 12.89 20.88L14.6 19.1899C15.31 18.4899 16.25 18.1 17.25 18.1H18C19.24 18.1 20.25 17.1 20.25 15.88V4.96997C20.25 3.73997 19.24 2.75 18 2.75H6Z" fill="#353535"/>
</svg>
