<svg width="24" height="24" viewBox="0 0 24 24" fill="none" xmlns="http://www.w3.org/2000/svg">
<path d="M10 14.75H6.2C2.78 14.75 1.25 13.22 1.25 9.80005V6.19995C1.25 2.77995 2.78 1.25 6.2 1.25H9.8C13.22 1.25 14.75 2.77995 14.75 6.19995V10C14.75 10.41 14.42 10.74 14.01 10.75C11.61 10.79 10.79 11.62 10.75 14.01C10.74 14.42 10.41 14.75 10 14.75ZM6.2 2.75C3.62 2.75 2.75 3.61995 2.75 6.19995V9.80005C2.75 12.38 3.62 13.25 6.2 13.25H9.29C9.53 10.81 10.81 9.54004 13.25 9.29004V6.19995C13.25 3.61995 12.38 2.75 9.8 2.75H6.2Z" fill="#353535"/>
<path d="M5.2 6.63002C4.97 6.63002 4.73 6.52007 4.59 6.31007C4.35 5.97007 4.43 5.50002 4.77 5.26002C5.55 4.71002 6.6 4.7 7.39 5.24C7.73 5.47 7.82 5.94004 7.59 6.28004C7.36 6.62004 6.89 6.70999 6.55 6.47999C6.28 6.29999 5.92001 6.3 5.65001 6.49C5.50001 6.59 5.35 6.63002 5.2 6.63002Z" fill="#353535"/>
<path d="M9.2 6.63002C8.97 6.63002 8.73 6.52007 8.59 6.31007C8.35 5.97007 8.43 5.50002 8.77 5.26002C9.55 4.71002 10.6 4.7 11.39 5.24C11.73 5.47 11.82 5.94004 11.59 6.28004C11.36 6.62004 10.89 6.70999 10.55 6.47999C10.28 6.29999 9.92001 6.3 9.65001 6.49C9.50001 6.59 9.35 6.63002 9.2 6.63002Z" fill="#353535"/>
<path d="M8.15981 12.17H5.83981C5.12981 12.17 4.5498 11.59 4.5498 10.88C4.5498 8.98 6.09981 7.43005 7.99981 7.43005C8.77981 7.43005 9.54981 7.69994 10.1598 8.18994C10.4798 8.44994 10.5398 8.91999 10.2798 9.23999C10.0198 9.55999 9.54981 9.60999 9.2298 9.35999C8.87981 9.07999 8.4598 8.93005 8.0098 8.93005C7.0098 8.93005 6.17981 9.69004 6.06981 10.67H8.1698C8.5798 10.67 8.9198 11.01 8.9198 11.42C8.9198 11.83 8.56981 12.17 8.15981 12.17Z" fill="#353535"/>
<path d="M17.8 22.75H14.2C10.78 22.75 9.25 21.22 9.25 17.8V14C9.31 10.81 10.81 9.31 13.99 9.25H17.8C21.22 9.25 22.75 10.78 22.75 14.2V17.8C22.75 21.22 21.22 22.75 17.8 22.75ZM14 10.75C11.62 10.79 10.79 11.62 10.75 14.01V17.8C10.75 20.38 11.62 21.25 14.2 21.25H17.8C20.38 21.25 21.25 20.38 21.25 17.8V14.2C21.25 11.62 20.38 10.75 17.8 10.75H14Z" fill="#353535"/>
<path d="M14.09 14.63C13.62 14.63 13.16 14.49 12.77 14.21C12.43 13.97 12.35 13.5001 12.59 13.1601C12.83 12.8201 13.3 12.74 13.64 12.98C13.91 13.17 14.27 13.17 14.54 12.99C14.88 12.76 15.35 12.84 15.58 13.19C15.81 13.53 15.73 14 15.38 14.23C14.99 14.5 14.54 14.63 14.09 14.63Z" fill="#353535"/>
<path d="M18.09 14.63C17.62 14.63 17.16 14.49 16.77 14.21C16.43 13.97 16.35 13.5001 16.59 13.1601C16.83 12.8201 17.3 12.74 17.64 12.98C17.91 13.17 18.27 13.17 18.54 12.99C18.88 12.76 19.35 12.84 19.58 13.19C19.81 13.53 19.73 14 19.38 14.23C18.99 14.5 18.54 14.63 18.09 14.63Z" fill="#353535"/>
<path d="M15.9998 20.17C14.0998 20.17 12.5498 18.62 12.5498 16.72C12.5498 16.01 13.1298 15.4301 13.8398 15.4301H18.1598C18.8698 15.4301 19.4498 16.01 19.4498 16.72C19.4498 18.62 17.8998 20.17 15.9998 20.17ZM14.0598 16.9301C14.1598 17.9101 14.9898 18.67 15.9998 18.67C17.0098 18.67 17.8298 17.9101 17.9398 16.9301H14.0598Z" fill="#353535"/>
</svg>
