<svg width="24" height="24" viewBox="0 0 24 24" fill="none" xmlns="http://www.w3.org/2000/svg">
<path d="M5.28 19.4C5.22 19.4 5.17 19.39 5.11 19.38C4.71 19.29 4.45 18.88 4.55 18.48L5.12 16.02C5.2 15.7 5.04 15.15 4.8 14.91L2.32 12.43C1.08 11.19 1.18 10.13 1.35 9.60999C1.52 9.08999 2.06 8.16999 3.78 7.87999L6.97 7.34999C7.27 7.28999 7.7 6.96999 7.83 6.69999L9.6 3.16999C10.4 1.55999 11.45 1.32999 12 1.32999C12.55 1.32999 13.6 1.56999 14.4 3.16999L16.16 6.68999C16.22 6.80999 16.35 6.94999 16.5 7.06999C16.83 7.31999 16.89 7.79999 16.63 8.11999C16.38 8.44999 15.91 8.50999 15.58 8.24999C15.34 8.06999 15.02 7.75999 14.82 7.35999L13.06 3.83999C12.75 3.20999 12.35 2.82999 12 2.82999C11.65 2.82999 11.25 3.20999 10.94 3.84999L9.17 7.36999C8.82 8.06999 7.98 8.68999 7.21 8.81999L4.03 9.34999C3.35 9.45999 2.89 9.72999 2.78 10.06C2.67 10.39 2.9 10.88 3.39 11.36L5.87 13.84C6.47 14.44 6.78 15.52 6.59 16.35L6.02 18.81C5.93 19.16 5.63 19.4 5.28 19.4Z" fill="#353535"/>
<path d="M17.66 22.67C17.13 22.67 16.45 22.5 15.6 22L12.61 20.23C12.3 20.05 11.7 20.05 11.4 20.23L8.4 22C8.05 22.21 7.58 22.09 7.37 21.74C7.16 21.38 7.28 20.92 7.63 20.71L10.62 18.94C11.4 18.48 12.58 18.48 13.36 18.94L16.35 20.71C17.22 21.23 17.77 21.23 17.98 21.08C18.19 20.93 18.34 20.4 18.12 19.42L17.41 16.35C17.22 15.52 17.53 14.45 18.13 13.84L20.61 11.36C21.1 10.87 21.32 10.39 21.22 10.06C21.11 9.72999 20.65 9.45999 19.97 9.34999C19.56 9.27999 19.29 8.89999 19.35 8.48999C19.42 8.07999 19.8 7.80999 20.21 7.86999C21.94 8.15999 22.48 9.07999 22.64 9.59999C22.8 10.12 22.9 11.18 21.67 12.42L19.2 14.9C18.96 15.14 18.81 15.68 18.88 16.01L19.59 19.08C20.05 21.08 19.34 21.95 18.88 22.29C18.63 22.47 18.23 22.67 17.66 22.67Z" fill="#353535"/>
<path d="M2 22.75C1.81 22.75 1.62 22.68 1.47 22.53C1.18 22.24 1.18 21.76 1.47 21.47L21.47 1.47C21.76 1.18 22.24 1.18 22.53 1.47C22.82 1.76 22.82 2.24 22.53 2.53L2.53 22.53C2.38 22.68 2.19 22.75 2 22.75Z" fill="#353535"/>
</svg>
