<svg width="24" height="24" viewBox="0 0 24 24" fill="none" xmlns="http://www.w3.org/2000/svg">
<path d="M18.6901 11.53C18.1201 11.38 17.4501 11.3 16.6501 11.3C15.5401 11.3 15.1301 11.57 14.5601 12C14.5301 12.02 14.5001 12.05 14.4701 12.08L13.5201 13.09C12.7201 13.93 11.2801 13.94 10.4801 13.08L9.53005 12.08C9.50005 12.05 9.47005 12.02 9.44005 12C8.87005 11.57 8.46005 11.3 7.35005 11.3C6.55005 11.3 5.88005 11.38 5.31005 11.53C2.93005 12.17 2.93005 14.06 2.93005 15.72V16.65C2.93005 19.16 2.93005 22 8.28005 22H15.7201C19.2701 22 21.0701 20.2 21.0701 16.65V15.72C21.0701 14.06 21.0701 12.17 18.6901 11.53ZM14.3301 18.4H9.67005C9.29005 18.4 8.98005 18.09 8.98005 17.7C8.98005 17.31 9.29005 17 9.67005 17H14.3301C14.7101 17 15.0201 17.31 15.0201 17.7C15.0201 18.09 14.7101 18.4 14.3301 18.4Z" fill="#353535"/>
<path d="M12.67 4.3L13.32 4.95C13.58 5.21 14.01 5.21 14.27 4.95C14.53 4.69 14.53 4.26 14.27 4L12.47 2.2C12.41 2.14 12.33 2.09 12.25 2.05C12.17 2.02 12.09 2 12 2C11.91 2 11.83 2.02 11.74 2.05C11.66 2.08 11.6 2.13 11.54 2.18C11.53 2.19 11.53 2.19 11.52 2.19L9.72002 4C9.46002 4.26 9.46002 4.69 9.72002 4.95C9.98002 5.21 10.41 5.21 10.67 4.95L11.32 4.3V6H12.67V4.3Z" fill="#353535"/>
<path d="M19.21 10.12C19.17 10.1 19.12 10.09 19.08 10.08H19.07C18.36 9.89 17.57 9.8 16.65 9.8C15.11 9.8 14.38 10.25 13.72 10.75C13.58 10.85 13.48 10.95 13.38 11.05L12.43 12.06C12.33 12.16 12.17 12.22 12 12.22C11.94 12.22 11.72 12.21 11.57 12.05L10.59 11.02C10.49 10.91 10.37 10.82 10.34 10.8C9.62004 10.25 8.89004 9.8 7.35004 9.8C6.43004 9.8 5.64004 9.89 4.92004 10.08C4.88004 10.09 4.83004 10.1 4.79004 10.12C4.80004 8.13 5.00004 6 9.21004 6H11.33V9.08C11.33 9.45 11.63 9.75 12 9.75C12.37 9.75 12.67 9.45 12.67 9.08V6H14.79C19 6 19.2 8.13 19.21 10.12Z" fill="#353535"/>
</svg>
