<svg width="24" height="24" viewBox="0 0 24 24" fill="none" xmlns="http://www.w3.org/2000/svg">
<path d="M5 13.5C4.06 13.5 3.19 13.83 2.5 14.38C1.58 15.11 1 16.24 1 17.5C1 19.71 2.79 21.5 5 21.5C6.01 21.5 6.93 21.12 7.64 20.5C8.47 19.77 9 18.7 9 17.5C9 15.29 7.21 13.5 5 13.5ZM6 17.75C6 18.01 5.86 18.26 5.64 18.39L4.39 19.14C4.27 19.22 4.13 19.25 4 19.25C3.75 19.25 3.5 19.12 3.36 18.89C3.15 18.53 3.26 18.07 3.62 17.86L4.51 17.33V16.25C4.51 15.84 4.85 15.5 5.26 15.5C5.67 15.5 6 15.84 6 16.25V17.75Z" fill="#353535"/>
<path d="M17.25 2.43005H7.75C4.9 2.43005 3 4.33005 3 7.18005V11.6401C3 11.9901 3.36 12.2401 3.7 12.1501C4.12 12.0501 4.55 12.0001 5 12.0001C7.86 12.0001 10.22 14.3201 10.48 17.1301C10.5 17.4101 10.73 17.6301 11 17.6301H11.55L15.78 20.4501C16.4 20.8701 17.25 20.4101 17.25 19.6501V17.6301C18.67 17.6301 19.86 17.1501 20.69 16.3301C21.52 15.4901 22 14.3001 22 12.8801V7.18005C22 4.33005 20.1 2.43005 17.25 2.43005ZM15.83 10.8101H9.17C8.78 10.8101 8.46 10.4901 8.46 10.1001C8.46 9.70005 8.78 9.38005 9.17 9.38005H15.83C16.22 9.38005 16.54 9.70005 16.54 10.1001C16.54 10.4901 16.22 10.8101 15.83 10.8101Z" fill="#353535"/>
</svg>
