<svg width="24" height="24" viewBox="0 0 24 24" fill="none" xmlns="http://www.w3.org/2000/svg">
<path d="M17 2.43005H7C4 2.43005 2 4.43005 2 7.43005V13.4301C2 16.4301 4 18.4301 7 18.4301H11L15.45 21.3901C16.11 21.8301 17 21.3601 17 20.5601V18.4301C20 18.4301 22 16.4301 22 13.4301V7.43005C22 4.43005 20 2.43005 17 2.43005ZM15.5 11.2501H8.5C8.09 11.2501 7.75 10.9101 7.75 10.5001C7.75 10.0901 8.09 9.75005 8.5 9.75005H15.5C15.91 9.75005 16.25 10.0901 16.25 10.5001C16.25 10.9101 15.91 11.2501 15.5 11.2501Z" fill="#353535"/>
</svg>
