<svg width="24" height="24" viewBox="0 0 24 24" fill="none" xmlns="http://www.w3.org/2000/svg">
<path d="M16.8199 2H7.17995C5.04995 2 3.31995 3.74 3.31995 5.86V19.95C3.31995 21.75 4.60995 22.51 6.18995 21.64L11.0699 18.93C11.5899 18.64 12.4299 18.64 12.9399 18.93L17.8199 21.64C19.3999 22.52 20.6899 21.76 20.6899 19.95V5.86C20.6799 3.74 18.9499 2 16.8199 2ZM14.4999 11.4H12.7499V13.21C12.7499 13.62 12.4099 13.96 11.9999 13.96C11.5899 13.96 11.2499 13.62 11.2499 13.21V11.4H9.49995C9.08995 11.4 8.74995 11.06 8.74995 10.65C8.74995 10.24 9.08995 9.9 9.49995 9.9H11.2499V8.21C11.2499 7.8 11.5899 7.46 11.9999 7.46C12.4099 7.46 12.7499 7.8 12.7499 8.21V9.9H14.4999C14.9099 9.9 15.2499 10.24 15.2499 10.65C15.2499 11.06 14.9099 11.4 14.4999 11.4Z" fill="#353535"/>
</svg>
