<svg width="24" height="24" viewBox="0 0 24 24" fill="none" xmlns="http://www.w3.org/2000/svg">
<path d="M20.1199 3.88L3.38995 20.61C3.33995 20.41 3.31995 20.19 3.31995 19.95V5.86C3.31995 3.74 5.04995 2 7.17995 2H16.8199C18.2199 2 19.4499 2.75 20.1199 3.88Z" fill="#353535"/>
<path d="M21.77 2.23C21.47 1.93 20.98 1.93 20.68 2.23L2.23 20.69C1.93 20.99 1.93 21.48 2.23 21.78C2.38 21.92 2.57 22 2.77 22C2.97 22 3.16 21.92 3.31 21.77L21.77 3.31C22.08 3.01 22.08 2.53 21.77 2.23Z" fill="#353535"/>
<path d="M19.29 7.71005L11.9 15.1001C11.44 15.5601 11.53 16.3301 12.09 16.6601L19.48 21.0901C20.15 21.4901 20.99 21.0101 20.99 20.2301V8.41005C21 7.52005 19.92 7.08005 19.29 7.71005Z" fill="#353535"/>
</svg>
