<svg width="24" height="24" viewBox="0 0 24 24" fill="none" xmlns="http://www.w3.org/2000/svg">
<path d="M16.8199 1.91003H7.17995C5.05995 1.91003 3.31995 3.65003 3.31995 5.77003V19.86C3.31995 21.66 4.60995 22.42 6.18995 21.55L11.0699 18.84C11.5899 18.55 12.4299 18.55 12.9399 18.84L17.8199 21.55C19.3999 22.43 20.6899 21.67 20.6899 19.86V5.77003C20.6799 3.65003 18.9499 1.91003 16.8199 1.91003ZM15.6199 9.03003L11.6199 13.03C11.4699 13.18 11.2799 13.25 11.0899 13.25C10.8999 13.25 10.7099 13.18 10.5599 13.03L9.05995 11.53C8.76995 11.24 8.76995 10.76 9.05995 10.47C9.34995 10.18 9.82995 10.18 10.1199 10.47L11.0899 11.44L14.5599 7.97003C14.8499 7.68003 15.3299 7.68003 15.6199 7.97003C15.9099 8.26003 15.9099 8.74003 15.6199 9.03003Z" fill="#353535"/>
</svg>
