<svg width="24" height="24" viewBox="0 0 24 24" fill="none" xmlns="http://www.w3.org/2000/svg">
<path d="M8.57999 22.55C8.35999 22.55 8.12999 22.51 7.91999 22.42C7.44999 22.22 7.08999 21.83 6.92999 21.34L6.48999 20.02C6.28999 19.42 6.46999 18.67 6.90999 18.22L9.17999 15.94C9.20999 15.91 9.24999 15.8 9.24999 15.75V13.28L4.68999 15.25C4.07999 15.51 3.45999 15.48 2.98999 15.17C2.51999 14.86 2.23999 14.3 2.23999 13.65V12.36C2.23999 11.38 2.93999 10.33 3.82999 9.98001L9.23999 7.64001V4.80001C9.23999 3.59001 10.09 2.20001 11.17 1.64001C11.69 1.38001 12.29 1.38001 12.8 1.64001C13.89 2.20001 14.74 3.58001 14.74 4.79001V7.63001L20.18 9.97001C21.07 10.35 21.75 11.37 21.75 12.36V13.65C21.75 14.31 21.48 14.86 21 15.17C20.52 15.48 19.91 15.51 19.3 15.26L14.74 13.29V15.76C14.74 15.8 14.78 15.9 14.81 15.93L17.09 18.22C17.53 18.66 17.71 19.43 17.51 20.02L17.07 21.34C16.9 21.83 16.54 22.22 16.06 22.41C15.59 22.6 15.07 22.58 14.62 22.36C14.57 22.33 14.52 22.3 14.47 22.26L12.14 20.3C12.06 20.23 11.9 20.24 11.83 20.3L9.49999 22.26C9.45999 22.3 9.40999 22.33 9.35999 22.35C9.11999 22.49 8.84999 22.55 8.57999 22.55ZM9.55999 11.64C9.78999 11.64 10.01 11.7 10.2 11.83C10.55 12.06 10.75 12.45 10.75 12.91V15.76C10.75 16.19 10.54 16.7 10.24 17L7.96999 19.28C7.92999 19.33 7.88999 19.48 7.90999 19.54L8.34999 20.87C8.37999 20.97 8.44999 21.01 8.48999 21.03C8.51999 21.04 8.56999 21.06 8.62999 21.04L10.87 19.15C11.5 18.61 12.49 18.61 13.12 19.15L15.35 21.03C15.42 21.04 15.47 21.03 15.5 21.02C15.54 21 15.62 20.96 15.65 20.86L16.09 19.54C16.11 19.47 16.07 19.32 16.03 19.28L13.76 17C13.46 16.72 13.24 16.2 13.24 15.76V12.91C13.24 12.46 13.43 12.07 13.77 11.84C14.11 11.61 14.55 11.58 14.97 11.76L19.89 13.88C20.04 13.94 20.14 13.94 20.17 13.92C20.2 13.9 20.24 13.81 20.24 13.65V12.36C20.24 11.98 19.92 11.49 19.58 11.35L14 8.94001C13.56 8.75001 13.25 8.27001 13.25 7.79001V4.79001C13.25 4.13001 12.73 3.28001 12.13 2.98001C12.05 2.94001 11.95 2.94001 11.86 2.98001C11.28 3.28001 10.75 4.15001 10.75 4.80001V7.80001C10.75 8.27001 10.44 8.76001 9.99999 8.95001L4.41999 11.36C4.06999 11.5 3.74999 11.99 3.74999 12.36V13.65C3.74999 13.81 3.78999 13.9 3.81999 13.92C3.84999 13.94 3.94999 13.94 4.09999 13.88L9.00999 11.76C9.18999 11.68 9.37999 11.64 9.55999 11.64Z" fill="#353535"/>
</svg>
