<svg width="24" height="24" viewBox="0 0 24 24" fill="none" xmlns="http://www.w3.org/2000/svg">
<path d="M20.0001 11.75H4.0001C3.7701 11.75 3.5601 11.65 3.4201 11.47C3.2801 11.3 3.2201 11.06 3.2701 10.84L4.4001 5.44002C4.7701 3.69002 5.5201 2.08002 8.4901 2.08002H15.5201C18.4901 2.08002 19.2401 3.70002 19.6101 5.44002L20.7401 10.85C20.7901 11.07 20.7301 11.3 20.5901 11.48C20.4401 11.65 20.2301 11.75 20.0001 11.75ZM4.9201 10.25H19.0701L18.1301 5.75002C17.8501 4.44002 17.5201 3.58002 15.5101 3.58002H8.4901C6.4801 3.58002 6.1501 4.44002 5.8701 5.75002L4.9201 10.25Z" fill="#353535"/>
<path d="M19.9601 22.75H18.0801C16.4601 22.75 16.1501 21.82 15.9501 21.21L15.7501 20.61C15.4901 19.85 15.4601 19.75 14.5601 19.75H9.44009C8.54009 19.75 8.48009 19.92 8.25009 20.61L8.05009 21.21C7.84009 21.83 7.54009 22.75 5.92009 22.75H4.04009C3.25009 22.75 2.49009 22.42 1.96009 21.84C1.44009 21.27 1.19009 20.51 1.26009 19.75L1.82009 13.66C1.97009 12.01 2.41009 10.25 5.62009 10.25H18.3801C21.5901 10.25 22.0201 12.01 22.1801 13.66L22.7401 19.75C22.8101 20.51 22.5601 21.27 22.0401 21.84C21.5101 22.42 20.7501 22.75 19.9601 22.75ZM9.44009 18.25H14.5601C16.3801 18.25 16.8101 19.06 17.1701 20.12L17.3801 20.74C17.5501 21.25 17.5501 21.26 18.0901 21.26H19.9701C20.3401 21.26 20.6901 21.11 20.9401 20.84C21.1801 20.58 21.2901 20.25 21.2601 19.9L20.7001 13.81C20.5701 12.46 20.4101 11.76 18.4001 11.76H5.62009C3.60009 11.76 3.44009 12.46 3.32009 13.81L2.76009 19.9C2.73009 20.25 2.84009 20.58 3.08009 20.84C3.32009 21.11 3.68009 21.26 4.05009 21.26H5.93009C6.47009 21.26 6.47009 21.25 6.64009 20.75L6.84009 20.14C7.09009 19.34 7.46009 18.25 9.44009 18.25Z" fill="#353535"/>
<path d="M4 8.75003H3C2.59 8.75003 2.25 8.41003 2.25 8.00003C2.25 7.59003 2.59 7.25003 3 7.25003H4C4.41 7.25003 4.75 7.59003 4.75 8.00003C4.75 8.41003 4.41 8.75003 4 8.75003Z" fill="#353535"/>
<path d="M21 8.75003H20C19.59 8.75003 19.25 8.41003 19.25 8.00003C19.25 7.59003 19.59 7.25003 20 7.25003H21C21.41 7.25003 21.75 7.59003 21.75 8.00003C21.75 8.41003 21.41 8.75003 21 8.75003Z" fill="#353535"/>
<path d="M12 5.75003C11.59 5.75003 11.25 5.41003 11.25 5.00003V3.00003C11.25 2.59003 11.59 2.25003 12 2.25003C12.41 2.25003 12.75 2.59003 12.75 3.00003V5.00003C12.75 5.41003 12.41 5.75003 12 5.75003Z" fill="#353535"/>
<path d="M13.5 5.75003H10.5C10.09 5.75003 9.75 5.41003 9.75 5.00003C9.75 4.59003 10.09 4.25003 10.5 4.25003H13.5C13.91 4.25003 14.25 4.59003 14.25 5.00003C14.25 5.41003 13.91 5.75003 13.5 5.75003Z" fill="#353535"/>
<path d="M9 15.75H6C5.59 15.75 5.25 15.41 5.25 15C5.25 14.59 5.59 14.25 6 14.25H9C9.41 14.25 9.75 14.59 9.75 15C9.75 15.41 9.41 15.75 9 15.75Z" fill="#353535"/>
<path d="M18 15.75H15C14.59 15.75 14.25 15.41 14.25 15C14.25 14.59 14.59 14.25 15 14.25H18C18.41 14.25 18.75 14.59 18.75 15C18.75 15.41 18.41 15.75 18 15.75Z" fill="#353535"/>
</svg>
