<svg width="24" height="24" viewBox="0 0 24 24" fill="none" xmlns="http://www.w3.org/2000/svg">
<path d="M17.39 15.67L13.35 12H10.64L6.59998 15.67C5.46998 16.69 5.09998 18.26 5.64998 19.68C6.19998 21.09 7.53998 22 9.04998 22H14.94C16.46 22 17.79 21.09 18.34 19.68C18.89 18.26 18.52 16.69 17.39 15.67ZM13.82 18.14H10.18C9.79998 18.14 9.49998 17.83 9.49998 17.46C9.49998 17.09 9.80998 16.78 10.18 16.78H13.82C14.2 16.78 14.5 17.09 14.5 17.46C14.5 17.83 14.19 18.14 13.82 18.14Z" fill="#353535"/>
<path d="M18.35 4.32C17.8 2.91 16.46 2 14.95 2H9.05004C7.54004 2 6.20004 2.91 5.65004 4.32C5.11004 5.74 5.48004 7.31 6.61004 8.33L10.65 12H13.36L17.4 8.33C18.52 7.31 18.89 5.74 18.35 4.32ZM13.82 7.23H10.18C9.80004 7.23 9.50004 6.92 9.50004 6.55C9.50004 6.18 9.81004 5.87 10.18 5.87H13.82C14.2 5.87 14.5 6.18 14.5 6.55C14.5 6.92 14.19 7.23 13.82 7.23Z" fill="#353535"/>
</svg>
