<svg width="24" height="24" viewBox="0 0 24 24" fill="none" xmlns="http://www.w3.org/2000/svg">
<path d="M1.99994 22.7499C1.80994 22.7499 1.61994 22.6799 1.46994 22.5299C1.17994 22.2399 1.17994 21.7599 1.46994 21.4699L21.4699 1.46994C21.7599 1.17994 22.2399 1.17994 22.5299 1.46994C22.8199 1.75994 22.8199 2.23994 22.5299 2.52994L2.52994 22.5299C2.37994 22.6799 2.18994 22.7499 1.99994 22.7499Z" fill="#353535"/>
<path d="M18.88 22.75C18.32 22.75 17.72 22.58 17.12 22.25L10.6 18.18C10.25 17.96 10.14 17.5 10.36 17.15C10.58 16.8 11.04 16.69 11.39 16.91L17.88 20.96C18.44 21.27 19 21.34 19.36 21.13C19.72 20.92 19.93 20.4 19.93 19.71V8.70996C19.93 8.29996 20.27 7.95996 20.68 7.95996C21.09 7.95996 21.43 8.29996 21.43 8.70996V19.71C21.43 20.94 20.95 21.93 20.12 22.42C19.75 22.64 19.33 22.75 18.88 22.75Z" fill="#353535"/>
<path d="M3.31995 20.7C2.90995 20.7 2.56995 20.36 2.56995 19.95V5.86C2.56995 3.32 4.63995 1.25 7.17995 1.25H16.8299C18.2199 1.25 19.5299 1.87 20.4099 2.96C20.6699 3.28 20.6199 3.75 20.2999 4.02C19.9799 4.28 19.5099 4.23 19.2499 3.91C18.6499 3.17 17.7699 2.75 16.8299 2.75H7.17995C5.46995 2.75 4.06995 4.15 4.06995 5.86V19.95C4.06995 20.36 3.72995 20.7 3.31995 20.7Z" fill="#353535"/>
</svg>
