<svg width="24" height="24" viewBox="0 0 24 24" fill="none" xmlns="http://www.w3.org/2000/svg">
<path d="M14.5 11.4H9.5C9.09 11.4 8.75 11.06 8.75 10.65C8.75 10.24 9.09 9.90002 9.5 9.90002H14.5C14.91 9.90002 15.25 10.24 15.25 10.65C15.25 11.06 14.91 11.4 14.5 11.4Z" fill="#353535"/>
<path d="M12 13.96C11.59 13.96 11.25 13.62 11.25 13.21V8.20996C11.25 7.79996 11.59 7.45996 12 7.45996C12.41 7.45996 12.75 7.79996 12.75 8.20996V13.21C12.75 13.62 12.41 13.96 12 13.96Z" fill="#353535"/>
<path d="M19.0699 22.75C18.5599 22.75 17.9999 22.6 17.4599 22.29L12.5799 19.58C12.2899 19.42 11.7199 19.42 11.4299 19.58L6.54995 22.29C5.55995 22.84 4.54995 22.9 3.77995 22.44C3.00995 21.99 2.56995 21.08 2.56995 19.95V5.86C2.56995 3.32 4.63995 1.25 7.17995 1.25H16.8299C19.3699 1.25 21.4399 3.32 21.4399 5.86V19.95C21.4399 21.08 20.9999 21.99 20.2299 22.44C19.8799 22.65 19.4799 22.75 19.0699 22.75ZM11.9999 17.96C12.4699 17.96 12.9299 18.06 13.2999 18.27L18.1799 20.98C18.6899 21.27 19.1599 21.33 19.4599 21.15C19.7599 20.97 19.9299 20.54 19.9299 19.95V5.86C19.9299 4.15 18.5299 2.75 16.8199 2.75H7.17995C5.46995 2.75 4.06995 4.15 4.06995 5.86V19.95C4.06995 20.54 4.23995 20.98 4.53995 21.15C4.83995 21.32 5.30995 21.27 5.81995 20.98L10.6999 18.27C11.0699 18.06 11.5299 17.96 11.9999 17.96Z" fill="#353535"/>
</svg>
