<svg width="24" height="24" viewBox="0 0 24 24" fill="none" xmlns="http://www.w3.org/2000/svg">
<path d="M17.45 17.2999C15.77 17.2999 14.22 16.5099 13.21 15.1199C12.97 14.7899 13.04 14.3199 13.37 14.0699C13.7 13.8199 14.17 13.8999 14.42 14.2299C15.15 15.2199 16.25 15.7899 17.45 15.7899C19.54 15.7899 21.25 14.0899 21.25 11.9899C21.25 9.88992 19.55 8.18992 17.45 8.18992C16.03 8.18992 14.69 8.94992 13.96 10.1599L11.31 14.5699C10.31 16.2399 8.48001 17.2699 6.54001 17.2699C3.62001 17.2699 1.24001 14.8899 1.24001 11.9699C1.24001 9.04992 3.62001 6.66992 6.54001 6.66992C8.22001 6.66992 9.77001 7.45992 10.78 8.84992C11.02 9.17992 10.95 9.64992 10.62 9.89992C10.28 10.1499 9.82001 10.0699 9.57001 9.73992C8.85001 8.76992 7.75001 8.19992 6.55001 8.19992C4.46001 8.19992 2.75001 9.89992 2.75001 11.9999C2.75001 14.0999 4.45001 15.7999 6.55001 15.7999C7.97001 15.7999 9.31001 15.0399 10.04 13.8299L12.69 9.41992C13.69 7.74992 15.52 6.71992 17.46 6.71992C20.38 6.71992 22.76 9.09992 22.76 12.0199C22.76 14.9399 20.37 17.2999 17.45 17.2999Z" fill="#353535"/>
<path d="M6.5 14C7.60457 14 8.5 13.1046 8.5 12C8.5 10.8954 7.60457 10 6.5 10C5.39543 10 4.5 10.8954 4.5 12C4.5 13.1046 5.39543 14 6.5 14Z" fill="#353535"/>
<path d="M17.5 14C18.6046 14 19.5 13.1046 19.5 12C19.5 10.8954 18.6046 10 17.5 10C16.3954 10 15.5 10.8954 15.5 12C15.5 13.1046 16.3954 14 17.5 14Z" fill="#353535"/>
</svg>
