<svg width="24" height="24" viewBox="0 0 24 24" fill="none" xmlns="http://www.w3.org/2000/svg">
<path d="M22 19V22H2V19C2 18.45 2.45 18 3 18H21C21.55 18 22 18.45 22 19Z" fill="#353535" stroke="#353535" stroke-width="1.5" stroke-miterlimit="10" stroke-linecap="round" stroke-linejoin="round"/>
<path d="M7 11H5V18H7V11Z" fill="#353535"/>
<path d="M11 11H9V18H11V11Z" fill="#353535"/>
<path d="M15 11H13V18H15V11Z" fill="#353535"/>
<path d="M19 11H17V18H19V11Z" fill="#353535"/>
<path d="M23 22.75H1C0.59 22.75 0.25 22.41 0.25 22C0.25 21.59 0.59 21.25 1 21.25H23C23.41 21.25 23.75 21.59 23.75 22C23.75 22.41 23.41 22.75 23 22.75Z" fill="#353535"/>
<path d="M21.37 5.74997L12.37 2.14997C12.17 2.06997 11.83 2.06997 11.63 2.14997L2.63 5.74997C2.28 5.88997 2 6.29997 2 6.67997V9.99997C2 10.55 2.45 11 3 11H21C21.55 11 22 10.55 22 9.99997V6.67997C22 6.29997 21.72 5.88997 21.37 5.74997ZM12 8.49997C11.17 8.49997 10.5 7.82997 10.5 6.99997C10.5 6.16997 11.17 5.49997 12 5.49997C12.83 5.49997 13.5 6.16997 13.5 6.99997C13.5 7.82997 12.83 8.49997 12 8.49997Z" fill="#353535"/>
</svg>
