<svg width="24" height="24" viewBox="0 0 24 24" fill="none" xmlns="http://www.w3.org/2000/svg">
<path d="M11.4001 2.35002L6.2501 7.50002C6.0501 7.70002 6.0501 8.01002 6.2501 8.21002L7.98011 9.94002C8.18011 10.14 8.4901 10.14 8.6901 9.94002L13.8401 4.79002C14.0401 4.59002 14.0401 4.28002 13.8401 4.08002L12.1101 2.35002C11.9101 2.16002 11.6001 2.16002 11.4001 2.35002Z" fill="#353535"/>
<path d="M15.3001 6.25999L6.2501 15.31C6.0501 15.51 6.0501 15.82 6.2501 16.02L7.98011 17.75C8.18011 17.95 8.4901 17.95 8.6901 17.75L17.7401 8.69999C17.9401 8.49998 17.9401 8.18998 17.7401 7.98998L16.0101 6.25999C15.8201 6.05999 15.5001 6.05999 15.3001 6.25999Z" fill="#353535"/>
<path d="M19.21 10.16L10.16 19.21C9.96001 19.41 9.96001 19.72 10.16 19.92L11.89 21.65C12.09 21.85 12.4 21.85 12.6 21.65L21.65 12.6C21.85 12.4 21.85 12.09 21.65 11.89L19.92 10.16C19.72 9.96001 19.4 9.96001 19.21 10.16Z" fill="#353535"/>
<path d="M4.08997 13.84L2.35996 12.11C2.15996 11.91 2.15996 11.6 2.35996 11.4L4.08997 9.67002C4.28997 9.47002 4.59996 9.47002 4.79996 9.67002L6.52997 11.4C6.72997 11.6 6.72997 11.91 6.52997 12.11L4.79996 13.84C4.59996 14.04 4.27997 14.04 4.08997 13.84Z" fill="#353535"/>
</svg>
