<svg width="24" height="24" viewBox="0 0 24 24" fill="none" xmlns="http://www.w3.org/2000/svg">
<path d="M17.1499 10C17.7022 10 18.1499 9.55228 18.1499 9C18.1499 8.44772 17.7022 8 17.1499 8C16.5976 8 16.1499 8.44772 16.1499 9C16.1499 9.55228 16.5976 10 17.1499 10Z" fill="#353535"/>
<path d="M17.1499 16C17.7022 16 18.1499 15.5523 18.1499 15C18.1499 14.4477 17.7022 14 17.1499 14C16.5976 14 16.1499 14.4477 16.1499 15C16.1499 15.5523 16.5976 16 17.1499 16Z" fill="#353535"/>
<path d="M19.75 13C20.3023 13 20.75 12.5523 20.75 12C20.75 11.4477 20.3023 11 19.75 11C19.1977 11 18.75 11.4477 18.75 12C18.75 12.5523 19.1977 13 19.75 13Z" fill="#353535"/>
<path d="M6.7998 10C7.35209 10 7.7998 9.55228 7.7998 9C7.7998 8.44772 7.35209 8 6.7998 8C6.24752 8 5.7998 8.44772 5.7998 9C5.7998 9.55228 6.24752 10 6.7998 10Z" fill="#353535"/>
<path d="M6.7998 16C7.35209 16 7.7998 15.5523 7.7998 15C7.7998 14.4477 7.35209 14 6.7998 14C6.24752 14 5.7998 14.4477 5.7998 15C5.7998 15.5523 6.24752 16 6.7998 16Z" fill="#353535"/>
<path d="M4.19995 13C4.75224 13 5.19995 12.5523 5.19995 12C5.19995 11.4477 4.75224 11 4.19995 11C3.64767 11 3.19995 11.4477 3.19995 12C3.19995 12.5523 3.64767 13 4.19995 13Z" fill="#353535"/>
<path d="M15.8999 6.19995C16.4522 6.19995 16.8999 5.75224 16.8999 5.19995C16.8999 4.64767 16.4522 4.19995 15.8999 4.19995C15.3476 4.19995 14.8999 4.64767 14.8999 5.19995C14.8999 5.75224 15.3476 6.19995 15.8999 6.19995Z" fill="#353535"/>
<path d="M8.09985 6.19995C8.65214 6.19995 9.09985 5.75224 9.09985 5.19995C9.09985 4.64767 8.65214 4.19995 8.09985 4.19995C7.54757 4.19995 7.09985 4.64767 7.09985 5.19995C7.09985 5.75224 7.54757 6.19995 8.09985 6.19995Z" fill="#353535"/>
<path d="M12.0498 7C12.6021 7 13.0498 6.55228 13.0498 6C13.0498 5.44772 12.6021 5 12.0498 5C11.4975 5 11.0498 5.44772 11.0498 6C11.0498 6.55228 11.4975 7 12.0498 7Z" fill="#353535"/>
<path d="M15.8999 20C16.4522 20 16.8999 19.5523 16.8999 19C16.8999 18.4477 16.4522 18 15.8999 18C15.3476 18 14.8999 18.4477 14.8999 19C14.8999 19.5523 15.3476 20 15.8999 20Z" fill="#353535"/>
<path d="M8.09985 20C8.65214 20 9.09985 19.5523 9.09985 19C9.09985 18.4477 8.65214 18 8.09985 18C7.54757 18 7.09985 18.4477 7.09985 19C7.09985 19.5523 7.54757 20 8.09985 20Z" fill="#353535"/>
<path d="M12.0498 19.2C12.6021 19.2 13.0498 18.7522 13.0498 18.2C13.0498 17.6477 12.6021 17.2 12.0498 17.2C11.4975 17.2 11.0498 17.6477 11.0498 18.2C11.0498 18.7522 11.4975 19.2 12.0498 19.2Z" fill="#353535"/>
<path d="M13.75 10.25C14.4404 10.25 15 9.69036 15 9C15 8.30964 14.4404 7.75 13.75 7.75C13.0596 7.75 12.5 8.30964 12.5 9C12.5 9.69036 13.0596 10.25 13.75 10.25Z" fill="#353535"/>
<path d="M10.25 10.25C10.9404 10.25 11.5 9.69036 11.5 9C11.5 8.30964 10.9404 7.75 10.25 7.75C9.55964 7.75 9 8.30964 9 9C9 9.69036 9.55964 10.25 10.25 10.25Z" fill="#353535"/>
<path d="M15.5 13.25C16.1904 13.25 16.75 12.6904 16.75 12C16.75 11.3096 16.1904 10.75 15.5 10.75C14.8096 10.75 14.25 11.3096 14.25 12C14.25 12.6904 14.8096 13.25 15.5 13.25Z" fill="#353535"/>
<path d="M8.5 13.25C9.19036 13.25 9.75 12.6904 9.75 12C9.75 11.3096 9.19036 10.75 8.5 10.75C7.80964 10.75 7.25 11.3096 7.25 12C7.25 12.6904 7.80964 13.25 8.5 13.25Z" fill="#353535"/>
<path d="M10.25 16.25C10.9404 16.25 11.5 15.6904 11.5 15C11.5 14.3096 10.9404 13.75 10.25 13.75C9.55964 13.75 9 14.3096 9 15C9 15.6904 9.55964 16.25 10.25 16.25Z" fill="#353535"/>
<path d="M13.75 16.25C14.4404 16.25 15 15.6904 15 15C15 14.3096 14.4404 13.75 13.75 13.75C13.0596 13.75 12.5 14.3096 12.5 15C12.5 15.6904 13.0596 16.25 13.75 16.25Z" fill="#353535"/>
<path d="M12.0001 3.32995C11.5101 3.32995 11.1201 2.93995 11.1201 2.44995C11.1201 1.95995 11.5101 1.56995 12.0001 1.56995C12.4901 1.56995 12.8801 1.95995 12.8801 2.44995C12.8801 2.93995 12.4901 3.32995 12.0001 3.32995Z" fill="#353535"/>
<path d="M17.25 3.59998C16.83 3.59998 16.49 3.25998 16.49 2.84998C16.49 2.43998 16.83 2.09998 17.24 2.09998C17.65 2.09998 18 2.43998 18 2.84998C18 3.25998 17.67 3.59998 17.25 3.59998Z" fill="#353535"/>
<path d="M6.75 3.59998C6.34 3.59998 6 3.25998 6 2.84998C6 2.43998 6.33 2.09998 6.75 2.09998H6.76001C7.17001 2.09998 7.51001 2.43998 7.51001 2.84998C7.51001 3.25998 7.17 3.59998 6.75 3.59998Z" fill="#353535"/>
<path d="M12.0001 22.38C11.5101 22.38 11.1201 21.99 11.1201 21.5C11.1201 21.01 11.5101 20.62 12.0001 20.62C12.4901 20.62 12.8801 21.01 12.8801 21.5C12.8801 21.99 12.4901 22.38 12.0001 22.38Z" fill="#353535"/>
<path d="M17.25 21.85C16.83 21.85 16.49 21.51 16.49 21.1C16.49 20.69 16.83 20.35 17.24 20.35C17.65 20.35 18 20.69 18 21.1C18 21.51 17.67 21.85 17.25 21.85Z" fill="#353535"/>
<path d="M6.75 21.85C6.34 21.85 6 21.51 6 21.1C6 20.69 6.33 20.35 6.75 20.35H6.76001C7.17001 20.35 7.51001 20.69 7.51001 21.1C7.51001 21.51 7.17 21.85 6.75 21.85Z" fill="#353535"/>
<path d="M1.5499 12.88C1.0699 12.88 0.669922 12.49 0.669922 12.01V12C0.669922 11.52 1.0599 11.12 1.5499 11.12C2.0399 11.12 2.4299 11.51 2.4299 12C2.4299 12.49 2.0299 12.88 1.5499 12.88Z" fill="#353535"/>
<path d="M3.75 17.75C3.34 17.75 3 17.42 3 17V16.99C3 16.58 3.34 16.24 3.75 16.24C4.16 16.24 4.5 16.58 4.5 16.99C4.5 17.4 4.16 17.75 3.75 17.75Z" fill="#353535"/>
<path d="M3.75 7.76001C3.34 7.76001 3 7.42001 3 7.01001C3 6.60001 3.34 6.26001 3.75 6.26001C4.16 6.26001 4.5 6.59001 4.5 7.00001V7.01001C4.5 7.42001 4.16 7.76001 3.75 7.76001Z" fill="#353535"/>
<path d="M22.5001 12.88C22.0201 12.88 21.6201 12.49 21.6201 12.01V12C21.6201 11.52 22.0101 11.12 22.5001 11.12C22.9901 11.12 23.3801 11.51 23.3801 12C23.3801 12.49 22.9801 12.88 22.5001 12.88Z" fill="#353535"/>
<path d="M20.3 17.75C19.89 17.75 19.55 17.42 19.55 17V16.99C19.55 16.58 19.89 16.24 20.3 16.24C20.71 16.24 21.05 16.58 21.05 16.99C21.05 17.4 20.71 17.75 20.3 17.75Z" fill="#353535"/>
<path d="M20.3 7.76001C19.89 7.76001 19.55 7.42001 19.55 7.01001C19.55 6.60001 19.89 6.26001 20.3 6.26001C20.71 6.26001 21.05 6.59001 21.05 7.01001V7.02001C21.05 7.42001 20.71 7.76001 20.3 7.76001Z" fill="#353535"/>
</svg>
