<svg width="24" height="24" viewBox="0 0 24 24" fill="none" xmlns="http://www.w3.org/2000/svg">
<path d="M12.0001 6.00005L6.4401 10.0001L3.1901 7.80004C2.6101 7.41004 2.60011 6.57006 3.17011 6.16006L7.00009 3.40005C7.34009 3.16005 7.80011 3.15006 8.14011 3.38006L12.0001 6.00005Z" fill="#353535"/>
<path d="M20.81 7.80003L17.56 10L12 6.00004L15.86 3.39005C16.21 3.16005 16.66 3.16004 17 3.41004L20.83 6.17005C21.4 6.57005 21.39 7.41003 20.81 7.80003Z" fill="#353535"/>
<path d="M11.9999 14L7.55992 17L4.99992 15.16L3.15992 13.84C2.59992 13.43 2.60991 12.59 3.17991 12.2L6.42991 10L11.9999 14Z" fill="#353535"/>
<path d="M20.81 12.2C21.39 12.59 21.4 13.43 20.83 13.84L18.99 15.16L16.43 17L11.99 14L17.55 10L20.81 12.2Z" fill="#353535"/>
<path d="M18.68 17.3401C18.81 17.2401 19 17.3401 19 17.5001V18.2301C19 18.6201 18.77 18.9701 18.42 19.1401L12.42 21.9101C12.15 22.0301 11.85 22.0301 11.58 21.9101L5.57999 19.1401C5.22999 18.9701 5 18.6201 5 18.2301V17.5001C5 17.3401 5.18001 17.2401 5.32001 17.3401L7.25 18.7301C7.42 18.8501 7.65001 18.8601 7.82001 18.7401L11.72 16.1001C11.89 15.9901 12.11 15.9901 12.28 16.1001L16.18 18.7401C16.35 18.8601 16.58 18.8501 16.75 18.7301L18.68 17.3401Z" fill="#353535"/>
</svg>
