<svg width="24" height="24" viewBox="0 0 24 24" fill="none" xmlns="http://www.w3.org/2000/svg">
<path d="M7.93005 5.47993L11.0601 8.60994C11.5801 9.12994 12.4301 9.12994 12.9501 8.60994L16.0801 5.47993C16.9201 4.63993 16.3301 3.18994 15.1301 3.18994H8.87006C7.68006 3.18994 7.08005 4.63993 7.93005 5.47993Z" fill="#353535"/>
<path d="M7.93005 18.52L11.0601 15.39C11.5801 14.87 12.4301 14.87 12.9501 15.39L16.0801 18.52C16.9201 19.36 16.3301 20.81 15.1301 20.81H8.87006C7.68006 20.81 7.08005 19.36 7.93005 18.52Z" fill="#353535"/>
<path d="M2.15994 11.43L4.44998 7.82996C4.80998 7.25996 5.60999 7.16995 6.08999 7.64995L9.68997 11.25C10.1 11.66 10.1 12.33 9.68997 12.74L6.08999 16.34C5.60999 16.82 4.81998 16.73 4.44998 16.16L2.15994 12.56C1.94994 12.22 1.94994 11.78 2.15994 11.43Z" fill="#353535"/>
<path d="M21.84 11.43L19.5499 7.82996C19.1899 7.25996 18.3899 7.16995 17.9099 7.64995L14.3099 11.25C13.8999 11.66 13.8999 12.33 14.3099 12.74L17.9099 16.34C18.3899 16.82 19.1799 16.73 19.5499 16.16L21.84 12.56C22.05 12.22 22.05 11.78 21.84 11.43Z" fill="#353535"/>
</svg>
