<svg width="24" height="24" viewBox="0 0 24 24" fill="none" xmlns="http://www.w3.org/2000/svg">
<path d="M9.28012 20.31C9.45012 20.79 8.93011 21.23 8.49011 20.97L5.34012 19.18C4.77012 18.85 4.42013 18.06 4.54013 17.42L5.48013 12.75C5.59013 12.2 6.35013 12.15 6.54013 12.67L9.28012 20.31Z" fill="#353535"/>
<path d="M18.66 19.18L15.5 20.98C15.06 21.23 14.54 20.8 14.71 20.32L17.46 12.61C17.65 12.09 18.41 12.14 18.52 12.69L19.47 17.42C19.58 18.06 19.23 18.85 18.66 19.18Z" fill="#353535"/>
<path d="M17.08 7.31995C17.32 7.61995 17.39 8.01995 17.26 8.37995L12.52 21.6299C12.35 22.1199 11.66 22.1199 11.49 21.6299L6.74999 8.38995C6.61999 8.02995 6.68999 7.62995 6.92999 7.32995L10.75 2.62995C11.44 1.79995 12.58 1.79995 13.28 2.62995L17.08 7.31995Z" fill="#353535"/>
</svg>
