<svg width="24" height="24" viewBox="0 0 24 24" fill="none" xmlns="http://www.w3.org/2000/svg">
<path d="M8.77011 14.43L10.3801 15.15C11.4101 15.61 12.5901 15.61 13.6301 15.15L15.2401 14.43C16.6801 13.79 18.0101 15.53 17.0101 16.75L13.5501 20.98C12.7001 22.02 11.3101 22.02 10.4501 20.98L7.00011 16.75C5.99011 15.53 7.32011 13.79 8.77011 14.43Z" fill="#353535"/>
<path d="M8.57002 11.67C8.27002 11.89 8.31003 12.35 8.65003 12.52L11 13.69C11.55 13.97 12.44 13.97 12.98 13.69L15.33 12.52C15.66 12.35 15.7 11.9 15.41 11.67L12.3 9.33004C12.12 9.20004 11.88 9.20004 11.7 9.33004L8.57002 11.67Z" fill="#353535"/>
<path d="M17.8801 8.23996L13.7101 3.03996C13.6301 2.93996 13.5401 2.84996 13.4501 2.75996C13.1901 2.50996 12.8201 2.73996 12.8201 3.09996V7.39996C12.8201 7.55996 12.8901 7.70996 13.0201 7.79996L17.1701 10.92L17.3501 11.05C17.5301 11.18 17.7801 11.18 17.9301 11.02C18.6301 10.26 18.6201 9.15996 17.8801 8.23996Z" fill="#353535"/>
<path d="M6.1101 8.32997L10.2601 3.04997C10.3401 2.94997 10.4201 2.85997 10.5101 2.76997C10.7701 2.51997 11.1401 2.73997 11.1401 3.10997V7.47997C11.1401 7.63997 11.0701 7.77997 10.9401 7.87997L6.8101 11.05L6.6401 11.18C6.4601 11.31 6.2101 11.31 6.0501 11.14C5.3701 10.37 5.3801 9.26997 6.1101 8.32997Z" fill="#353535"/>
</svg>
