<svg width="24" height="24" viewBox="0 0 24 24" fill="none" xmlns="http://www.w3.org/2000/svg">
<path d="M5.93989 16.77L4.27992 19.59C4.15992 19.8 3.84986 19.8 3.71986 19.59L2.02992 16.77C1.89992 16.55 2.05989 16.28 2.30989 16.28H5.65986C5.90986 16.28 6.05989 16.56 5.93989 16.77Z" fill="#353535"/>
<path d="M11.6899 8.41003L7.73991 14.88C7.64991 15.03 7.48992 15.11 7.31992 15.11H2.24992C1.86992 15.11 1.62992 14.71 1.81992 14.39L8.27995 3.73004C8.46995 3.42004 8.93992 3.41004 9.12992 3.73004L11.6899 7.94003C11.7799 8.08003 11.7799 8.26003 11.6899 8.41003Z" fill="#353535"/>
<path d="M13.72 14.4899H10.24C10.04 14.4899 9.91006 14.2699 10.0101 14.0899L11.7501 11.14C11.8501 10.97 12.1001 10.97 12.2001 11.14L13.9401 14.0899C14.0501 14.2699 13.92 14.4899 13.72 14.4899Z" fill="#353535"/>
<path d="M13.6599 3.39999L12.21 5.87C12.11 6.04 11.85 6.04 11.75 5.87L10.2999 3.39999C10.1999 3.21999 10.32 3 10.53 3H13.43C13.64 3 13.7599 3.21999 13.6599 3.39999Z" fill="#353535"/>
<path d="M22.17 14.37C22.37 14.7 22.12 15.12 21.74 15.12H16.87C16.7 15.12 16.55 15.03 16.46 14.89L12.65 8.42004C12.56 8.27004 12.56 8.09003 12.65 7.94003L15.12 3.73004C15.3 3.42004 15.76 3.41004 15.94 3.73004C17.16 5.84004 20.89 12.18 22.17 14.37Z" fill="#353535"/>
<path d="M21.93 16.77C21.38 17.7 20.79 18.7 20.25 19.61C20.12 19.83 19.81 19.82 19.68 19.6L18.02 16.77C17.89 16.55 18.05 16.27 18.31 16.27H21.64C21.9 16.28 22.06 16.55 21.93 16.77Z" fill="#353535"/>
<path d="M18.02 21H5.93994C5.57994 21 5.35992 20.61 5.53992 20.3L7.86994 16.34C7.94994 16.2 8.09996 16.11 8.26996 16.11H15.6899C15.8499 16.11 16.01 16.2 16.09 16.34L18.4199 20.3C18.5999 20.61 18.38 21 18.02 21Z" fill="#353535"/>
</svg>
