<svg width="24" height="24" viewBox="0 0 24 24" fill="none" xmlns="http://www.w3.org/2000/svg">
<path opacity="0.13" d="M10.8701 14L12.8001 17.33L10.8801 20.66H7.00009L5.09009 17.35L7.03009 14H10.8701Z" fill="#353535"/>
<path d="M10.5401 14.08H7.12008C6.94008 14.08 6.78009 14.18 6.69009 14.33L4.9801 17.29C4.8901 17.44 4.8901 17.64 4.9801 17.79L6.69009 20.75C6.78009 20.9 6.94008 21 7.12008 21H10.5401C10.7201 21 10.8801 20.9 10.9701 20.75L12.6801 17.79C12.7701 17.64 12.7701 17.44 12.6801 17.29L10.9701 14.33C10.8801 14.17 10.7201 14.08 10.5401 14.08Z" fill="#353535"/>
<path d="M22.2399 11.74C22.3299 11.9 22.3299 12.1 22.2399 12.26L17.3099 20.79C17.2399 20.92 17.0999 21 16.9499 21C16.6299 21 16.4299 20.65 16.5899 20.38L19.8799 14.68C19.9699 14.52 19.9699 14.32 19.8799 14.16L15.4799 6.53999C15.3899 6.37999 15.2199 6.27999 15.0299 6.27999H6.21991C6.02991 6.27999 5.8699 6.37999 5.7699 6.53999L2.49991 12.22C2.32991 12.52 1.89991 12.52 1.71991 12.22C1.63991 12.08 1.63991 11.91 1.71991 11.77L6.63993 3.24999C6.71993 3.08999 6.89991 2.98999 7.08991 2.98999H16.8799C17.0699 2.98999 17.2299 3.08999 17.3299 3.24999L22.2399 11.74Z" fill="#353535"/>
<path d="M18.09 14.68L14.59 20.74C14.5 20.9 14.33 21 14.14 21H13.54C13.14 21 12.89 20.57 13.09 20.22L14.49 17.8C14.58 17.64 14.58 17.44 14.49 17.28L11.89 12.78C11.79 12.62 11.61 12.52 11.42 12.52H6.22003C6.03003 12.52 5.87001 12.62 5.77001 12.78L4.37002 15.2C4.17002 15.55 3.67003 15.55 3.47003 15.2L3.17004 14.69C3.08004 14.53 3.08004 14.33 3.17004 14.17L6.66003 8.10998C6.75003 7.94998 6.92001 7.84998 7.11001 7.84998H14.1C14.29 7.84998 14.45 7.94998 14.55 8.10998L18.05 14.17C18.17 14.32 18.17 14.53 18.09 14.68Z" fill="#353535"/>
</svg>
