<svg width="24" height="24" viewBox="0 0 24 24" fill="none" xmlns="http://www.w3.org/2000/svg">
<path d="M19.51 6.42L13.01 2.60001C12.38 2.23001 11.61 2.23001 10.98 2.60001L4.47998 6.42C3.86998 6.78 3.48999 7.44 3.48999 8.14V15.85C3.48999 16.56 3.86998 17.21 4.47998 17.57L10.98 21.39C11.61 21.76 12.38 21.76 13.01 21.39L19.51 17.57C20.12 17.21 20.5 16.55 20.5 15.85V8.14C20.5 7.44 20.12 6.78 19.51 6.42ZM17.39 15.64L12.39 18.64C12.27 18.71 12.14 18.75 12 18.75C11.86 18.75 11.73 18.71 11.61 18.64L6.60999 15.64C6.24999 15.43 6.13998 14.97 6.34998 14.61C6.55998 14.25 7.02 14.14 7.38 14.35L11.99 17.12L15.53 14.99L13.67 13.87L13.02 14.52C12.87 14.67 12.68 14.74 12.49 14.74C12.3 14.74 12.11 14.67 11.96 14.52C11.67 14.23 11.67 13.75 11.96 13.46L12.34 13.08L10.54 12L10.02 12.52C9.87002 12.67 9.67999 12.74 9.48999 12.74C9.29999 12.74 9.11002 12.67 8.96002 12.52C8.67002 12.23 8.67002 11.75 8.96002 11.46L9.21997 11.2L6.60999 9.63001C6.37999 9.49001 6.25 9.25001 6.25 8.99001C6.25 8.73001 6.38999 8.48001 6.60999 8.35001L11.61 5.35001C11.85 5.21001 12.15 5.21001 12.38 5.35001L17.38 8.35001C17.74 8.56001 17.85 9.02001 17.64 9.38001C17.43 9.73001 16.97 9.85 16.61 9.64L12 6.87L8.46002 9L10.32 10.12L10.97 9.47001C11.26 9.18001 11.74 9.18001 12.03 9.47001C12.32 9.76 12.32 10.24 12.03 10.53L11.65 10.91L13.45 11.99L13.97 11.47C14.26 11.18 14.74 11.18 15.03 11.47C15.32 11.76 15.32 12.24 15.03 12.53L14.77 12.79L17.38 14.36C17.61 14.5 17.74 14.74 17.74 15C17.74 15.26 17.61 15.51 17.39 15.64Z" fill="#353535"/>
</svg>
