<svg width="24" height="24" viewBox="0 0 24 24" fill="none" xmlns="http://www.w3.org/2000/svg">
<path d="M17.8201 8.69991C18.5301 8.30991 19.4001 8.81992 19.3901 9.62992L19.3501 15.0499C19.3401 15.8699 18.4501 16.3699 17.7501 15.9499L13.0701 13.1499C12.3701 12.7299 12.3901 11.7099 13.1001 11.3199L17.8201 8.69991Z" fill="#353535"/>
<path d="M19.25 6.27992C19.4 6.65992 19.17 7.04992 18.81 7.24992L13.18 10.3599C12.38 10.7999 11.44 10.0899 11.64 9.20993L12.86 3.67991C13.01 2.97991 13.8 2.63993 14.42 2.98993L18.3401 5.22992C18.7701 5.47992 19.08 5.84992 19.25 6.27992Z" fill="#353535"/>
<path d="M12.0101 2.66995L9.94012 11.9699C9.91012 12.1099 9.91012 12.26 9.94012 12.41L11.6701 21.0899C11.7901 21.6899 11.2802 22.2599 10.7802 21.8899L5.49011 18.1199C4.93011 17.7199 4.6001 17.0799 4.6001 16.3999V7.08994C4.6001 6.32994 5.0001 5.62995 5.6701 5.24995L10.9601 2.23995C11.1101 2.14995 11.2701 2.08994 11.4301 2.03994C11.8101 1.90994 12.0901 2.28995 12.0101 2.66995Z" fill="#353535"/>
<path d="M17.6302 16.81C18.2802 17.2 18.3202 18.13 17.7102 18.57L14.2401 21.09C13.6201 21.54 12.7302 21.2 12.5802 20.44L11.5601 15.24C11.3801 14.34 12.3502 13.66 13.1402 14.13L17.6302 16.81Z" fill="#353535"/>
</svg>
