<svg width="24" height="24" viewBox="0 0 24 24" fill="none" xmlns="http://www.w3.org/2000/svg">
<path d="M3.17996 15.03C2.82996 15.03 2.57996 15.38 2.70996 15.7C4.17996 19.4 7.78996 22 12 22C16.22 22 19.83 19.38 21.3 15.67C21.43 15.35 21.17 15 20.83 15H17.5C17.22 15 17 14.78 17 14.5V11.76C17 10.84 15.85 10.41 15.25 11.11L12.38 14.54C12.18 14.78 11.81 14.78 11.61 14.54L8.73996 11.11C8.14996 10.41 6.99996 10.84 6.99996 11.76V14.5C6.99996 14.78 6.77996 15 6.49996 15L3.17996 15.03Z" fill="#353535"/>
<path d="M22 12.14C22 12.45 21.98 12.76 21.94 13.06C21.91 13.31 21.69 13.5 21.43 13.5H19C18.72 13.5 18.5 13.28 18.5 13V11.9C18.5 10.89 17.96 9.90997 17.04 9.48997C16.01 9.01997 14.84 9.27997 14.1 10.15L12.38 12.2C12.18 12.44 11.81 12.44 11.61 12.2L9.88 10.13C9.16 9.27997 8 9.01997 6.96 9.48997C6.04 9.90997 5.5 10.89 5.5 11.9V12.88C5.5 13.3 5.28 13.52 5 13.52L2.56 13.53C2.31 13.53 2.08 13.34 2.05 13.09C2.02 12.73 2 12.37 2 12C2 5.94997 7.39 1.13997 13.63 2.12997C18.46 2.88997 22.07 7.23997 22 12.14Z" fill="#353535"/>
</svg>
