<svg width="24" height="24" viewBox="0 0 24 24" fill="none" xmlns="http://www.w3.org/2000/svg">
<path d="M15.07 17.88L14.0599 20.1C13.7999 20.66 13.4199 21.15 12.9099 21.49C12.3899 21.84 11.7099 21.87 11.1699 21.53C9.52993 20.49 5.94998 17.82 3.77998 13.19C3.69998 13.03 3.91995 12.87 4.05995 12.97C4.62995 13.37 5.23992 13.65 5.90992 13.81C6.31992 13.9 6.73997 13.94 7.13997 13.94C8.99997 13.94 10.6799 12.99 11.7999 12.17C12.1299 11.93 12.5699 11.88 12.9099 12.09C14.0299 12.79 14.78 13.63 15.15 14.58C15.79 16.26 15.09 17.81 15.07 17.88Z" fill="#353535"/>
<path d="M16.8499 18.05C16.7699 18.14 16.61 18.04 16.65 17.93C17.09 16.47 17.66 12.62 12.56 10.18C12.25 10.03 12.0199 9.75004 11.9799 9.41004C11.3599 3.85004 16.15 2.85003 16.15 2.85003C16.54 2.77003 16.95 2.77003 17.33 2.88003C18.41 3.17003 19.51 3.57003 20.62 4.11003C21.57 4.57003 22.1199 5.57004 21.9799 6.62004C21.6499 9.10004 20.5499 13.88 16.8499 18.05Z" fill="#353535"/>
<path d="M10.56 10.21L10.5901 10.41C10.6601 10.79 10.5 11.18 10.18 11.38C8.03003 12.73 4.51002 13.75 2.36002 7.83998C2.16002 7.29998 2.04003 6.89999 2.00003 6.31999C1.95003 5.55999 2.38003 4.68999 3.06003 4.36999C4.82003 3.54999 8.54006 2.11999 13.0301 2.24999C13.2301 2.25999 13.3 2.51999 13.14 2.62999C11.41 3.94999 9.92003 6.32999 10.56 10.21Z" fill="#353535"/>
</svg>
