<svg width="24" height="24" viewBox="0 0 24 24" fill="none" xmlns="http://www.w3.org/2000/svg">
<path d="M22 6.28005V17.7101C22 17.8901 21.91 18.05 21.76 18.14L18.87 19.87C18.71 19.96 18.52 19.96 18.36 19.87L8.75 14.28C8.6 14.19 8.5 14.0301 8.5 13.8501V12.5201C8.5 12.1301 8.91999 11.89 9.25999 12.09L17.75 17.18C18.08 17.38 18.51 17.14 18.51 16.75V8.42005C18.51 8.24005 18.42 8.08005 18.27 7.99005L14.19 5.54004C13.87 5.35004 13.87 4.88004 14.19 4.68004L16.76 3.13005C16.92 3.03005 17.12 3.03005 17.28 3.13005L21.78 5.83005C21.91 5.94005 22 6.11005 22 6.28005Z" fill="#353535"/>
<path d="M11.29 18.4299L7.26001 20.85C7.10001 20.95 6.90002 20.95 6.75002 20.85L2.25002 18.15C2.10002 18.06 2.01001 17.9 2.01001 17.72V6.28995C2.01001 6.10995 2.10002 5.94996 2.25002 5.85996L6.75002 3.15996C6.91002 3.05996 7.11001 3.05996 7.26001 3.15996L16.76 8.85996C16.91 8.94996 17 9.10995 17 9.28995V14.12C17 14.51 16.58 14.75 16.24 14.55L7.75002 9.45996C7.42002 9.25996 6.99002 9.49996 6.99002 9.88996V14.72C6.99002 14.9 7.08001 15.06 7.23001 15.15L11.27 17.58C11.61 17.77 11.61 18.2299 11.29 18.4299Z" fill="#353535"/>
</svg>
