<svg width="24" height="24" viewBox="0 0 24 24" fill="none" xmlns="http://www.w3.org/2000/svg">
<path d="M21.38 11.45L16.88 8.84999C16.65 8.71999 16.36 8.71999 16.13 8.84999L11.63 11.45C11.63 11.45 11.63 11.46 11.62 11.46L7.49998 13.84L3.74998 11.67V7.33999L7.49998 5.16999L11.25 7.33999V8.47999C11.25 8.88999 11.59 9.22999 12 9.22999C12.41 9.22999 12.75 8.88999 12.75 8.47999V6.89999C12.75 6.62999 12.61 6.37999 12.37 6.24999L7.86998 3.64999C7.63998 3.51999 7.34998 3.51999 7.11998 3.64999L2.61998 6.24999C2.38998 6.37999 2.23999 6.62999 2.23999 6.89999V12.1C2.23999 12.37 2.37998 12.62 2.61998 12.75L7.11998 15.35C7.23998 15.42 7.36998 15.45 7.49998 15.45C7.62998 15.45 7.75999 15.42 7.87999 15.35L12.38 12.75C12.38 12.75 12.38 12.74 12.39 12.74L16.51 10.36L20.26 12.53V16.86L16.51 19.03L12.76 16.86V15.64C12.76 15.23 12.42 14.89 12.01 14.89C11.6 14.89 11.26 15.23 11.26 15.64V17.29C11.26 17.56 11.4 17.81 11.64 17.94L16.14 20.54C16.26 20.61 16.39 20.64 16.52 20.64C16.65 20.64 16.78 20.61 16.9 20.54L21.4 17.94C21.63 17.81 21.78 17.56 21.78 17.29V12.09C21.75 11.83 21.61 11.58 21.38 11.45Z" fill="#353535"/>
<path d="M4.5 8.34994V10.6599C4.5 11.0199 4.69 11.3499 5 11.5299L7 12.6799C7.31 12.8599 7.69 12.8599 8 12.6799L10 11.5299C10.31 11.3499 10.5 11.0199 10.5 10.6599V8.34994C10.5 7.98994 10.31 7.65995 10 7.47995L8 6.32995C7.69 6.14995 7.31 6.14995 7 6.32995L5 7.47995C4.69 7.65995 4.5 7.98994 4.5 8.34994Z" fill="#353535"/>
<path d="M13.5 13.55V15.86C13.5 16.22 13.69 16.55 14 16.73L16 17.88C16.31 18.06 16.69 18.06 17 17.88L19 16.73C19.31 16.55 19.5 16.22 19.5 15.86V13.55C19.5 13.19 19.31 12.86 19 12.68L17 11.53C16.69 11.35 16.31 11.35 16 11.53L14 12.68C13.69 12.86 13.5 13.19 13.5 13.55Z" fill="#353535"/>
</svg>
