<svg width="24" height="24" viewBox="0 0 24 24" fill="none" xmlns="http://www.w3.org/2000/svg">
<path d="M20.49 6.70996L12.49 2.26996C12.19 2.09996 11.82 2.09996 11.52 2.26996L3.52002 6.70996C3.20002 6.88996 3.01001 7.21995 3.01001 7.57995V16.3999C3.01001 16.7599 3.21002 17.1 3.52002 17.27L11.54 21.7299C11.83 21.8899 12.18 21.9 12.47 21.75L16.5 19.74C16.81 19.58 17.18 19.5999 17.48 19.7899L19.47 21.0399C20.14 21.4599 21 20.98 21 20.19V17.58C21 17.22 20.8 16.88 20.49 16.71L17.49 15.05C17.19 14.88 16.82 14.88 16.52 15.05L12.49 17.2899C12.19 17.4599 11.82 17.4599 11.52 17.2899L7.52002 15.07C7.20002 14.89 7.01001 14.5599 7.01001 14.1999V9.81996C7.01001 9.45996 7.21002 9.11995 7.52002 8.94995L11.52 6.72995C11.82 6.55995 12.19 6.55995 12.49 6.72995L16.49 8.94995C16.81 9.12995 17 9.45996 17 9.81996V12.88C17 13.69 17.91 14.1599 18.57 13.6999L20.57 12.3099C20.84 12.1199 21 11.82 21 11.49V7.59996C21 7.22996 20.8 6.88996 20.49 6.70996Z" fill="#353535"/>
<path d="M15.8601 10.42V13.57C15.8601 13.92 15.6701 14.24 15.3601 14.41L12.4701 16.02C12.1801 16.18 11.8202 16.18 11.5302 16.02L8.64014 14.41C8.33014 14.24 8.14014 13.92 8.14014 13.57V10.42C8.14014 10.07 8.33014 9.74998 8.64014 9.57998L11.5302 7.96998C11.8202 7.80998 12.1801 7.80998 12.4701 7.96998L15.3601 9.57998C15.6701 9.74998 15.8601 10.07 15.8601 10.42Z" fill="#353535"/>
</svg>
