<svg width="24" height="24" viewBox="0 0 24 24" fill="none" xmlns="http://www.w3.org/2000/svg">
<path d="M21.7101 9.89999L19.3101 5.07999C18.8401 4.12999 17.5901 3.35999 16.5301 3.35999H7.4701C6.4101 3.35999 5.1601 4.12999 4.6901 5.07999L2.29009 9.89999C1.71009 11.06 2.03009 12.71 2.98009 13.58L9.9101 19.87C11.0601 20.91 12.9301 20.91 14.0801 19.87L21.0101 13.58C21.9701 12.71 22.2901 11.05 21.7101 9.89999ZM16.0001 9.24999H12.7501V14.5C12.7501 14.91 12.4101 15.25 12.0001 15.25C11.5901 15.25 11.2501 14.91 11.2501 14.5V9.24999H8.0001C7.5901 9.24999 7.2501 8.90999 7.2501 8.49999C7.2501 8.08999 7.5901 7.74999 8.0001 7.74999H16.0001C16.4101 7.74999 16.7501 8.08999 16.7501 8.49999C16.7501 8.90999 16.4101 9.24999 16.0001 9.24999Z" fill="#353535"/>
</svg>
