<svg width="24" height="24" viewBox="0 0 24 24" fill="none" xmlns="http://www.w3.org/2000/svg">
<path d="M19.4001 10.5299C19.9201 10.4299 20.2801 11.0199 19.9601 11.4399L13.0101 20.2899C12.6601 20.7399 11.9401 20.4499 12.0001 19.8899L12.7001 12.2899C12.7201 12.0399 12.9101 11.8299 13.1601 11.7799L19.4001 10.5299Z" fill="#353535"/>
<path d="M21.6401 7.68995C21.8601 7.92995 21.74 8.31995 21.43 8.38996L12.99 10.08C12.44 10.19 12.08 9.51995 12.48 9.11995L17.5001 4.09995C17.7301 3.86995 18.1001 3.87995 18.3201 4.10995L21.6401 7.68995Z" fill="#353535"/>
<path d="M14.69 3.18994C15.16 3.24994 15.3501 3.81994 15.0201 4.15994L11.4601 7.71994C11.2501 7.92994 10.91 7.93994 10.68 7.73994L5.34006 2.98994C4.92006 2.61994 5.24001 1.92994 5.79001 1.99994L14.69 3.18994Z" fill="#353535"/>
<path d="M10.72 10.0699C10.99 10.3099 11.12 10.6599 11.1 11.0099L10.24 21.4699C10.19 22.0699 9.36003 22.1899 9.14003 21.6299L2.28999 3.95994C2.06999 3.39994 2.75003 2.92994 3.20003 3.32994L10.72 10.0699Z" fill="#353535"/>
</svg>
