<svg width="24" height="24" viewBox="0 0 24 24" fill="none" xmlns="http://www.w3.org/2000/svg">
<path d="M21 22.75H3C2.59 22.75 2.25 22.41 2.25 22C2.25 21.59 2.59 21.25 3 21.25H21C21.41 21.25 21.75 21.59 21.75 22C21.75 22.41 21.41 22.75 21 22.75Z" fill="#353535"/>
<path d="M5.6 8.38H4C3.45 8.38 3 8.83 3 9.38V18C3 18.55 3.45 19 4 19H5.6C6.15 19 6.6 18.55 6.6 18V9.38C6.6 8.82 6.15 8.38 5.6 8.38Z" fill="#353535"/>
<path d="M12.8 5.18994H11.2C10.65 5.18994 10.2 5.63994 10.2 6.18994V17.9999C10.2 18.5499 10.65 18.9999 11.2 18.9999H12.8C13.35 18.9999 13.8 18.5499 13.8 17.9999V6.18994C13.8 5.63994 13.35 5.18994 12.8 5.18994Z" fill="#353535"/>
<path d="M19.9999 2H18.3999C17.8499 2 17.3999 2.45 17.3999 3V18C17.3999 18.55 17.8499 19 18.3999 19H19.9999C20.5499 19 20.9999 18.55 20.9999 18V3C20.9999 2.45 20.5499 2 19.9999 2Z" fill="#353535"/>
</svg>
