<svg width="24" height="24" viewBox="0 0 24 24" fill="none" xmlns="http://www.w3.org/2000/svg">
<path d="M22 22.75H5C2.93 22.75 1.25 21.07 1.25 19V2C1.25 1.59 1.59 1.25 2 1.25C2.41 1.25 2.75 1.59 2.75 2V19C2.75 20.24 3.76 21.25 5 21.25H22C22.41 21.25 22.75 21.59 22.75 22C22.75 22.41 22.41 22.75 22 22.75Z" fill="#353535"/>
<path d="M5.00007 17.7499C4.83007 17.7499 4.65007 17.6899 4.51007 17.5699C4.20007 17.2999 4.16007 16.8299 4.43007 16.5099L9.02007 11.1499C9.52007 10.5699 10.2401 10.2199 11.0001 10.1899C11.7601 10.1699 12.5101 10.4499 13.0501 10.9899L14.0001 11.9399C14.2501 12.1899 14.5701 12.3099 14.9301 12.3099C15.2801 12.2999 15.6001 12.1399 15.8301 11.8699L20.4201 6.50994C20.6901 6.19994 21.1601 6.15994 21.4801 6.42994C21.7901 6.69994 21.8301 7.16994 21.5601 7.48994L16.9701 12.8499C16.4701 13.4299 15.7501 13.7799 14.9901 13.8099C14.2201 13.8299 13.4801 13.5499 12.9401 13.0099L12.0001 12.0599C11.7501 11.8099 11.4201 11.6799 11.0701 11.6899C10.7201 11.6999 10.4001 11.8599 10.1701 12.1299L5.58007 17.4899C5.42007 17.6599 5.21007 17.7499 5.00007 17.7499Z" fill="#353535"/>
</svg>
