<svg width="24" height="24" viewBox="0 0 24 24" fill="none" xmlns="http://www.w3.org/2000/svg">
<path d="M12.7 16.88H13.4C14.55 16.88 15.49 15.94 15.49 14.79V14.09H12.7V16.88Z" fill="#353535"/>
<path d="M8.51001 14.79C8.51001 15.94 9.45001 16.88 10.6 16.88H11.3V14.09H8.51001V14.79Z" fill="#353535"/>
<path d="M8.51001 12V12.7H11.3V9.91003H10.6C9.45001 9.91003 8.51001 10.85 8.51001 12Z" fill="#353535"/>
<path d="M20.03 6.82006L14.28 2.79006C12.71 1.69006 10.31 1.75006 8.8 2.92006L3.79 6.83006C2.78 7.61006 2 9.21006 2 10.4701V17.3701C2 19.9201 4.07 22.0001 6.61 22.0001H17.38C19.92 22.0001 21.99 19.9301 21.99 17.3801V10.6001C22 9.25006 21.13 7.59006 20.03 6.82006ZM16.88 14.7901C16.88 16.7101 15.31 18.2801 13.39 18.2801H10.6C8.68 18.2801 7.11 16.7201 7.11 14.7901V12.0001C7.11 10.0801 8.68 8.51006 10.6 8.51006H13.39C15.31 8.51006 16.88 10.0701 16.88 12.0001V14.7901Z" fill="#353535"/>
<path d="M13.4 9.91003H12.7V12.7H15.49V12C15.49 10.85 14.55 9.91003 13.4 9.91003Z" fill="#353535"/>
</svg>
