<svg width="24" height="24" viewBox="0 0 24 24" fill="none" xmlns="http://www.w3.org/2000/svg">
<path d="M20.04 6.82006L14.28 2.79006C12.71 1.69006 10.3 1.75006 8.78999 2.92006L3.77999 6.83006C2.77999 7.61006 1.98999 9.21006 1.98999 10.4701V17.3701C1.98999 19.9201 4.05999 22.0001 6.60999 22.0001H17.39C19.94 22.0001 22.01 19.9301 22.01 17.3801V10.6001C22.01 9.25006 21.14 7.59006 20.04 6.82006ZM16.88 13.4001C16.88 13.7901 16.57 14.1001 16.18 14.1001C15.79 14.1001 15.48 13.7901 15.48 13.4001V13.2201L12.76 15.9401C12.61 16.0901 12.41 16.1601 12.2 16.1401C12 16.1201 11.81 16.0001 11.7 15.8301L10.68 14.3101L8.29999 16.6901C8.15999 16.8301 7.98999 16.8901 7.80999 16.8901C7.62999 16.8901 7.44999 16.8201 7.31999 16.6901C7.04999 16.4201 7.04999 15.9801 7.31999 15.7001L10.3 12.7201C10.45 12.5701 10.65 12.5001 10.86 12.5201C11.07 12.5401 11.26 12.6501 11.37 12.8301L12.39 14.3501L14.5 12.2401H14.32C13.93 12.2401 13.62 11.9301 13.62 11.5401C13.62 11.1501 13.93 10.8401 14.32 10.8401H16.18C16.27 10.8401 16.36 10.8601 16.45 10.8901C16.62 10.9601 16.76 11.1001 16.83 11.2701C16.87 11.3601 16.88 11.4501 16.88 11.5401V13.4001Z" fill="#353535"/>
</svg>
