<svg width="24" height="24" viewBox="0 0 24 24" fill="none" xmlns="http://www.w3.org/2000/svg">
<path d="M20.04 6.82006L14.28 2.79006C12.71 1.69006 10.3 1.75006 8.78999 2.92006L3.77999 6.83006C2.77999 7.61006 1.98999 9.21006 1.98999 10.4701V17.3701C1.98999 19.9201 4.05999 22.0001 6.60999 22.0001H17.39C19.94 22.0001 22.01 19.9301 22.01 17.3801V10.6001C22.01 9.25006 21.14 7.59006 20.04 6.82006ZM16.88 16.1901C16.88 16.2801 16.86 16.3701 16.83 16.4601C16.76 16.6301 16.62 16.7701 16.45 16.8401C16.36 16.8801 16.27 16.8901 16.18 16.8901H14.32C13.93 16.8901 13.62 16.5801 13.62 16.1901C13.62 15.8001 13.93 15.4901 14.32 15.4901H14.5L12.39 13.3801L11.37 14.9001C11.25 15.0701 11.07 15.1901 10.86 15.2101C10.64 15.2301 10.45 15.1601 10.3 15.0101L7.31999 12.0301C7.04999 11.7601 7.04999 11.3201 7.31999 11.0401C7.58999 10.7601 8.02999 10.7701 8.30999 11.0401L10.69 13.4201L11.71 11.9001C11.83 11.7301 12.01 11.6101 12.22 11.5901C12.44 11.5701 12.63 11.6401 12.78 11.7901L15.5 14.5101V14.3301C15.5 13.9401 15.81 13.6301 16.2 13.6301C16.59 13.6301 16.9 13.9401 16.9 14.3301V16.1901H16.88Z" fill="#353535"/>
</svg>
