<svg width="24" height="24" viewBox="0 0 24 24" fill="none" xmlns="http://www.w3.org/2000/svg">
<path d="M20.98 3.0201C20.11 2.1501 18.88 1.8101 17.69 2.1101L7.89001 4.5601C6.24001 4.9701 4.97001 6.2501 4.56001 7.8901L2.11001 17.7001C1.81001 18.8901 2.15001 20.1201 3.02001 20.9901C3.68001 21.6401 4.55001 22.0001 5.45001 22.0001C5.73001 22.0001 6.02001 21.9701 6.30001 21.8901L16.11 19.4401C17.75 19.0301 19.03 17.7601 19.44 16.1101L21.89 6.3001C22.19 5.1101 21.85 3.8801 20.98 3.0201ZM12 15.8801C9.86001 15.8801 8.12001 14.1401 8.12001 12.0001C8.12001 9.8601 9.86001 8.1201 12 8.1201C14.14 8.1201 15.88 9.8601 15.88 12.0001C15.88 14.1401 14.14 15.8801 12 15.8801Z" fill="#353535"/>
</svg>
