<svg width="24" height="24" viewBox="0 0 24 24" fill="none" xmlns="http://www.w3.org/2000/svg">
<path d="M16.24 9.51998L20.95 14.23C21.23 14.51 21.72 14.36 21.8 13.97C21.93 13.33 22 12.67 22 12C22 9.70998 21.22 7.59998 19.93 5.91998C19.75 5.67998 19.39 5.66998 19.18 5.87998L16.24 8.81998C16.05 9.00998 16.05 9.32998 16.24 9.51998Z" fill="#353535"/>
<path d="M14.48 10.58L12.71 12.35C12.51 12.55 12.51 12.86 12.71 13.06L18.53 18.88C18.73 19.08 19.05 19.08 19.24 18.88C19.86 18.23 20.39 17.5 20.82 16.71C20.92 16.52 20.88 16.27 20.73 16.12L15.19 10.58C14.99 10.39 14.67 10.39 14.48 10.58Z" fill="#353535"/>
<path d="M10.94 14.12L9.18003 15.88C8.98003 16.08 8.98003 16.39 9.18003 16.59L14.1 21.52C14.23 21.65 14.42 21.7 14.59 21.65C15.52 21.4 16.4 21.02 17.2 20.52C17.47 20.35 17.51 19.97 17.28 19.74L11.65 14.11C11.45 13.93 11.13 13.93 10.94 14.12Z" fill="#353535"/>
<path d="M18.08 4.07004C16.1 2.54004 13.53 1.74003 10.77 2.07003C6.25997 2.61003 2.60997 6.27004 2.06997 10.77C1.73997 13.53 2.53997 16.09 4.06997 18.08C4.24997 18.32 4.60997 18.33 4.81997 18.12L18.12 4.82004C18.33 4.61004 18.32 4.25004 18.08 4.07004Z" fill="#353535"/>
<path d="M7.39998 17.67L5.87998 19.19C5.66998 19.4 5.67998 19.76 5.91998 19.94C7.42998 21.11 9.27998 21.85 11.31 21.99C11.74 22.02 11.95 21.51 11.64 21.2L8.10998 17.67C7.91998 17.47 7.59998 17.47 7.39998 17.67Z" fill="#353535"/>
</svg>
