<svg width="24" height="24" viewBox="0 0 24 24" fill="none" xmlns="http://www.w3.org/2000/svg">
<path d="M19.11 7.46999L15.59 3.94999C12.43 0.799986 10.77 1.95999 8.76999 3.94999L3.10999 9.60999C1.95999 10.76 1.32999 11.5 1.09999 12.32C1.09999 12.33 1.08999 12.33 1.08999 12.33C1.08999 12.34 1.08999 12.34 1.08999 12.34C1.08999 12.35 1.08999 12.35 1.08999 12.35V12.38C0.679987 13.84 1.75999 15.08 3.10999 16.43L6.63999 19.94C7.89999 21.21 8.91999 22 10.05 22C11.18 22 12.15 21.24 13.45 19.94L19.11 14.29C19.6 13.79 19.96 13.38 20.24 12.99C20.24 12.98 20.24 12.98 20.24 12.98C20.24 12.98 20.24 12.98 20.25 12.98C21.53 11.19 21.19 9.53999 19.11 7.46999ZM18.08 11.37H18.07C17.77 11.3 17.46 11.24 17.15 11.18C17.13 11.18 17.11 11.17 17.08 11.17C16.38 11.04 15.67 10.93 14.95 10.84H14.91C14.19 10.75 13.46 10.68 12.73 10.64H12.65C12.01 10.6 11.36 10.58 10.72 10.58C9.93999 10.58 9.15999 10.62 8.38999 10.67C8.25999 10.68 8.13999 10.69 8.01999 10.7C7.43999 10.74 6.85999 10.8 6.28999 10.87C6.12999 10.89 5.97999 10.91 5.82999 10.93C5.24999 11.02 4.67999 11.11 4.10999 11.22C3.97999 11.25 3.85999 11.27 3.72999 11.29C3.67999 11.3 3.61999 11.31 3.56999 11.32C3.74999 11.12 3.95999 10.91 4.18999 10.68L9.83999 5.02999C11.66 3.22999 12.28 2.79999 14.52 5.02999L18.03 8.54999C18.57 9.07999 18.93 9.52999 19.15 9.91999C19.15 9.91999 19.15 9.92999 19.16 9.92999C19.58 10.66 18.9 11.53 18.08 11.37Z" fill="#353535"/>
<path d="M20.95 16.87C20.57 16.4 20.24 16 19.5 16C18.76 16 18.43 16.4 18.06 16.87C17.26 17.86 16.9 18.94 17.03 19.98C17.18 21.17 18.2 22 19.5 22C20.8 22 21.82 21.17 21.97 19.97C22.1 18.93 21.75 17.86 20.95 16.87Z" fill="#353535"/>
</svg>
