<svg width="24" height="24" viewBox="0 0 24 24" fill="none" xmlns="http://www.w3.org/2000/svg">
<path d="M14.15 21.9999H9.83001C8.29001 21.9999 7.15001 20.7499 7.45001 19.4199L7.97001 17.0999C8.07001 16.6399 8.48001 16.3199 8.95001 16.3199H15.04C15.51 16.3199 15.91 16.6399 16.02 17.0999L16.54 19.4099C16.86 20.8399 15.79 21.9999 14.15 21.9999Z" fill="#353535"/>
<path d="M18.82 13.69L17.75 14.63C17.38 14.95 16.91 15.13 16.43 15.13H7.59001C7.10001 15.13 6.62001 14.95 6.26001 14.62L5.21001 13.68C3.49001 12.27 3.48001 11.19 4.80001 9.53L10.03 2.92C10.0665 2.87094 10.1041 2.82374 10.1425 2.77836C10.5834 2.25735 11.27 2.70487 11.27 3.38743V6.86C11.26 7.29 11.6 7.63 12.02 7.62C12.44 7.63 12.77 7.29 12.78 6.86V3.38743C12.78 2.70487 13.4564 2.2676 13.909 2.77848C13.9465 2.82077 13.9835 2.8646 14.02 2.91L19.23 9.53C20.53 11.19 20.48 12.22 18.82 13.69Z" fill="#353535"/>
</svg>
