<svg width="24" height="24" viewBox="0 0 24 24" fill="none" xmlns="http://www.w3.org/2000/svg">
<path d="M20.98 10.7C20.76 6.8 17.87 3.55 14.01 2.89C13.95 2.12 13.31 1.5 12.52 1.5H11.52C10.73 1.5 10.1 2.11 10.03 2.88C6.15002 3.52 3.24002 6.78 3.02002 10.7C2.31002 10.82 1.77002 11.43 1.77002 12.17V13.17C1.77002 14 2.44002 14.67 3.27002 14.67H4.27002C5.10002 14.67 5.77002 14 5.77002 13.17V12.17C5.77002 11.43 5.23002 10.82 4.52002 10.7C4.73002 7.58 7.02002 4.99 10.08 4.39C10.25 5.03 10.83 5.5 11.52 5.5H12.52C13.21 5.5 13.78 5.03 13.96 4.4C17 5.01 19.27 7.6 19.48 10.7C18.77 10.82 18.23 11.43 18.23 12.17V13.17C18.23 14 18.9 14.67 19.73 14.67H20.73C21.56 14.67 22.23 14 22.23 13.17V12.17C22.23 11.43 21.69 10.81 20.98 10.7Z" fill="#353535"/>
<path d="M15.77 16.55L14.13 18H9.88002L8.24002 16.55C7.29002 15.77 7.29002 15.17 8.01002 14.25L10.9 10.59C11.1 10.34 11.33 10.17 11.59 10.08C11.86 9.98995 12.15 9.98995 12.43 10.08C12.68 10.17 12.91 10.34 13.12 10.59L16 14.24C16.73 15.16 16.69 15.73 15.77 16.55Z" fill="#353535"/>
<path d="M13.32 22H10.73C9.81005 22 9.12005 21.25 9.30005 20.45L9.61005 19.06C9.67005 18.78 9.92005 18.59 10.2 18.59H13.85C14.13 18.59 14.37 18.78 14.44 19.06L14.75 20.45C14.94 21.3 14.3 22 13.32 22Z" fill="#353535"/>
</svg>
