<svg width="24" height="24" viewBox="0 0 24 24" fill="none" xmlns="http://www.w3.org/2000/svg">
<path d="M20.55 9.44004H19.45C19.3 9.44004 19.15 9.47004 19.01 9.51004L14.02 4.52004C14.5 3.90004 14.46 3.01004 13.89 2.45004L13.11 1.67004C12.52 1.08004 11.48 1.08004 10.88 1.67004L10.1 2.45004C9.54 3.01004 9.49999 3.90004 9.97999 4.52004L4.99 9.51004C4.84999 9.47004 4.7 9.44004 4.55 9.44004H3.45C2.58 9.44004 1.87 10.15 1.87 11.02V12.12C1.87 12.99 2.58 13.7 3.45 13.7H4.55C5.42 13.7 6.13 12.99 6.13 12.12V11.02C6.13 10.87 6.1 10.72 6.06 10.58L11.05 5.59004C11.32 5.80004 11.66 5.91004 12 5.91004C12.34 5.91004 12.68 5.79004 12.96 5.58004L17.95 10.57C17.91 10.71 17.88 10.86 17.88 11.01V12.11C17.88 12.98 18.59 13.69 19.46 13.69H20.56C21.43 13.69 22.14 12.98 22.14 12.11V11.01C22.12 10.14 21.42 9.44004 20.55 9.44004Z" fill="#353535"/>
<path d="M15.75 16.55L14.11 18H9.84999L8.20999 16.55C7.25999 15.77 7.25999 15.17 7.97999 14.25L10.87 10.59C11.07 10.34 11.3 10.17 11.56 10.08C11.83 9.98995 12.12 9.98995 12.4 10.08C12.65 10.17 12.88 10.34 13.09 10.59L15.98 14.25C16.7 15.16 16.67 15.73 15.75 16.55Z" fill="#353535"/>
<path d="M13.29 22H10.7C9.78002 22 9.09002 21.25 9.27002 20.45L9.58002 19.06C9.64002 18.78 9.89002 18.59 10.17 18.59H13.82C14.1 18.59 14.34 18.78 14.41 19.06L14.72 20.45C14.92 21.3 14.27 22 13.29 22Z" fill="#353535"/>
</svg>
