<svg width="24" height="24" viewBox="0 0 24 24" fill="none" xmlns="http://www.w3.org/2000/svg">
<path d="M6.5 2C5.44 2 4.46 2.37 3.69 2.99C2.65 3.81 2 5.08 2 6.5C2 7.34 2.24 8.14 2.65 8.82C3.19 9.72 4.04 10.42 5.06 10.76C5.51 10.92 5.99 11 6.5 11C7.64 11 8.67 10.58 9.46 9.88C9.81 9.58 10.11 9.22 10.35 8.82C10.56 8.47 10.72 8.1 10.83 7.7C10.94 7.32 11 6.91 11 6.5C11 4.01 8.99 2 6.5 2ZM8.16 7.25H7.27V8.18C7.27 8.59 6.93 8.93 6.52 8.93C6.11 8.93 5.77 8.6 5.77 8.18V7.25H4.8C4.39 7.25 4.05 6.91 4.05 6.5C4.05 6.09 4.39 5.75 4.8 5.75H5.77V4.82C5.77 4.41 6.11 4.07 6.52 4.07C6.93 4.07 7.27 4.4 7.27 4.82V5.75H8.16C8.57 5.75 8.91 6.09 8.91 6.5C8.91 6.91 8.58 7.25 8.16 7.25Z" fill="#353535"/>
<path d="M16 21.29L6.63997 22.39C5.98997 22.47 5.40997 22.37 4.91997 22.13C4.39997 21.87 3.98997 21.47 3.72997 20.94C3.48997 20.45 3.39997 19.88 3.46997 19.24L4.31997 12.09C4.39997 12.12 4.47997 12.15 4.55997 12.17C5.16997 12.39 5.81997 12.5 6.49997 12.5C7.95997 12.5 9.36997 11.97 10.44 11.02C10.9 10.62 11.31 10.14 11.64 9.59003C11.92 9.12003 12.13 8.62003 12.27 8.13003C12.34 7.87003 12.4 7.59003 12.44 7.31003C12.45 7.26003 12.45 7.21003 12.45 7.16003L12.62 7.17003L18.7 13.26L18.96 17.68C19.21 20.16 18.35 21.02 16 21.29Z" fill="#353535"/>
<path d="M22 10.28L19.93 11.59C19.54 11.83 19.04 11.78 18.72 11.45L14.29 7.02003C13.97 6.70003 13.91 6.20003 14.15 5.81003L15.46 3.74003C16.26 2.48003 17.86 2.42003 19.05 3.59003L22.16 6.70003C23.25 7.81003 23.18 9.53003 22 10.28Z" fill="#353535"/>
</svg>
