<svg width="24" height="24" viewBox="0 0 24 24" fill="none" xmlns="http://www.w3.org/2000/svg">
<path d="M21.97 18V19C21.97 20.65 21.97 22 18.97 22H4.96997C1.96997 22 1.96997 20.65 1.96997 19V18C1.96997 17.45 2.41997 17 2.96997 17H20.97C21.52 17 21.97 17.45 21.97 18Z" fill="#353535"/>
<path d="M14.41 5.18002C14.46 4.98002 14.49 4.79002 14.5 4.58002C14.53 3.42002 13.82 2.40002 12.7 2.10002C11.02 1.64002 9.50002 2.90002 9.50002 4.50002C9.50002 4.74002 9.53002 4.96002 9.59002 5.18002C5.98002 5.95002 3.27002 9.16002 3.27002 13V14.5C3.27002 15.05 3.72002 15.5 4.27002 15.5H19.72C20.27 15.5 20.72 15.05 20.72 14.5V13C20.72 9.16002 18.02 5.96002 14.41 5.18002ZM15 11.75H9.00002C8.59002 11.75 8.25002 11.41 8.25002 11C8.25002 10.59 8.59002 10.25 9.00002 10.25H15C15.41 10.25 15.75 10.59 15.75 11C15.75 11.41 15.41 11.75 15 11.75Z" fill="#353535"/>
</svg>
