<svg width="24" height="24" viewBox="0 0 24 24" fill="none" xmlns="http://www.w3.org/2000/svg">
<path d="M5.5 10C7.433 10 9 8.433 9 6.5C9 4.567 7.433 3 5.5 3C3.567 3 2 4.567 2 6.5C2 8.433 3.567 10 5.5 10Z" fill="#353535"/>
<path d="M5.5 21C7.433 21 9 19.433 9 17.5C9 15.567 7.433 14 5.5 14C3.567 14 2 15.567 2 17.5C2 19.433 3.567 21 5.5 21Z" fill="#353535"/>
<path d="M15.25 11.98L22.45 6.60003C22.78 6.35003 22.85 5.88003 22.6 5.55003C22.35 5.22003 21.88 5.15003 21.55 5.40003L14 11.05L8.45002 6.89003C8.12002 6.65003 7.65002 6.71003 7.40002 7.04003C7.15002 7.37003 7.22002 7.84003 7.55002 8.09003L12.75 11.98L6.85002 16.4C6.52002 16.65 6.45002 17.12 6.70002 17.45C6.85002 17.65 7.07002 17.75 7.30002 17.75C7.46002 17.75 7.61002 17.7 7.75002 17.6L14 12.92L21.55 18.57C21.68 18.67 21.84 18.72 22 18.72C22.23 18.72 22.45 18.62 22.6 18.42C22.85 18.09 22.78 17.62 22.45 17.37L15.25 11.98Z" fill="#353535"/>
</svg>
