<svg width="24" height="24" viewBox="0 0 24 24" fill="none" xmlns="http://www.w3.org/2000/svg">
<path d="M18.07 8.50989L9.50999 4.22989C3.75999 1.34989 1.39999 3.70989 4.27999 9.45989L5.14999 11.1999C5.39999 11.7099 5.39999 12.2999 5.14999 12.8099L4.27999 14.5399C1.39999 20.2899 3.74999 22.6499 9.50999 19.7699L18.07 15.4899C21.91 13.5699 21.91 10.4299 18.07 8.50989ZM14.84 12.7499H9.43999C9.02999 12.7499 8.68999 12.4099 8.68999 11.9999C8.68999 11.5899 9.02999 11.2499 9.43999 11.2499H14.84C15.25 11.2499 15.59 11.5899 15.59 11.9999C15.59 12.4099 15.25 12.7499 14.84 12.7499Z" fill="#353535"/>
</svg>
