<svg width="24" height="24" viewBox="0 0 24 24" fill="none" xmlns="http://www.w3.org/2000/svg">
<path d="M11.75 7H11H7C4.24 7 2 9.24 2 12V17C2 19.76 4.24 22 7 22H12C14.76 22 17 19.76 17 17V13V12.25C17 9.35 14.65 7 11.75 7Z" fill="#353535"/>
<path d="M21.88 6.32996C22.4046 8.88955 21.1622 11.2119 19.1592 12.3056C18.8515 12.4736 18.5 12.234 18.5 11.8835V11.75C18.5 8.30996 15.69 5.49996 12.25 5.49996H12.1165C11.766 5.49996 11.5264 5.14842 11.6943 4.84082C12.7881 2.83774 15.1104 1.59538 17.67 2.11996C19.76 2.54996 21.45 4.23996 21.88 6.32996Z" fill="#353535"/>
</svg>
