<svg width="24" height="24" viewBox="0 0 24 24" fill="none" xmlns="http://www.w3.org/2000/svg">
<path d="M20.36 12.7301C19.99 12.7301 19.68 12.4501 19.64 12.0801C19.4 9.88007 18.22 7.90007 16.4 6.64007C16.07 6.41007 15.99 5.96007 16.22 5.63007C16.45 5.30007 16.9 5.22007 17.23 5.45007C19.4 6.96007 20.8 9.32007 21.09 11.9301C21.13 12.3301 20.84 12.6901 20.44 12.7301C20.41 12.7301 20.39 12.7301 20.36 12.7301Z" fill="#353535"/>
<path d="M3.74001 12.78C3.72001 12.78 3.69001 12.78 3.67001 12.78C3.27001 12.74 2.98001 12.38 3.02001 11.98C3.29001 9.36996 4.67001 7.00996 6.82001 5.48996C7.14001 5.25996 7.60001 5.33996 7.83001 5.65996C8.06001 5.98996 7.98001 6.43996 7.66001 6.66996C5.86001 7.94996 4.69001 9.92996 4.47001 12.12C4.43001 12.5 4.11001 12.78 3.74001 12.78Z" fill="#353535"/>
<path d="M15.99 21.1001C14.76 21.6901 13.44 21.9901 12.06 21.9901C10.62 21.9901 9.25001 21.6701 7.97001 21.0201C7.61001 20.8501 7.47001 20.4101 7.65001 20.0501C7.82001 19.6901 8.26001 19.5501 8.62001 19.7201C9.25001 20.0401 9.92001 20.2601 10.6 20.3901C11.52 20.5701 12.46 20.5801 13.38 20.4201C14.06 20.3001 14.73 20.0901 15.35 19.7901C15.72 19.6201 16.16 19.7601 16.32 20.1301C16.5 20.4901 16.36 20.9301 15.99 21.1001Z" fill="#353535"/>
<path d="M12.05 2.01001C10.5 2.01001 9.23001 3.27001 9.23001 4.83001C9.23001 6.39001 10.49 7.65001 12.05 7.65001C13.61 7.65001 14.87 6.39001 14.87 4.83001C14.87 3.27001 13.61 2.01001 12.05 2.01001Z" fill="#353535"/>
<path d="M5.05001 13.8701C3.50001 13.8701 2.23001 15.1301 2.23001 16.6901C2.23001 18.2501 3.49001 19.5101 5.05001 19.5101C6.61001 19.5101 7.87001 18.2501 7.87001 16.6901C7.87001 15.1301 6.60001 13.8701 5.05001 13.8701Z" fill="#353535"/>
<path d="M18.95 13.8701C17.4 13.8701 16.13 15.1301 16.13 16.6901C16.13 18.2501 17.39 19.5101 18.95 19.5101C20.51 19.5101 21.77 18.2501 21.77 16.6901C21.77 15.1301 20.51 13.8701 18.95 13.8701Z" fill="#353535"/>
</svg>
