<svg width="24" height="24" viewBox="0 0 24 24" fill="none" xmlns="http://www.w3.org/2000/svg">
<path d="M20.86 8.56004L13.93 3.02003C12.86 2.16003 11.13 2.16003 10.07 3.01003L3.14002 8.56004C2.36002 9.18004 1.86002 10.49 2.03002 11.47L3.36002 19.43C3.60002 20.85 4.96002 22 6.40002 22H17.6C19.03 22 20.4 20.84 20.64 19.43L21.97 11.47C22.13 10.49 21.63 9.18004 20.86 8.56004ZM9.38002 17.38C8.82002 17.38 8.38002 16.93 8.38002 16.38C8.38002 15.83 8.83002 15.38 9.38002 15.38C9.93002 15.38 10.38 15.83 10.38 16.38C10.38 16.93 9.93002 17.38 9.38002 17.38ZM12.39 17.12C12.38 17.12 12.38 17.12 12.37 17.12C11.96 17.12 11.63 16.79 11.62 16.39C11.59 15.04 10.7 14.15 9.35002 14.12C8.94002 14.11 8.61002 13.77 8.62002 13.35C8.63002 12.94 8.96002 12.62 9.37002 12.62C9.38002 12.62 9.38002 12.62 9.39002 12.62C11.54 12.67 13.08 14.2 13.12 16.35C13.13 16.77 12.81 17.12 12.39 17.12ZM15.38 17.12C14.96 17.12 14.63 16.79 14.62 16.38C14.61 15.72 14.5 15.09 14.3 14.5C13.79 13.04 12.7 11.96 11.24 11.44C10.65 11.23 10.02 11.12 9.36002 11.12C8.95002 11.12 8.61002 10.78 8.62002 10.36C8.62002 9.95003 8.96002 9.62003 9.37002 9.62003H9.38002C10.21 9.63003 11 9.77003 11.74 10.03C13.63 10.7 15.04 12.11 15.71 14C15.97 14.74 16.11 15.54 16.12 16.36C16.13 16.78 15.8 17.12 15.38 17.12Z" fill="#353535"/>
</svg>
