<svg width="24" height="24" viewBox="0 0 24 24" fill="none" xmlns="http://www.w3.org/2000/svg">
<path d="M12 22.75C6.07 22.75 1.25 17.93 1.25 12C1.25 6.07 6.07 1.25 12 1.25C17.93 1.25 22.75 6.07 22.75 12C22.75 17.93 17.93 22.75 12 22.75ZM12 2.75C6.9 2.75 2.75 6.9 2.75 12C2.75 17.1 6.9 21.25 12 21.25C17.1 21.25 21.25 17.1 21.25 12C21.25 6.9 17.1 2.75 12 2.75Z" fill="#353535"/>
<path d="M14.9999 11.75C14.7299 11.75 14.4599 11.6 14.3299 11.34L12.0399 6.75002H11.9699L9.67994 11.34C9.49994 11.71 9.04994 11.86 8.66994 11.68C8.29994 11.49 8.14994 11.04 8.32994 10.67L10.8299 5.67001C10.9599 5.42001 11.2199 5.26001 11.4999 5.26001H12.4999C12.7799 5.26001 13.0399 5.42001 13.1699 5.67001L15.6699 10.67C15.8599 11.04 15.7099 11.49 15.3299 11.68C15.2299 11.72 15.1099 11.75 14.9999 11.75Z" fill="#353535"/>
<path d="M12 18.75C11.87 18.75 11.73 18.71 11.61 18.64L6.61001 15.64C6.27001 15.44 6.15001 15.01 6.32001 14.66L7.32001 12.66C7.51001 12.29 7.96001 12.14 8.33001 12.32C8.70001 12.51 8.85001 12.96 8.67001 13.33L7.98001 14.71L12 17.12L16.02 14.71L15.33 13.33C15.14 12.96 15.29 12.51 15.67 12.32C16.04 12.14 16.49 12.28 16.68 12.66L17.68 14.66C17.86 15.01 17.73 15.44 17.39 15.64L12.39 18.64C12.27 18.71 12.13 18.75 12 18.75Z" fill="#353535"/>
</svg>
