<svg width="24" height="24" viewBox="0 0 24 24" fill="none" xmlns="http://www.w3.org/2000/svg">
<path d="M12 22.75C6.07 22.75 1.25 17.93 1.25 12C1.25 6.07 6.07 1.25 12 1.25C17.93 1.25 22.75 6.07 22.75 12C22.75 17.93 17.93 22.75 12 22.75ZM12 2.75C6.9 2.75 2.75 6.9 2.75 12C2.75 17.1 6.9 21.25 12 21.25C17.1 21.25 21.25 17.1 21.25 12C21.25 6.9 17.1 2.75 12 2.75Z" fill="#353535"/>
<path d="M14.5699 10.8901H9.42987C9.15987 10.8901 8.9099 10.74 8.7799 10.51C8.6499 10.27 8.64985 9.99005 8.78985 9.75005L11.3599 5.46006C11.6299 5.01006 12.3799 5.01006 12.6499 5.46006L15.2198 9.75005C15.3598 9.98005 15.3599 10.27 15.2299 10.51C15.0899 10.75 14.8399 10.8901 14.5699 10.8901ZM10.7499 9.39005H13.2399L11.9899 7.31005L10.7499 9.39005Z" fill="#353535"/>
<path d="M11.14 16.8901H5.99997C5.72997 16.8901 5.47994 16.7401 5.34994 16.5101C5.21994 16.2801 5.21995 15.9901 5.35995 15.7601L7.92996 11.4701C8.19996 11.0201 8.94994 11.0201 9.21994 11.4701L11.7899 15.7601C11.9299 15.9901 11.93 16.2801 11.8 16.5101C11.66 16.7501 11.41 16.8901 11.14 16.8901ZM7.31997 15.3901H9.80996L8.55996 13.3101L7.31997 15.3901Z" fill="#353535"/>
<path d="M18.0001 16.8901H12.86C12.59 16.8901 12.3401 16.7401 12.2101 16.5101C12.0801 16.2801 12.08 15.9901 12.22 15.7601L14.79 11.4701C15.06 11.0201 15.8101 11.0201 16.0801 11.4701L18.6501 15.7601C18.7901 15.9901 18.79 16.2801 18.66 16.5101C18.52 16.7501 18.2701 16.8901 18.0001 16.8901ZM14.18 15.3901H16.67L15.42 13.3101L14.18 15.3901Z" fill="#353535"/>
</svg>
