<svg width="24" height="24" viewBox="0 0 24 24" fill="none" xmlns="http://www.w3.org/2000/svg">
<path d="M13.5001 21.25H3.94007C3.71007 21.25 3.49007 21.14 3.35007 20.96C3.21007 20.78 3.16007 20.54 3.21007 20.32L4.27007 16.07C4.35007 15.74 4.65007 15.5 5.00007 15.5H12.4401C15.3401 15.5 17.0001 13.84 17.0001 10.94V10.75C17.0001 9.15 16.3501 8.5 14.7501 8.5H6.06007C5.83007 8.5 5.61007 8.39001 5.47007 8.21001C5.33007 8.03001 5.28007 7.79001 5.33007 7.57001L6.39007 3.32001C6.47007 2.99001 6.77007 2.75 7.12007 2.75H16.0001C20.1601 2.75 22.7501 5.34 22.7501 9.5V12C22.7501 17.71 19.2101 21.25 13.5001 21.25ZM4.90007 19.75H13.5001C18.3501 19.75 21.2501 16.85 21.2501 12V9.5C21.2501 6.16 19.3401 4.25 16.0001 4.25H7.71007L7.02007 7H14.7501C17.1701 7 18.5001 8.33 18.5001 10.75V10.94C18.5001 14.68 16.1801 17 12.4401 17H5.59007L4.90007 19.75Z" fill="#353535"/>
<path d="M9.18989 14.25H1.99989C1.76989 14.25 1.54989 14.14 1.40989 13.96C1.26989 13.78 1.21989 13.54 1.26989 13.32L1.63989 11.84C1.94989 10.61 3.03989 9.76001 4.30989 9.76001H11.4999C11.7299 9.76001 11.9499 9.87002 12.0899 10.05C12.2299 10.23 12.2799 10.47 12.2299 10.69L11.8599 12.17C11.5499 13.39 10.4499 14.25 9.18989 14.25ZM2.95989 12.75H9.18989C9.75989 12.75 10.2599 12.36 10.3999 11.8L10.5399 11.25H4.30989C3.73989 11.25 3.23989 11.64 3.09989 12.2L2.95989 12.75Z" fill="#353535"/>
</svg>
