<svg width="24" height="24" viewBox="0 0 24 24" fill="none" xmlns="http://www.w3.org/2000/svg">
<path d="M11.9999 18.9001C10.8599 18.9001 9.92993 17.9701 9.92993 16.8301V7.17009C9.92993 6.03009 10.8599 5.1001 11.9999 5.1001C13.1399 5.1001 14.0699 6.03009 14.0699 7.17009V16.8301C14.0699 17.9701 13.1399 18.9001 11.9999 18.9001ZM11.9999 6.6001C11.6899 6.6001 11.4299 6.85009 11.4299 7.17009V16.8301C11.4299 17.1401 11.6799 17.4001 11.9999 17.4001C12.3199 17.4001 12.5699 17.1501 12.5699 16.8301V7.17009C12.5699 6.86009 12.3099 6.6001 11.9999 6.6001Z" fill="#353535"/>
<path d="M16.18 16.48C15.83 16.48 15.47 16.39 15.15 16.2L6.78 11.37C6.3 11.09 5.96 10.65 5.82 10.11C5.68 9.58002 5.75 9.02001 6.03 8.54001C6.6 7.55001 7.87 7.21001 8.85 7.78001L17.22 12.61C18.21 13.18 18.55 14.45 17.98 15.43C17.59 16.11 16.89 16.48 16.18 16.48ZM7.82 9.02002C7.77 9.02002 7.72 9.03001 7.67 9.04001C7.52 9.08001 7.4 9.17002 7.32 9.30002C7.25 9.43002 7.23 9.58001 7.26 9.73001C7.3 9.88001 7.39 10 7.52 10.08L15.89 14.91C16.16 15.06 16.51 14.97 16.67 14.7C16.83 14.43 16.73 14.08 16.46 13.92L8.09 9.09001C8.01 9.04001 7.92 9.02002 7.82 9.02002Z" fill="#353535"/>
<path d="M7.82001 16.48C7.10001 16.48 6.41001 16.11 6.03001 15.45C5.46001 14.46 5.80002 13.2 6.79002 12.63L15.16 7.80003C16.15 7.23003 17.41 7.57003 17.98 8.56003C18.26 9.04003 18.33 9.59004 18.19 10.13C18.05 10.66 17.71 11.11 17.23 11.39L8.86001 16.22C8.53001 16.39 8.17001 16.48 7.82001 16.48ZM7.32001 14.7C7.47001 14.97 7.83001 15.06 8.10001 14.91L16.47 10.08C16.6 10 16.69 9.88003 16.73 9.73003C16.77 9.58003 16.75 9.43003 16.67 9.30003C16.59 9.17003 16.47 9.08002 16.32 9.04002C16.17 9.00002 16.02 9.02004 15.89 9.10004L7.52001 13.93C7.26001 14.08 7.17001 14.43 7.32001 14.7Z" fill="#353535"/>
<path d="M12 22.75C6.07 22.75 1.25 17.93 1.25 12C1.25 6.07 6.07 1.25 12 1.25C17.93 1.25 22.75 6.07 22.75 12C22.75 17.93 17.93 22.75 12 22.75ZM12 2.75C6.9 2.75 2.75 6.9 2.75 12C2.75 17.1 6.9 21.25 12 21.25C17.1 21.25 21.25 17.1 21.25 12C21.25 6.9 17.1 2.75 12 2.75Z" fill="#353535"/>
</svg>
