<svg width="24" height="24" viewBox="0 0 24 24" fill="none" xmlns="http://www.w3.org/2000/svg">
<path d="M6.44 9.75009C6.29 9.75009 6.14999 9.71009 6.01999 9.62009L1.57999 6.62009C1.37999 6.48009 1.25 6.2501 1.25 6.0101C1.25 5.7601 1.36 5.53011 1.56 5.39011L7.12 1.39011C7.38 1.21011 7.72001 1.2001 7.98001 1.3801L12.42 4.3801C12.62 4.5201 12.75 4.75008 12.75 4.99008C12.75 5.24008 12.64 5.47008 12.44 5.61008L6.88 9.61008C6.75 9.70008 6.6 9.75009 6.44 9.75009ZM3.31 5.98011L6.42999 8.09009L10.69 5.02008L7.57001 2.9101L3.31 5.98011Z" fill="#353535"/>
<path d="M17.5601 9.74993C17.4101 9.74993 17.2501 9.69991 17.1201 9.60991L11.5601 5.60991C11.3601 5.46991 11.2401 5.22992 11.2501 4.98992C11.2501 4.73992 11.3801 4.51993 11.5801 4.37993L16.0201 1.37993C16.2801 1.20993 16.6201 1.20994 16.8801 1.38994L22.4401 5.38994C22.6401 5.52994 22.7601 5.76994 22.7501 6.00994C22.7501 6.25994 22.6201 6.47992 22.4201 6.61992L17.9801 9.61992C17.8501 9.70992 17.7001 9.74993 17.5601 9.74993ZM13.3101 5.01992L17.5701 8.08993L20.6901 5.97994L16.4301 2.90993L13.3101 5.01992Z" fill="#353535"/>
<path d="M7.56009 17.7499C7.41009 17.7499 7.25009 17.6999 7.12009 17.6099L1.56009 13.6099C1.36009 13.4699 1.24009 13.2299 1.25009 12.9899C1.25009 12.7399 1.38008 12.5199 1.58008 12.3799L6.02008 9.37993C6.28008 9.20993 6.6201 9.20994 6.8801 9.38994L12.4401 13.3899C12.6401 13.5299 12.7601 13.7699 12.7501 14.0099C12.7501 14.2599 12.6201 14.4799 12.4201 14.6199L7.9801 17.6199C7.8501 17.7099 7.70009 17.7499 7.56009 17.7499ZM3.31009 13.0199L7.5701 16.0899L10.6901 13.9799L6.43008 10.9099L3.31009 13.0199Z" fill="#353535"/>
<path d="M16.44 17.7501C16.29 17.7501 16.15 17.7101 16.02 17.6201L11.58 14.6201C11.38 14.4801 11.25 14.2501 11.25 14.0101C11.25 13.7601 11.36 13.5301 11.56 13.3901L17.12 9.39011C17.37 9.21011 17.72 9.2001 17.98 9.3801L22.42 12.3801C22.62 12.5201 22.75 12.7501 22.75 12.9901C22.75 13.2401 22.64 13.4701 22.44 13.6101L16.88 17.6101C16.75 17.7001 16.6 17.7501 16.44 17.7501ZM13.31 13.9801L16.43 16.0901L20.69 13.0201L17.57 10.9101L13.31 13.9801Z" fill="#353535"/>
<path d="M12 22.65C11.75 22.65 11.5 22.6 11.27 22.49L4.69 19.45C4.42 19.33 4.25 19.06 4.25 18.77V15.5C4.25 15.09 4.59 14.75 5 14.75C5.41 14.75 5.75 15.09 5.75 15.5V18.29L11.9 21.13C11.97 21.16 12.04 21.16 12.11 21.13L18.26 18.29V15.5C18.26 15.09 18.6 14.75 19.01 14.75C19.42 14.75 19.76 15.09 19.76 15.5V18.77C19.76 19.06 19.59 19.33 19.32 19.45L12.74 22.49C12.5 22.6 12.25 22.65 12 22.65Z" fill="#353535"/>
</svg>
