<svg width="24" height="24" viewBox="0 0 24 24" fill="none" xmlns="http://www.w3.org/2000/svg">
<path d="M12.7501 9.42001H8.67004C6.42004 9.42001 4.59009 7.59 4.59009 5.34C4.59009 3.09 6.42004 1.26001 8.67004 1.26001H12.7501V9.42001ZM8.67004 2.75C7.25004 2.75 6.09009 3.90999 6.09009 5.32999C6.09009 6.74999 7.25004 7.91 8.67004 7.91H11.2501V2.73999H8.67004V2.75Z" fill="#353535"/>
<path d="M12.7501 16.0799H8.67004C6.42004 16.0799 4.59009 14.2499 4.59009 11.9999C4.59009 9.74991 6.42004 7.91992 8.67004 7.91992H12.7501V16.0799ZM8.67004 9.41992C7.25004 9.41992 6.09009 10.5799 6.09009 11.9999C6.09009 13.4199 7.25004 14.5799 8.67004 14.5799H11.2501V9.40991H8.67004V9.41992Z" fill="#353535"/>
<path d="M8.67004 22.7501C6.42004 22.7501 4.59009 20.9201 4.59009 18.6701C4.59009 16.4201 6.42004 14.5901 8.67004 14.5901H12.7501V18.6701C12.7501 20.9201 10.92 22.7501 8.67004 22.7501ZM8.67004 16.0801C7.25004 16.0801 6.09009 17.2401 6.09009 18.6601C6.09009 20.0801 7.25004 21.2401 8.67004 21.2401C10.09 21.2401 11.2501 20.0801 11.2501 18.6601V16.0801H8.67004Z" fill="#353535"/>
<path d="M15.33 9.42001H11.25V1.25H15.33C17.58 1.25 19.41 3.07999 19.41 5.32999C19.42 7.57999 17.58 9.42001 15.33 9.42001ZM12.75 7.92001H15.33C16.75 7.92001 17.91 6.76 17.91 5.34C17.91 3.92 16.75 2.76001 15.33 2.76001H12.75V7.92001Z" fill="#353535"/>
<path d="M15.33 16.0799C13.08 16.0799 11.25 14.2499 11.25 11.9999C11.25 9.74991 13.08 7.91992 15.33 7.91992C17.58 7.91992 19.41 9.74991 19.41 11.9999C19.41 14.2499 17.58 16.0799 15.33 16.0799ZM15.33 9.41992C13.91 9.41992 12.75 10.5799 12.75 11.9999C12.75 13.4199 13.91 14.5799 15.33 14.5799C16.75 14.5799 17.91 13.4199 17.91 11.9999C17.91 10.5799 16.76 9.41992 15.33 9.41992Z" fill="#353535"/>
</svg>
