<svg width="24" height="24" viewBox="0 0 24 24" fill="none" xmlns="http://www.w3.org/2000/svg">
<path d="M15.6699 17.8901H7.96992C7.72992 17.8901 7.50992 17.7801 7.36992 17.5901C7.22992 17.4001 7.17992 17.1601 7.24992 16.9301L10.3299 6.15011C10.4199 5.83011 10.7199 5.61011 11.0499 5.61011H14.0899C14.3199 5.61011 14.5399 5.72011 14.6899 5.90011C14.8299 6.09011 14.8799 6.33011 14.8199 6.55011L12.9499 13.5501H16.1999C16.4199 13.5501 16.6299 13.6501 16.7799 13.8201C16.9199 13.9901 16.9799 14.2201 16.9399 14.4301L16.4299 17.2701C16.3399 17.6301 16.0299 17.8901 15.6699 17.8901ZM8.95991 16.3901H15.0399L15.2799 15.0501H11.9599C11.7299 15.0501 11.5099 14.9401 11.3599 14.7601C11.2199 14.5701 11.1699 14.3301 11.2299 14.1101L13.0999 7.11011H11.5999L8.95991 16.3901Z" fill="#353535"/>
<path d="M7.32014 13.27C6.97014 13.27 6.66013 13.02 6.59013 12.67C6.51013 12.26 6.77012 11.87 7.18012 11.79L14.8801 10.25C15.2801 10.17 15.6801 10.43 15.7601 10.84C15.8401 11.25 15.5801 11.64 15.1701 11.72L7.47013 13.26C7.42013 13.27 7.37014 13.27 7.32014 13.27Z" fill="#353535"/>
<path d="M12 22.75C6.07 22.75 1.25 17.93 1.25 12C1.25 6.07 6.07 1.25 12 1.25C17.93 1.25 22.75 6.07 22.75 12C22.75 17.93 17.93 22.75 12 22.75ZM12 2.75C6.9 2.75 2.75 6.9 2.75 12C2.75 17.1 6.9 21.25 12 21.25C17.1 21.25 21.25 17.1 21.25 12C21.25 6.9 17.1 2.75 12 2.75Z" fill="#353535"/>
</svg>
