<svg width="24" height="24" viewBox="0 0 24 24" fill="none" xmlns="http://www.w3.org/2000/svg">
<path d="M5.67999 22.75C5.54999 22.75 5.41999 22.72 5.29999 22.65C5.06999 22.52 4.92999 22.27 4.92999 22V18.8C2.57999 16.89 1.25 14.17 1.25 11.26C1.25 5.74001 6.07 1.25 12 1.25C17.93 1.25 22.75 5.74001 22.75 11.26C22.75 16.78 17.93 21.27 12 21.27C11.03 21.27 10.07 21.15 9.14001 20.91L6.04999 22.65C5.93999 22.72 5.80999 22.75 5.67999 22.75ZM12 2.75C6.9 2.75 2.75 6.57001 2.75 11.26C2.75 13.82 3.98001 16.22 6.14001 17.84C6.33001 17.98 6.44 18.2 6.44 18.44V20.72L8.67999 19.46C8.84999 19.36 9.06 19.34 9.25 19.39C10.14 19.64 11.07 19.77 12 19.77C17.1 19.77 21.25 15.95 21.25 11.26C21.25 6.57001 17.1 2.75 12 2.75Z" fill="#353535"/>
<path d="M7.49994 14.5C7.24994 14.5 6.99993 14.3699 6.85993 14.1499C6.68993 13.8699 6.70993 13.5199 6.91993 13.2699L10.7 8.76994C10.93 8.49994 11.3099 8.41995 11.6199 8.58995L13.07 9.35994L16.2999 8.52995C16.6199 8.44995 16.9499 8.57994 17.1199 8.85994C17.2899 9.13994 17.2699 9.48994 17.0599 9.73994L13.2999 14.2399C13.0699 14.5199 12.6599 14.59 12.3499 14.41L11.0599 13.66L7.65992 14.4899C7.61992 14.4899 7.55994 14.5 7.49994 14.5ZM11.1899 12.1C11.3199 12.1 11.45 12.13 11.57 12.2L12.57 12.78L14.4299 10.5499L13.1699 10.8699C12.9899 10.9199 12.7999 10.89 12.6299 10.81L11.46 10.19L9.53992 12.47L10.9999 12.1099C11.0699 12.1099 11.1299 12.1 11.1899 12.1Z" fill="#353535"/>
</svg>
