<svg width="24" height="24" viewBox="0 0 24 24" fill="none" xmlns="http://www.w3.org/2000/svg">
<path d="M11.7 22.75C11.6 22.75 11.51 22.75 11.41 22.75C5.92997 22.6 1.47998 17.88 1.47998 12.24V5.21003C1.47998 4.70003 1.77997 4.25002 2.24997 4.06002C2.71997 3.87002 3.24995 3.97002 3.60995 4.33002L18.44 19.16C18.59 19.31 18.67 19.51 18.66 19.72C18.65 19.93 18.56 20.12 18.4 20.26C16.54 21.87 14.17 22.75 11.7 22.75ZM2.97998 5.81002V12.24C2.97998 17.08 6.77998 21.12 11.45 21.25C13.38 21.29 15.25 20.73 16.78 19.62L2.97998 5.81002Z" fill="#353535"/>
<path d="M21.2701 19.9001C20.9501 19.9001 20.6301 19.7701 20.3901 19.5301L5.69008 4.83008C5.54008 4.68008 5.46008 4.48008 5.47008 4.27008C5.48008 4.06008 5.57008 3.87007 5.73008 3.73007C7.64008 2.06007 10.1101 1.17008 12.6701 1.25008C18.1001 1.40008 22.5201 6.08007 22.5201 11.6801V18.6401C22.5201 19.1501 22.2201 19.6001 21.7501 19.7901C21.6001 19.8601 21.4401 19.9001 21.2701 19.9001ZM7.35008 4.37007L21.0301 18.0501V11.6901C21.0301 6.90008 17.2601 2.89007 12.6301 2.76007C10.7201 2.72007 8.87008 3.27007 7.35008 4.37007Z" fill="#353535"/>
</svg>
