<svg width="24" height="24" viewBox="0 0 24 24" fill="none" xmlns="http://www.w3.org/2000/svg">
<path d="M12 22.75C10.95 22.75 9.90002 22.67 8.86002 22.51C7.67002 22.33 6.81002 21.32 6.80002 20.12V14.22C6.80002 12.58 8.13002 11.25 9.77002 11.25H14.21C15.02 11.25 15.68 10.59 15.68 9.78001V3.89002C15.68 3.43002 15.35 3.05002 14.89 2.98002C12.96 2.68002 11.01 2.68002 9.08002 2.98002C8.63002 3.05002 8.29004 3.44 8.29004 3.9V7.57002C8.29004 7.98002 7.95004 8.32002 7.54004 8.32002C7.13004 8.32002 6.79004 7.98002 6.79004 7.57002V3.9C6.80004 2.7 7.66004 1.69002 8.85004 1.51002C10.93 1.19002 13.04 1.19002 15.12 1.51002C16.31 1.69002 17.17 2.7 17.18 3.9V9.8C17.18 11.44 15.85 12.77 14.21 12.77H9.77002C8.96002 12.77 8.30002 13.43 8.30002 14.24V20.13C8.30002 20.59 8.63003 20.97 9.09003 21.04C11.02 21.34 12.97 21.34 14.9 21.04C15.35 20.97 15.69 20.58 15.69 20.12V16.45C15.69 16.04 16.03 15.7 16.44 15.7C16.85 15.7 17.19 16.04 17.19 16.45V20.12C17.18 21.32 16.32 22.33 15.13 22.51C14.1 22.67 13.05 22.75 12 22.75Z" fill="#353535"/>
<path d="M12 17.1901C11.59 17.1901 11.25 16.8501 11.25 16.4401C11.25 16.0301 11.59 15.6901 12 15.6901H20.12C20.58 15.6901 20.96 15.3601 21.03 14.9001C21.33 12.9701 21.33 11.0201 21.03 9.09006C20.96 8.63006 20.58 8.30005 20.12 8.30005H16.45C16.04 8.30005 15.7 7.96005 15.7 7.55005C15.7 7.14005 16.04 6.80005 16.45 6.80005H20.12C21.32 6.81005 22.33 7.67005 22.51 8.86005C22.83 10.94 22.83 13.0501 22.51 15.1301C22.33 16.3201 21.32 17.1801 20.12 17.1901H12Z" fill="#353535"/>
<path d="M7.56001 17.1901H3.89002C2.69002 17.1801 1.68001 16.3201 1.50001 15.1301C1.18001 13.0501 1.18001 10.94 1.50001 8.86005C1.68001 7.67005 2.69002 6.81005 3.89002 6.80005H12C12.41 6.80005 12.75 7.14005 12.75 7.55005C12.75 7.96005 12.41 8.30005 12 8.30005H3.88001C3.42001 8.30005 3.04001 8.63006 2.97001 9.09006C2.67001 11.0201 2.67001 12.9701 2.97001 14.9001C3.04001 15.3601 3.42001 15.6901 3.88001 15.6901H7.55C7.96 15.6901 8.3 16.0301 8.3 16.4401C8.3 16.8501 7.97001 17.1901 7.56001 17.1901Z" fill="#353535"/>
<path d="M10.33 5.57996C9.92002 5.57996 9.52002 5.18996 9.52002 4.76996C9.52002 4.34996 9.91002 3.96997 10.33 3.96997C10.52 3.96997 10.75 4.05997 10.89 4.18997C11.04 4.32997 11.14 4.56996 11.14 4.76996C11.14 5.18996 10.75 5.57996 10.33 5.57996Z" fill="#353535"/>
<path d="M13.6699 20.0299C13.2599 20.0299 12.8599 19.6399 12.8599 19.2199C12.8599 18.7999 13.2499 18.4099 13.6699 18.4099C13.8599 18.4099 14.0899 18.4999 14.2299 18.6299C14.3799 18.7699 14.4799 19.0099 14.4799 19.2099C14.4699 19.6399 14.0799 20.0299 13.6699 20.0299Z" fill="#353535"/>
</svg>
