<svg width="24" height="24" viewBox="0 0 24 24" fill="none" xmlns="http://www.w3.org/2000/svg">
<path d="M14.5399 11.37C13.0999 11.37 11.9299 10.2 11.9299 8.76001V4.12C11.9299 2.68 13.0999 1.51001 14.5399 1.51001C15.9799 1.51001 17.1499 2.68 17.1499 4.12V8.76001C17.1499 10.2 15.9799 11.37 14.5399 11.37ZM14.5399 3.01001C13.9299 3.01001 13.4299 3.51 13.4299 4.12V8.76001C13.4299 9.37001 13.9299 9.87 14.5399 9.87C15.1499 9.87 15.6499 9.37001 15.6499 8.76001V4.12C15.6499 3.51 15.1499 3.01001 14.5399 3.01001Z" fill="#353535"/>
<path d="M20.1801 11.37H18.6101C18.2001 11.37 17.8601 11.03 17.8601 10.62V9.04996C17.8601 7.76996 18.9001 6.72998 20.1801 6.72998C21.4601 6.72998 22.5001 7.76996 22.5001 9.04996C22.5001 10.33 21.4601 11.37 20.1801 11.37ZM19.3701 9.86996H20.1901C20.6401 9.86996 21.0101 9.49996 21.0101 9.04996C21.0101 8.59996 20.6401 8.22998 20.1901 8.22998C19.7401 8.22998 19.3701 8.59996 19.3701 9.04996V9.86996Z" fill="#353535"/>
<path d="M8.5 11.8299H3.86C2.42 11.8299 1.25 10.6599 1.25 9.21988C1.25 7.77988 2.42 6.60986 3.86 6.60986H8.5C9.94 6.60986 11.11 7.77988 11.11 9.21988C11.11 10.6599 9.94 11.8299 8.5 11.8299ZM3.86 8.11987C3.25 8.11987 2.75 8.61989 2.75 9.22989C2.75 9.83989 3.25 10.3399 3.86 10.3399H8.5C9.11 10.3399 9.61 9.83989 9.61 9.22989C9.61 8.61989 9.11 8.11987 8.5 8.11987H3.86Z" fill="#353535"/>
<path d="M10.36 5.88H8.78996C7.50996 5.88 6.46997 4.84 6.46997 3.56C6.46997 2.28 7.50996 1.23999 8.78996 1.23999C10.07 1.23999 11.11 2.28 11.11 3.56V5.13C11.11 5.55 10.77 5.88 10.36 5.88ZM8.78996 2.75C8.33996 2.75 7.96997 3.12001 7.96997 3.57001C7.96997 4.02001 8.33996 4.39001 8.78996 4.39001H9.60997V3.57001C9.60997 3.12001 9.23996 2.75 8.78996 2.75Z" fill="#353535"/>
<path d="M9.43005 22.5199C7.99005 22.5199 6.82007 21.3499 6.82007 19.9099V15.2699C6.82007 13.8299 7.99005 12.6599 9.43005 12.6599C10.8701 12.6599 12.0401 13.8299 12.0401 15.2699V19.9099C12.0401 21.3499 10.8701 22.5199 9.43005 22.5199ZM9.43005 14.1599C8.82005 14.1599 8.32007 14.6599 8.32007 15.2699V19.9099C8.32007 20.5199 8.82005 21.0199 9.43005 21.0199C10.0401 21.0199 10.5401 20.5199 10.5401 19.9099V15.2699C10.5401 14.6499 10.0401 14.1599 9.43005 14.1599Z" fill="#353535"/>
<path d="M3.78996 17.2899C2.50996 17.2899 1.46997 16.2499 1.46997 14.9699C1.46997 13.6899 2.50996 12.6499 3.78996 12.6499H5.35997C5.76997 12.6499 6.10997 12.9899 6.10997 13.3999V14.9699C6.10997 16.2499 5.06996 17.2899 3.78996 17.2899ZM3.78996 14.1599C3.33996 14.1599 2.96997 14.5299 2.96997 14.9799C2.96997 15.4299 3.33996 15.7999 3.78996 15.7999C4.23996 15.7999 4.60997 15.4299 4.60997 14.9799V14.1599H3.78996Z" fill="#353535"/>
<path d="M20.1101 17.4099H15.4701C14.0301 17.4099 12.8601 16.2399 12.8601 14.7999C12.8601 13.3599 14.0301 12.1899 15.4701 12.1899H20.1101C21.5501 12.1899 22.7201 13.3599 22.7201 14.7999C22.7201 16.2399 21.5501 17.4099 20.1101 17.4099ZM15.4701 13.6899C14.8601 13.6899 14.3601 14.1899 14.3601 14.7999C14.3601 15.4099 14.8601 15.9099 15.4701 15.9099H20.1101C20.7201 15.9099 21.2201 15.4099 21.2201 14.7999C21.2201 14.1899 20.7201 13.6899 20.1101 13.6899H15.4701Z" fill="#353535"/>
<path d="M15.1801 22.7301C13.9001 22.7301 12.8601 21.6901 12.8601 20.4101V18.8401C12.8601 18.4301 13.2001 18.0901 13.6101 18.0901H15.1801C16.4601 18.0901 17.5001 19.1301 17.5001 20.4101C17.5001 21.6901 16.4501 22.7301 15.1801 22.7301ZM14.3601 19.5901V20.4101C14.3601 20.8601 14.7301 21.2301 15.1801 21.2301C15.6301 21.2301 16.0001 20.8601 16.0001 20.4101C16.0001 19.9601 15.6301 19.5901 15.1801 19.5901H14.3601Z" fill="#353535"/>
</svg>
