<svg width="24" height="24" viewBox="0 0 24 24" fill="none" xmlns="http://www.w3.org/2000/svg">
<path d="M4.03998 14.94C3.70998 14.94 3.41001 14.72 3.32001 14.39C3.11001 13.61 3 12.81 3 12C3 7.04 7.04 3 12 3C13.69 3 15.33 3.47 16.75 4.36C17.1 4.58 17.21 5.04 16.99 5.39C16.77 5.74 16.31 5.85 15.96 5.63C14.77 4.89 13.4 4.5 12 4.5C7.86 4.5 4.5 7.86 4.5 12C4.5 12.68 4.59002 13.35 4.77002 13.99C4.88002 14.39 4.63999 14.8 4.23999 14.91C4.17999 14.93 4.10998 14.94 4.03998 14.94Z" fill="#353535"/>
<path d="M12.0001 21.0001C10.3001 21.0001 8.65003 20.5201 7.22003 19.6301C6.87003 19.4101 6.76004 18.9501 6.98004 18.6001C7.20004 18.2501 7.66007 18.1401 8.01007 18.3601C9.20007 19.1101 10.5801 19.5001 11.9901 19.5001C16.1301 19.5001 19.4901 16.1401 19.4901 12.0001C19.4901 11.2701 19.3801 10.5401 19.1801 9.85007C19.0601 9.45007 19.2901 9.04007 19.6801 8.92007C20.0801 8.80007 20.49 9.03007 20.61 9.42007C20.86 10.2501 20.9901 11.1201 20.9901 12.0001C21.0001 16.9601 16.9601 21.0001 12.0001 21.0001Z" fill="#353535"/>
<path d="M2.00014 16.7499C1.74014 16.7499 1.48017 16.6099 1.34017 16.3599C1.14017 15.9999 1.27016 15.5399 1.64016 15.3399L21.6402 4.33992C22.0002 4.13992 22.4601 4.26992 22.6601 4.63992C22.8601 4.99992 22.7301 5.45993 22.3601 5.65993L2.36013 16.6599C2.25013 16.7199 2.12014 16.7499 2.00014 16.7499Z" fill="#353535"/>
<path d="M2.00014 20.2499C1.74014 20.2499 1.48017 20.1099 1.34017 19.8599C1.14017 19.4999 1.27016 19.0399 1.64016 18.8399L21.6402 7.83992C22.0002 7.63992 22.4601 7.76992 22.6601 8.13992C22.8601 8.49992 22.7301 8.95993 22.3601 9.15993L2.36013 20.1599C2.25013 20.2199 2.12014 20.2499 2.00014 20.2499Z" fill="#353535"/>
</svg>
