<svg width="24" height="24" viewBox="0 0 24 24" fill="none" xmlns="http://www.w3.org/2000/svg">
<path d="M12 21.4001C11.06 21.4001 10.12 21.0801 9.40998 20.4301L2.47997 14.1401C1.26997 13.0401 0.889967 11.0301 1.61997 9.57011L4.01998 4.75011C4.61998 3.55011 6.12997 2.61011 7.46997 2.61011H16.53C17.87 2.61011 19.38 3.55011 19.98 4.75011L22.38 9.57011C23.11 11.0301 22.73 13.0401 21.52 14.1401L14.59 20.4301C13.88 21.0701 12.94 21.4001 12 21.4001ZM7.46997 4.10011C6.68997 4.10011 5.70997 4.71011 5.35997 5.41011L2.95998 10.2301C2.53998 11.0801 2.77998 12.3801 3.48998 13.0201L10.42 19.3101C11.28 20.0901 12.73 20.0901 13.58 19.3101L20.51 13.0201C21.21 12.3801 21.46 11.0801 21.04 10.2301L18.64 5.41011C18.29 4.72011 17.31 4.11011 16.53 4.11011H7.46997V4.10011Z" fill="#353535"/>
<path d="M12 15.25C11.59 15.25 11.25 14.91 11.25 14.5V8.5C11.25 8.09 11.59 7.75 12 7.75C12.41 7.75 12.75 8.09 12.75 8.5V14.5C12.75 14.91 12.41 15.25 12 15.25Z" fill="#353535"/>
<path d="M16 9.25H8C7.59 9.25 7.25 8.91 7.25 8.5C7.25 8.09 7.59 7.75 8 7.75H16C16.41 7.75 16.75 8.09 16.75 8.5C16.75 8.91 16.41 9.25 16 9.25Z" fill="#353535"/>
</svg>
