<svg width="24" height="24" viewBox="0 0 24 24" fill="none" xmlns="http://www.w3.org/2000/svg">
<path d="M15 22.75H9C3.57 22.75 1.25 20.43 1.25 15V9C1.25 3.57 3.57 1.25 9 1.25H15C20.43 1.25 22.75 3.57 22.75 9V15C22.75 20.43 20.43 22.75 15 22.75ZM9 2.75C4.39 2.75 2.75 4.39 2.75 9V15C2.75 19.61 4.39 21.25 9 21.25H15C19.61 21.25 21.25 19.61 21.25 15V9C21.25 4.39 19.61 2.75 15 2.75H9Z" fill="#353535"/>
<path d="M9.54987 18.47H7.09985C6.00985 18.47 5.12988 17.58 5.12988 16.49V7.51004C5.12988 6.42004 6.01985 5.53003 7.09985 5.53003H9.54987C10.6399 5.53003 11.5299 6.42004 11.5299 7.51004V16.49C11.5299 17.58 10.6399 18.47 9.54987 18.47ZM7.09985 7.03003C6.83985 7.03003 6.62988 7.25004 6.62988 7.51004V16.49C6.62988 16.75 6.84985 16.97 7.09985 16.97H9.54987C9.80987 16.97 10.0299 16.75 10.0299 16.49V7.51004C10.0299 7.25004 9.80987 7.03003 9.54987 7.03003H7.09985Z" fill="#353535"/>
<path d="M17.14 14.38H14.2C13.24 14.38 12.47 13.6 12.47 12.65V7.26004C12.47 6.30004 13.25 5.53003 14.2 5.53003H17.14C18.1 5.53003 18.87 6.31004 18.87 7.26004V12.65C18.88 13.61 18.1 14.38 17.14 14.38ZM14.21 7.03003C14.08 7.03003 13.98 7.14004 13.98 7.26004V12.65C13.98 12.78 14.09 12.88 14.21 12.88H17.15C17.28 12.88 17.38 12.77 17.38 12.65V7.26004C17.38 7.13004 17.27 7.03003 17.15 7.03003H14.21Z" fill="#353535"/>
</svg>
