<svg width="24" height="24" viewBox="0 0 24 24" fill="none" xmlns="http://www.w3.org/2000/svg">
<path d="M10.23 21.88C10.16 21.88 10.09 21.88 10.02 21.86C9.43002 21.78 8.92997 21.34 8.65997 20.66L1.94 3.86001C1.67 3.19001 1.73003 2.54001 2.09003 2.07001C2.46003 1.60001 3.06998 1.38001 3.78998 1.48001L16.76 3.21001C17.11 3.26001 17.52 3.46001 17.77 3.71001L20.9 6.84001C21.51 7.46001 21.58 8.47001 21.04 9.16001L11.66 21.1C11.26 21.61 10.75 21.88 10.23 21.88ZM3.46002 2.96001C3.34002 2.96001 3.28002 2.99001 3.27002 3.00001C3.27002 3.01001 3.25002 3.12001 3.33002 3.31001L10.05 20.11C10.13 20.31 10.22 20.38 10.23 20.38C10.24 20.38 10.34 20.34 10.47 20.17L19.85 8.23001C19.92 8.15001 19.91 7.97001 19.83 7.90001L16.7 4.77001C16.68 4.75001 16.59 4.71001 16.55 4.70001L3.59998 2.97001C3.54998 2.96001 3.50002 2.96001 3.46002 2.96001Z" fill="#353535"/>
<path d="M9.99985 21.75C9.97985 21.75 9.94984 21.75 9.92984 21.75C9.51984 21.71 9.20985 21.35 9.24985 20.94L10.2198 10.32L2.50986 3.47001C2.19986 3.19001 2.16986 2.72001 2.44986 2.41001C2.72986 2.10001 3.19986 2.07001 3.50986 2.35001L11.4998 9.45001C11.6798 9.61001 11.7698 9.84001 11.7498 10.08L10.7498 21.08C10.7098 21.46 10.3798 21.75 9.99985 21.75Z" fill="#353535"/>
<path d="M11.0001 10.7499C10.7301 10.7499 10.4701 10.5999 10.3401 10.3499C10.1801 10.0599 10.24 9.69994 10.47 9.46994L16.47 3.46994C16.76 3.17994 17.2401 3.17994 17.5301 3.46994C17.8201 3.75994 17.8201 4.23994 17.5301 4.52994L13.2801 8.77994L19.8901 7.45994C20.3001 7.37994 20.6901 7.63994 20.7701 8.04994C20.8501 8.45994 20.5901 8.84994 20.1801 8.92994L11.1401 10.7399C11.1001 10.7499 11.0501 10.7499 11.0001 10.7499Z" fill="#353535"/>
</svg>
