<svg width="24" height="24" viewBox="0 0 24 24" fill="none" xmlns="http://www.w3.org/2000/svg">
<path d="M10.5 22.54C10.1 22.54 9.71001 22.4499 9.34001 22.2799L2.84001 19.2199C1.88001 18.7699 1.26001 17.79 1.26001 16.73V9.26993C1.26001 8.20993 1.88001 7.22994 2.84001 6.77994L9.34001 3.71995C10.08 3.36995 10.93 3.37995 11.67 3.71995L14.34 4.97995C14.65 5.12995 14.82 5.45995 14.76 5.78995C14.75 5.85995 14.75 5.92994 14.75 5.99994C14.75 7.78994 16.21 9.24994 18 9.24994C18.29 9.24994 18.55 9.21994 18.8 9.14994C19.02 9.07994 19.27 9.12993 19.46 9.26993C19.65 9.40993 19.76 9.62994 19.76 9.86994V16.73C19.76 17.79 19.14 18.7699 18.18 19.2199L11.68 22.2799C11.3 22.4499 10.9 22.54 10.5 22.54ZM10.5 4.95994C10.32 4.95994 10.13 4.99993 9.96002 5.07993L3.46002 8.13996C3.02002 8.34996 2.74002 8.77993 2.74002 9.26993V16.73C2.74002 17.22 3.02002 17.6499 3.46002 17.8599L9.96002 20.92C10.3 21.07 10.69 21.08 11.03 20.92L17.53 17.8599C17.97 17.6499 18.25 17.22 18.25 16.73V10.7399C18.17 10.7399 18.08 10.7499 18 10.7499C15.42 10.7499 13.32 8.68995 13.25 6.12995L11.03 5.07993C10.86 4.99993 10.68 4.95994 10.5 4.95994Z" fill="#353535"/>
<path d="M9 16.25C7.48 16.25 6.25 15.02 6.25 13.5V10.5C6.25 10.09 6.59 9.75 7 9.75C7.41 9.75 7.75 10.09 7.75 10.5V13.5C7.75 14.19 8.31 14.75 9 14.75C9.69 14.75 10.25 14.19 10.25 13.5V10.5C10.25 10.09 10.59 9.75 11 9.75C11.41 9.75 11.75 10.09 11.75 10.5V13.5C11.75 15.02 10.52 16.25 9 16.25Z" fill="#353535"/>
<path d="M14 16.19C13.59 16.19 13.25 15.85 13.25 15.44V10.5C13.25 10.09 13.59 9.75 14 9.75C14.41 9.75 14.75 10.09 14.75 10.5V15.44C14.75 15.86 14.41 16.19 14 16.19Z" fill="#353535"/>
<path d="M18 10.75C15.38 10.75 13.25 8.62 13.25 6C13.25 5.85 13.25 5.68 13.28 5.53C13.48 3.12 15.51 1.25 18 1.25C20.62 1.25 22.75 3.38 22.75 6C22.75 8.17 21.28 10.06 19.19 10.6C18.82 10.7 18.43 10.75 18 10.75ZM18 2.75C16.3 2.75 14.91 4.03 14.77 5.72C14.75 5.86 14.75 5.93 14.75 6C14.75 7.79 16.21 9.25 18 9.25C18.29 9.25 18.55 9.21999 18.8 9.14999C20.25 8.77999 21.25 7.49 21.25 6C21.25 4.21 19.79 2.75 18 2.75Z" fill="#353535"/>
<path d="M19.0899 5.91006C19.3299 5.70006 19.4599 5.42005 19.4599 5.08005C19.4599 4.31005 18.8799 3.80005 17.9999 3.80005C17.1199 3.80005 16.5399 4.32005 16.5399 5.08005C16.5399 5.41005 16.6699 5.70006 16.9099 5.91006C16.5899 6.15006 16.4099 6.50008 16.4099 6.89008C16.4099 7.70008 17.0199 8.20007 18.0099 8.20007C18.9999 8.20007 19.6099 7.70008 19.6099 6.89008C19.5999 6.49008 19.4199 6.14006 19.0899 5.91006ZM17.9999 5.51007C17.7299 5.51007 17.5599 5.36007 17.5599 5.13007C17.5599 4.85007 17.7899 4.76007 17.9999 4.76007C18.2099 4.76007 18.4399 4.86007 18.4399 5.13007C18.4399 5.36007 18.2699 5.51007 17.9999 5.51007ZM17.9999 6.34006C18.2799 6.34006 18.5799 6.46007 18.5799 6.79007C18.5799 7.08007 18.3599 7.25006 17.9999 7.25006C17.6399 7.25006 17.4199 7.08007 17.4199 6.79007C17.4199 6.38007 17.8599 6.34006 17.9999 6.34006Z" fill="#353535"/>
</svg>
