<svg width="24" height="24" viewBox="0 0 24 24" fill="none" xmlns="http://www.w3.org/2000/svg">
<path d="M16.9501 17.7C16.7601 17.7 16.5701 17.63 16.4201 17.48C16.1301 17.19 16.1301 16.71 16.4201 16.42C17.6001 15.24 18.2501 13.67 18.2501 12C18.2501 10.33 17.6001 8.76 16.4201 7.58C16.1301 7.29 16.1301 6.80999 16.4201 6.51999C16.7101 6.22999 17.1901 6.22999 17.4801 6.51999C18.9401 7.97999 19.7501 9.92999 19.7501 12C19.7501 14.07 18.9401 16.02 17.4801 17.48C17.3301 17.63 17.1401 17.7 16.9501 17.7Z" fill="#353535"/>
<path d="M7.04999 17.7C6.85999 17.7 6.66999 17.63 6.51999 17.48C5.05999 16.02 4.25 14.07 4.25 12C4.25 9.92999 5.05999 7.97999 6.51999 6.51999C6.80999 6.22999 7.28999 6.22999 7.57999 6.51999C7.86999 6.80999 7.86999 7.29 7.57999 7.58C6.39999 8.76 5.75 10.33 5.75 12C5.75 13.67 6.39999 15.24 7.57999 16.42C7.86999 16.71 7.86999 17.19 7.57999 17.48C7.42999 17.63 7.23999 17.7 7.04999 17.7Z" fill="#353535"/>
<path d="M12.9799 16.02H11.2199C9.94991 16.02 8.90991 14.95 8.90991 13.64C8.90991 13.23 9.24991 12.89 9.65991 12.89C10.0699 12.89 10.4099 13.23 10.4099 13.64C10.4099 14.13 10.7699 14.52 11.2199 14.52H12.9799C13.3099 14.52 13.5899 14.22 13.5899 13.85C13.5899 13.38 13.4799 13.32 13.1599 13.21L10.3499 12.23C9.38991 11.89 8.91992 11.22 8.91992 10.17C8.91992 8.97 9.85991 8 11.0299 8H12.7899C14.0599 8 15.0999 9.07 15.0999 10.38C15.0999 10.79 14.7599 11.13 14.3499 11.13C13.9399 11.13 13.5999 10.79 13.5999 10.38C13.5999 9.89 13.2399 9.5 12.7899 9.5H11.0299C10.6999 9.5 10.4199 9.8 10.4199 10.17C10.4199 10.64 10.5299 10.7 10.8499 10.81L13.6599 11.79C14.6199 12.13 15.0899 12.8 15.0899 13.85C15.0799 15.04 14.1399 16.02 12.9799 16.02Z" fill="#353535"/>
<path d="M12 16.95C11.59 16.95 11.25 16.61 11.25 16.2V7.80005C11.25 7.39005 11.59 7.05005 12 7.05005C12.41 7.05005 12.75 7.39005 12.75 7.80005V16.2C12.75 16.61 12.41 16.95 12 16.95Z" fill="#353535"/>
<path d="M12 22.75C6.07 22.75 1.25 17.93 1.25 12C1.25 6.07 6.07 1.25 12 1.25C17.93 1.25 22.75 6.07 22.75 12C22.75 17.93 17.93 22.75 12 22.75ZM12 2.75C6.9 2.75 2.75 6.9 2.75 12C2.75 17.1 6.9 21.25 12 21.25C17.1 21.25 21.25 17.1 21.25 12C21.25 6.9 17.1 2.75 12 2.75Z" fill="#353535"/>
</svg>
