<svg width="24" height="24" viewBox="0 0 24 24" fill="none" xmlns="http://www.w3.org/2000/svg">
<path d="M22 3.78003H2C1.59 3.78003 1.25 3.44003 1.25 3.03003C1.25 2.62003 1.59 2.28003 2 2.28003H22C22.41 2.28003 22.75 2.62003 22.75 3.03003C22.75 3.44003 22.41 3.78003 22 3.78003Z" fill="#353535"/>
<path d="M11.9999 21.7201C11.3599 21.7201 10.7799 21.4001 10.4299 20.8701L2.4699 8.48011C2.0999 7.91011 2.0799 7.18011 2.3999 6.58011C2.7299 5.98011 3.3499 5.61011 4.0299 5.61011H19.9599C20.6399 5.61011 21.2699 5.98011 21.5899 6.58011C21.9199 7.18011 21.8899 7.91011 21.5199 8.48011L13.5599 20.8701C13.2199 21.4001 12.6399 21.7201 11.9999 21.7201ZM4.03991 7.11011C3.84991 7.11011 3.7499 7.24011 3.7199 7.30011C3.6899 7.36011 3.62991 7.51011 3.72991 7.6701L11.6899 20.0601C11.7799 20.2001 11.9199 20.2301 11.9899 20.2301C12.0599 20.2301 12.1999 20.2101 12.2899 20.0601L20.2499 7.6701C20.3499 7.51011 20.2899 7.36011 20.2599 7.30011C20.2299 7.24011 20.1399 7.11011 19.9399 7.11011H4.03991Z" fill="#353535"/>
</svg>
