<svg width="24" height="24" viewBox="0 0 24 24" fill="none" xmlns="http://www.w3.org/2000/svg">
<path d="M16.4999 9.60003C16.3699 9.60003 16.2399 9.57002 16.1099 9.49003L11.9999 7.02002L7.88988 9.49003C7.53988 9.70003 7.06988 9.59002 6.85988 9.23002C6.64988 8.88002 6.75988 8.41002 7.11988 8.20002L11.6199 5.50002C11.8599 5.36002 12.1499 5.36002 12.3899 5.50002L16.8899 8.20002C17.2499 8.41002 17.3599 8.87002 17.1499 9.23002C16.9999 9.47002 16.7499 9.60003 16.4999 9.60003Z" fill="#353535"/>
<path d="M16.5 15.9C16.37 15.9 16.23 15.86 16.11 15.79L12 13.32L7.89 15.79C7.66 15.93 7.37 15.93 7.13 15.8C6.9 15.67 6.75 15.42 6.75 15.15V9C6.75 8.59 7.09 8.25 7.5 8.25C7.91 8.25 8.25 8.59 8.25 9V13.83L11.61 11.81C11.85 11.67 12.14 11.67 12.38 11.81L15.74 13.83V9C15.74 8.59 16.08 8.25 16.49 8.25C16.9 8.25 17.24 8.59 17.24 9V15.15C17.24 15.42 17.09 15.67 16.86 15.8C16.75 15.87 16.63 15.9 16.5 15.9Z" fill="#353535"/>
<path d="M11.9999 18.45C11.8499 18.45 11.7099 18.41 11.5799 18.32L9.32995 16.82C8.98995 16.59 8.88994 16.12 9.11994 15.78C9.34994 15.43 9.81995 15.34 10.1599 15.57L11.99 16.79L13.82 15.57C14.16 15.34 14.6299 15.43 14.8599 15.78C15.0899 16.12 14.9999 16.59 14.6499 16.82L12.3999 18.32C12.2899 18.41 12.1499 18.45 11.9999 18.45Z" fill="#353535"/>
<path d="M12 22.75C6.07 22.75 1.25 17.93 1.25 12C1.25 6.07 6.07 1.25 12 1.25C17.93 1.25 22.75 6.07 22.75 12C22.75 17.93 17.93 22.75 12 22.75ZM12 2.75C6.9 2.75 2.75 6.9 2.75 12C2.75 17.1 6.9 21.25 12 21.25C17.1 21.25 21.25 17.1 21.25 12C21.25 6.9 17.1 2.75 12 2.75Z" fill="#353535"/>
</svg>
