<svg width="24" height="24" viewBox="0 0 24 24" fill="none" xmlns="http://www.w3.org/2000/svg">
<path d="M2.00014 22.75C1.80014 22.75 1.61011 22.67 1.47011 22.53C1.28011 22.34 1.20016 22.06 1.27016 21.8L2.53017 17.09C1.69017 15.53 1.25014 13.77 1.25014 11.99C1.25014 6.05999 6.07014 1.23999 12.0001 1.23999C17.9301 1.23999 22.7501 6.05999 22.7501 11.99C22.7501 17.92 17.9301 22.74 12.0001 22.74C10.1901 22.74 8.42017 22.29 6.84017 21.43L2.20015 22.72C2.13015 22.74 2.07014 22.75 2.00014 22.75ZM6.94014 19.88C7.07014 19.88 7.20015 19.92 7.32015 19.98C8.73015 20.81 10.3501 21.25 12.0001 21.25C17.1001 21.25 21.2501 17.1 21.2501 12C21.2501 6.9 17.1001 2.75 12.0001 2.75C6.90014 2.75 2.75014 6.9 2.75014 12C2.75014 13.63 3.18013 15.22 3.99013 16.62C4.09013 16.79 4.12015 17 4.07015 17.19L3.07015 20.93L6.75014 19.91C6.81014 19.89 6.88014 19.88 6.94014 19.88Z" fill="#353535"/>
<path d="M14.74 17.7601C14.12 17.7601 13.48 17.62 12.81 17.33C12.18 17.06 11.55 16.7 10.94 16.25C10.34 15.81 9.75002 15.31 9.21002 14.77C8.67002 14.22 8.16998 13.6401 7.72998 13.0401C7.27998 12.4101 6.91997 11.79 6.65997 11.18C6.37997 10.52 6.23999 9.87004 6.23999 9.25004C6.23999 8.81004 6.31997 8.39004 6.46997 8.00004C6.62997 7.59004 6.88998 7.22004 7.22998 6.90004C7.86998 6.27004 8.79002 6.04006 9.52002 6.39006C9.77002 6.50006 9.98001 6.68006 10.14 6.92006L11.3 8.55003C11.42 8.71003 11.51 8.88003 11.58 9.05003C11.66 9.25003 11.71 9.45006 11.71 9.64006C11.71 9.90006 11.64 10.1601 11.5 10.3901C11.41 10.5401 11.28 10.7201 11.11 10.8901L10.98 11.03C11.04 11.11 11.11 11.21 11.22 11.33C11.43 11.57 11.66 11.83 11.91 12.08C12.16 12.32 12.41 12.56 12.66 12.77C12.78 12.87 12.88 12.95 12.96 13L13.1 12.86C13.28 12.68 13.46 12.5401 13.64 12.4501C13.97 12.2401 14.48 12.19 14.93 12.38C15.09 12.44 15.25 12.53 15.42 12.65L17.09 13.83C17.32 13.99 17.5 14.21 17.62 14.46C17.72 14.71 17.76 14.93 17.76 15.16C17.76 15.46 17.69 15.75 17.56 16.03C17.43 16.29 17.28 16.5201 17.1 16.7301C16.78 17.0801 16.41 17.3401 16.01 17.5101C15.61 17.6801 15.18 17.7601 14.74 17.7601ZM8.78998 7.74003C8.72998 7.74003 8.53003 7.74003 8.28003 7.99003C8.09003 8.17003 7.96 8.36005 7.87 8.57005C7.78 8.78005 7.73999 9.02005 7.73999 9.26005C7.73999 9.68005 7.83998 10.13 8.03998 10.61C8.24998 11.11 8.56 11.6401 8.94 12.1701C9.33 12.7001 9.77001 13.23 10.26 13.72C10.75 14.2 11.27 14.65 11.81 15.05C12.33 15.43 12.86 15.73 13.39 15.96C14.15 16.29 14.85 16.37 15.42 16.13C15.62 16.05 15.8 15.9101 15.98 15.7301C16.07 15.6301 16.14 15.53 16.2 15.4C16.23 15.33 16.25 15.25 16.25 15.18C16.25 15.16 16.25 15.13 16.22 15.07L14.55 13.91C14.48 13.86 14.41 13.82 14.35 13.8C14.31 13.82 14.25 13.85 14.14 13.96L13.76 14.34C13.47 14.63 13.01 14.71 12.64 14.58L12.46 14.5C12.23 14.38 11.97 14.2001 11.68 13.9501C11.4 13.7101 11.13 13.46 10.84 13.18C10.56 12.89 10.31 12.62 10.07 12.34C9.81001 12.03 9.63001 11.78 9.51001 11.57L9.40002 11.31C9.37002 11.21 9.35999 11.1 9.35999 11C9.35999 10.72 9.46002 10.47 9.65002 10.27L10.03 9.88005C10.14 9.77005 10.18 9.71006 10.2 9.67006C10.17 9.60006 10.13 9.54004 10.08 9.47004L8.90997 7.82005L8.78998 7.74003Z" fill="#353535"/>
</svg>
