<svg width="24" height="24" viewBox="0 0 24 24" fill="none" xmlns="http://www.w3.org/2000/svg">
<path d="M22 11.75H12C11.59 11.75 11.25 11.41 11.25 11V4.00004C11.25 3.64004 11.5 3.33005 11.85 3.26005L21.85 1.26005C22.07 1.22005 22.3 1.27005 22.47 1.42005C22.64 1.56005 22.74 1.78004 22.74 2.00004V11C22.75 11.41 22.41 11.75 22 11.75ZM12.75 10.25H21.25V2.92005L12.75 4.62004V10.25Z" fill="#353535"/>
<path d="M22 22.75C21.95 22.75 21.9 22.75 21.85 22.74L11.85 20.74C11.5 20.67 11.25 20.36 11.25 20V13C11.25 12.59 11.59 12.25 12 12.25H22C22.41 12.25 22.75 12.59 22.75 13V22C22.75 22.22 22.65 22.44 22.48 22.58C22.34 22.69 22.17 22.75 22 22.75ZM12.75 19.38L21.25 21.08V13.75H12.75V19.38Z" fill="#353535"/>
<path d="M10 11.7499H2C1.59 11.7499 1.25 11.4099 1.25 10.9999V5.9999C1.25 5.6499 1.50003 5.33989 1.84003 5.26989L9.84003 3.56991C10.06 3.51991 10.29 3.5799 10.47 3.7199C10.65 3.8599 10.75 4.07989 10.75 4.29989V10.9999C10.75 11.4099 10.41 11.7499 10 11.7499ZM2.75 10.2499H9.25V5.22991L2.75 6.60988V10.2499Z" fill="#353535"/>
<path d="M10 20.45C9.95 20.45 9.90003 20.44 9.84003 20.43L1.84003 18.73C1.49003 18.66 1.25 18.35 1.25 18V13C1.25 12.59 1.59 12.25 2 12.25H10C10.41 12.25 10.75 12.59 10.75 13V19.7C10.75 19.93 10.65 20.14 10.47 20.28C10.34 20.39 10.17 20.45 10 20.45ZM2.75 17.39L9.25 18.77V13.75H2.75V17.39Z" fill="#353535"/>
</svg>
