<svg width="24" height="24" viewBox="0 0 24 24" fill="none" xmlns="http://www.w3.org/2000/svg">
<path d="M17.0001 19.75C16.7401 19.75 16.4901 19.61 16.3601 19.38L14.5101 16.28C14.3701 16.05 14.3701 15.76 14.5001 15.52L17.8401 9.68999L15.3501 5.35999C15.2201 5.12999 15.2201 4.83999 15.3501 4.60999C15.4801 4.37999 15.7301 4.23999 16.0001 4.23999H19.5001C19.7701 4.23999 20.0201 4.37998 20.1501 4.61998L22.8501 9.31999C22.9801 9.54999 22.9801 9.82998 22.8501 10.06L17.6501 19.36C17.5201 19.59 17.2701 19.74 17.0101 19.74C17.0101 19.75 17.0001 19.75 17.0001 19.75ZM16.0201 15.89L16.9801 17.5L21.3401 9.69998L19.0701 5.73999H17.3001L19.3501 9.31999C19.4801 9.54999 19.4801 9.83999 19.3501 10.07L16.0201 15.89Z" fill="#353535"/>
<path d="M10.0001 19.75C9.74009 19.75 9.49007 19.61 9.36007 19.38L7.5101 16.28C7.3701 16.05 7.37009 15.76 7.50009 15.52L10.8401 9.68999L8.35009 5.35999C8.22009 5.12999 8.22009 4.83999 8.35009 4.60999C8.48009 4.37999 8.73009 4.23999 9.00009 4.23999H12.5001C12.7701 4.23999 13.0201 4.37998 13.1501 4.61998L15.8501 9.31999C15.9801 9.54999 15.9801 9.82998 15.8501 10.06L10.6501 19.36C10.5201 19.59 10.2701 19.74 10.0101 19.74C10.0101 19.75 10.0001 19.75 10.0001 19.75ZM9.02008 15.89L9.9801 17.5L14.3401 9.69998L12.0701 5.73999H10.3001L12.3501 9.31999C12.4801 9.54999 12.4801 9.83999 12.3501 10.07L9.02008 15.89Z" fill="#353535"/>
<path d="M6.29992 13.45C6.02992 13.45 5.78992 13.31 5.64992 13.08L1.14992 5.38C1.00992 5.15 1.00992 4.86 1.14992 4.63C1.27992 4.4 1.52992 4.25 1.79992 4.25H5.29992C5.56992 4.25 5.81994 4.4 5.94994 4.63L8.64992 9.42999C8.77992 9.65999 8.77994 9.94999 8.63994 10.18L6.93993 13.08C6.80993 13.31 6.56992 13.45 6.29992 13.45ZM3.10991 5.75L6.29992 11.22L7.12993 9.8L4.85991 5.75999H3.10991V5.75Z" fill="#353535"/>
</svg>
