<svg width="24" height="24" viewBox="0 0 24 24" fill="none" xmlns="http://www.w3.org/2000/svg">
<path d="M12.0001 11.49C10.6801 11.49 9.4401 10.98 8.5101 10.04L2.78012 4.30999C2.26012 3.78999 2.11011 3.01999 2.39011 2.34999C2.67011 1.67999 3.32008 1.23999 4.05008 1.23999H5.46011C6.50011 1.23999 7.48011 1.64999 8.21011 2.37999L11.7901 5.95999C11.9401 6.10999 12.0601 6.10999 12.2101 5.95999L15.7901 2.37999C16.5301 1.63999 17.5001 1.23999 18.5401 1.23999H19.9501C20.6801 1.23999 21.3301 1.67999 21.6101 2.34999C21.8901 3.01999 21.7401 3.78999 21.2201 4.30999L15.4901 10.04C14.5601 10.98 13.3201 11.49 12.0001 11.49ZM4.05008 2.74999C3.88008 2.74999 3.80011 2.86999 3.77011 2.92999C3.74011 2.98999 3.71011 3.12999 3.83011 3.24999L9.56009 8.97999C10.8601 10.28 13.1301 10.28 14.4301 8.97999L20.1601 3.24999C20.2801 3.12999 20.2501 2.98999 20.2201 2.92999C20.1901 2.86999 20.1201 2.74999 19.9401 2.74999H18.5301C17.8901 2.74999 17.2901 2.99999 16.8401 3.44999L13.2601 7.02999C12.5601 7.72999 11.4201 7.72999 10.7201 7.02999L7.14011 3.44999C6.69011 2.99999 6.0901 2.74999 5.4501 2.74999H4.05008Z" fill="#353535"/>
<path d="M19.9501 22.72H18.5401C17.5001 22.72 16.5201 22.31 15.7901 21.58L12.2101 18C12.0601 17.85 11.9401 17.85 11.7901 18L8.21011 21.58C7.47011 22.32 6.50011 22.72 5.46011 22.72H4.05008C3.32008 22.72 2.67011 22.28 2.39011 21.61C2.11011 20.94 2.26012 20.17 2.78012 19.65L8.5101 13.92C9.4401 12.99 10.6801 12.47 12.0001 12.47C13.3201 12.47 14.5601 12.98 15.4901 13.92L21.2201 19.65C21.7401 20.17 21.8901 20.94 21.6101 21.61C21.3301 22.28 20.6801 22.72 19.9501 22.72ZM12.0001 16.42C12.4601 16.42 12.9201 16.6 13.2701 16.95L16.8501 20.53C17.3001 20.98 17.9001 21.23 18.5401 21.23H19.9501C20.1201 21.23 20.2001 21.11 20.2301 21.05C20.2601 20.99 20.2901 20.85 20.1701 20.73L14.4401 15C13.1401 13.7 10.8701 13.7 9.5701 15L3.84012 20.73C3.72012 20.85 3.75012 20.99 3.78012 21.05C3.81012 21.11 3.88009 21.23 4.06009 21.23H5.47006C6.11006 21.23 6.71006 20.98 7.16006 20.53L10.7401 16.95C11.0801 16.59 11.5401 16.42 12.0001 16.42Z" fill="#353535"/>
</svg>
