<svg width="24" height="24" viewBox="0 0 24 24" fill="none" xmlns="http://www.w3.org/2000/svg">
<path d="M20.5 15.25C20.09 15.25 19.75 14.91 19.75 14.5C19.75 14.09 20.09 13.75 20.5 13.75C21.09 13.75 21.22 13.66 21.23 13.66C21.25 13.6 21.25 13.25 21.25 13V11C21.25 10.75 21.25 10.41 21.21 10.32C21.2 10.33 21.05 10.25 20.5 10.25C20.09 10.25 19.75 9.91 19.75 9.5C19.75 9.09 20.09 8.75 20.5 8.75C22.58 8.75 22.75 9.77 22.75 11V13C22.75 14.23 22.58 15.25 20.5 15.25Z" fill="#353535"/>
<path d="M6.38001 14.75C6.32001 14.75 6.26001 14.74 6.20001 14.73C5.80001 14.63 5.55001 14.22 5.65001 13.82C5.95001 12.63 5.95001 11.37 5.65001 10.18C5.55001 9.77998 5.79001 9.36998 6.20001 9.26998C6.60001 9.16998 7.00001 9.41997 7.10001 9.81997C7.46001 11.25 7.46001 12.76 7.10001 14.18C7.02001 14.52 6.71001 14.75 6.38001 14.75Z" fill="#353535"/>
<path d="M9.88001 14.7499C9.82001 14.7499 9.76001 14.7399 9.70001 14.7299C9.30001 14.6299 9.05001 14.2199 9.15001 13.8199C9.45001 12.6299 9.45001 11.3699 9.15001 10.1799C9.05001 9.77995 9.29001 9.36995 9.70001 9.26995C10.1 9.16995 10.51 9.40995 10.61 9.81995C10.97 11.2499 10.97 12.7599 10.61 14.1799C10.52 14.5199 10.21 14.7499 9.88001 14.7499Z" fill="#353535"/>
<path d="M13.38 14.7499C13.32 14.7499 13.26 14.7399 13.2 14.7299C12.8 14.6299 12.55 14.2199 12.65 13.8199C12.95 12.6299 12.95 11.3699 12.65 10.1799C12.55 9.77995 12.79 9.36995 13.2 9.26995C13.6 9.16995 14.01 9.40995 14.11 9.81995C14.47 11.2499 14.47 12.7599 14.11 14.1799C14.02 14.5199 13.71 14.7499 13.38 14.7499Z" fill="#353535"/>
<path d="M13 19.75H7C2.59 19.75 1.25 18.41 1.25 14V10C1.25 5.59 2.59 4.25 7 4.25H13C17.41 4.25 18.75 5.59 18.75 10V14C18.75 18.41 17.41 19.75 13 19.75ZM7 5.75C3.43 5.75 2.75 6.43 2.75 10V14C2.75 17.57 3.43 18.25 7 18.25H13C16.57 18.25 17.25 17.57 17.25 14V10C17.25 6.43 16.57 5.75 13 5.75H7Z" fill="#353535"/>
</svg>
