<svg width="24" height="24" viewBox="0 0 24 24" fill="none" xmlns="http://www.w3.org/2000/svg">
<path d="M22 22.75H2C1.59 22.75 1.25 22.41 1.25 22C1.25 21.59 1.59 21.25 2 21.25H22C22.41 21.25 22.75 21.59 22.75 22C22.75 22.41 22.41 22.75 22 22.75Z" fill="#353535"/>
<path d="M20.89 22.75C20.48 22.75 20.14 22.41 20.14 22V13C20.14 11.76 18.98 10.75 17.56 10.75H6.43999C5.01999 10.75 3.85999 11.76 3.85999 13V22C3.85999 22.41 3.51999 22.75 3.10999 22.75C2.69999 22.75 2.35999 22.41 2.35999 22V13C2.35999 10.93 4.18999 9.25 6.43999 9.25H17.55C19.8 9.25 21.63 10.93 21.63 13V22C21.64 22.41 21.3 22.75 20.89 22.75Z" fill="#353535"/>
<path d="M18.44 10.75C18.03 10.75 17.69 10.41 17.69 10V7.17C17.69 6.39 16.94 5.75 16.03 5.75H7.98C7.06 5.75 6.32 6.39 6.32 7.17V10C6.32 10.41 5.98 10.75 5.57 10.75C5.16 10.75 4.81 10.41 4.81 10V7.17C4.81 5.56 6.23 4.25 7.97 4.25H16.02C17.76 4.25 19.18 5.56 19.18 7.17V10C19.19 10.41 18.85 10.75 18.44 10.75Z" fill="#353535"/>
<path d="M17.33 17.75C16.17 17.75 15.23 16.81 15.23 15.65V15.34C15.23 15.01 14.96 14.74 14.63 14.74C14.3 14.74 14.03 15.01 14.03 15.34V15.65C14.03 16.81 13.09 17.75 11.93 17.75C10.77 17.75 9.83001 16.81 9.83001 15.65V15.34C9.83001 15.01 9.56001 14.74 9.23001 14.74C8.90001 14.74 8.63001 15.01 8.63001 15.34V15.65C8.63001 16.81 7.69001 17.75 6.53001 17.75C5.37001 17.75 4.43001 16.81 4.43001 15.65V15.32C4.43001 15 4.17001 14.73 3.84001 14.72H3.47001C3.06001 14.71 2.72001 14.37 2.73001 13.96C2.74001 13.55 3.07001 13.22 3.48001 13.22H3.49001H3.86001C5.00001 13.24 5.93001 14.18 5.93001 15.32V15.65C5.93001 15.98 6.20001 16.25 6.53001 16.25C6.86001 16.25 7.13001 15.98 7.13001 15.65V15.34C7.13001 14.18 8.07001 13.24 9.23001 13.24C10.39 13.24 11.33 14.18 11.33 15.34V15.65C11.33 15.98 11.6 16.25 11.93 16.25C12.26 16.25 12.53 15.98 12.53 15.65V15.34C12.53 14.18 13.47 13.24 14.63 13.24C15.79 13.24 16.73 14.18 16.73 15.34V15.65C16.73 15.98 17 16.25 17.33 16.25C17.66 16.25 17.93 15.98 17.93 15.65V15.34C17.93 14.18 18.87 13.24 20.03 13.24H20.48C20.89 13.24 21.23 13.58 21.23 13.99C21.23 14.4 20.89 14.74 20.48 14.74H20.03C19.7 14.74 19.43 15.01 19.43 15.34V15.65C19.43 16.81 18.49 17.75 17.33 17.75Z" fill="#353535"/>
<path d="M8 5.75C7.59 5.75 7.25 5.41 7.25 5V3C7.25 2.59 7.59 2.25 8 2.25C8.41 2.25 8.75 2.59 8.75 3V5C8.75 5.41 8.41 5.75 8 5.75Z" fill="#353535"/>
<path d="M16 5.75C15.59 5.75 15.25 5.41 15.25 5V3C15.25 2.59 15.59 2.25 16 2.25C16.41 2.25 16.75 2.59 16.75 3V5C16.75 5.41 16.41 5.75 16 5.75Z" fill="#353535"/>
<path d="M12 5.75C11.59 5.75 11.25 5.41 11.25 5V2C11.25 1.59 11.59 1.25 12 1.25C12.41 1.25 12.75 1.59 12.75 2V5C12.75 5.41 12.41 5.75 12 5.75Z" fill="#353535"/>
</svg>
