<svg width="24" height="24" viewBox="0 0 24 24" fill="none" xmlns="http://www.w3.org/2000/svg">
<path d="M9.17 15.58C8.98 15.58 8.79 15.51 8.64 15.36C8.35 15.07 8.35 14.59 8.64 14.3L14.3 8.63999C14.59 8.34999 15.07 8.34999 15.36 8.63999C15.65 8.92999 15.65 9.40998 15.36 9.69998L9.7 15.36C9.56 15.51 9.36 15.58 9.17 15.58Z" fill="#353535"/>
<path d="M14.83 15.58C14.64 15.58 14.45 15.51 14.3 15.36L8.64 9.69998C8.35 9.40998 8.35 8.92999 8.64 8.63999C8.93 8.34999 9.41 8.34999 9.7 8.63999L15.36 14.3C15.65 14.59 15.65 15.07 15.36 15.36C15.21 15.51 15.02 15.58 14.83 15.58Z" fill="#353535"/>
<path d="M15 22.75H9C3.57 22.75 1.25 20.43 1.25 15V9C1.25 3.57 3.57 1.25 9 1.25H15C20.43 1.25 22.75 3.57 22.75 9V15C22.75 20.43 20.43 22.75 15 22.75ZM9 2.75C4.39 2.75 2.75 4.39 2.75 9V15C2.75 19.61 4.39 21.25 9 21.25H15C19.61 21.25 21.25 19.61 21.25 15V9C21.25 4.39 19.61 2.75 15 2.75H9Z" fill="#353535"/>
</svg>
