<svg width="24" height="24" viewBox="0 0 24 24" fill="none" xmlns="http://www.w3.org/2000/svg">
<path d="M12.15 19.35C11.74 19.35 11.4 19.01 11.4 18.6V16.5C11.4 16.09 11.74 15.75 12.15 15.75C12.56 15.75 12.9 16.09 12.9 16.5V18.6C12.9 19.01 12.56 19.35 12.15 19.35Z" fill="#353535"/>
<path d="M17.9 22.75H6.39999V21C6.39999 19.48 7.62999 18.25 9.14999 18.25H15.15C16.67 18.25 17.9 19.48 17.9 21V22.75ZM7.89999 21.25H16.4V21C16.4 20.31 15.84 19.75 15.15 19.75H9.14999C8.45999 19.75 7.89999 20.31 7.89999 21V21.25Z" fill="#353535"/>
<path d="M18.15 22.75H6.14999C5.73999 22.75 5.39999 22.41 5.39999 22C5.39999 21.59 5.73999 21.25 6.14999 21.25H18.15C18.56 21.25 18.9 21.59 18.9 22C18.9 22.41 18.56 22.75 18.15 22.75Z" fill="#353535"/>
<path d="M18.43 12.4401C18.22 12.4401 18.01 12.3501 17.86 12.1801C17.67 11.9601 17.62 11.6501 17.74 11.3901C18.08 10.6101 18.25 9.78006 18.25 8.91006V5.91006C18.25 5.56006 18.19 5.22006 18.07 4.86006C18.06 4.83006 18.05 4.79006 18.04 4.75006C18.01 4.60006 18 4.45006 18 4.31006C18 3.90006 18.34 3.56006 18.75 3.56006H19.35C21.14 3.56006 22.6 5.06006 22.6 6.91006C22.6 8.44006 21.97 9.95006 20.88 11.0401C20.86 11.0601 20.8 11.1101 20.79 11.1201C20.2 11.6101 19.53 12.1601 18.63 12.4101C18.56 12.4301 18.5 12.4401 18.43 12.4401ZM19.68 5.09006C19.73 5.36006 19.75 5.64006 19.75 5.91006V8.91006C19.75 9.32006 19.72 9.71006 19.66 10.1101C19.72 10.0601 19.77 10.0201 19.83 9.97006C20.63 9.17006 21.1 8.05006 21.1 6.91006C21.1 6.01006 20.49 5.25006 19.68 5.09006Z" fill="#353535"/>
<path d="M5.57999 12.4C5.49999 12.4 5.42999 12.39 5.34999 12.36C4.52999 12.1 3.75999 11.62 3.11999 10.98C1.96999 9.70998 1.39999 8.31998 1.39999 6.84998C1.39999 5.02998 2.82999 3.59998 4.64999 3.59998H5.29999C5.54999 3.59998 5.78999 3.72998 5.92999 3.93998C6.06999 4.14998 6.08999 4.41998 5.98999 4.64998C5.82999 5.00998 5.74999 5.41998 5.74999 5.84998V8.84998C5.74999 9.70998 5.91999 10.55 6.26999 11.35C6.38999 11.62 6.32999 11.93 6.13999 12.15C5.98999 12.31 5.78999 12.4 5.57999 12.4ZM4.29999 5.12998C3.48999 5.28998 2.89999 5.98998 2.89999 6.84998C2.89999 7.93998 3.33999 8.98998 4.20999 9.94998C4.24999 9.99998 4.29999 10.04 4.34999 10.08C4.27999 9.66998 4.24999 9.25998 4.24999 8.84998V5.84998C4.24999 5.60998 4.26999 5.36998 4.29999 5.12998Z" fill="#353535"/>
<path d="M12 16.75C7.73 16.75 4.25 13.27 4.25 9V6C4.25 3.38 6.38 1.25 9 1.25H15C17.62 1.25 19.75 3.38 19.75 6V9C19.75 13.27 16.27 16.75 12 16.75ZM9 2.75C7.21 2.75 5.75 4.21 5.75 6V9C5.75 12.45 8.55 15.25 12 15.25C15.45 15.25 18.25 12.45 18.25 9V6C18.25 4.21 16.79 2.75 15 2.75H9Z" fill="#353535"/>
</svg>
