<svg width="24" height="24" viewBox="0 0 24 24" fill="none" xmlns="http://www.w3.org/2000/svg">
<path d="M15 22.75H9C3.57 22.75 1.25 20.43 1.25 15V9C1.25 3.57 3.57 1.25 9 1.25H15C20.43 1.25 22.75 3.57 22.75 9V15C22.75 20.43 20.43 22.75 15 22.75ZM9 2.75C4.39 2.75 2.75 4.39 2.75 9V15C2.75 19.61 4.39 21.25 9 21.25H15C19.61 21.25 21.25 19.61 21.25 15V9C21.25 4.39 19.61 2.75 15 2.75H9Z" fill="#353535"/>
<path d="M10.64 9.49994C10.45 9.49994 10.26 9.42994 10.11 9.27994C9.4 8.56994 8.24 8.56994 7.53 9.27994C7.24 9.56994 6.76 9.56994 6.47 9.27994C6.18 8.98994 6.18 8.50994 6.47 8.21994C7.76 6.92994 9.87 6.92994 11.17 8.21994C11.46 8.50994 11.46 8.98994 11.17 9.27994C11.02 9.42994 10.83 9.49994 10.64 9.49994Z" fill="#353535"/>
<path d="M13.36 9.49994C13.17 9.49994 12.98 9.42994 12.83 9.27994C12.54 8.98994 12.54 8.50994 12.83 8.21994C14.12 6.92994 16.23 6.92994 17.53 8.21994C17.82 8.50994 17.82 8.98994 17.53 9.27994C17.24 9.56994 16.76 9.56994 16.47 9.27994C15.76 8.56994 14.6 8.56994 13.89 9.27994C13.75 9.42994 13.56 9.49994 13.36 9.49994Z" fill="#353535"/>
<path d="M15.6 18.45H8.4C7.49 18.45 6.75 17.71 6.75 16.8C6.75 13.91 9.1 11.55 12 11.55C14.9 11.55 17.25 13.91 17.25 16.8C17.25 17.71 16.51 18.45 15.6 18.45ZM12 13.05C9.93 13.05 8.25 14.73 8.25 16.8C8.25 16.88 8.32 16.95 8.4 16.95H15.6C15.68 16.95 15.75 16.88 15.75 16.8C15.75 14.73 14.07 13.05 12 13.05Z" fill="#353535"/>
</svg>
