<svg width="24" height="24" viewBox="0 0 24 24" fill="none" xmlns="http://www.w3.org/2000/svg">
<path d="M10.9298 22.75C10.4498 22.75 9.9698 22.63 9.5298 22.38C8.6398 21.88 8.1098 20.99 8.1098 19.98V14.63C8.1098 14.12 7.7798 13.37 7.4698 12.98L3.6698 8.98999C3.0398 8.35999 2.5498 7.26001 2.5498 6.45001V4.13C2.5498 2.52 3.7698 1.26001 5.3198 1.26001H18.6498C20.1798 1.26001 21.4198 2.50003 21.4198 4.03003V6.25C21.4198 7.3 20.7898 8.50998 20.1898 9.09998C19.8998 9.38998 19.4198 9.38998 19.1298 9.09998C18.8398 8.80998 18.8398 8.32998 19.1298 8.03998C19.4998 7.66998 19.9198 6.84 19.9198 6.25V4.03003C19.9198 3.33003 19.3498 2.76001 18.6498 2.76001H5.3298C4.6198 2.76001 4.0598 3.36 4.0598 4.13V6.45001C4.0598 6.82001 4.3598 7.55 4.7498 7.94L8.5998 11.99C9.10981 12.62 9.6098 13.68 9.6098 14.63V19.98C9.6098 20.64 10.0598 20.96 10.2598 21.07C10.6898 21.31 11.1998 21.3 11.5998 21.06L12.9998 20.16C13.3498 19.94 13.8098 20.04 14.0398 20.39C14.2598 20.74 14.1598 21.2 13.8098 21.43L12.3998 22.34C11.9498 22.61 11.4398 22.75 10.9298 22.75Z" fill="#353535"/>
<path d="M16.8799 20.25C14.9599 20.25 13.1499 19.23 12.1699 17.58C11.6499 16.74 11.3799 15.76 11.3799 14.75C11.3799 11.72 13.8499 9.25 16.8799 9.25C19.9099 9.25 22.3799 11.72 22.3799 14.75C22.3799 15.76 22.0999 16.74 21.5799 17.59C20.6099 19.23 18.8099 20.25 16.8799 20.25ZM16.8799 10.75C14.6699 10.75 12.8799 12.54 12.8799 14.75C12.8799 15.48 13.0799 16.19 13.4599 16.8C14.1799 18.01 15.4899 18.75 16.8799 18.75C18.2999 18.75 19.5799 18.03 20.2999 16.81C20.6799 16.19 20.8799 15.48 20.8799 14.75C20.8799 12.54 19.0899 10.75 16.8799 10.75Z" fill="#353535"/>
<path d="M18.1501 16.74C17.9601 16.74 17.7701 16.67 17.6201 16.52L15.1101 14.01C14.8201 13.72 14.8201 13.24 15.1101 12.95C15.4001 12.66 15.8801 12.66 16.1701 12.95L18.6801 15.46C18.9701 15.75 18.9701 16.23 18.6801 16.52C18.5401 16.67 18.3501 16.74 18.1501 16.74Z" fill="#353535"/>
<path d="M15.6201 16.77C15.4301 16.77 15.2401 16.7 15.0901 16.55C14.8001 16.26 14.8001 15.78 15.0901 15.49L17.6001 12.98C17.8901 12.69 18.3701 12.69 18.6601 12.98C18.9501 13.27 18.9501 13.7499 18.6601 14.0399L16.1501 16.55C16.0001 16.7 15.8101 16.77 15.6201 16.77Z" fill="#353535"/>
<path d="M10.9298 22.75C10.4498 22.75 9.9698 22.63 9.5398 22.39C8.6498 21.89 8.1198 20.99 8.1198 19.98V14.63C8.1198 14.13 7.7898 13.37 7.4698 12.98L3.6698 8.98999C3.0398 8.33999 2.5498 7.25001 2.5498 6.45001V4.12C2.5498 2.51 3.7698 1.25 5.3198 1.25H18.6598C20.1898 1.25 21.4298 2.49002 21.4298 4.02002V6.23999C21.4298 7.28999 20.8098 8.47003 20.2098 9.09003L18.4098 10.68C18.2298 10.84 17.9698 10.9 17.7398 10.85C17.4698 10.78 17.1798 10.75 16.8798 10.75C14.6698 10.75 12.8798 12.54 12.8798 14.75C12.8798 15.48 13.0798 16.19 13.4598 16.81C13.7798 17.34 14.2098 17.78 14.7098 18.09C14.9298 18.23 15.0698 18.47 15.0698 18.73V19.07C15.0698 19.86 14.5898 20.97 13.7898 21.44L12.4098 22.33C11.9598 22.61 11.4398 22.75 10.9298 22.75ZM5.3298 2.75C4.6198 2.75 4.0598 3.35 4.0598 4.12V6.45001C4.0598 6.81001 4.3598 7.55001 4.7598 7.95001L8.6098 12C9.1198 12.63 9.6298 13.7 9.6298 14.64V19.99C9.6298 20.65 10.0898 20.98 10.2798 21.09C10.7098 21.33 11.2198 21.32 11.6098 21.08L13.0098 20.18C13.2798 20.02 13.5498 19.51 13.5698 19.15C13.0198 18.74 12.5398 18.21 12.1798 17.61C11.6598 16.76 11.3798 15.78 11.3798 14.78C11.3798 11.75 13.8498 9.28003 16.8798 9.28003C17.1598 9.28003 17.4398 9.30003 17.6998 9.34003L19.1798 8.03003C19.5198 7.68003 19.9398 6.85001 19.9398 6.26001V4.03998C19.9398 3.33998 19.3698 2.77002 18.6698 2.77002H5.3298V2.75Z" fill="#353535"/>
</svg>
