<svg width="24" height="24" viewBox="0 0 24 24" fill="none" xmlns="http://www.w3.org/2000/svg">
<path d="M6.45001 22.75C6.04001 22.75 5.70001 22.41 5.70001 22V2C5.70001 1.59 6.04001 1.25 6.45001 1.25C6.86001 1.25 7.20001 1.59 7.20001 2V22C7.20001 22.41 6.86001 22.75 6.45001 22.75Z" fill="#353535"/>
<path d="M6.94999 17.75C6.66999 17.75 6.40999 17.6 6.27999 17.33C6.09999 16.96 6.24999 16.51 6.61999 16.33L14.92 12.23C16.14 11.6 16.83 10.84 16.8 10.13C16.77 9.43999 16.03 8.72999 14.76 8.18999L6.65999 4.68999C6.26999 4.51999 6.09999 4.07999 6.25999 3.69999C6.41999 3.31999 6.86999 3.13999 7.24999 3.30999L15.35 6.80999C17.85 7.86999 18.27 9.30999 18.3 10.07C18.35 11.4 17.39 12.64 15.6 13.56L7.28999 17.67C7.17999 17.73 7.05999 17.75 6.94999 17.75Z" fill="#353535"/>
</svg>
