<svg width="24" height="24" viewBox="0 0 24 24" fill="none" xmlns="http://www.w3.org/2000/svg">
<path d="M9.98999 22.75C9.78999 22.75 9.62999 22.71 9.50999 22.66C9.10999 22.51 8.42999 22.02 8.42999 20.47V18.03C8.42999 17.62 8.76999 17.28 9.17999 17.28C9.58999 17.28 9.92999 17.62 9.92999 18.03V20.47C9.92999 20.97 10.02 21.19 10.06 21.25C10.09 21.21 10.3 21.11 10.63 20.73L18.2 12.13C18.48 11.81 18.52 11.61 18.52 11.57C18.5 11.56 18.32 11.46 17.9 11.46H16.97C16.56 11.46 16.22 11.12 16.22 10.71C16.22 10.3 16.56 9.95996 16.97 9.95996H17.9C19.24 9.95996 19.72 10.59 19.89 10.96C20.06 11.34 20.21 12.11 19.33 13.12L11.76 21.72C11.05 22.54 10.43 22.75 9.98999 22.75Z" fill="#353535"/>
<path d="M9.18002 15.22C8.77002 15.22 8.43002 14.88 8.43002 14.47V14.04H6.09002C4.75002 14.04 4.27002 13.41 4.10002 13.04C3.93002 12.66 3.78002 11.89 4.66002 10.88L12.23 2.28003C13.25 1.12003 14.08 1.20003 14.48 1.35003C14.88 1.50003 15.56 1.99003 15.56 3.54003V8.85003C15.56 9.26003 15.22 9.60003 14.81 9.60003C14.4 9.60003 14.06 9.26003 14.06 8.85003V3.52003C14.06 3.02003 13.97 2.80003 13.93 2.74003C13.9 2.78003 13.69 2.88003 13.36 3.26003L5.79002 11.86C5.51002 12.18 5.47002 12.38 5.47002 12.42C5.49002 12.43 5.67002 12.53 6.09002 12.53H9.18002C9.59002 12.53 9.93002 12.87 9.93002 13.28V14.46C9.93002 14.88 9.59002 15.22 9.18002 15.22Z" fill="#353535"/>
<path d="M2 22.7499C1.81 22.7499 1.62 22.6799 1.47 22.5299C1.18 22.2399 1.18 21.7599 1.47 21.4699L21.47 1.46994C21.76 1.17994 22.24 1.17994 22.53 1.46994C22.82 1.75994 22.82 2.23994 22.53 2.52994L2.53 22.5299C2.38 22.6799 2.19 22.7499 2 22.7499Z" fill="#353535"/>
</svg>
