<svg width="24" height="24" viewBox="0 0 24 24" fill="none" xmlns="http://www.w3.org/2000/svg">
<path d="M12 18.7499C11.59 18.7499 11.25 18.4099 11.25 17.9999V14.9999C11.25 14.5899 11.59 14.2499 12 14.2499C12.41 14.2499 12.75 14.5899 12.75 14.9999V17.9999C12.75 18.4099 12.41 18.7499 12 18.7499Z" fill="#353535"/>
<path d="M17.6 22.5599H6.40002C4.58002 22.5599 2.92002 21.1599 2.62002 19.3699L1.29002 11.3999C1.07002 10.1599 1.68002 8.56994 2.67002 7.77994L9.60002 2.22994C10.94 1.14994 13.05 1.15994 14.4 2.23994L21.33 7.77994C22.31 8.56994 22.91 10.1599 22.71 11.3999L21.38 19.3599C21.08 21.1299 19.38 22.5599 17.6 22.5599ZM11.99 2.92994C11.46 2.92994 10.93 3.08994 10.54 3.39994L3.61002 8.95994C3.05002 9.40994 2.65002 10.4499 2.77002 11.1599L4.10002 19.1199C4.28002 20.1699 5.33002 21.0599 6.40002 21.0599H17.6C18.67 21.0599 19.72 20.1699 19.9 19.1099L21.23 11.1499C21.34 10.4499 20.94 9.38994 20.39 8.94994L13.46 3.40994C13.06 3.08994 12.52 2.92994 11.99 2.92994Z" fill="#353535"/>
</svg>
