<svg width="24" height="24" viewBox="0 0 24 24" fill="none" xmlns="http://www.w3.org/2000/svg">
<path d="M12.01 22.7399C11.38 22.7399 10.76 22.5299 10.27 22.1099L8.69 20.7599C8.53 20.6199 8.13 20.4799 7.92 20.4799H6.17C4.69 20.4799 3.49 19.2799 3.49 17.7999V16.0899C3.49 15.8799 3.35 15.4799 3.22 15.3299L1.86 13.7299C1.04 12.7599 1.04 11.2399 1.86 10.2599L3.22 8.65995C3.35 8.50995 3.49 8.10995 3.49 7.89995V6.19995C3.49 4.71995 4.69 3.51995 6.17 3.51995H7.9C8.11 3.51995 8.5 3.36995 8.67 3.22995L10.25 1.87995C11.23 1.04995 12.76 1.04995 13.74 1.87995L15.32 3.22995C15.48 3.36995 15.89 3.50995 16.1 3.50995H17.8C19.28 3.50995 20.48 4.70995 20.48 6.18995V7.88995C20.48 8.09995 20.63 8.48995 20.77 8.65995L22.12 10.2399C22.96 11.2299 22.95 12.7599 22.12 13.7299L20.77 15.3099C20.63 15.4799 20.49 15.8699 20.49 16.0799V17.7799C20.49 19.2599 19.29 20.4599 17.81 20.4599H16.11C15.9 20.4599 15.51 20.6099 15.33 20.7499L13.75 22.0999C13.26 22.5299 12.63 22.7399 12.01 22.7399ZM6.17 5.01995C5.52 5.01995 4.99 5.54995 4.99 6.19995V7.89995C4.99 8.46995 4.73 9.18995 4.36 9.62995L3 11.2299C2.66 11.6399 2.66 12.3599 3 12.7599L4.35 14.3499C4.71 14.7599 4.98 15.5099 4.98 16.0799V17.7899C4.98 18.4399 5.51 18.9699 6.16 18.9699H7.9C8.46 18.9699 9.2 19.2399 9.64 19.6099L11.23 20.9699C11.64 21.3199 12.36 21.3199 12.77 20.9699L14.35 19.6199C14.8 19.2399 15.53 18.9799 16.09 18.9799H17.79C18.44 18.9799 18.97 18.4499 18.97 17.7999V16.0999C18.97 15.5399 19.24 14.8099 19.61 14.3599L20.97 12.7699C21.32 12.3599 21.32 11.6399 20.97 11.2299L19.62 9.64995C19.24 9.19995 18.98 8.46995 18.98 7.90995V6.19995C18.98 5.54995 18.45 5.01995 17.8 5.01995H16.1C15.53 5.01995 14.79 4.74995 14.35 4.37995L12.76 3.01995C12.35 2.66995 11.64 2.66995 11.22 3.01995L9.65 4.37995C9.2 4.74995 8.47 5.01995 7.9 5.01995H6.17Z" fill="#353535"/>
<path d="M12 16.87C11.45 16.87 11 16.42 11 15.87C11 15.32 11.44 14.87 12 14.87C12.55 14.87 13 15.32 13 15.87C13 16.42 12.56 16.87 12 16.87Z" fill="#353535"/>
<path d="M12 13.72C11.59 13.72 11.25 13.38 11.25 12.97V8.13C11.25 7.72 11.59 7.38 12 7.38C12.41 7.38 12.75 7.72 12.75 8.13V12.96C12.75 13.38 12.42 13.72 12 13.72Z" fill="#353535"/>
</svg>
