<svg width="24" height="24" viewBox="0 0 24 24" fill="none" xmlns="http://www.w3.org/2000/svg">
<path d="M20.7797 19.34H3.21973C2.80973 19.34 2.46973 19 2.46973 18.59V13.65C2.46973 8.42999 6.71973 4.17999 11.9397 4.17999H12.0597C17.2797 4.17999 21.5297 8.42999 21.5297 13.65V18.59C21.5297 19 21.1897 19.34 20.7797 19.34ZM3.96973 17.84H20.0297V13.65C20.0297 9.24999 16.4497 5.67999 12.0597 5.67999H11.9397C7.53973 5.67999 3.96973 9.25999 3.96973 13.65V17.84Z" fill="#353535"/>
<path d="M12 5.67999C11.59 5.67999 11.25 5.33999 11.25 4.92999V2C11.25 1.59 11.59 1.25 12 1.25C12.41 1.25 12.75 1.59 12.75 2V4.92999C12.75 5.33999 12.41 5.67999 12 5.67999Z" fill="#353535"/>
<path d="M12.0001 22.75C9.69006 22.75 7.76006 20.94 7.60006 18.64C7.59006 18.43 7.66004 18.23 7.80004 18.08C7.94004 17.93 8.14006 17.84 8.35006 17.84H15.65C15.86 17.84 16.0601 17.93 16.2001 18.08C16.3401 18.23 16.41 18.44 16.4 18.64C16.24 20.94 14.3101 22.75 12.0001 22.75ZM9.27004 19.34C9.68004 20.46 10.7601 21.25 12.0001 21.25C13.2401 21.25 14.3201 20.46 14.7301 19.34H9.27004Z" fill="#353535"/>
</svg>
