<svg width="24" height="24" viewBox="0 0 24 24" fill="none" xmlns="http://www.w3.org/2000/svg">
<path d="M11.92 22.75C6 22.75 1.17 17.93 1.17 12C1.17 6.07 6 1.25 11.92 1.25C17.84 1.25 22.67 6.07 22.67 12C22.67 17.93 17.85 22.75 11.92 22.75ZM11.92 2.75C6.82 2.75 2.67 6.9 2.67 12C2.67 17.1 6.82 21.25 11.92 21.25C17.02 21.25 21.17 17.1 21.17 12C21.17 6.9 17.02 2.75 11.92 2.75Z" fill="#353535"/>
<path d="M15.92 12.75H7.92C7.51 12.75 7.17 12.41 7.17 12C7.17 11.59 7.51 11.25 7.92 11.25H15.92C16.33 11.25 16.67 11.59 16.67 12C16.67 12.41 16.34 12.75 15.92 12.75Z" fill="#353535"/>
</svg>
