<svg width="24" height="24" viewBox="0 0 24 24" fill="none" xmlns="http://www.w3.org/2000/svg">
<path d="M16.3702 22.77C16.3602 22.77 16.3602 22.77 16.3502 22.77C15.3402 22.76 14.5002 22.14 14.2002 21.17L12.3502 15.22C12.1002 14.4 12.3102 13.52 12.9202 12.93C13.5202 12.34 14.3902 12.12 15.1902 12.37L21.1502 14.22C22.1102 14.52 22.7402 15.36 22.7502 16.37C22.7602 17.37 22.1502 18.22 21.1902 18.54L19.5602 19.09C19.3302 19.17 19.1502 19.34 19.0802 19.57L18.5202 21.21C18.2102 22.16 17.3702 22.77 16.3702 22.77ZM14.5102 13.77C14.2402 13.77 14.0602 13.92 13.9802 13.99C13.7702 14.2 13.7002 14.49 13.7902 14.78L15.6402 20.73C15.8002 21.24 16.2402 21.26 16.3802 21.27C16.5202 21.27 16.9502 21.23 17.1102 20.74L17.6702 19.1C17.8902 18.43 18.4302 17.9 19.1002 17.67L20.7302 17.12C21.2302 16.96 21.2602 16.52 21.2602 16.39C21.2602 16.26 21.2202 15.82 20.7202 15.66L14.7602 13.81C14.6602 13.78 14.5802 13.77 14.5102 13.77Z" fill="#353535"/>
<path d="M12 22.75C6.07 22.75 1.25 17.93 1.25 12C1.25 6.07 6.07 1.25 12 1.25C17.93 1.25 22.75 6.07 22.75 12C22.75 12.41 22.41 12.75 22 12.75C21.59 12.75 21.25 12.41 21.25 12C21.25 6.9 17.1 2.75 12 2.75C6.9 2.75 2.75 6.9 2.75 12C2.75 17.1 6.9 21.25 12 21.25C12.41 21.25 12.75 21.59 12.75 22C12.75 22.41 12.41 22.75 12 22.75Z" fill="#353535"/>
</svg>
