<svg width="24" height="24" viewBox="0 0 24 24" fill="none" xmlns="http://www.w3.org/2000/svg">
<path d="M11.31 18C11.3 18 11.3 18 11.29 18C10.25 17.99 9.36999 17.34 9.05999 16.35L7.10999 10.07C6.84999 9.21997 7.06999 8.30997 7.69999 7.68997C8.31999 7.06997 9.21999 6.84995 10.06 7.10995L16.35 9.05997C17.35 9.36997 18 10.25 18.01 11.29C18.02 12.33 17.39 13.21 16.4 13.54L14.68 14.12C14.42 14.21 14.23 14.4 14.14 14.65L13.55 16.38C13.22 17.37 12.34 18 11.31 18ZM9.33998 8.49997C9.03998 8.49997 8.83999 8.65997 8.74999 8.74997C8.51999 8.97997 8.43998 9.30996 8.53998 9.61996L10.49 15.9C10.66 16.45 11.15 16.5 11.3 16.5C11.42 16.49 11.93 16.46 12.11 15.91L12.7 14.18C12.93 13.49 13.49 12.93 14.18 12.7L15.9 12.12C15.9 12.12 15.9 12.12 15.91 12.12C16.46 11.94 16.5 11.45 16.5 11.31C16.5 11.16 16.45 10.67 15.9 10.5L9.60999 8.54996C9.50999 8.50996 9.41998 8.49997 9.33998 8.49997Z" fill="#353535"/>
<path d="M12 22.75C6.07 22.75 1.25 17.93 1.25 12C1.25 6.07 6.07 1.25 12 1.25C17.93 1.25 22.75 6.07 22.75 12C22.75 17.93 17.93 22.75 12 22.75ZM12 2.75C6.9 2.75 2.75 6.9 2.75 12C2.75 17.1 6.9 21.25 12 21.25C17.1 21.25 21.25 17.1 21.25 12C21.25 6.9 17.1 2.75 12 2.75Z" fill="#353535"/>
</svg>
