<svg width="24" height="24" viewBox="0 0 24 24" fill="none" xmlns="http://www.w3.org/2000/svg">
<path d="M5.40999 21.75C4.28999 21.75 3.57999 21.37 3.12999 20.92C2.24999 20.04 1.62999 18.17 3.60999 14.2L4.47999 12.47C4.58999 12.24 4.58999 11.76 4.47999 11.53L3.60999 9.80002C1.61999 5.83002 2.24999 3.95002 3.12999 3.08002C3.99999 2.20002 5.87999 1.57002 9.83999 3.56002L18.4 7.84002C20.53 8.90002 21.7 10.38 21.7 12C21.7 13.62 20.53 15.1 18.41 16.16L9.84999 20.44C7.90999 21.41 6.46999 21.75 5.40999 21.75ZM5.40999 3.75002C4.86999 3.75002 4.44999 3.88002 4.18999 4.14002C3.45999 4.86002 3.74999 6.73002 4.94999 9.12002L5.81999 10.86C6.13999 11.51 6.13999 12.49 5.81999 13.14L4.94999 14.87C3.74999 17.27 3.45999 19.13 4.18999 19.85C4.90999 20.58 6.77999 20.29 9.17999 19.09L17.74 14.81C19.31 14.03 20.2 13 20.2 11.99C20.2 10.98 19.3 9.95002 17.73 9.17002L9.16999 4.90002C7.64999 4.14002 6.33999 3.75002 5.40999 3.75002Z" fill="#353535"/>
<path d="M10.84 12.75H5.44C5.03 12.75 4.69 12.41 4.69 12C4.69 11.59 5.03 11.25 5.44 11.25H10.84C11.25 11.25 11.59 11.59 11.59 12C11.59 12.41 11.25 12.75 10.84 12.75Z" fill="#353535"/>
</svg>
