<svg width="24" height="24" viewBox="0 0 24 24" fill="none" xmlns="http://www.w3.org/2000/svg">
<path d="M11.97 22.75C11.36 22.75 10.73 22.7 10.09 22.59C5.68999 21.84 2.09999 18.24 1.36999 13.82C0.789991 10.31 1.87999 6.88003 4.36999 4.39003C6.85999 1.90003 10.29 0.820031 13.79 1.39003C18.2 2.12003 21.81 5.70003 22.56 10.1C22.72 11.07 22.76 12.02 22.68 12.92V12.93C22.66 13.16 22.62 13.38 22.56 13.6C22.49 13.85 22.3 14.04 22.06 14.12C21.82 14.2 21.55 14.14 21.35 13.98C20.41 13.19 19.21 12.75 17.97 12.75C15.07 12.75 12.72 15.11 12.72 18C12.72 19.24 13.16 20.44 13.95 21.38C14.12 21.58 14.17 21.84 14.09 22.09C14.01 22.34 13.82 22.52 13.57 22.59C13.35 22.65 13.13 22.69 12.9 22.71C12.6 22.74 12.29 22.75 11.97 22.75ZM11.97 2.75003C9.51999 2.75003 7.19999 3.70003 5.43999 5.46003C3.29999 7.60003 2.35999 10.56 2.85999 13.58C3.48999 17.37 6.55999 20.47 10.35 21.11C10.95 21.21 11.52 21.27 12.07 21.25C11.53 20.26 11.24 19.14 11.24 18C11.24 14.28 14.27 11.25 17.99 11.25C19.13 11.25 20.25 11.54 21.24 12.08C21.25 11.53 21.2 10.96 21.1 10.36C20.46 6.58003 17.36 3.50003 13.57 2.88003C13.02 2.79003 12.49 2.75003 11.97 2.75003Z" fill="#353535"/>
<path d="M13.38 22.61C13.16 22.61 12.95 22.52 12.81 22.34C11.79 21.13 11.22 19.59 11.22 18C11.22 14.28 14.25 11.25 17.97 11.25C19.56 11.25 21.1 11.81 22.31 12.84C22.54 13.03 22.63 13.34 22.55 13.62C22.37 14.24 22.05 14.78 21.59 15.24L15.21 21.62C14.75 22.08 14.2 22.4 13.59 22.58C13.52 22.6 13.45 22.61 13.38 22.61ZM17.97 12.75C15.07 12.75 12.72 15.11 12.72 18C12.72 19.06 13.04 20.09 13.63 20.95C13.82 20.85 13.99 20.72 14.15 20.56L20.53 14.18C20.69 14.02 20.82 13.85 20.92 13.66C20.06 13.07 19.03 12.75 17.97 12.75Z" fill="#353535"/>
</svg>
