<svg width="24" height="24" viewBox="0 0 24 24" fill="none" xmlns="http://www.w3.org/2000/svg">
<path d="M14.6699 21.65H4.21992C3.11992 21.65 2.14994 21.08 1.61994 20.12C1.08994 19.16 1.11996 18.03 1.69996 17.1L4.46992 12.67C4.68992 12.32 4.68992 11.67 4.46992 11.33L1.69996 6.89998C1.11996 5.96998 1.08994 4.83998 1.61994 3.87998C2.14994 2.91998 3.12992 2.34998 4.21992 2.34998H15.6599C16.5999 2.34998 17.6899 2.94998 18.1799 3.74998L22.3599 10.43C22.9199 11.33 22.8699 12.71 22.2299 13.56L17.0499 20.46C16.5399 21.14 15.5199 21.65 14.6699 21.65ZM4.21992 3.84998C3.67992 3.84998 3.18994 4.12998 2.92994 4.60998C2.66994 5.08998 2.67992 5.64998 2.96992 6.10998L5.73993 10.54C6.25993 11.38 6.25993 12.64 5.73993 13.48L2.96992 17.91C2.67992 18.37 2.66994 18.93 2.92994 19.41C3.18994 19.89 3.67992 20.17 4.21992 20.17H14.6699C15.0499 20.17 15.6199 19.88 15.8499 19.58L21.03 12.68C21.3 12.32 21.33 11.63 21.09 11.25L16.9099 4.56998C16.6899 4.20998 16.0799 3.87998 15.6599 3.87998H4.21992V3.84998Z" fill="#353535"/>
</svg>
