<svg width="24" height="24" viewBox="0 0 24 24" fill="none" xmlns="http://www.w3.org/2000/svg">
<path d="M21 6.72998C20.98 6.72998 20.95 6.72998 20.92 6.72998C15.63 6.19998 10.35 5.99998 5.12 6.52998L3.08 6.72998C2.66 6.76998 2.29 6.46998 2.25 6.04998C2.21 5.62998 2.51 5.26998 2.92 5.22998L4.96 5.02998C10.28 4.48998 15.67 4.69998 21.07 5.22998C21.48 5.26998 21.78 5.63998 21.74 6.04998C21.71 6.43998 21.38 6.72998 21 6.72998Z" fill="#353535"/>
<path d="M8.49999 5.72C8.45999 5.72 8.41999 5.72 8.36999 5.71C7.96999 5.64 7.68999 5.25 7.75999 4.85L7.97999 3.54C8.13999 2.58 8.35999 1.25 10.69 1.25H13.31C15.65 1.25 15.87 2.63 16.02 3.55L16.24 4.85C16.31 5.26 16.03 5.65 15.63 5.71C15.22 5.78 14.83 5.5 14.77 5.1L14.55 3.8C14.41 2.93 14.38 2.76 13.32 2.76H10.7C9.63999 2.76 9.61999 2.9 9.46999 3.79L9.23999 5.09C9.17999 5.46 8.85999 5.72 8.49999 5.72Z" fill="#353535"/>
<path d="M15.21 22.75H8.79001C5.30001 22.75 5.16001 20.82 5.05001 19.26L4.40001 9.18995C4.37001 8.77995 4.69001 8.41995 5.10001 8.38995C5.52001 8.36995 5.87001 8.67995 5.90001 9.08995L6.55001 19.16C6.66001 20.68 6.70001 21.25 8.79001 21.25H15.21C17.31 21.25 17.35 20.68 17.45 19.16L18.1 9.08995C18.13 8.67995 18.49 8.36995 18.9 8.38995C19.31 8.41995 19.63 8.76995 19.6 9.18995L18.95 19.26C18.84 20.82 18.7 22.75 15.21 22.75Z" fill="#353535"/>
<path d="M13.66 17.25H10.33C9.92 17.25 9.58 16.91 9.58 16.5C9.58 16.09 9.92 15.75 10.33 15.75H13.66C14.07 15.75 14.41 16.09 14.41 16.5C14.41 16.91 14.07 17.25 13.66 17.25Z" fill="#353535"/>
<path d="M14.5 13.25H9.5C9.09 13.25 8.75 12.91 8.75 12.5C8.75 12.09 9.09 11.75 9.5 11.75H14.5C14.91 11.75 15.25 12.09 15.25 12.5C15.25 12.91 14.91 13.25 14.5 13.25Z" fill="#353535"/>
</svg>
