<svg width="24" height="24" viewBox="0 0 24 24" fill="none" xmlns="http://www.w3.org/2000/svg">
<path d="M18.06 22.16H5.94001C3.99001 22.16 2.50001 21.45 1.74001 20.17C0.990006 18.89 1.09001 17.24 2.04001 15.54L8.10001 4.62997C9.10001 2.82997 10.48 1.83997 12 1.83997C13.52 1.83997 14.9 2.82997 15.9 4.62997L21.96 15.54C22.91 17.25 23.02 18.89 22.26 20.17C21.5 21.45 20.01 22.16 18.06 22.16ZM12 3.33997C11.06 3.33997 10.14 4.05997 9.41001 5.35997L3.36001 16.27C2.68001 17.49 2.57001 18.61 3.04001 19.42C3.51001 20.22 4.55001 20.67 5.95001 20.67H18.07C19.47 20.67 20.5 20.23 20.98 19.42C21.45 18.61 21.34 17.5 20.66 16.27L14.59 5.35997C13.86 4.05997 12.94 3.33997 12 3.33997Z" fill="#353535"/>
<path d="M21.44 20.75C21.29 20.75 21.14 20.71 21.01 20.61L12 14.3L2.99 20.61C2.65 20.85 2.18 20.77 1.95 20.43C1.71 20.09 1.79 19.62 2.13 19.39L11.57 12.78C11.83 12.6 12.17 12.6 12.43 12.78L21.87 19.39C22.21 19.63 22.29 20.1 22.05 20.43C21.91 20.64 21.68 20.75 21.44 20.75Z" fill="#353535"/>
<path d="M12 14.14C11.59 14.14 11.25 13.8 11.25 13.39V3C11.25 2.59 11.59 2.25 12 2.25C12.41 2.25 12.75 2.59 12.75 3V13.39C12.75 13.8 12.41 14.14 12 14.14Z" fill="#353535"/>
</svg>
