<svg width="24" height="24" viewBox="0 0 24 24" fill="none" xmlns="http://www.w3.org/2000/svg">
<path d="M17.18 18.75C15.47 18.75 13.43 18.1 13.43 15V9C13.43 5.9 15.47 5.25 17.18 5.25C18.89 5.25 20.93 5.9 20.93 9V15C20.93 18.1 18.89 18.75 17.18 18.75ZM17.18 6.75C15.56 6.75 14.93 7.38 14.93 9V15C14.93 16.62 15.56 17.25 17.18 17.25C18.8 17.25 19.43 16.62 19.43 15V9C19.43 7.38 18.8 6.75 17.18 6.75Z" fill="#353535"/>
<path d="M6.82001 18.75C5.11001 18.75 3.07001 18.1 3.07001 15V9C3.07001 5.9 5.11001 5.25 6.82001 5.25C8.53001 5.25 10.57 5.9 10.57 9V15C10.57 18.1 8.53001 18.75 6.82001 18.75ZM6.82001 6.75C5.20001 6.75 4.57001 7.38 4.57001 9V15C4.57001 16.62 5.20001 17.25 6.82001 17.25C8.44001 17.25 9.07001 16.62 9.07001 15V9C9.07001 7.38 8.44001 6.75 6.82001 6.75Z" fill="#353535"/>
<path d="M14.18 12.75H9.82001C9.41001 12.75 9.07001 12.41 9.07001 12C9.07001 11.59 9.41001 11.25 9.82001 11.25H14.18C14.59 11.25 14.93 11.59 14.93 12C14.93 12.41 14.6 12.75 14.18 12.75Z" fill="#353535"/>
<path d="M22.5 15.25C22.09 15.25 21.75 14.91 21.75 14.5V9.5C21.75 9.09 22.09 8.75 22.5 8.75C22.91 8.75 23.25 9.09 23.25 9.5V14.5C23.25 14.91 22.91 15.25 22.5 15.25Z" fill="#353535"/>
<path d="M1.5 15.25C1.09 15.25 0.75 14.91 0.75 14.5V9.5C0.75 9.09 1.09 8.75 1.5 8.75C1.91 8.75 2.25 9.09 2.25 9.5V14.5C2.25 14.91 1.91 15.25 1.5 15.25Z" fill="#353535"/>
</svg>
