<svg width="24" height="24" viewBox="0 0 24 24" fill="none" xmlns="http://www.w3.org/2000/svg">
<path d="M19.0899 12.59C18.9299 12.59 18.7699 12.54 18.6299 12.43C14.5999 9.32002 9.38993 9.32002 5.35993 12.43C5.02993 12.68 4.55993 12.62 4.30993 12.3C4.05993 11.97 4.11994 11.5 4.43994 11.25C9.02994 7.70002 14.9599 7.70002 19.5399 11.25C19.8699 11.5 19.9299 11.97 19.6699 12.3C19.5399 12.49 19.3199 12.59 19.0899 12.59Z" fill="#353535"/>
<path d="M22 9.11002C21.84 9.11002 21.68 9.06005 21.54 8.95005C15.74 4.47005 8.25004 4.47005 2.46004 8.95005C2.13004 9.20005 1.66003 9.14004 1.41003 8.82004C1.16003 8.49004 1.22002 8.02002 1.54002 7.77002C7.89002 2.86002 16.1 2.86002 22.46 7.77002C22.79 8.02002 22.85 8.49004 22.59 8.82004C22.45 9.01004 22.22 9.11002 22 9.11002Z" fill="#353535"/>
<path d="M17.2101 16.24C17.0501 16.24 16.8901 16.19 16.7501 16.08C13.8701 13.85 10.1401 13.85 7.25007 16.08C6.92007 16.33 6.45007 16.27 6.20007 15.95C5.95007 15.62 6.01007 15.15 6.33007 14.9C9.77007 12.24 14.2201 12.24 17.6601 14.9C17.9901 15.15 18.0501 15.62 17.7901 15.95C17.6501 16.14 17.4301 16.24 17.2101 16.24Z" fill="#353535"/>
<path d="M14.6002 19.9C14.4402 19.9 14.2802 19.85 14.1402 19.74C12.8402 18.73 11.1502 18.73 9.85017 19.74C9.52017 19.99 9.05017 19.93 8.80017 19.61C8.55017 19.28 8.61016 18.81 8.93016 18.56C10.7902 17.12 13.1902 17.12 15.0502 18.56C15.3802 18.81 15.4402 19.28 15.1802 19.61C15.0502 19.79 14.8302 19.9 14.6002 19.9Z" fill="#353535"/>
</svg>
