<svg width="24" height="24" viewBox="0 0 24 24" fill="none" xmlns="http://www.w3.org/2000/svg">
<path d="M13.47 7.41L15.93 6.2C16.23 6.05 16.31 5.66 16.08 5.42C15.19 4.44 14.29 3.62 13.57 3C13.24 2.72 12.75 2.95 12.75 3.38V6.96C12.75 7.33 13.14 7.57 13.47 7.41Z" fill="#353535"/>
<path d="M12.75 19.74V21.39C12.75 21.69 13.02 21.94 13.32 21.89C16.05 21.44 18.33 19.61 19.41 17.15C19.6 16.73 19.14 16.31 18.72 16.51L13.03 19.3C12.86 19.38 12.75 19.55 12.75 19.74Z" fill="#353535"/>
<path d="M11.25 3.36C11.25 2.93 10.76 2.7 10.43 2.97C8.06997 4.95 3.87997 9.12 3.89997 13.9C3.89997 17.92 6.83997 21.25 10.68 21.89C10.98 21.94 11.25 21.69 11.25 21.39V3.36Z" fill="#353535"/>
<path d="M13.44 12.4699L18.73 10.2499C19 10.1299 19.13 9.81995 19 9.55995C18.63 8.82995 18.2 8.11995 17.73 7.45995C17.59 7.25995 17.33 7.19995 17.11 7.29995L13.02 9.28995C12.85 9.36995 12.74 9.54994 12.74 9.73994V12.0099C12.75 12.3599 13.11 12.6099 13.44 12.4699Z" fill="#353535"/>
<path d="M19.83 14.31C19.99 14.23 20.09 14.08 20.09 13.91C20.09 13.27 20.01 12.64 19.87 12.02C19.8 11.72 19.47 11.56 19.19 11.68L13.05 14.3C12.87 14.38 12.75 14.56 12.75 14.76V16.96C12.75 17.33 13.14 17.57 13.47 17.41L19.37 14.54L19.83 14.31Z" fill="#353535"/>
</svg>
