<svg width="24" height="24" viewBox="0 0 24 24" fill="none" xmlns="http://www.w3.org/2000/svg">
<path d="M6 2H18C19.1 2 20 2.9 20 4V7.32C20 7.87 19.55 8.32 19 8.32H5C4.45 8.32 4 7.87 4 7.32V4C4 2.9 4.9 2 6 2Z" fill="#353535"/>
<path d="M4 10.3199V11.8799C4 12.9599 4.58 13.9599 5.53 14.4899L8.49 16.1599C9.12 16.5099 9.51 17.1799 9.51 17.8999V19.9999C9.51 21.0999 10.41 21.9999 11.51 21.9999H12.51C13.61 21.9999 14.51 21.0999 14.51 19.9999V17.8999C14.51 17.1799 14.9 16.5099 15.53 16.1599L18.49 14.4899C19.43 13.9599 20.02 12.9599 20.02 11.8799V10.3199C20.02 9.76995 19.57 9.31995 19.02 9.31995H5C4.45 9.31995 4 9.75995 4 10.3199Z" fill="#353535"/>
</svg>
