<svg width="24" height="24" viewBox="0 0 24 24" fill="none" xmlns="http://www.w3.org/2000/svg">
<path d="M17.04 10.64L9.68998 3.29001L8.81998 2.42001C8.52998 2.13001 8.04998 2.13001 7.75998 2.42001C7.46998 2.71001 7.46998 3.19001 7.75998 3.48001L8.62998 4.35001L2.99998 9.98001C2.35998 10.62 2.01998 11.27 1.99998 11.92C1.97998 12.61 2.31998 13.3 2.99998 13.99L7.00998 18C8.34998 19.33 9.68998 19.33 11.02 18L17.04 11.98C17.24 11.78 17.33 11.51 17.31 11.25C17.3 11.03 17.2 10.8 17.04 10.64Z" fill="#353535"/>
<path d="M16 22.75H3C2.59 22.75 2.25 22.41 2.25 22C2.25 21.59 2.59 21.25 3 21.25H16C16.41 21.25 16.75 21.59 16.75 22C16.75 22.41 16.41 22.75 16 22.75Z" fill="#353535"/>
<path d="M19.35 14.7799C19.09 14.4999 18.61 14.4999 18.35 14.7799C18.04 15.1199 16.5 16.8499 16.5 18.1699C16.5 19.4699 17.55 20.5199 18.85 20.5199C20.15 20.5199 21.2 19.4699 21.2 18.1699C21.2 16.8599 19.66 15.1199 19.35 14.7799Z" fill="#353535"/>
</svg>
