<svg width="24" height="24" viewBox="0 0 24 24" fill="none" xmlns="http://www.w3.org/2000/svg">
<path d="M21.03 22H13.99C13.57 22 13.24 21.66 13.24 21.25C13.24 20.84 13.58 20.5 13.99 20.5H21.03C21.45 20.5 21.78 20.84 21.78 21.25C21.78 21.66 21.45 22 21.03 22Z" fill="#353535"/>
<path d="M13.64 16.69C14.03 17.08 14.03 17.71 13.64 18.11L10.66 21.09C9.55 22.2 7.77 22.26 6.59 21.27C6.52 21.21 6.46 21.15 6.4 21.09L5.53 20.22L3.74 18.43L2.88 17.57C2.81 17.5 2.75 17.43 2.69 17.36C1.71 16.18 1.78 14.42 2.88 13.32L5.86 10.34C6.25 9.94999 6.88 9.94999 7.27 10.34L13.64 16.69Z" fill="#353535"/>
<path d="M21.12 10.6399L16.12 15.6399C15.73 16.0299 15.1 16.0299 14.71 15.6399L8.33999 9.28994C7.94999 8.89994 7.94999 8.26994 8.33999 7.86994L13.34 2.87994C14.51 1.70994 16.43 1.70994 17.6 2.87994L21.12 6.38994C22.29 7.55994 22.29 9.46994 21.12 10.6399Z" fill="#353535"/>
</svg>
