<svg width="24" height="24" viewBox="0 0 24 24" fill="none" xmlns="http://www.w3.org/2000/svg">
<path d="M18.65 4.59003C16.89 2.99003 14.56 2.03003 12 2.03003C6.5 2.03003 2.03 6.50003 2.03 12C2.03 17.5 6.5 21.97 12 21.97C14.56 21.97 16.89 21.01 18.65 19.41C20.69 17.6 21.97 14.94 21.97 12C21.97 9.06003 20.69 6.40003 18.65 4.59003ZM11.97 16.39C11.95 18.04 10.72 18.44 9.57 17.98C7.2 17.03 5.53 14.71 5.53 12C5.53 9.29003 7.2 6.97003 9.57 6.01003C10.72 5.55003 11.95 5.96003 11.97 7.60003V16.39Z" fill="#353535"/>
</svg>
