<svg width="24" height="24" viewBox="0 0 24 24" fill="none" xmlns="http://www.w3.org/2000/svg">
<path d="M21 12.75C20.59 12.75 20.25 12.41 20.25 12V3.75H12C11.59 3.75 11.25 3.41 11.25 3C11.25 2.59 11.59 2.25 12 2.25H21C21.41 2.25 21.75 2.59 21.75 3V12C21.75 12.41 21.41 12.75 21 12.75Z" fill="#353535"/>
<path d="M2.99997 21.75C2.80997 21.75 2.61994 21.68 2.46994 21.53C2.17994 21.24 2.17994 20.7599 2.46994 20.4699L20.4699 2.46994C20.7599 2.17994 21.24 2.17994 21.53 2.46994C21.82 2.75994 21.82 3.24 21.53 3.53L3.53 21.53C3.38 21.68 3.18997 21.75 2.99997 21.75Z" fill="#353535"/>
<path d="M17.4001 18.1501C17.2101 18.1501 17.02 18.08 16.87 17.93L6.07004 7.13004C5.78004 6.84004 5.78004 6.36004 6.07004 6.07004C6.36004 5.78004 6.84004 5.78004 7.13004 6.07004L17.93 16.87C18.22 17.16 18.22 17.64 17.93 17.93C17.78 18.08 17.5901 18.1501 17.4001 18.1501Z" fill="#353535"/>
</svg>
