<svg width="24" height="24" viewBox="0 0 24 24" fill="none" xmlns="http://www.w3.org/2000/svg">
<path d="M4.17999 19.0799C3.98999 19.0799 3.8 19.0099 3.65 18.8599C3.36 18.5699 3.36 18.0899 3.65 17.7999L19.5 1.94992C19.79 1.65992 20.27 1.65992 20.56 1.94992C20.85 2.23992 20.85 2.71992 20.56 3.00992L4.71 18.8599C4.56 19.0099 4.36999 19.0799 4.17999 19.0799Z" fill="#353535"/>
<path d="M5.24995 13.75C4.95995 13.75 4.68995 13.58 4.55995 13.3C4.06995 12.18 3.81995 11.04 3.81995 9.90001C3.81995 7.18001 4.99995 4.67001 7.04995 3.01001C8.96995 1.47001 11.3499 0.910008 13.7499 1.44001C15.3299 1.79001 16.7699 2.62001 17.8999 3.84001C18.1799 4.14001 18.1599 4.62001 17.8599 4.90001C17.5599 5.18001 17.0799 5.16001 16.7999 4.86001C15.8699 3.86001 14.7099 3.18001 13.4299 2.90001C11.4799 2.48001 9.54995 2.93001 7.99995 4.18001C6.29995 5.55001 5.32995 7.63001 5.32995 9.90001C5.32995 10.83 5.53995 11.77 5.93995 12.7C6.10995 13.08 5.92995 13.52 5.54995 13.69C5.44995 13.73 5.34995 13.75 5.24995 13.75Z" fill="#353535"/>
<path d="M14.61 19.75H9.41998C9.02998 19.75 8.47998 19.71 8.10998 19.33C7.74998 18.96 7.75998 18.49 7.76998 18.18V17.27C7.36998 16.99 6.98998 16.6699 6.62998 16.3099C6.33998 16.0199 6.33998 15.54 6.62998 15.25C6.91998 14.96 7.39998 14.96 7.68998 15.25C8.07998 15.63 8.48998 15.97 8.91998 16.25C9.12998 16.39 9.26998 16.6299 9.26998 16.8799V18.2199C9.26998 18.2299 9.26998 18.24 9.26998 18.25C9.30998 18.25 9.35998 18.25 9.42998 18.25H14.62C14.69 18.25 14.74 18.25 14.78 18.24C14.78 18.2 14.78 18.1599 14.78 18.1299V16.87C14.78 16.61 14.91 16.38 15.13 16.24C17.6 14.66 19.5 11.16 18.36 7.52995C18.24 7.12995 18.46 6.70995 18.85 6.58995C19.24 6.45995 19.67 6.68995 19.79 7.07995C21.1 11.26 19.06 15.29 16.28 17.27V18.04C16.29 18.35 16.3 18.8799 15.89 19.2999C15.58 19.5999 15.16 19.75 14.61 19.75Z" fill="#353535"/>
<path d="M15.5 22.7499C15.43 22.7499 15.36 22.7399 15.29 22.7199C13.13 22.0999 10.86 22.0999 8.70001 22.7199C8.30001 22.8299 7.89001 22.5999 7.77001 22.1999C7.65001 21.7999 7.89001 21.3899 8.29001 21.2699C10.71 20.5799 13.28 20.5799 15.7 21.2699C16.1 21.3799 16.33 21.7999 16.22 22.1999C16.13 22.5399 15.83 22.7499 15.5 22.7499Z" fill="#353535"/>
</svg>
