<svg width="24" height="24" viewBox="0 0 24 24" fill="none" xmlns="http://www.w3.org/2000/svg">
<path d="M14.77 19.75H9.26C8.82 19.75 8.25999 19.7 7.89 19.32C7.52999 18.95 7.54 18.49 7.55 18.18V17.29C5.03 15.61 3.37 12.69 3.37 9.91005C3.37 7.28005 4.55 4.82005 6.6 3.17005C8.64999 1.52005 11.34 0.900047 13.97 1.48005C16.47 2.03005 18.63 3.70005 19.75 5.95005C21.92 10.32 19.83 15.05 16.49 17.3V18.05C16.5 18.34 16.51 18.87 16.1 19.29C15.79 19.59 15.35 19.75 14.77 19.75ZM9.04 18.24C9.09 18.24 9.16 18.25 9.25 18.25H14.77C14.87 18.25 14.94 18.24 14.98 18.23C14.98 18.2 14.98 18.16 14.98 18.13V16.87C14.98 16.61 15.12 16.36 15.34 16.23C18.3 14.44 20.26 10.35 18.39 6.60005C17.47 4.75005 15.69 3.38005 13.63 2.93005C11.45 2.45005 9.22 2.96005 7.52 4.33005C5.82 5.70005 4.85 7.73005 4.85 9.91005C4.85 12.69 6.77 15.09 8.67 16.24C8.9 16.38 9.02999 16.62 9.02999 16.88V18.23C9.04 18.23 9.04 18.23 9.04 18.24Z" fill="#353535"/>
<path d="M15.5 22.7499C15.43 22.7499 15.36 22.7399 15.29 22.7199C13.13 22.0999 10.86 22.0999 8.70001 22.7199C8.30001 22.8299 7.89001 22.5999 7.77001 22.1999C7.65001 21.7999 7.89001 21.3899 8.29001 21.2699C10.71 20.5799 13.28 20.5799 15.7 21.2699C16.1 21.3799 16.33 21.7999 16.22 22.1999C16.13 22.5399 15.83 22.7499 15.5 22.7499Z" fill="#353535"/>
</svg>
