<svg width="24" height="24" viewBox="0 0 24 24" fill="none" xmlns="http://www.w3.org/2000/svg">
<path d="M12 10.5199C11.59 10.5199 11.25 10.1799 11.25 9.76994V6.43994C11.25 6.02994 11.59 5.68994 12 5.68994C12.41 5.68994 12.75 6.02994 12.75 6.43994V9.76994C12.75 10.1899 12.41 10.5199 12 10.5199Z" fill="#353535"/>
<path d="M12.02 20.35C9.43999 20.35 6.86999 19.94 4.41999 19.12C3.50999 18.82 2.81999 18.17 2.51999 17.35C2.21999 16.53 2.31999 15.59 2.80999 14.77L4.07999 12.65C4.35999 12.18 4.60999 11.3 4.60999 10.75V8.64999C4.60999 4.55999 7.92999 1.23999 12.02 1.23999C16.11 1.23999 19.43 4.55999 19.43 8.64999V10.75C19.43 11.29 19.68 12.18 19.96 12.65L21.23 14.77C21.7 15.55 21.78 16.48 21.47 17.33C21.16 18.18 20.48 18.83 19.62 19.12C17.17 19.95 14.6 20.35 12.02 20.35ZM12.02 2.74999C8.75999 2.74999 6.10999 5.39999 6.10999 8.65999V10.76C6.10999 11.57 5.78999 12.74 5.36999 13.43L4.09999 15.56C3.83999 15.99 3.77999 16.45 3.92999 16.85C4.07999 17.25 4.41999 17.55 4.89999 17.71C9.49999 19.24 14.56 19.24 19.16 17.71C19.59 17.57 19.92 17.25 20.07 16.83C20.23 16.41 20.18 15.95 19.95 15.56L18.68 13.44C18.26 12.75 17.94 11.58 17.94 10.77V8.66999C17.93 5.39999 15.28 2.74999 12.02 2.74999Z" fill="#353535"/>
<path d="M12 22.9001C10.93 22.9001 9.88004 22.4601 9.12004 21.7001C8.36004 20.9401 7.92004 19.8901 7.92004 18.8201H9.42004C9.42004 19.5001 9.70004 20.1601 10.18 20.6401C10.66 21.1201 11.32 21.4001 12 21.4001C13.42 21.4001 14.58 20.2401 14.58 18.8201H16.08C16.08 21.0701 14.25 22.9001 12 22.9001Z" fill="#353535"/>
</svg>
