<svg width="24" height="24" viewBox="0 0 24 24" fill="none" xmlns="http://www.w3.org/2000/svg">
<path d="M14.718 18.9977C15.1158 18.8426 15.5753 19.1816 15.4901 19.6C15.0001 21.5 13.9001 22 12.5501 22H11.4601C10.1101 22 9.00006 21.5 8.52006 19.59C8.43781 19.171 8.89508 18.8347 9.29271 18.9905C10.1473 19.3253 11.0609 19.5 12.0001 19.5C12.9438 19.5 13.8619 19.3314 14.718 18.9977Z" fill="#353535"/>
<path d="M15.49 4.4C15.5784 4.82271 15.1124 5.1669 14.7106 5.00871C13.8728 4.67891 12.9588 4.5 12 4.5C11.0425 4.5 10.1302 4.68113 9.29169 5.01127C8.89381 5.16793 8.4347 4.82901 8.52005 4.41C9.00005 2.5 10.11 2 11.46 2H12.55C13.9 2 15 2.5 15.49 4.4Z" fill="#353535"/>
<path d="M12 5.5C8.41 5.5 5.5 8.41 5.5 12C5.5 14.1 6.49 15.96 8.03 17.15H8.04C9.14 18 10.51 18.5 12 18.5C13.51 18.5 14.89 17.99 15.99 17.13H16C17.52 15.94 18.5 14.08 18.5 12C18.5 8.41 15.59 5.5 12 5.5ZM13.93 14.38C13.78 14.53 13.59 14.6 13.4 14.6C13.21 14.6 13.02 14.53 12.87 14.38L11.47 12.98C11.33 12.84 11.25 12.65 11.25 12.45V9.66C11.25 9.25 11.59 8.91 12 8.91C12.41 8.91 12.75 9.25 12.75 9.66V12.14L13.93 13.32C14.22 13.61 14.22 14.09 13.93 14.38Z" fill="#353535"/>
</svg>
