<svg width="24" height="24" viewBox="0 0 24 24" fill="none" xmlns="http://www.w3.org/2000/svg">
<path d="M8.11003 11.85C5.29003 12.05 5.30003 16.15 8.11003 16.35H14.78C15.59 16.36 16.37 16.05 16.97 15.51C18.95 13.78 17.89 10.31 15.29 9.98001C14.36 4.34001 6.21003 6.48001 8.14003 11.85" fill="#353535"/>
<path d="M9 22.75C4.73 22.75 1.25 19.27 1.25 15C1.25 14.59 1.59 14.25 2 14.25C2.41 14.25 2.75 14.59 2.75 15C2.75 17.96 4.81 20.44 7.58 21.09L7.31 20.64C7.1 20.28 7.21 19.82 7.57 19.61C7.92 19.4 8.39 19.51 8.6 19.87L9.65 21.62C9.79 21.85 9.79 22.14 9.66 22.37C9.52 22.6 9.27 22.75 9 22.75Z" fill="#353535"/>
<path d="M22.0001 9.75C21.5901 9.75 21.2501 9.41 21.2501 9C21.2501 6.04 19.1901 3.56 16.4201 2.91L16.6901 3.36C16.9001 3.72 16.7901 4.18 16.4301 4.39C16.0801 4.6 15.6101 4.49 15.4001 4.13L14.3501 2.38C14.2101 2.15 14.2101 1.86 14.3401 1.63C14.4801 1.4 14.7301 1.25 15.0001 1.25C19.2701 1.25 22.7501 4.73 22.7501 9C22.7501 9.41 22.4101 9.75 22.0001 9.75Z" fill="#353535"/>
</svg>
