<svg width="24" height="24" viewBox="0 0 24 24" fill="none" xmlns="http://www.w3.org/2000/svg">
<path d="M20 6V6.24H14.87C11.9 6.24 10.52 7.62 10.52 10.59V15.7H9.75V19.25H10.52V20.75H4.95C4.54 20.75 4.2 20.41 4.2 20C4.2 19.59 4.54 19.25 4.95 19.25H8.25V15.7H6C2.87 15.7 2.03 14.93 2 11.9V6C2 2.8 2.8 2 6 2H16C19.2 2 20 2.8 20 6Z" fill="#353535"/>
<path d="M20 7.78999C19.75 7.75999 19.46 7.73999 19.15 7.73999H14.87C12.73 7.73999 12.02 8.44999 12.02 10.59V19.25C12.03 19.87 12.1 20.36 12.25 20.75C12.6 21.66 13.39 22 14.87 22H19.15C21.29 22 22 21.29 22 19.15V10.59C22 8.75999 21.48 7.97999 20 7.78999ZM17.01 10.09C17.88 10.09 18.58 10.79 18.58 11.66C18.58 12.53 17.88 13.23 17.01 13.23C16.14 13.23 15.44 12.53 15.44 11.66C15.44 10.79 16.14 10.09 17.01 10.09ZM17.01 19.15C15.83 19.15 14.87 18.19 14.87 17.01C14.87 16.52 15.04 16.06 15.32 15.7C15.71 15.2 16.32 14.87 17.01 14.87C17.55 14.87 18.04 15.07 18.41 15.39C18.86 15.79 19.15 16.37 19.15 17.01C19.15 18.19 18.19 19.15 17.01 19.15Z" fill="#353535"/>
<path d="M20 7.78999C19.75 7.75999 19.46 7.73999 19.15 7.73999H14.87C12.73 7.73999 12.02 8.44999 12.02 10.59V19.25C12.03 19.87 12.1 20.36 12.25 20.75C12.6 21.66 13.39 22 14.87 22H19.15C21.29 22 22 21.29 22 19.15V10.59C22 8.75999 21.48 7.97999 20 7.78999ZM17.01 10.09C17.88 10.09 18.58 10.79 18.58 11.66C18.58 12.53 17.88 13.23 17.01 13.23C16.14 13.23 15.44 12.53 15.44 11.66C15.44 10.79 16.14 10.09 17.01 10.09ZM17.01 19.15C15.83 19.15 14.87 18.19 14.87 17.01C14.87 16.52 15.04 16.06 15.32 15.7C15.71 15.2 16.32 14.87 17.01 14.87C17.55 14.87 18.04 15.07 18.41 15.39C18.86 15.79 19.15 16.37 19.15 17.01C19.15 18.19 18.19 19.15 17.01 19.15Z" fill="#353535"/>
</svg>
