<svg width="24" height="24" viewBox="0 0 24 24" fill="none" xmlns="http://www.w3.org/2000/svg">
<path d="M14.84 10.9001L20.5 7.11008C21.07 6.73008 21.22 5.95008 20.84 5.39008L19.02 2.68008C18.64 2.11008 17.86 1.96008 17.3 2.34008L11.64 6.13008L14.84 10.9001Z" fill="#353535"/>
<path d="M14.5201 10.4201L12.7601 11.6001L10.0901 13.3901L9.74005 13.6201L9.58005 13.3801L7.34005 10.0401L7.18005 9.8001L11.9601 6.6001L14.5201 10.4201Z" fill="#353535"/>
<path d="M5.63998 16.02L9.58998 13.38L7.34998 10.04L3.39998 12.68C2.93998 12.99 2.81998 13.61 3.12998 14.07L4.25998 15.75C4.55998 16.21 5.17998 16.33 5.63998 16.02Z" fill="#353535"/>
<path d="M16.56 21.8101C16.46 21.8501 16.35 21.8801 16.25 21.8801C15.96 21.8801 15.69 21.7101 15.56 21.4301L11.83 13.1901L8.05002 21.4401C7.92002 21.7101 7.65002 21.8801 7.36002 21.8801C7.26002 21.8801 7.15002 21.8501 7.05002 21.8101C6.68002 21.6301 6.51002 21.1901 6.68002 20.8101L10.09 13.3901L12.76 11.6001L16.93 20.8201C17.1 21.1901 16.93 21.6401 16.56 21.8101Z" fill="#353535"/>
</svg>
