<svg width="24" height="24" viewBox="0 0 24 24" fill="none" xmlns="http://www.w3.org/2000/svg">
<path d="M13.18 11.8601C12.78 11.8601 12.42 11.6401 12.25 11.2801L10.8 8.3901L10.38 9.1701C10.15 9.6001 9.68997 9.8701 9.19997 9.8701H8.46997C8.05997 9.8701 7.71997 9.5301 7.71997 9.1201C7.71997 8.7101 8.05997 8.3701 8.46997 8.3701H9.10997L9.89997 6.9101C10.09 6.5701 10.47 6.3401 10.83 6.3601C11.22 6.3601 11.57 6.5901 11.75 6.9301L13.18 9.7901L13.52 9.1001C13.75 8.6401 14.2 8.3601 14.72 8.3601H15.53C15.94 8.3601 16.28 8.7001 16.28 9.1101C16.28 9.5201 15.94 9.8601 15.53 9.8601H14.82L14.11 11.2701C13.93 11.6401 13.58 11.8601 13.18 11.8601Z" fill="#353535"/>
<path d="M2.74994 18.65C2.33994 18.65 1.99994 18.31 1.99994 17.9V12.2C1.94994 9.49005 2.95994 6.93005 4.83994 5.01005C6.71994 3.10005 9.23994 2.05005 11.9499 2.05005C17.4899 2.05005 21.9999 6.56005 21.9999 12.1V17.8C21.9999 18.21 21.6599 18.55 21.2499 18.55C20.8399 18.55 20.4999 18.21 20.4999 17.8V12.1C20.4999 7.39005 16.6699 3.55005 11.9499 3.55005C9.63994 3.55005 7.49994 4.44005 5.90994 6.06005C4.30994 7.69005 3.45994 9.86005 3.49994 12.18V17.89C3.49994 18.31 3.16994 18.65 2.74994 18.65Z" fill="#353535"/>
<path d="M5.94 12.45H5.81C3.71 12.45 2 14.16 2 16.26V18.14C2 20.24 3.71 21.95 5.81 21.95H5.94C8.04 21.95 9.75 20.24 9.75 18.14V16.26C9.75 14.16 8.04 12.45 5.94 12.45Z" fill="#353535"/>
<path d="M18.19 12.45H18.06C15.96 12.45 14.25 14.16 14.25 16.26V18.14C14.25 20.24 15.96 21.95 18.06 21.95H18.19C20.29 21.95 22 20.24 22 18.14V16.26C22 14.16 20.29 12.45 18.19 12.45Z" fill="#353535"/>
</svg>
