<svg width="24" height="24" viewBox="0 0 24 24" fill="none" xmlns="http://www.w3.org/2000/svg">
<path d="M9.00002 17.75C8.89002 17.75 8.77002 17.72 8.67002 17.67C7.90002 17.28 7.24002 16.7 6.76002 15.98C6.36002 15.38 6.36002 14.61 6.76002 14.01C7.24002 13.29 7.90002 12.71 8.67002 12.33C9.04002 12.14 9.49002 12.3 9.68002 12.67C9.87002 13.04 9.72002 13.49 9.34002 13.68C8.80002 13.95 8.34002 14.36 8.01002 14.86C7.95002 14.95 7.95002 15.07 8.01002 15.17C8.34002 15.67 8.80002 16.08 9.34002 16.35C9.71002 16.54 9.86002 16.99 9.68002 17.36C9.54002 17.6 9.27002 17.75 9.00002 17.75Z" fill="#353535"/>
<path d="M15.21 17.75C14.93 17.75 14.67 17.6 14.54 17.34C14.35 16.97 14.5 16.52 14.88 16.33C15.42 16.06 15.88 15.65 16.21 15.15C16.27 15.06 16.27 14.94 16.21 14.84C15.88 14.34 15.42 13.93 14.88 13.66C14.51 13.47 14.36 13.02 14.54 12.65C14.73 12.28 15.18 12.13 15.55 12.31C16.32 12.7 16.98 13.28 17.46 14C17.86 14.6 17.86 15.37 17.46 15.97C16.98 16.69 16.32 17.27 15.55 17.65C15.43 17.72 15.32 17.75 15.21 17.75Z" fill="#353535"/>
<path d="M15 22.75H9C3.57 22.75 1.25 20.43 1.25 15V9C1.25 3.57 3.57 1.25 9 1.25H15C20.43 1.25 22.75 3.57 22.75 9V15C22.75 20.43 20.43 22.75 15 22.75ZM9 2.75C4.39 2.75 2.75 4.39 2.75 9V15C2.75 19.61 4.39 21.25 9 21.25H15C19.61 21.25 21.25 19.61 21.25 15V9C21.25 4.39 19.61 2.75 15 2.75H9Z" fill="#353535"/>
<path d="M2.22998 8.76C1.81998 8.76 1.47998 8.42 1.47998 8.01C1.47998 7.6 1.80998 7.26 2.22998 7.26L21.45 7.25C21.86 7.25 22.2 7.59 22.2 8C22.2 8.41 21.87 8.75 21.45 8.75L2.22998 8.76Z" fill="#353535"/>
</svg>
