<svg width="24" height="24" viewBox="0 0 24 24" fill="none" xmlns="http://www.w3.org/2000/svg">
<path d="M14 22.75H9C3.57 22.75 1.25 20.43 1.25 15V9C1.25 3.57 3.57 1.25 9 1.25H15C20.43 1.25 22.75 3.57 22.75 9V13C22.75 13.41 22.41 13.75 22 13.75C21.59 13.75 21.25 13.41 21.25 13V9C21.25 4.39 19.61 2.75 15 2.75H9C4.39 2.75 2.75 4.39 2.75 9V15C2.75 19.61 4.39 21.25 9 21.25H14C14.41 21.25 14.75 21.59 14.75 22C14.75 22.41 14.41 22.75 14 22.75Z" fill="#353535"/>
<path d="M19 22.75C18.9 22.75 18.81 22.73 18.71 22.69C18.43 22.57 18.25 22.3 18.25 22V16C18.25 15.59 18.59 15.25 19 15.25C19.41 15.25 19.75 15.59 19.75 16V20.19L20.47 19.47C20.76 19.18 21.24 19.18 21.53 19.47C21.82 19.76 21.82 20.24 21.53 20.53L19.53 22.53C19.39 22.67 19.19 22.75 19 22.75Z" fill="#353535"/>
<path d="M19 22.7499C18.81 22.7499 18.62 22.6799 18.47 22.5299L16.47 20.5299C16.18 20.2399 16.18 19.7599 16.47 19.4699C16.76 19.1799 17.24 19.1799 17.53 19.4699L19.53 21.4699C19.82 21.7599 19.82 22.2399 19.53 22.5299C19.38 22.6799 19.19 22.7499 19 22.7499Z" fill="#353535"/>
<path d="M8.89999 16.49C8.86999 16.49 8.83999 16.49 8.81999 16.49C8.40999 16.44 8.10999 16.07 8.15999 15.66L9.19999 6.17997C9.24999 5.76997 9.60999 5.46997 10.03 5.51997C10.44 5.56997 10.74 5.93997 10.69 6.34997L9.63999 15.82C9.59999 16.2 9.26999 16.49 8.89999 16.49Z" fill="#353535"/>
<path d="M12.05 16.49C12.02 16.49 11.99 16.49 11.97 16.49C11.56 16.44 11.26 16.07 11.31 15.66L12.36 6.18998C12.41 5.77998 12.78 5.47998 13.19 5.52998C13.6 5.57998 13.9 5.94998 13.85 6.35998L12.8 15.83C12.76 16.2 12.43 16.49 12.05 16.49Z" fill="#353535"/>
<path d="M16 10.17H6.53003C6.12003 10.17 5.78003 9.83004 5.78003 9.42004C5.78003 9.01004 6.12003 8.67004 6.53003 8.67004H16C16.41 8.67004 16.75 9.01004 16.75 9.42004C16.75 9.83004 16.41 10.17 16 10.17Z" fill="#353535"/>
<path d="M15.47 13.33H6C5.59 13.33 5.25 12.99 5.25 12.58C5.25 12.17 5.59 11.83 6 11.83H15.47C15.88 11.83 16.22 12.17 16.22 12.58C16.22 12.99 15.89 13.33 15.47 13.33Z" fill="#353535"/>
</svg>
