<svg width="24" height="24" viewBox="0 0 24 24" fill="none" xmlns="http://www.w3.org/2000/svg">
<path d="M12 22.78C11.31 22.78 10.66 22.43 10.2 21.82L8.70001 19.82C8.67001 19.78 8.55 19.73 8.5 19.72H8C3.83 19.72 1.25 18.59 1.25 12.97V7.96997C1.25 3.54997 3.58 1.21997 8 1.21997H16C20.42 1.21997 22.75 3.54997 22.75 7.96997V12.97C22.75 17.39 20.42 19.72 16 19.72H15.5C15.42 19.72 15.35 19.76 15.3 19.82L13.8 21.82C13.34 22.43 12.69 22.78 12 22.78ZM8 2.71997C4.42 2.71997 2.75 4.38997 2.75 7.96997V12.97C2.75 17.49 4.3 18.22 8 18.22H8.5C9.01 18.22 9.58999 18.51 9.89999 18.92L11.4 20.92C11.75 21.38 12.25 21.38 12.6 20.92L14.1 18.92C14.43 18.48 14.95 18.22 15.5 18.22H16C19.58 18.22 21.25 16.55 21.25 12.97V7.96997C21.25 4.38997 19.58 2.71997 16 2.71997H8Z" fill="#353535"/>
<path d="M7.99994 13.4499C7.80994 13.4499 7.61994 13.3799 7.46994 13.2299L5.46994 11.2299C5.17994 10.9399 5.17994 10.4599 5.46994 10.1699L7.46994 8.16989C7.75994 7.87989 8.23994 7.87989 8.52994 8.16989C8.81994 8.45989 8.81994 8.93989 8.52994 9.22989L7.05994 10.6999L8.52994 12.1699C8.81994 12.4599 8.81994 12.9399 8.52994 13.2299C8.37994 13.3799 8.18994 13.4499 7.99994 13.4499Z" fill="#353535"/>
<path d="M15.9999 13.4499C15.8099 13.4499 15.6199 13.3799 15.4699 13.2299C15.1799 12.9399 15.1799 12.4599 15.4699 12.1699L16.9399 10.6999L15.4699 9.22989C15.1799 8.93989 15.1799 8.45989 15.4699 8.16989C15.7599 7.87989 16.2399 7.87989 16.5299 8.16989L18.5299 10.1699C18.8199 10.4599 18.8199 10.9399 18.5299 11.2299L16.5299 13.2299C16.3799 13.3799 16.1899 13.4499 15.9999 13.4499Z" fill="#353535"/>
<path d="M10.9999 13.78C10.8999 13.78 10.7999 13.76 10.6999 13.72C10.3199 13.56 10.1399 13.12 10.3099 12.73L12.3099 8.05999C12.4699 7.67999 12.9099 7.49998 13.2999 7.66998C13.6799 7.82998 13.8599 8.26997 13.6899 8.65997L11.6899 13.33C11.5699 13.61 11.2899 13.78 10.9999 13.78Z" fill="#353535"/>
</svg>
