<svg width="24" height="24" viewBox="0 0 24 24" fill="none" xmlns="http://www.w3.org/2000/svg">
<path d="M14.97 22.75H8.97C3.54 22.75 1.22 20.43 1.22 15V9C1.22 3.57 3.54 1.25 8.97 1.25H14.97C20.4 1.25 22.72 3.57 22.72 9V15C22.72 20.43 20.41 22.75 14.97 22.75ZM8.97 2.75C4.36 2.75 2.72 4.39 2.72 9V15C2.72 19.61 4.36 21.25 8.97 21.25H14.97C19.58 21.25 21.22 19.61 21.22 15V9C21.22 4.39 19.58 2.75 14.97 2.75H8.97Z" fill="#353535"/>
<path d="M22 16.25H2C1.59 16.25 1.25 15.91 1.25 15.5C1.25 15.09 1.59 14.75 2 14.75H22C22.41 14.75 22.75 15.09 22.75 15.5C22.75 15.91 22.41 16.25 22 16.25Z" fill="#353535"/>
<path d="M12 11.8099C11.81 11.8099 11.62 11.7399 11.47 11.5899L8.91 9.02994C8.62 8.73994 8.62 8.25994 8.91 7.96994C9.2 7.67994 9.68001 7.67994 9.97001 7.96994L12 9.99994L14.03 7.96994C14.32 7.67994 14.8 7.67994 15.09 7.96994C15.38 8.25994 15.38 8.73994 15.09 9.02994L12.53 11.5899C12.38 11.7399 12.19 11.8099 12 11.8099Z" fill="#353535"/>
</svg>
