<svg width="24" height="24" viewBox="0 0 24 24" fill="none" xmlns="http://www.w3.org/2000/svg">
<path d="M14.97 22.75H8.97C3.54 22.75 1.22 20.43 1.22 15V9C1.22 3.57 3.54 1.25 8.97 1.25H14.97C20.4 1.25 22.72 3.57 22.72 9V15C22.72 20.43 20.41 22.75 14.97 22.75ZM8.97 2.75C4.36 2.75 2.72 4.39 2.72 9V15C2.72 19.61 4.36 21.25 8.97 21.25H14.97C19.58 21.25 21.22 19.61 21.22 15V9C21.22 4.39 19.58 2.75 14.97 2.75H8.97Z" fill="#353535"/>
<path d="M22 9.25H2C1.59 9.25 1.25 8.91 1.25 8.5C1.25 8.09 1.59 7.75 2 7.75H22C22.41 7.75 22.75 8.09 22.75 8.5C22.75 8.91 22.41 9.25 22 9.25Z" fill="#353535"/>
<path d="M14.56 16.25C14.37 16.25 14.18 16.18 14.03 16.03L12 14L9.97001 16.03C9.68001 16.32 9.2 16.32 8.91 16.03C8.62 15.74 8.62 15.26 8.91 14.97L11.47 12.41C11.76 12.12 12.24 12.12 12.53 12.41L15.09 14.97C15.38 15.26 15.38 15.74 15.09 16.03C14.94 16.18 14.75 16.25 14.56 16.25Z" fill="#353535"/>
</svg>
