<svg width="24" height="24" viewBox="0 0 24 24" fill="none" xmlns="http://www.w3.org/2000/svg">
<path d="M16 22.75H7.99998C3.37998 22.75 2.51998 20.6 2.29998 18.51L1.54998 10.5C1.43998 9.45001 1.40998 7.90001 2.44998 6.74001C3.34998 5.74001 4.83998 5.26001 6.99998 5.26001H17C19.17 5.26001 20.66 5.75001 21.55 6.74001C22.59 7.90001 22.56 9.45001 22.45 10.51L21.7 18.5C21.48 20.6 20.62 22.75 16 22.75ZM6.99998 6.75001C5.30998 6.75001 4.14998 7.08001 3.55998 7.74001C3.06998 8.28001 2.90998 9.11001 3.03998 10.35L3.78998 18.36C3.95998 19.94 4.38998 21.25 7.99998 21.25H16C19.6 21.25 20.04 19.94 20.21 18.35L20.96 10.36C21.09 9.11001 20.93 8.28001 20.44 7.74001C19.85 7.08001 18.69 6.75001 17 6.75001H6.99998Z" fill="#353535"/>
<path d="M16 6.75C15.59 6.75 15.25 6.41 15.25 6V5.2C15.25 3.42 15.25 2.75 12.8 2.75H11.2C8.75 2.75 8.75 3.42 8.75 5.2V6C8.75 6.41 8.41 6.75 8 6.75C7.59 6.75 7.25 6.41 7.25 6V5.2C7.25 3.44 7.25 1.25 11.2 1.25H12.8C16.75 1.25 16.75 3.44 16.75 5.2V6C16.75 6.41 16.41 6.75 16 6.75Z" fill="#353535"/>
<path d="M12 16.75C9.25 16.75 9.25 15.05 9.25 14.03V13C9.25 11.59 9.59 11.25 11 11.25H13C14.41 11.25 14.75 11.59 14.75 13V14C14.75 15.04 14.75 16.75 12 16.75ZM10.75 12.75C10.75 12.83 10.75 12.92 10.75 13V14.03C10.75 15.06 10.75 15.25 12 15.25C13.25 15.25 13.25 15.09 13.25 14.02V13C13.25 12.92 13.25 12.83 13.25 12.75C13.17 12.75 13.08 12.75 13 12.75H11C10.92 12.75 10.83 12.75 10.75 12.75Z" fill="#353535"/>
<path d="M14 14.77C13.63 14.77 13.3 14.49 13.26 14.11C13.21 13.7 13.5 13.32 13.91 13.27C16.55 12.94 19.08 11.94 21.21 10.39C21.54 10.14 22.01 10.22 22.26 10.56C22.5 10.89 22.43 11.36 22.09 11.61C19.75 13.31 16.99 14.4 14.09 14.77C14.06 14.77 14.03 14.77 14 14.77Z" fill="#353535"/>
<path d="M9.99999 14.78C9.96999 14.78 9.93999 14.78 9.90999 14.78C7.16999 14.47 4.49999 13.47 2.18999 11.89C1.84999 11.66 1.75999 11.19 1.98999 10.85C2.21999 10.51 2.68999 10.42 3.02999 10.65C5.13999 12.09 7.56999 13 10.07 13.29C10.48 13.34 10.78 13.71 10.73 14.12C10.7 14.5 10.38 14.78 9.99999 14.78Z" fill="#353535"/>
</svg>
