<svg width="24" height="24" viewBox="0 0 24 24" fill="none" xmlns="http://www.w3.org/2000/svg">
<path d="M12 18.95C9.38 18.95 7.25 16.82 7.25 14.2C7.25 11.58 9.38 9.44995 12 9.44995C14.62 9.44995 16.75 11.58 16.75 14.2C16.75 16.82 14.62 18.95 12 18.95ZM12 10.95C10.21 10.95 8.75 12.41 8.75 14.2C8.75 15.99 10.21 17.45 12 17.45C13.79 17.45 15.25 15.99 15.25 14.2C15.25 12.41 13.79 10.95 12 10.95Z" fill="#353535"/>
<path d="M13.07 16.06C12.88 16.06 12.69 15.99 12.54 15.84L10.43 13.73C10.14 13.44 10.14 12.96 10.43 12.67C10.72 12.38 11.2 12.38 11.49 12.67L13.6 14.78C13.89 15.07 13.89 15.55 13.6 15.84C13.45 15.99 13.26 16.06 13.07 16.06Z" fill="#353535"/>
<path d="M10.93 16.09C10.74 16.09 10.55 16.02 10.4 15.87C10.11 15.58 10.11 15.1 10.4 14.81L12.51 12.7C12.8 12.41 13.28 12.41 13.57 12.7C13.86 12.99 13.86 13.47 13.57 13.76L11.46 15.87C11.31 16.01 11.12 16.09 10.93 16.09Z" fill="#353535"/>
<path d="M16 22.75H7.99998C3.37998 22.75 2.51998 20.6 2.29998 18.51L1.54998 10.5C1.43998 9.45001 1.40998 7.90001 2.44998 6.74001C3.34998 5.74001 4.83998 5.26001 6.99998 5.26001H17C19.17 5.26001 20.66 5.75001 21.55 6.74001C22.59 7.90001 22.56 9.45001 22.45 10.51L21.7 18.5C21.48 20.6 20.62 22.75 16 22.75ZM6.99998 6.75001C5.30998 6.75001 4.14998 7.08001 3.55998 7.74001C3.06998 8.28001 2.90998 9.11001 3.03998 10.35L3.78998 18.36C3.95998 19.94 4.38998 21.25 7.99998 21.25H16C19.6 21.25 20.04 19.94 20.21 18.35L20.96 10.36C21.09 9.11001 20.93 8.28001 20.44 7.74001C19.85 7.08001 18.69 6.75001 17 6.75001H6.99998Z" fill="#353535"/>
<path d="M16 6.75C15.59 6.75 15.25 6.41 15.25 6V5.2C15.25 3.42 15.25 2.75 12.8 2.75H11.2C8.75 2.75 8.75 3.42 8.75 5.2V6C8.75 6.41 8.41 6.75 8 6.75C7.59 6.75 7.25 6.41 7.25 6V5.2C7.25 3.44 7.25 1.25 11.2 1.25H12.8C16.75 1.25 16.75 3.44 16.75 5.2V6C16.75 6.41 16.41 6.75 16 6.75Z" fill="#353535"/>
<path d="M16.01 14.3901C15.67 14.3901 15.37 14.1601 15.28 13.8201C15.18 13.4201 15.42 13.0101 15.82 12.9101C17.77 12.4201 19.58 11.5701 21.2 10.3901C21.53 10.1501 22.01 10.2201 22.25 10.5601C22.49 10.8901 22.42 11.3601 22.08 11.6101C20.3 12.9001 18.32 13.8301 16.18 14.3701C16.13 14.3801 16.07 14.3901 16.01 14.3901Z" fill="#353535"/>
<path d="M7.99999 14.42C7.93999 14.42 7.87999 14.41 7.81999 14.4C5.80999 13.91 3.91999 13.06 2.18999 11.88C1.84999 11.65 1.75999 11.18 1.98999 10.84C2.21999 10.5 2.68999 10.41 3.02999 10.64C4.60999 11.72 6.32999 12.49 8.16999 12.94C8.56999 13.04 8.81999 13.44 8.71999 13.85C8.64999 14.19 8.33999 14.42 7.99999 14.42Z" fill="#353535"/>
</svg>
