<svg width="24" height="24" viewBox="0 0 24 24" fill="none" xmlns="http://www.w3.org/2000/svg">
<path d="M13.05 19.4201C12.51 19.4201 11.94 19.3701 11.32 19.2701L6.62999 18.5301C5.14999 18.3001 4.00999 17.8901 3.15999 17.2901C0.969987 15.7701 1.09999 13.1601 1.37999 11.3301L2.11999 6.64005C2.79999 2.34005 5.01999 0.730051 9.31999 1.40005L14.01 2.14005C16.22 2.49005 19.19 3.38005 19.38 7.11005C19.42 7.75005 19.38 8.48005 19.24 9.34005L18.51 14.0301C17.93 17.7001 16.22 19.4201 13.05 19.4201ZM7.52999 2.75005C5.14999 2.75005 4.06999 3.96005 3.59999 6.88005L2.85999 11.5701C2.39999 14.5201 3.23999 15.5201 4.01999 16.0701C4.67999 16.5401 5.60999 16.8601 6.85999 17.0501L11.55 17.7901C15.04 18.3401 16.48 17.2901 17.03 13.7901L17.76 9.10005C17.88 8.35005 17.92 7.72005 17.88 7.19005V7.18005C17.77 5.08005 16.58 4.05005 13.77 3.61005L9.08999 2.88005C8.50999 2.79005 7.99999 2.75005 7.52999 2.75005Z" fill="#353535"/>
<path d="M14.68 22.75C13.83 22.75 12.87 22.57 11.76 22.2L7.25001 20.7C4.68001 19.8499 3.29001 18.6299 2.87001 16.8499C2.80001 16.5499 2.92001 16.2299 3.18001 16.0599C3.44001 15.8899 3.78001 15.8899 4.03001 16.0699C4.69001 16.5399 5.61001 16.8599 6.86001 17.0499L11.55 17.79C15.04 18.34 16.48 17.2899 17.03 13.7899L17.76 9.09995C17.88 8.34995 17.92 7.71995 17.88 7.18995C17.87 6.92995 18 6.66995 18.23 6.51995C18.46 6.36995 18.75 6.35995 18.99 6.48995C21.67 7.91995 22.38 10.2099 21.22 13.7099L19.72 18.2199C19.01 20.3399 18.08 21.64 16.78 22.29C16.15 22.6 15.46 22.75 14.68 22.75ZM5.73001 18.36C6.21001 18.6799 6.85001 18.99 7.72001 19.28L12.23 20.78C13.95 21.3499 15.18 21.4 16.1 20.95C17.02 20.49 17.72 19.4699 18.29 17.7499L19.79 13.2399C20.61 10.7599 20.29 9.43995 19.34 8.54995C19.32 8.79995 19.28 9.05995 19.24 9.33995L18.51 14.0299C17.83 18.33 15.61 19.9399 11.31 19.28L6.62001 18.54C6.31001 18.4799 6.01001 18.42 5.73001 18.36Z" fill="#353535"/>
<path d="M8.24 9.71999C6.87 9.71999 5.75 8.59999 5.75 7.22999C5.75 5.85999 6.87 4.73999 8.24 4.73999C9.61 4.73999 10.73 5.85999 10.73 7.22999C10.73 8.59999 9.61 9.71999 8.24 9.71999ZM8.24 6.24999C7.7 6.24999 7.25 6.68999 7.25 7.23999C7.25 7.78999 7.69 8.22999 8.24 8.22999C8.78 8.22999 9.23 7.78999 9.23 7.23999C9.23 6.68999 8.78 6.24999 8.24 6.24999Z" fill="#353535"/>
</svg>
