<svg width="24" height="24" viewBox="0 0 24 24" fill="none" xmlns="http://www.w3.org/2000/svg">
<path d="M15.8101 20.18C15.5501 20.18 15.2801 20.17 14.9901 20.14C14.4701 20.1 13.8801 20 13.2701 19.85L11.5901 19.45C6.98005 18.36 5.47005 15.92 6.55005 11.32L7.53005 7.13001C7.75005 6.18002 8.01005 5.41002 8.33005 4.77002C10.0501 1.22002 13.3401 1.54001 15.6801 2.09001L17.3501 2.48001C19.6901 3.03001 21.1701 3.90001 22.0001 5.23002C22.8201 6.56002 22.9501 8.27001 22.4001 10.61L21.4201 14.79C20.5601 18.45 18.7701 20.18 15.8101 20.18ZM13.1201 3.25001C11.4501 3.25001 10.3901 3.94002 9.68005 5.42002C9.42005 5.96002 9.19005 6.63001 8.99005 7.47001L8.01005 11.66C7.12005 15.44 8.15005 17.09 11.9301 17.99L13.6101 18.39C14.1501 18.52 14.6601 18.6 15.1201 18.64C17.84 18.91 19.1901 17.72 19.9501 14.45L20.9301 10.27C21.3801 8.34002 21.3201 6.99002 20.7201 6.02001C20.1201 5.05001 18.9401 4.39002 17.0001 3.94002L15.3301 3.55001C14.5001 3.35001 13.7601 3.25001 13.1201 3.25001Z" fill="#353535"/>
<path d="M8.33005 22.25C5.76005 22.25 4.12005 20.71 3.07005 17.46L1.79005 13.51C0.370052 9.11002 1.64005 6.63001 6.02005 5.21001L7.60005 4.70001C8.12005 4.54001 8.51005 4.43001 8.86005 4.37001C9.15005 4.31001 9.43005 4.42001 9.60005 4.65001C9.77005 4.88001 9.80005 5.18001 9.68005 5.44001C9.42005 5.97001 9.19005 6.64001 9.00005 7.48001L8.02005 11.67C7.13005 15.45 8.16005 17.1 11.9401 18L13.6201 18.4C14.1601 18.53 14.6701 18.61 15.1301 18.65C15.4501 18.68 15.7101 18.9 15.8001 19.21C15.8801 19.52 15.7601 19.84 15.5001 20.02C14.8401 20.47 14.0101 20.85 12.9601 21.19L11.3801 21.71C10.2301 22.07 9.23005 22.25 8.33005 22.25ZM7.78005 6.22001L6.49005 6.64001C2.92005 7.79001 2.07005 9.47002 3.22005 13.05L4.50005 17C5.66005 20.57 7.34005 21.43 10.9101 20.28L12.4901 19.76C12.5501 19.74 12.6001 19.72 12.6601 19.7L11.6001 19.45C6.99005 18.36 5.48005 15.92 6.56005 11.32L7.54005 7.13001C7.61005 6.81001 7.69005 6.50001 7.78005 6.22001Z" fill="#353535"/>
<path d="M17.4901 10.51C17.4301 10.51 17.3701 10.5 17.3001 10.49L12.4501 9.26002C12.0501 9.16002 11.8101 8.75002 11.9101 8.35002C12.0101 7.95002 12.4201 7.71002 12.8201 7.81002L17.6701 9.04001C18.0701 9.14001 18.3101 9.55001 18.2101 9.95002C18.1301 10.28 17.8201 10.51 17.4901 10.51Z" fill="#353535"/>
<path d="M14.5601 13.89C14.5001 13.89 14.4401 13.88 14.3701 13.87L11.4601 13.13C11.0601 13.03 10.8201 12.62 10.9201 12.22C11.0201 11.82 11.4301 11.58 11.8301 11.68L14.7401 12.42C15.1401 12.52 15.3801 12.93 15.2801 13.33C15.2001 13.67 14.9001 13.89 14.5601 13.89Z" fill="#353535"/>
</svg>
