<svg width="24" height="24" viewBox="0 0 24 24" fill="none" xmlns="http://www.w3.org/2000/svg">
<path d="M15.8099 20.18C15.5499 20.18 15.2799 20.17 14.9899 20.14C14.4699 20.1 13.88 20 13.27 19.85L11.59 19.45C6.97995 18.36 5.46995 15.92 6.54995 11.32L7.52995 7.13001C7.74995 6.18002 8.00995 5.41002 8.32995 4.77002C10.0499 1.22002 13.3399 1.54001 15.6799 2.09001L17.3499 2.48001C19.6899 3.03001 21.1699 3.90001 21.9999 5.23002C22.82 6.56002 22.9499 8.27001 22.4 10.61L21.4199 14.79C20.5599 18.45 18.7699 20.18 15.8099 20.18ZM13.1199 3.25001C11.4499 3.25001 10.3899 3.94002 9.67995 5.42002C9.41995 5.96002 9.18995 6.63001 8.98995 7.47001L8.00995 11.66C7.11995 15.44 8.14995 17.09 11.93 17.99L13.6099 18.39C14.1499 18.52 14.6599 18.6 15.1199 18.64C17.8299 18.91 19.1899 17.72 19.95 14.45L20.9299 10.27C21.3799 8.34002 21.3199 6.99002 20.7199 6.02001C20.1199 5.05001 18.9399 4.39002 16.9999 3.94002L15.3299 3.55001C14.4999 3.35001 13.7599 3.25001 13.1199 3.25001Z" fill="#353535"/>
<path d="M8.33005 22.25C5.76005 22.25 4.12005 20.71 3.07005 17.46L1.79005 13.5101C0.370052 9.11005 1.64005 6.63005 6.02005 5.21005L7.60005 4.70005C8.12005 4.54005 8.51005 4.43005 8.86005 4.37005C9.14005 4.31005 9.43005 4.42005 9.60005 4.65005C9.77005 4.88005 9.80005 5.18005 9.68005 5.44005C9.42005 5.97005 9.19005 6.64005 9.00005 7.48005L8.02005 11.6701C7.13005 15.4501 8.16005 17.1001 11.9401 18.0001L13.6201 18.4001C14.1601 18.5301 14.6701 18.6101 15.1301 18.6501C15.4501 18.68 15.7101 18.9 15.8001 19.21C15.8801 19.5201 15.7601 19.8401 15.5001 20.0201C14.8401 20.4701 14.0101 20.85 12.9601 21.1901L11.3801 21.71C10.2301 22.07 9.23005 22.25 8.33005 22.25ZM7.78005 6.22005L6.49005 6.64005C2.92005 7.79005 2.07005 9.47005 3.22005 13.0501L4.50005 17.0001C5.66005 20.5701 7.34005 21.4301 10.9101 20.2801L12.4901 19.7601C12.5501 19.7401 12.6001 19.7201 12.6601 19.7001L11.6001 19.4501C6.99005 18.3601 5.48005 15.92 6.56005 11.3201L7.54005 7.13005C7.61005 6.81005 7.69005 6.50005 7.78005 6.22005Z" fill="#353535"/>
</svg>
