<svg xmlns="http://www.w3.org/2000/svg" viewBox="0 0 62.99 66.37"><defs><style>.cls-1{fill:none;stroke:#417f56;stroke-miterlimit:10;stroke-width:6px;}</style></defs><title>HomsaAsset 2</title><g id="Layer_2" data-name="Layer 2"><g id="background"><path class="cls-1" d="M34.46,54.63A51,51,0,0,0,38.77,51a38.48,38.48,0,0,0,7.46-9,12.77,12.77,0,0,0,1.58-9.35c-.78-3.16-3.27-5.93-6.33-6.32-3.54-.45-7.65,2.92-10,5.78-2.33-2.86-6.45-6.23-10-5.78-3.06.39-5.56,3.16-6.34,6.32a12.82,12.82,0,0,0,1.59,9.35,38.24,38.24,0,0,0,7.46,9,50.9,50.9,0,0,0,4.3,3.6l4.14,2.58,16.8,5.73A8,8,0,0,0,60,55.41V28.52a8,8,0,0,0-2.79-6.05L36.67,4.91a8,8,0,0,0-10.35,0L5.79,22.47A8,8,0,0,0,3,28.52V55.41a8,8,0,0,0,10.53,7.53l16.8-5.73Z"/></g></g></svg>