<svg xmlns="http://www.w3.org/2000/svg" viewBox="0 0 202.72 77.6"><defs><style>.cls-1{fill:#417f56;}.cls-2{fill:none;stroke:#417f56;stroke-miterlimit:10;stroke-width:6px;}</style></defs><title>HomsaAsset 3</title><g id="Layer_2" data-name="Layer 2"><g id="background"><path class="cls-1" d="M67.25,27A17.28,17.28,0,0,0,61,22.28,15.25,15.25,0,0,0,54.91,27a21,21,0,0,0-4.1,10.22,92.77,92.77,0,0,0-.47,11.17v1.71c0,2.73-1.34,4.1-4,4.1h-.1c-2.6-.09-3.9-1.45-3.9-4.1V22.28H35.8V50.11a4.48,4.48,0,0,1-2,4.16,4.44,4.44,0,0,1-2.06-4.16V22.28H25.14V50.11c0,2.73-1.34,4.1-4,4.1V22.28H14.57V50.11q0,4.1-4,4.1h-.1c-2.6-.09-3.9-1.45-3.9-4.1V0H0V51.48a8.09,8.09,0,0,0,3.36,6.44,10.84,10.84,0,0,0,7,2.6h.12a12.32,12.32,0,0,0,7.18-2.41l.35-.25v2.66h3.36a13,13,0,0,0,7.11-2.6A8,8,0,0,0,34,60.49a8.52,8.52,0,0,0,5.27-2.16.4.4,0,0,1,.22-.15,10.78,10.78,0,0,0,6.67,2.34h.12a12.34,12.34,0,0,0,7.18-2.41,9.67,9.67,0,0,0,2.31-2.44l-.06,4.85h5.65a12,12,0,0,0,7-2.41,7.92,7.92,0,0,0,3.49-6.63V48.4a94,94,0,0,0-.54-11.2Q70.31,30.57,67.25,27Zm-2,23.16q0,4.1-4,4.1H56.43a7.53,7.53,0,0,0,.48-2.73V49.29q0-10.38,1.36-14.89A9.43,9.43,0,0,1,61,30.09q3.27,3.14,3.9,9.52c.24,2.28.35,5.46.35,9.52Z"/><path class="cls-1" d="M130.44,32.88q-3-7.65-12.56-10.6l-3.62,5.81q5.77,1.85,8.22,4.38c1.8,1.88,2.9,4.72,3.3,8.5,0,1.1,0,2.73.13,4.89,0,.93.07,1.77.09,2.51v1.78a6.26,6.26,0,0,1-1.43,4.12,16.16,16.16,0,0,0,.32-2.79V50.11c0-.35,0-.69,0-1s0-.67,0-1a36.93,36.93,0,0,0-.25-3.81c0-.49-.1-.92-.16-1.3-.64-4.43-2-7.84-4-10.26a17.55,17.55,0,0,0-6.22-4.66,15.34,15.34,0,0,0-6.13,4.73,16.65,16.65,0,0,0-4,8.63c-.29,2.12-.52,5-.66,8.66,0,2.73-1.34,4.1-4,4.1h-.19v.06h-3.5c0-.91.07-1.84.07-2.79V22.34Q81.8,22.67,76.43,33q-1.65,4.1-2.07,13.64,0,.8,0,1.65c0,.55,0,1.11,0,1.69v1.46a8,8,0,0,0,3.37,6.44,11.33,11.33,0,0,0,6.63,2.66h4.41a12.29,12.29,0,0,1-3.08,6.92c-1.61,1.7-4.33,3.16-8.19,4.38l3.59,5.78q9.59-3,12.6-10.57a27.47,27.47,0,0,0,1.52-6.51H99.4a12.25,12.25,0,0,0,7.11-2.41l.26-.19,0,0a10.89,10.89,0,0,0,7,2.57h.13v0l7.9,0a12.13,12.13,0,0,0,7.27-2.38,7.92,7.92,0,0,0,3.49-6.63V48.18Q132.34,37.55,130.44,32.88ZM89.25,49.13c0,1.1,0,2.79-.13,5.08H84.8c-2.58-.13-3.87-1.52-3.87-4.19V47.7q0-.83,0-1.77c.09-2.12.13-3.74.13-4.86.4-3.77,1.5-6.6,3.3-8.51a15.5,15.5,0,0,1,4.86-3.11Zm29.07,1q0,4.1-4,4.1h-.41c-2.6-.06-3.91-1.42-3.91-4.06V49.8c0-4,.37-7,1.08-8.83a12.4,12.4,0,0,1,3.11-5.07q3.27,3.14,3.91,9.52c.08.91.16,2,.22,3.14Z"/><path class="cls-2" d="M174.2,54.88a48.79,48.79,0,0,0,4.3-3.6,38.28,38.28,0,0,0,7.46-9A12.79,12.79,0,0,0,187.55,33c-.79-3.16-3.28-5.94-6.34-6.33-3.54-.44-7.65,2.93-10,5.79-2.33-2.86-6.45-6.23-10-5.79-3.06.39-5.55,3.17-6.34,6.33a12.79,12.79,0,0,0,1.59,9.34,38.28,38.28,0,0,0,7.46,9,48.79,48.79,0,0,0,4.3,3.6l4.14,2.59,16.8,5.72a8,8,0,0,0,10.53-7.53V28.77a8,8,0,0,0-2.79-6.05L176.4,5.16a8,8,0,0,0-10.35,0L145.52,22.72a8,8,0,0,0-2.79,6.05V55.66a8,8,0,0,0,10.53,7.53l16.8-5.72Z"/></g></g></svg>