<svg width="24" height="24" viewBox="0 0 24 24" fill="none" xmlns="http://www.w3.org/2000/svg">
<path d="M10 22.75H9C3.57 22.75 1.25 20.43 1.25 15V9C1.25 3.57 3.57 1.25 9 1.25H15C20.43 1.25 22.75 3.57 22.75 9V11C22.75 11.41 22.41 11.75 22 11.75C21.59 11.75 21.25 11.41 21.25 11V9C21.25 4.39 19.61 2.75 15 2.75H9C4.39 2.75 2.75 4.39 2.75 9V15C2.75 19.61 4.39 21.25 9 21.25H10C10.41 21.25 10.75 21.59 10.75 22C10.75 22.41 10.41 22.75 10 22.75Z" fill="#353535"/>
<path d="M22.0002 9.25H2.03027C1.62027 9.25 1.28027 8.91 1.28027 8.5C1.28027 8.09 1.62027 7.75 2.03027 7.75H22.0002C22.4102 7.75 22.7502 8.09 22.7502 8.5C22.7502 8.91 22.4102 9.25 22.0002 9.25Z" fill="#353535"/>
<path d="M12.0002 16.25H2.03027C1.62027 16.25 1.28027 15.91 1.28027 15.5C1.28027 15.09 1.62027 14.75 2.03027 14.75H12.0002C12.4102 14.75 12.7502 15.09 12.7502 15.5C12.7502 15.91 12.4102 16.25 12.0002 16.25Z" fill="#353535"/>
<path d="M8.50977 22.74C8.09977 22.74 7.75977 22.4 7.75977 21.99V2.02002C7.75977 1.61002 8.09977 1.27002 8.50977 1.27002C8.91977 1.27002 9.25977 1.61002 9.25977 2.02002V21.99C9.25977 22.4 8.92977 22.74 8.50977 22.74Z" fill="#353535"/>
<path d="M15.5098 12.74C15.0998 12.74 14.7598 12.4 14.7598 11.99V2.02002C14.7598 1.61002 15.0998 1.27002 15.5098 1.27002C15.9198 1.27002 16.2598 1.61002 16.2598 2.02002V11.99C16.2598 12.4 15.9298 12.74 15.5098 12.74Z" fill="#353535"/>
<path d="M14.7601 22.7499C14.3401 22.7499 13.9601 22.5999 13.6801 22.3199C13.3401 21.9899 13.1901 21.4999 13.2701 20.9899L13.5001 19.4C13.5501 19.02 13.7801 18.56 14.0601 18.28L18.2101 14.1299C18.7501 13.5899 19.2801 13.3099 19.8401 13.2499C20.5301 13.1799 21.2201 13.4799 21.8701 14.1299C22.5201 14.7799 22.8201 15.46 22.7501 16.16C22.7001 16.72 22.4101 17.25 21.8701 17.79L17.7201 21.9399C17.4501 22.2099 16.9901 22.4399 16.6001 22.4999L15.0201 22.7299C14.9301 22.7399 14.8401 22.7499 14.7601 22.7499ZM20.0201 14.7499C20.0101 14.7499 19.9901 14.7499 19.9801 14.7499C19.7801 14.7699 19.5401 14.9199 19.2601 15.1999L15.1101 19.3499C15.0601 19.3999 14.9901 19.5499 14.9801 19.6199L14.7501 21.2099L16.3801 21.03C16.4501 21.02 16.6001 20.94 16.6501 20.9L20.8001 16.7499C21.0801 16.4699 21.2301 16.23 21.2501 16.03C21.2701 15.8 21.1201 15.5299 20.8001 15.2099C20.5001 14.8999 20.2401 14.7499 20.0201 14.7499Z" fill="#353535"/>
<path d="M20.74 18.61C20.67 18.61 20.61 18.5999 20.54 18.5799C19.04 18.1599 17.84 16.96 17.42 15.46C17.31 15.06 17.5401 14.65 17.9401 14.54C18.3501 14.43 18.75 14.66 18.86 15.06C19.14 16.06 19.9401 16.86 20.9401 17.14C21.3401 17.25 21.5701 17.67 21.4601 18.06C21.3701 18.4 21.06 18.61 20.74 18.61Z" fill="#353535"/>
</svg>
