<svg width="24" height="24" viewBox="0 0 24 24" fill="none" xmlns="http://www.w3.org/2000/svg">
<path d="M10 22.75H9C3.57 22.75 1.25 20.43 1.25 15V9C1.25 3.57 3.57 1.25 9 1.25H15C20.43 1.25 22.75 3.57 22.75 9V11C22.75 11.41 22.41 11.75 22 11.75C21.59 11.75 21.25 11.41 21.25 11V9C21.25 4.39 19.61 2.75 15 2.75H9C4.39 2.75 2.75 4.39 2.75 9V15C2.75 19.61 4.39 21.25 9 21.25H10C10.41 21.25 10.75 21.59 10.75 22C10.75 22.41 10.41 22.75 10 22.75Z" fill="#353535"/>
<path d="M22.0003 9.25H2.03027C1.62027 9.25 1.28027 8.91 1.28027 8.5C1.28027 8.09 1.62027 7.75 2.03027 7.75H22.0003C22.4103 7.75 22.7503 8.09 22.7503 8.5C22.7503 8.91 22.4103 9.25 22.0003 9.25Z" fill="#353535"/>
<path d="M12.0003 16.25H2.03027C1.62027 16.25 1.28027 15.91 1.28027 15.5C1.28027 15.09 1.62027 14.75 2.03027 14.75H12.0003C12.4103 14.75 12.7503 15.09 12.7503 15.5C12.7503 15.91 12.4103 16.25 12.0003 16.25Z" fill="#353535"/>
<path d="M8.50977 22.74C8.09977 22.74 7.75977 22.4 7.75977 21.99V2.02002C7.75977 1.61002 8.09977 1.27002 8.50977 1.27002C8.91977 1.27002 9.25977 1.61002 9.25977 2.02002V21.99C9.25977 22.4 8.92977 22.74 8.50977 22.74Z" fill="#353535"/>
<path d="M15.5098 12.74C15.0998 12.74 14.7598 12.4 14.7598 11.99V2.02002C14.7598 1.61002 15.0998 1.27002 15.5098 1.27002C15.9198 1.27002 16.2598 1.61002 16.2598 2.02002V11.99C16.2598 12.4 15.9298 12.74 15.5098 12.74Z" fill="#353535"/>
<path d="M15.9502 22.75C15.4102 22.75 14.8802 22.55 14.4602 22.14L12.8702 20.54C12.0602 19.73 12.0602 18.3999 12.8702 17.5699L14.7802 15.67C15.0702 15.38 15.5502 15.38 15.8402 15.67L19.3402 19.17C19.4802 19.31 19.5602 19.4999 19.5602 19.6999C19.5602 19.8999 19.4802 20.09 19.3402 20.23L17.4402 22.13C17.0202 22.54 16.4902 22.75 15.9502 22.75ZM15.3002 17.27L13.9302 18.64C13.7002 18.87 13.7002 19.26 13.9302 19.49L15.5102 21.0799C15.7402 21.3099 16.1302 21.3099 16.3602 21.0799L17.7402 19.7099L15.3002 17.27Z" fill="#353535"/>
<path d="M18.8002 20.45C18.6002 20.45 18.4102 20.37 18.2702 20.23L14.7702 16.73C14.4802 16.44 14.4802 15.9601 14.7702 15.6701L17.5802 12.85C18.4002 12.03 19.7402 12.03 20.5602 12.85L22.1403 14.44C22.5303 14.83 22.7502 15.3601 22.7502 15.9301C22.7502 16.5001 22.5303 17.0201 22.1403 17.4201L19.3402 20.23C19.1902 20.38 19.0002 20.45 18.8002 20.45ZM16.3702 16.21L18.8102 18.65L21.0802 16.37C21.1902 16.26 21.2502 16.11 21.2502 15.94C21.2502 15.78 21.1902 15.62 21.0802 15.51L19.5002 13.9201C19.2702 13.6901 18.8802 13.6901 18.6502 13.9201L16.3702 16.21Z" fill="#353535"/>
</svg>
