<svg width="24" height="24" viewBox="0 0 24 24" fill="none" xmlns="http://www.w3.org/2000/svg">
<path d="M15 22.75H14C13.59 22.75 13.25 22.41 13.25 22C13.25 21.59 13.59 21.25 14 21.25H15C19.61 21.25 21.25 19.61 21.25 15V9C21.25 4.39 19.61 2.75 15 2.75H9C4.39 2.75 2.75 4.39 2.75 9V9.98C2.75 10.39 2.41 10.73 2 10.73C1.59 10.73 1.25 10.39 1.25 9.98V9C1.25 3.57 3.57 1.25 9 1.25H15C20.43 1.25 22.75 3.57 22.75 9V15C22.75 20.43 20.43 22.75 15 22.75Z" fill="#353535"/>
<path d="M13 11.75C12.81 11.75 12.62 11.68 12.47 11.53C12.18 11.24 12.18 10.76 12.47 10.47L16.21 6.71997H14C13.59 6.71997 13.25 6.37997 13.25 5.96997C13.25 5.55997 13.58 5.21997 14 5.21997H18.01C18.31 5.21997 18.59 5.39997 18.7 5.67997C18.82 5.95997 18.75 6.27997 18.54 6.49997L13.53 11.53C13.38 11.68 13.19 11.75 13 11.75Z" fill="#353535"/>
<path d="M18.01 10.74C17.6 10.74 17.26 10.4 17.26 9.98997V5.96997C17.26 5.55997 17.6 5.21997 18.01 5.21997C18.42 5.21997 18.76 5.55997 18.76 5.96997V9.97997C18.76 10.4 18.42 10.74 18.01 10.74Z" fill="#353535"/>
<path d="M7.85 22.75H5.15C2.49 22.75 1.25 21.51 1.25 18.85V16.15C1.25 13.49 2.49 12.25 5.15 12.25H7.85C10.51 12.25 11.75 13.49 11.75 16.15V18.85C11.75 21.51 10.51 22.75 7.85 22.75ZM5.15 13.75C3.31 13.75 2.75 14.31 2.75 16.15V18.85C2.75 20.69 3.31 21.25 5.15 21.25H7.85C9.69 21.25 10.25 20.69 10.25 18.85V16.15C10.25 14.31 9.69 13.75 7.85 13.75H5.15Z" fill="#353535"/>
</svg>
