<svg width="24" height="24" viewBox="0 0 24 24" fill="none" xmlns="http://www.w3.org/2000/svg">
<path d="M21 9.75C20.59 9.75 20.25 9.41 20.25 9V3.75H15C14.59 3.75 14.25 3.41 14.25 3C14.25 2.59 14.59 2.25 15 2.25H21C21.41 2.25 21.75 2.59 21.75 3V9C21.75 9.41 21.41 9.75 21 9.75Z" fill="#353535"/>
<path d="M9 21.75H3C2.59 21.75 2.25 21.41 2.25 21V15C2.25 14.59 2.59 14.25 3 14.25C3.41 14.25 3.75 14.59 3.75 15V20.25H9C9.41 20.25 9.75 20.59 9.75 21C9.75 21.41 9.41 21.75 9 21.75Z" fill="#353535"/>
<path d="M13.5 11.2499C13.31 11.2499 13.12 11.1799 12.97 11.0299C12.68 10.7399 12.68 10.2599 12.97 9.96994L20.47 2.46994C20.76 2.17994 21.24 2.17994 21.53 2.46994C21.82 2.75994 21.82 3.23994 21.53 3.52994L14.03 11.0299C13.88 11.1799 13.69 11.2499 13.5 11.2499Z" fill="#353535"/>
<path d="M3 21.7499C2.81 21.7499 2.62 21.6799 2.47 21.5299C2.18 21.2399 2.18 20.7599 2.47 20.4699L9.97 12.9699C10.26 12.6799 10.74 12.6799 11.03 12.9699C11.32 13.2599 11.32 13.7399 11.03 14.0299L3.53 21.5299C3.38 21.6799 3.19 21.7499 3 21.7499Z" fill="#353535"/>
</svg>
