<svg width="24" height="24" viewBox="0 0 24 24" fill="none" xmlns="http://www.w3.org/2000/svg">
<path d="M17 18.75H7C6.25 18.75 5.7 18.72 5.23 18.65C1.91 18.29 1.25 16.3 1.25 13V11C1.25 7.7 1.91 5.71 5.26 5.34C5.7 5.28 6.25 5.25 7 5.25H17C17.75 5.25 18.3 5.28 18.77 5.35C22.1 5.72 22.75 7.7 22.75 11V13C22.75 16.3 22.09 18.29 18.74 18.66C18.3 18.72 17.75 18.75 17 18.75ZM7 6.75C6.32 6.75 5.84 6.78 5.45 6.83C3.42 7.06 2.75 7.69 2.75 11V13C2.75 16.31 3.42 16.94 5.42 17.17C5.84 17.23 6.32 17.25 7 17.25H17C17.68 17.25 18.16 17.22 18.55 17.17C20.58 16.95 21.25 16.31 21.25 13V11C21.25 7.69 20.58 7.06 18.58 6.83C18.16 6.77 17.68 6.75 17 6.75H7Z" fill="#353535"/>
<path d="M15.33 22.7499H8.67002C5.57002 22.7499 4.58002 21.7599 4.58002 18.6699V18.3299C4.58002 18.1599 4.58002 18.0099 4.59002 17.8599C4.60002 17.6499 4.70002 17.4599 4.87002 17.3299C5.03002 17.1999 5.24002 17.1399 5.45002 17.1699C5.85002 17.2299 6.33002 17.2499 7.00002 17.2499H17C17.68 17.2499 18.16 17.2199 18.55 17.1699C18.76 17.1399 18.97 17.1999 19.13 17.3299C19.29 17.4599 19.39 17.6499 19.41 17.8599C19.42 18.0199 19.42 18.1599 19.42 18.3299V18.6699C19.42 21.7599 18.43 22.7499 15.33 22.7499ZM6.08002 18.7299C6.09002 20.9199 6.44002 21.2499 8.67002 21.2499H15.33C17.56 21.2499 17.91 20.9199 17.92 18.7299C17.65 18.7399 17.35 18.7499 17 18.7499H7.00002C6.65002 18.7499 6.35002 18.7399 6.08002 18.7299Z" fill="#353535"/>
<path d="M18.66 6.84C18.62 6.84 18.59 6.84 18.55 6.83C18.15 6.77 17.67 6.75 17 6.75H7.00002C6.32002 6.75 5.84002 6.78 5.45002 6.83C5.24002 6.86 5.03002 6.8 4.87002 6.67C4.71002 6.54 4.61002 6.35 4.59002 6.14C4.58002 5.98 4.58002 5.84 4.58002 5.67V5.33C4.58002 2.24 5.57002 1.25 8.67002 1.25H15.33C18.43 1.25 19.42 2.24 19.42 5.33V5.67C19.42 5.84 19.42 5.99 19.41 6.14C19.4 6.35 19.3 6.54 19.13 6.67C19 6.78 18.83 6.84 18.66 6.84ZM7.00002 5.25H17C17.35 5.25 17.65 5.26 17.92 5.27C17.91 3.08 17.56 2.75 15.33 2.75H8.67002C6.44002 2.75 6.09002 3.08 6.08002 5.27C6.35002 5.26 6.65002 5.25 7.00002 5.25Z" fill="#353535"/>
</svg>
