<svg width="24" height="24" viewBox="0 0 24 24" fill="none" xmlns="http://www.w3.org/2000/svg">
<path d="M15.98 19.38H17.02C18.61 19.38 19.25 18.78 19.25 17.26V5.38H13.75V17.26C13.76 18.78 14.4 19.38 15.98 19.38Z" fill="#353535"/>
<path d="M7.48 14.38H8.52C10.11 14.38 10.75 13.77 10.75 12.26V5.38H5.25V12.26C5.26 13.77 5.9 14.38 7.48 14.38Z" fill="#353535"/>
<path d="M21.25 6.12H2.75C2.34 6.12 2 5.79 2 5.38C2 4.97 2.34 4.63 2.75 4.63H21.25C21.66 4.63 22 4.97 22 5.38C22 5.79 21.66 6.12 21.25 6.12Z" fill="#353535"/>
</svg>
