<svg width="24" height="24" viewBox="0 0 24 24" fill="none" xmlns="http://www.w3.org/2000/svg">
<path d="M5.53 2C5.11 2 4.78 2.34 4.78 2.75V4.78H2.75C2.34 4.78 2 5.11 2 5.53C2 5.95 2.34 6.28 2.75 6.28H5.53C5.94 6.28 6.28 5.94 6.28 5.53V2.75C6.28 2.34 5.94 2 5.53 2Z" fill="#353535"/>
<path d="M21.25 17.72H18.47C18.06 17.72 17.72 18.06 17.72 18.47V21.25C17.72 21.66 18.06 22 18.47 22C18.88 22 19.22 21.66 19.22 21.25V19.22H21.25C21.66 19.22 22 18.88 22 18.47C22 18.06 21.66 17.72 21.25 17.72Z" fill="#353535"/>
<path d="M16.72 18.4699C16.72 17.5099 17.51 16.7199 18.47 16.7199H19.16V10.0499C19.16 7.15995 16.82 4.81995 13.93 4.81995H7.28002V5.50995C7.28002 6.46995 6.49002 7.25995 5.53002 7.25995H4.83002V13.9299C4.83002 16.8199 7.17002 19.1599 10.06 19.1599H16.73V18.4699H16.72Z" fill="#353535"/>
</svg>
