<svg width="24" height="24" viewBox="0 0 24 24" fill="none" xmlns="http://www.w3.org/2000/svg">
<path d="M8.02 4.62H6.98C5.39 4.62 4.75 5.22 4.75 6.74V18.62H10.25V6.74C10.24 5.22 9.6 4.62 8.02 4.62Z" fill="#353535"/>
<path d="M16.52 9.62H15.48C13.89 9.62 13.25 10.23 13.25 11.74V18.62H18.75V11.74C18.75 10.23 18.1 9.62 16.52 9.62Z" fill="#353535"/>
<path d="M2.75 17.88H21.25C21.66 17.88 22 18.22 22 18.63C22 19.04 21.66 19.38 21.25 19.38H2.75C2.34 19.38 2 19.04 2 18.62C2 18.2 2.34 17.88 2.75 17.88Z" fill="#353535"/>
</svg>
