<svg width="24" height="24" viewBox="0 0 24 24" fill="none" xmlns="http://www.w3.org/2000/svg">
<path d="M22 15V9C22 7.34 20.66 6 19 6H5C3.34 6 2 7.34 2 9V15C2 16.66 3.34 18 5 18H19C20.66 18 22 16.66 22 15Z" fill="#353535"/>
<path d="M5.93003 19.5H18.07C18.39 19.5 18.62 19.79 18.56 20.1C18.29 21.58 17.42 22 15.33 22H8.67003C6.57003 22 5.71003 21.58 5.44003 20.1C5.38003 19.79 5.61003 19.5 5.93003 19.5Z" fill="#353535"/>
<path d="M8.67003 2H15.33C17.43 2 18.29 2.42 18.56 3.9C18.62 4.21 18.38 4.5 18.07 4.5H5.93003C5.61003 4.5 5.38003 4.21 5.44003 3.9C5.71003 2.42 6.57003 2 8.67003 2Z" fill="#353535"/>
</svg>
