<svg width="24" height="24" viewBox="0 0 24 24" fill="none" xmlns="http://www.w3.org/2000/svg">
<path d="M21.2901 17.02L19.5501 13.54C19.0701 12.57 19.0701 11.44 19.5501 10.47L21.2901 6.98995C22.7801 3.99995 19.5701 0.859951 16.6201 2.41995L15.0801 3.23995C14.8701 3.34995 14.7001 3.52995 14.6001 3.74995L8.90005 16.3899C8.67005 16.91 8.88005 17.52 9.38005 17.78L16.6201 21.59C19.5701 23.15 22.7801 20 21.2901 17.02Z" fill="#353535"/>
<path d="M7.69002 15.6L11.42 7.31996C11.84 6.38996 10.84 5.44996 9.94002 5.92996L4.17002 8.95996C1.72002 10.25 1.72002 13.75 4.17002 15.04L6.21002 16.11C6.76002 16.4 7.43002 16.17 7.69002 15.6Z" fill="#353535"/>
</svg>
