<svg width="24" height="24" viewBox="0 0 24 24" fill="none" xmlns="http://www.w3.org/2000/svg">
<path d="M18.7301 14.67L14.5801 18.82C14.4201 18.98 14.2701 19.29 14.2301 19.51L14.0001 21.1C13.9201 21.67 14.3201 22.08 14.8901 21.99L16.4801 21.76C16.7001 21.73 17.0101 21.57 17.1701 21.41L21.3201 17.26C22.0301 16.55 22.3701 15.71 21.3201 14.66C20.2801 13.62 19.4501 13.95 18.7301 14.67Z" fill="#353535"/>
<path d="M18.14 15.26C18.49 16.52 19.48 17.5 20.74 17.86L18.14 15.26Z" fill="#353535"/>
<path d="M2.03001 14.63C2.03001 14.66 2.01001 14.7 2.01001 14.73C2.93001 16.57 4.43001 18.08 6.27001 18.99C6.30001 18.99 6.34001 18.97 6.37001 18.97C6.03001 17.81 5.77001 16.62 5.58001 15.43C4.38001 15.23 3.19001 14.97 2.03001 14.63Z" fill="#353535"/>
<path d="M19.07 6.42994C18.13 4.45994 16.54 2.86994 14.58 1.93994C14.94 3.12994 15.24 4.34994 15.44 5.56994C16.66 5.76994 17.88 6.05994 19.07 6.42994Z" fill="#353535"/>
<path d="M1.93005 6.43002C3.13005 6.07002 4.35005 5.77002 5.57005 5.57002C5.77005 4.38002 6.02005 3.20002 6.36005 2.04002C6.33005 2.04002 6.29005 2.02002 6.26005 2.02002C4.38005 2.95002 2.85005 4.52002 1.93005 6.43002Z" fill="#353535"/>
<path d="M13.8201 5.36C13.5801 4.06 13.2801 2.76 12.8501 1.5C12.8301 1.43 12.8301 1.37 12.8201 1.29C12.0801 1.11 11.3001 1 10.5001 1C9.69005 1 8.92005 1.11 8.17005 1.3C8.16005 1.37 8.17005 1.43 8.15005 1.51C7.73005 2.77 7.42005 4.06 7.18005 5.36C9.39005 5.12 11.6101 5.12 13.8201 5.36Z" fill="#353535"/>
<path d="M5.36 7.18005C4.05 7.42005 2.77 7.73005 1.5 8.15005C1.43 8.17005 1.37 8.17005 1.3 8.18005C1.11 8.92005 1 9.70005 1 10.5001C1 11.3101 1.11 12.0801 1.3 12.8301C1.37 12.8401 1.43 12.8301 1.51 12.8501C2.77 13.2701 4.06 13.5801 5.37 13.8201C5.12 11.6101 5.12 9.39005 5.36 7.18005Z" fill="#353535"/>
<path d="M19.7 8.18005C19.63 8.18005 19.57 8.17005 19.49 8.15005C18.23 7.73005 16.93 7.42005 15.63 7.18005C15.88 9.39005 15.88 11.6101 15.63 13.8101C16.93 13.5701 18.23 13.2701 19.49 12.8401C19.56 12.8201 19.62 12.8301 19.7 12.8201C19.88 12.0701 20 11.3001 20 10.4901C20 9.70005 19.89 8.93005 19.7 8.18005Z" fill="#353535"/>
<path d="M7.18005 15.64C7.42005 16.95 7.72005 18.24 8.15005 19.5C8.17005 19.57 8.16005 19.63 8.17005 19.71C8.92005 19.89 9.69005 20 10.5001 20C11.3001 20 12.0801 19.89 12.8201 19.7C12.8301 19.63 12.8301 19.57 12.8501 19.49C13.2701 18.23 13.5801 16.94 13.8201 15.63C12.7201 15.75 11.6101 15.84 10.5001 15.84C9.39005 15.84 8.28005 15.76 7.18005 15.64Z" fill="#353535"/>
<path d="M6.94998 6.94998C6.64998 9.30998 6.64998 11.69 6.94998 14.06C9.30998 14.36 11.69 14.36 14.06 14.06C14.36 11.7 14.36 9.31998 14.06 6.94998C11.69 6.64998 9.30998 6.64998 6.94998 6.94998Z" fill="#353535"/>
</svg>
