<svg width="24" height="24" viewBox="0 0 24 24" fill="none" xmlns="http://www.w3.org/2000/svg">
<path d="M22.7499 12C22.7499 12.41 22.4099 12.75 21.9999 12.75H19.9599C19.6099 16.56 16.5599 19.6099 12.7499 19.9599V22C12.7499 22.41 12.4099 22.75 11.9999 22.75C11.5899 22.75 11.2499 22.41 11.2499 22V19.9599C10.6399 19.9099 10.0399 19.78 9.46994 19.59C8.75994 19.35 8.53994 18.45 9.06994 17.92L11.8799 15.11C11.9199 15.12 11.9499 15.12 11.9899 15.12C13.7199 15.12 15.1099 13.73 15.1099 12C15.1099 11.96 15.1099 11.93 15.0999 11.89L17.9099 9.07995C18.4399 8.54995 19.3399 8.76995 19.5799 9.47995C19.7699 10.05 19.8999 10.64 19.9499 11.26H21.9999C22.4099 11.25 22.7499 11.59 22.7499 12Z" fill="#353535"/>
<path d="M21.77 2.23C21.47 1.93 20.98 1.93 20.68 2.23L17.07 5.84C15.87 4.85 14.37 4.2 12.74 4.05V2C12.74 1.59 12.4 1.25 11.99 1.25C11.58 1.25 11.24 1.59 11.24 2V4.04C7.43 4.4 4.38 7.44 4.03 11.25H2C1.59 11.25 1.25 11.59 1.25 12C1.25 12.41 1.59 12.75 2 12.75H4.04C4.19 14.38 4.84 15.88 5.83 17.08L2.22 20.69C1.92 20.99 1.92 21.48 2.22 21.78C2.38 21.92 2.57 22 2.77 22C2.97 22 3.16 21.92 3.31 21.77L21.77 3.31C22.08 3.01 22.08 2.53 21.77 2.23ZM8.88 12C8.88 10.28 10.28 8.88 12 8.88C12.58 8.88 13.12 9.05 13.58 9.33L9.33 13.58C9.05 13.12 8.88 12.58 8.88 12Z" fill="#353535"/>
</svg>
