<svg width="24" height="24" viewBox="0 0 24 24" fill="none" xmlns="http://www.w3.org/2000/svg">
<path d="M15.78 20.98C14.72 22 13.36 22.51 12 22.51C10.64 22.51 9.28001 21.99 8.22002 20.97C7.86002 20.63 7.50001 20.25 7.14001 19.86L20.04 6.95996C20.29 7.49996 20.48 8.06996 20.62 8.69996C21.79 13.86 18.63 18.22 15.78 20.98Z" fill="#353535"/>
<path d="M21.77 2.23C21.47 1.93 20.98 1.93 20.68 2.23L2.23 20.69C1.93 20.99 1.93 21.48 2.23 21.78C2.38 21.92 2.57 22 2.77 22C2.97 22 3.16 21.92 3.31 21.77L21.77 3.31C22.08 3.01 22.08 2.53 21.77 2.23Z" fill="#353535"/>
<path d="M8.84999 10.31C8.84999 8.57 10.26 7.16 12 7.16C13.31 7.16 14.43 7.96 14.91 9.1L18.89 5.12C17.12 2.98 14.44 2 12 2C10.23 2 8.33999 2.52 6.75999 3.61C5.17999 4.71 3.89999 6.38 3.37999 8.69C2.53999 12.36 3.89999 15.64 5.78999 18.21L10.79 13.21C9.64999 12.74 8.84999 11.61 8.84999 10.31Z" fill="#353535"/>
</svg>
