<svg width="24" height="24" viewBox="0 0 24 24" fill="none" xmlns="http://www.w3.org/2000/svg">
<path d="M10.51 11.22L8.31 2.39C8.26 2.16 8.05 2 7.81 2C4.6 2 2 4.6 2 7.81V13.51C2 13.85 2.33 14.1 2.66 14L10.16 11.83C10.42 11.76 10.58 11.49 10.51 11.22Z" fill="#353535"/>
<path d="M11.12 13.68C11.05 13.4 10.76 13.23 10.48 13.31L2.37 15.67C2.15 15.74 2 15.94 2 16.17V16.19C2 19.4 4.6 22 7.81 22H12.53C12.86 22 13.11 21.69 13.03 21.36L11.12 13.68Z" fill="#353535"/>
<path d="M16.19 2H10.44C10.11 2 9.85995 2.31 9.93995 2.64L14.68 21.61C14.74 21.84 14.94 22 15.18 22H16.18C19.4 22 22 19.4 22 16.19V7.81C22 4.6 19.4 2 16.19 2Z" fill="#353535"/>
</svg>
