<svg width="24" height="24" viewBox="0 0 24 24" fill="none" xmlns="http://www.w3.org/2000/svg">
<path d="M12 22.75C6.07 22.75 1.25 17.93 1.25 12C1.25 6.07 6.07 1.25 12 1.25C17.93 1.25 22.75 6.07 22.75 12C22.75 17.93 17.93 22.75 12 22.75ZM12 2.75C6.9 2.75 2.75 6.9 2.75 12C2.75 17.1 6.9 21.25 12 21.25C17.1 21.25 21.25 17.1 21.25 12C21.25 6.9 17.1 2.75 12 2.75Z" fill="#353535"/>
<path d="M9.89014 8.57996C9.48014 8.57996 9.14014 8.23996 9.14014 7.82996V5.82996C9.14014 5.41996 9.48014 5.07996 9.89014 5.07996C10.3001 5.07996 10.6401 5.41996 10.6401 5.82996V7.82996C10.6401 8.23996 10.3101 8.57996 9.89014 8.57996Z" fill="#353535"/>
<path d="M14.1099 8.57996C13.6999 8.57996 13.3599 8.23996 13.3599 7.82996V5.82996C13.3599 5.41996 13.6999 5.07996 14.1099 5.07996C14.5199 5.07996 14.8599 5.41996 14.8599 5.82996V7.82996C14.8599 8.23996 14.5199 8.57996 14.1099 8.57996Z" fill="#353535"/>
<path d="M16.47 10.89H7.52002C7.11002 10.89 6.77002 10.55 6.77002 10.14C6.77002 9.73001 7.11002 9.39001 7.52002 9.39001H16.47C16.88 9.39001 17.22 9.73001 17.22 10.14C17.22 10.55 16.89 10.89 16.47 10.89Z" fill="#353535"/>
<path d="M13.5 18.4199H10.5C7.75 18.4199 5.75 16.4199 5.75 13.6699V10.6699C5.75 7.91992 7.75 5.91992 10.5 5.91992H13.5C16.25 5.91992 18.25 7.91992 18.25 10.6699V13.6699C18.25 16.4199 16.25 18.4199 13.5 18.4199ZM10.5 7.41992C8.25 7.41992 7.25 9.04992 7.25 10.6699V13.6699C7.25 15.2899 8.25 16.9199 10.5 16.9199H13.5C15.75 16.9199 16.75 15.2899 16.75 13.6699V10.6699C16.75 9.04992 15.75 7.41992 13.5 7.41992H10.5Z" fill="#353535"/>
</svg>
