<svg width="24" height="24" viewBox="0 0 24 24" fill="none" xmlns="http://www.w3.org/2000/svg">
<path d="M11.9999 22.7599C10.9099 22.7599 9.82992 22.4399 8.97992 21.8099L4.6799 18.5999C3.5399 17.7499 2.6499 15.9699 2.6499 14.5599V7.11994C2.6499 5.57994 3.77992 3.93994 5.22992 3.39994L10.2199 1.52994C11.2099 1.15994 12.7699 1.15994 13.7599 1.52994L18.7499 3.39994C20.1999 3.93994 21.3299 5.57994 21.3299 7.11994V14.5499C21.3299 15.9699 20.4399 17.7399 19.2999 18.5899L14.9999 21.7999C14.1699 22.4399 13.0899 22.7599 11.9999 22.7599ZM10.7499 2.93994L5.75992 4.80994C4.90992 5.12994 4.15991 6.20994 4.15991 7.12994V14.5599C4.15991 15.5099 4.8299 16.8399 5.5799 17.3999L9.87991 20.6099C11.0299 21.4699 12.9699 21.4699 14.1299 20.6099L18.4299 17.3999C19.1899 16.8299 19.8499 15.5099 19.8499 14.5599V7.11994C19.8499 6.20994 19.0999 5.12994 18.2499 4.79994L13.2599 2.92994C12.5799 2.68994 11.4199 2.68994 10.7499 2.93994Z" fill="#353535"/>
<path d="M12 16.25C9.38 16.25 7.25 14.12 7.25 11.5C7.25 8.88 9.38 6.75 12 6.75C14.62 6.75 16.75 8.88 16.75 11.5C16.75 14.12 14.62 16.25 12 16.25ZM12 8.25C10.21 8.25 8.75 9.71 8.75 11.5C8.75 13.29 10.21 14.75 12 14.75C13.79 14.75 15.25 13.29 15.25 11.5C15.25 9.71 13.79 8.25 12 8.25Z" fill="#353535"/>
<path d="M10.9999 13.25C10.7499 13.25 10.4999 13.12 10.3599 12.89C10.1499 12.53 10.2599 12.07 10.6199 11.86L11.3799 11.4C11.4599 11.35 11.4999 11.27 11.4999 11.19V10.26C11.4999 9.85001 11.8399 9.51001 12.2499 9.51001C12.6599 9.51001 12.9999 9.84001 12.9999 10.25V11.18C12.9999 11.79 12.6699 12.37 12.1499 12.68L11.3799 13.14C11.2699 13.22 11.1299 13.25 10.9999 13.25Z" fill="#353535"/>
</svg>
