<svg width="24" height="24" viewBox="0 0 24 24" fill="none" xmlns="http://www.w3.org/2000/svg">
<path d="M15.2399 22.75H8.75995C6.86995 22.75 5.48994 21.96 4.95994 20.6C4.40994 19.18 4.91994 17.42 6.23994 16.23L10.8799 12L6.23994 7.77C4.91994 6.58 4.40994 4.82 4.95994 3.4C5.48994 2.03 6.86995 1.25 8.75995 1.25H15.2399C17.1299 1.25 18.5099 2.04 19.0399 3.4C19.5899 4.82 19.0799 6.58 17.7599 7.77L13.1199 12L17.7699 16.23C19.0799 17.42 19.5999 19.18 19.0499 20.6C18.5099 21.96 17.1299 22.75 15.2399 22.75ZM11.9999 13.01L7.24994 17.33C6.40995 18.1 6.03995 19.22 6.35995 20.05C6.65995 20.82 7.50995 21.25 8.75995 21.25H15.2399C16.4899 21.25 17.3399 20.83 17.6399 20.05C17.9599 19.22 17.5999 18.1 16.7499 17.33L11.9999 13.01ZM8.75995 2.75C7.50995 2.75 6.65995 3.17 6.35995 3.95C6.03995 4.78 6.39994 5.9 7.24994 6.67L11.9999 10.99L16.7499 6.67C17.5899 5.9 17.9599 4.78 17.6399 3.95C17.3399 3.18 16.4899 2.75 15.2399 2.75H8.75995Z" fill="#353535"/>
</svg>
