<svg width="24" height="24" viewBox="0 0 24 24" fill="none" xmlns="http://www.w3.org/2000/svg">
<path d="M23.53 12.05C23.24 11.76 22.76 11.76 22.47 12.05L22.01 12.51V12C22.01 6.47999 17.52 1.98999 12 1.98999C8.95 1.98999 6.1 3.35999 4.19 5.73999C3.93 6.05999 3.98 6.53999 4.31 6.79999C4.63 7.04999 5.1 6.99999 5.36 6.67999C6.99 4.64999 9.41 3.48999 12 3.48999C16.69 3.48999 20.51 7.30999 20.51 12V12.5L20.05 12.04C19.76 11.75 19.28 11.75 18.99 12.04C18.7 12.33 18.7 12.81 18.99 13.1L20.73 14.84C20.8 14.91 20.88 14.96 20.97 15C21.06 15.04 21.16 15.06 21.26 15.06C21.36 15.06 21.45 15.04 21.55 15C21.64 14.96 21.72 14.91 21.79 14.84L23.53 13.1C23.82 12.82 23.82 12.34 23.53 12.05Z" fill="#353535"/>
<path d="M19.69 17.1999C19.37 16.9399 18.89 16.9899 18.64 17.3199C17.01 19.3499 14.59 20.5099 12 20.5099C7.31 20.5099 3.49 16.6899 3.49 11.9999V11.4999L3.95 11.9599C4.1 12.1099 4.29 12.1799 4.48 12.1799C4.67 12.1799 4.86 12.0999 5 11.9499C5.29 11.6599 5.29 11.1799 5 10.8899L3.27 9.14993C3.2 9.08993 3.11 9.02993 3.02 8.98993C2.84 8.90993 2.63 8.90993 2.45 8.98993C2.36 9.02993 2.28 9.08993 2.21 9.14993L0.470002 10.8899C0.180002 11.1799 0.180002 11.6599 0.470002 11.9499C0.760002 12.2399 1.24 12.2399 1.53 11.9499L1.99 11.4899V11.9999C1.99 17.5199 6.48 22.0099 12 22.0099C15.05 22.0099 17.9 20.6399 19.81 18.2599C20.07 17.9399 20.02 17.4599 19.69 17.1999Z" fill="#353535"/>
<path d="M15.45 11.64C15.72 11.24 15.87 10.77 15.87 10.25C15.87 8.92 14.7 7.75 13.37 7.75H12.55V6.75C12.55 6.34 12.21 6 11.8 6C11.39 6 11.05 6.34 11.05 6.75V7.75H9C8.59 7.75 8.25 8.09 8.25 8.5V12V15.5C8.25 15.91 8.59 16.25 9 16.25H11.05V17.25C11.05 17.66 11.39 18 11.8 18C12.21 18 12.55 17.66 12.55 17.25V16.25H14C15.52 16.25 16.75 15.13 16.75 13.75C16.75 12.86 16.23 12.08 15.45 11.64ZM9.75 9.25H13.37C13.92 9.25 14.37 9.8 14.37 10.25C14.37 10.8 13.92 11.25 13.37 11.25H9.75V9.25ZM14 14.75H9.75V12.75H13.37H14C14.69 12.75 15.25 13.2 15.25 13.75C15.25 14.3 14.69 14.75 14 14.75Z" fill="#353535"/>
</svg>
