<svg width="24" height="24" viewBox="0 0 24 24" fill="none" xmlns="http://www.w3.org/2000/svg">
<path d="M23 15.22C22.59 15.22 22.25 15.56 22.25 15.97C22.25 18.93 20.19 21.41 17.42 22.06L17.69 21.61C17.9 21.25 17.79 20.79 17.43 20.58C17.08 20.37 16.61 20.48 16.4 20.84L15.35 22.59C15.21 22.82 15.21 23.11 15.34 23.34C15.47 23.58 15.72 23.72 15.99 23.72C20.26 23.72 23.74 20.24 23.74 15.97C23.75 15.56 23.41 15.22 23 15.22Z" fill="#353535"/>
<path d="M8 0.219971C3.73 0.219971 0.25 3.69997 0.25 7.96997C0.25 8.37997 0.59 8.71997 1 8.71997C1.41 8.71997 1.75 8.37997 1.75 7.96997C1.75 5.00997 3.81 2.52997 6.58 1.87997L6.31 2.32997C6.1 2.68997 6.21 3.14997 6.57 3.35997C6.92 3.56997 7.39 3.45997 7.6 3.09997L8.65 1.34997C8.78 1.11997 8.79 0.839971 8.65 0.599971C8.52 0.369971 8.27 0.219971 8 0.219971Z" fill="#353535"/>
<path d="M21.5 8.67C21.5 11.75 19.26 14.29 16.33 14.76C16.33 14.75 16.33 14.75 16.33 14.74C16.04 11.01 13.02 7.97 9.23999 7.67C9.70999 4.74 12.25 2.5 15.33 2.5C18.74 2.5 21.5 5.26 21.5 8.67Z" fill="#353535"/>
<path d="M9.81 14.2001C9.81 14.0501 9.64 13.8201 9.43 13.8201H7.37V14.5701H9.43C9.64 14.5801 9.81 14.4101 9.81 14.2001Z" fill="#353535"/>
<path d="M9.83 16.0801H9.43H7.37V16.8301H9.84C10.16 16.8301 10.38 16.6301 10.38 16.4501C10.38 16.2701 10.15 16.0801 9.83 16.0801Z" fill="#353535"/>
<path d="M14.83 14.8499C14.6 11.8199 12.18 9.3999 9.15 9.1699C8.99 9.1599 8.84 9.1499 8.67 9.1499C5.26 9.1499 2.5 11.9099 2.5 15.3299C2.5 18.7399 5.26 21.4999 8.67 21.4999C12.08 21.4999 14.85 18.7399 14.85 15.3299C14.85 15.1599 14.84 15.0099 14.83 14.8499ZM9.83 18.3299H9.17V18.7099C9.17 19.1199 8.83 19.4599 8.42 19.4599C8.01 19.4599 7.67 19.1199 7.67 18.7099V18.3299H6.62C6.21 18.3299 5.87 17.9899 5.87 17.5799V15.3299V13.0799C5.87 12.6699 6.21 12.3299 6.62 12.3299H7.67V11.9499C7.67 11.5399 8.01 11.1999 8.42 11.1999C8.83 11.1999 9.17 11.5399 9.17 11.9499V12.3299H9.43C10.43 12.3299 11.31 13.2099 11.31 14.2099C11.31 14.4999 11.24 14.7699 11.12 15.0199C11.58 15.3599 11.87 15.8799 11.87 16.4599C11.87 17.4899 10.96 18.3299 9.83 18.3299Z" fill="#353535"/>
</svg>
