<svg width="24" height="24" viewBox="0 0 24 24" fill="none" xmlns="http://www.w3.org/2000/svg">
<path d="M15 15.5C15 19.09 12.09 22 8.5 22C4.91 22 2 19.09 2 15.5C2 11.91 4.91 9 8.5 9C8.67 9 8.85 9.01 9.02 9.02C12.19 9.27 14.73 11.81 14.98 14.98C14.99 15.15 15 15.33 15 15.5Z" fill="#353535"/>
<path d="M22 8.5C22 11.76 19.6 14.45 16.48 14.92V14.86C16.17 10.98 13.02 7.83 9.11002 7.52H9.08002C9.55002 4.4 12.24 2 15.5 2C19.09 2 22 4.91 22 8.5Z" fill="#353535"/>
<path d="M5.59 2H3C2.45 2 2 2.45 2 3V5.59C2 6.48 3.08 6.93 3.71 6.3L6.3 3.71C6.92 3.08 6.48 2 5.59 2Z" fill="#353535"/>
<path d="M18.41 22H21C21.55 22 22 21.55 22 21V18.41C22 17.52 20.92 17.07 20.29 17.7L17.7 20.29C17.08 20.92 17.52 22 18.41 22Z" fill="#353535"/>
</svg>
