<svg width="24" height="24" viewBox="0 0 24 24" fill="none" xmlns="http://www.w3.org/2000/svg">
<path d="M15 22.75H9C3.57 22.75 1.25 20.43 1.25 15V9C1.25 3.57 3.57 1.25 9 1.25H14C14.41 1.25 14.75 1.59 14.75 2C14.75 2.41 14.41 2.75 14 2.75H9C4.39 2.75 2.75 4.39 2.75 9V15C2.75 19.61 4.39 21.25 9 21.25H15C19.61 21.25 21.25 19.61 21.25 15V10C21.25 9.59 21.59 9.25 22 9.25C22.41 9.25 22.75 9.59 22.75 10V15C22.75 20.43 20.43 22.75 15 22.75Z" fill="#353535"/>
<path d="M22 10.75H18C14.58 10.75 13.25 9.41999 13.25 5.99999V1.99999C13.25 1.69999 13.43 1.41999 13.71 1.30999C13.99 1.18999 14.31 1.25999 14.53 1.46999L22.53 9.46999C22.74 9.67999 22.81 10.01 22.69 10.29C22.58 10.57 22.3 10.75 22 10.75ZM14.75 3.80999V5.99999C14.75 8.57999 15.42 9.24999 18 9.24999H20.19L14.75 3.80999Z" fill="#353535"/>
<path d="M9.65002 18.71C9.21002 18.71 8.79002 18.54 8.48002 18.23L6.02003 15.77C5.48003 15.23 5.39003 14.32 5.81003 13.68L6.94003 11.98C7.22003 11.55 7.80002 11.24 8.32002 11.24H10.97C11.48 11.24 12.06 11.55 12.35 11.98L13.48 13.67C13.9 14.3 13.81 15.22 13.27 15.76L10.81 18.22C10.51 18.54 10.09 18.71 9.65002 18.71ZM8.33003 12.75C8.29003 12.76 8.21002 12.8 8.19002 12.83L7.07003 14.52C7.04003 14.56 7.05003 14.68 7.09003 14.72L9.55003 17.18C9.60003 17.23 9.72003 17.23 9.77003 17.18L12.23 14.72C12.27 14.68 12.28 14.57 12.25 14.52L11.12 12.83C11.1 12.81 11.02 12.77 10.98 12.76L8.33003 12.75Z" fill="#353535"/>
</svg>
