<svg width="24" height="24" viewBox="0 0 24 24" fill="none" xmlns="http://www.w3.org/2000/svg">
<path d="M6.19005 22.06C5.19005 22.06 4.22005 21.67 3.45005 20.92C2.20005 19.7 1.90005 17.9 2.68005 16.34L4.30005 13.1C4.64005 12.42 4.64005 11.6 4.30005 10.91L2.68005 7.65997C1.90005 6.09997 2.20005 4.29997 3.45005 3.07997C4.70005 1.85997 6.50005 1.58997 8.05005 2.40997L19.6401 8.50997C20.9401 9.18997 21.7501 10.53 21.7501 12C21.7501 13.47 20.9401 14.81 19.6401 15.49L8.05005 21.59C7.45005 21.91 6.82005 22.06 6.19005 22.06ZM6.20005 3.43997C5.51005 3.43997 4.91005 3.75997 4.50005 4.15997C3.88005 4.75997 3.44005 5.82997 4.02005 6.99997L5.64005 10.24C6.19005 11.35 6.19005 12.66 5.64005 13.77L4.02005 17.01C3.43005 18.18 3.88005 19.25 4.50005 19.85C5.12005 20.45 6.19005 20.88 7.35005 20.27L18.9401 14.17C19.7601 13.74 20.2501 12.93 20.2501 12.01C20.2501 11.09 19.7601 10.28 18.9401 9.84997L7.35005 3.72997C6.95005 3.51997 6.56005 3.43997 6.20005 3.43997Z" fill="#353535"/>
</svg>
