<svg width="24" height="24" viewBox="0 0 24 24" fill="none" xmlns="http://www.w3.org/2000/svg">
<path d="M12 22.75C6.07 22.75 1.25 17.93 1.25 12C1.25 6.07 6.07 1.25 12 1.25C17.93 1.25 22.75 6.07 22.75 12C22.75 12.41 22.41 12.75 22 12.75C21.59 12.75 21.25 12.41 21.25 12C21.25 6.9 17.1 2.75 12 2.75C6.9 2.75 2.75 6.9 2.75 12C2.75 17.1 6.9 21.25 12 21.25C12.41 21.25 12.75 21.59 12.75 22C12.75 22.41 12.41 22.75 12 22.75Z" fill="#353535"/>
<path d="M9.00024 21.75H8.00024C7.59024 21.75 7.25024 21.41 7.25024 21C7.25024 20.59 7.57023 20.26 7.98023 20.25C6.41023 14.89 6.41023 9.11 7.98023 3.75C7.58023 3.74 7.25024 3.41 7.25024 3C7.25024 2.59 7.59024 2.25 8.00024 2.25H9.00024C9.24024 2.25 9.47024 2.37 9.61024 2.56C9.75024 2.76 9.79025 3.00999 9.71025 3.23999C7.83025 8.88999 7.83025 15.12 9.71025 20.77C9.79025 21 9.75024 21.25 9.61024 21.45C9.47024 21.65 9.24024 21.75 9.00024 21.75Z" fill="#353535"/>
<path d="M16.46 12.75C16.05 12.75 15.71 12.41 15.71 12C15.71 9.01996 15.2299 6.06995 14.2899 3.23995C14.1599 2.84995 14.3699 2.41994 14.7599 2.28994C15.1499 2.15994 15.58 2.36997 15.71 2.75997C16.7 5.73997 17.21 8.84996 17.21 12C17.21 12.41 16.87 12.75 16.46 12.75Z" fill="#353535"/>
<path d="M12 17.2101C9.2 17.2101 6.43 16.8101 3.75 16.0201C3.74 16.4201 3.41 16.7501 3 16.7501C2.59 16.7501 2.25 16.4101 2.25 16.0001V15.0001C2.25 14.7601 2.37 14.5301 2.56 14.3901C2.75 14.2501 3.01001 14.21 3.24001 14.29C6.07001 15.23 9.02 15.7101 12 15.7101C12.41 15.7101 12.75 16.0501 12.75 16.4601C12.75 16.8701 12.41 17.2101 12 17.2101Z" fill="#353535"/>
<path d="M21.0002 9.75001C20.9202 9.75001 20.8402 9.74003 20.7602 9.71003C15.1102 7.83003 8.88018 7.83003 3.23018 9.71003C2.84018 9.84003 2.41018 9.63 2.28018 9.24C2.15018 8.85 2.36018 8.41999 2.75018 8.28999C8.71018 6.29999 15.2702 6.29999 21.2202 8.28999C21.6102 8.41999 21.8202 8.85 21.6902 9.24C21.6102 9.55 21.3102 9.75001 21.0002 9.75001Z" fill="#353535"/>
<path d="M15.8201 22.7501C15.4401 22.7501 15.0801 22.6101 14.8201 22.3501C14.5101 22.0401 14.3701 21.5901 14.4401 21.1201L14.6301 19.7701C14.6801 19.4201 14.89 19.0001 15.14 18.7501L18.68 15.2101C19.16 14.7301 19.63 14.4801 20.14 14.4301C20.77 14.3701 21.3801 14.6301 21.9601 15.2101C22.5401 15.7901 22.8001 16.4001 22.7401 17.0301C22.6901 17.5301 22.4301 18.0101 21.9601 18.4901L18.42 22.0301C18.17 22.2801 17.7601 22.4901 17.4101 22.5401L16.06 22.7301C15.97 22.7401 15.9001 22.7501 15.8201 22.7501ZM20.31 15.9201C20.3 15.9201 20.29 15.9201 20.28 15.9201C20.14 15.9301 19.9501 16.0501 19.7401 16.2701L16.2 19.8101C16.17 19.8401 16.12 19.9401 16.12 19.9801L15.9401 21.2301L17.1901 21.0501C17.2301 21.0401 17.3301 20.9901 17.3601 20.9601L20.9 17.4201C21.11 17.2101 21.24 17.0201 21.2501 16.8801C21.2701 16.6801 21.07 16.4401 20.9 16.2701C20.74 16.1101 20.51 15.9201 20.31 15.9201Z" fill="#353535"/>
<path d="M20.9201 19.22C20.8501 19.22 20.7801 19.21 20.7201 19.19C19.4001 18.82 18.3501 17.77 17.9801 16.45C17.8701 16.05 18.1001 15.64 18.5001 15.53C18.9001 15.42 19.3101 15.65 19.4301 16.05C19.6601 16.87 20.3101 17.52 21.1301 17.75C21.5301 17.86 21.7601 18.28 21.6501 18.67C21.5501 19 21.2501 19.22 20.9201 19.22Z" fill="#353535"/>
</svg>
