<svg width="24" height="24" viewBox="0 0 24 24" fill="none" xmlns="http://www.w3.org/2000/svg">
<path d="M10.42 13.75C10.29 13.75 10.16 13.72 10.04 13.65C8.86 12.96 8.13 11.68 8.13 10.32C8.13 8.18995 9.86 6.44995 12 6.44995C13.37 6.44995 14.65 7.17995 15.34 8.36995C15.55 8.72995 15.43 9.18995 15.07 9.39995C14.71 9.60995 14.25 9.48995 14.04 9.12995C13.62 8.38995 12.84 7.93995 12 7.93995C10.7 7.93995 9.63 8.99995 9.63 10.31C9.63 11.15 10.08 11.93 10.8 12.35C11.16 12.56 11.28 13.02 11.07 13.38C10.93 13.61 10.68 13.75 10.42 13.75Z" fill="#353535"/>
<path d="M5.98999 18.5599C5.75999 18.5599 5.52999 18.4499 5.37999 18.2499C2.97999 14.9599 2.13999 11.6199 2.88999 8.31995C3.66999 4.88995 6.18999 2.34995 9.62999 1.51995C13.23 0.649949 17.01 1.81995 19.24 4.48995C19.51 4.80995 19.46 5.27995 19.15 5.54995C18.83 5.81995 18.36 5.76995 18.09 5.44995C16.22 3.20995 13.04 2.23995 9.97999 2.96995C7.05999 3.66995 5.00999 5.73995 4.34999 8.63995C3.69999 11.4999 4.44999 14.4299 6.58999 17.3499C6.82999 17.6799 6.75999 18.1499 6.42999 18.3999C6.29999 18.5099 6.13999 18.5599 5.98999 18.5599Z" fill="#353535"/>
<path d="M11.9999 22.76C10.5199 22.76 9.02994 22.2 7.86994 21.09C7.56994 20.8 7.55994 20.33 7.84994 20.03C8.13994 19.73 8.60994 19.72 8.90994 20.01C10.6399 21.68 13.3499 21.68 15.0799 20.01C17.7499 17.44 20.7099 13.38 19.6499 8.67002C19.5599 8.27002 19.8099 7.86002 20.2199 7.77002C20.6199 7.68002 21.0299 7.93002 21.1199 8.34002C22.3399 13.73 19.0799 18.25 16.1299 21.09C14.9699 22.2 13.4799 22.76 11.9999 22.76Z" fill="#353535"/>
<path d="M1.99994 22.7499C1.80994 22.7499 1.61994 22.6799 1.46994 22.5299C1.17994 22.2399 1.17994 21.7599 1.46994 21.4699L21.4699 1.46994C21.7599 1.17994 22.2399 1.17994 22.5299 1.46994C22.8199 1.75994 22.8199 2.23994 22.5299 2.52994L2.52994 22.5299C2.37994 22.6799 2.18994 22.7499 1.99994 22.7499Z" fill="#353535"/>
</svg>
