<svg width="24" height="24" viewBox="0 0 24 24" fill="none" xmlns="http://www.w3.org/2000/svg">
<path d="M12 19.75C9.38 19.75 7.25 17.62 7.25 15C7.25 12.38 9.38 10.25 12 10.25C14.62 10.25 16.75 12.38 16.75 15C16.75 17.62 14.62 19.75 12 19.75ZM12 11.75C10.21 11.75 8.75 13.21 8.75 15C8.75 16.79 10.21 18.25 12 18.25C13.79 18.25 15.25 16.79 15.25 15C15.25 13.21 13.79 11.75 12 11.75Z" fill="#353535"/>
<path d="M11.44 16.54C11.12 16.54 10.8 16.42 10.56 16.17L9.91 15.52C9.62 15.23 9.62 14.75 9.91 14.46C10.2 14.17 10.68 14.17 10.97 14.46L11.45 14.94L13.06 13.46C13.36 13.18 13.84 13.2 14.12 13.5C14.4 13.8 14.38 14.28 14.08 14.56L12.3 16.2C12.05 16.43 11.74 16.54 11.44 16.54Z" fill="#353535"/>
<path d="M15 22.75H9C4.38 22.75 3.52 20.6 3.3 18.51L2.55 12.52C2.44 11.44 2.4 9.89 3.45 8.73C4.35 7.73 5.84 7.25 8 7.25H16C18.17 7.25 19.66 7.74 20.55 8.73C21.59 9.89 21.56 11.44 21.45 12.5L20.7 18.51C20.48 20.6 19.62 22.75 15 22.75ZM8 8.75C6.31 8.75 5.15 9.08 4.56 9.74C4.07 10.28 3.91 11.11 4.04 12.35L4.79 18.34C4.96 19.94 5.4 21.26 9 21.26H15C18.6 21.26 19.04 19.95 19.21 18.36L19.96 12.35C20.09 11.13 19.93 10.3 19.44 9.75C18.85 9.08 17.69 8.75 16 8.75H8Z" fill="#353535"/>
<path d="M16.5 8.63005C16.09 8.63005 15.75 8.29005 15.75 7.88005V6.50005C15.75 5.45006 15.3 4.43005 14.52 3.72005C13.73 3.00005 12.7 2.67005 11.63 2.77005C9.83 2.94005 8.25 4.78005 8.25 6.70005V7.67005C8.25 8.08005 7.91 8.42005 7.5 8.42005C7.09 8.42005 6.75 8.08005 6.75 7.67005V6.69005C6.75 4.00005 8.92 1.52005 11.49 1.27005C12.99 1.13005 14.43 1.60005 15.53 2.61005C16.62 3.60005 17.25 5.02005 17.25 6.50005V7.88005C17.25 8.29005 16.91 8.63005 16.5 8.63005Z" fill="#353535"/>
</svg>
