<svg width="24" height="24" viewBox="0 0 24 24" fill="none" xmlns="http://www.w3.org/2000/svg">
<path d="M13.39 18.11C13.2 18.11 13.01 18.04 12.86 17.89L10.1 15.13C9.81001 14.84 9.81001 14.36 10.1 14.07C10.39 13.78 10.87 13.78 11.16 14.07L13.92 16.83C14.21 17.12 14.21 17.6 13.92 17.89C13.78 18.04 13.59 18.11 13.39 18.11Z" fill="#353535"/>
<path d="M10.61 18.1399C10.42 18.1399 10.23 18.0699 10.08 17.9199C9.78999 17.6299 9.78999 17.1499 10.08 16.8599L12.84 14.0999C13.13 13.8099 13.61 13.8099 13.9 14.0999C14.19 14.3899 14.19 14.8699 13.9 15.1599L11.14 17.9199C10.99 18.0699 10.8 18.1399 10.61 18.1399Z" fill="#353535"/>
<path d="M5.19001 6.37994C5.00001 6.37994 4.8 6.29994 4.66 6.15994C4.37 5.86994 4.37 5.38994 4.66 5.09994L8.29 1.46994C8.58001 1.17994 9.06001 1.17994 9.35001 1.46994C9.64001 1.75994 9.64001 2.23994 9.35001 2.52994L5.72 6.15994C5.57 6.29994 5.38001 6.37994 5.19001 6.37994Z" fill="#353535"/>
<path d="M18.81 6.37994C18.62 6.37994 18.43 6.30994 18.28 6.15994L14.65 2.52994C14.36 2.23994 14.36 1.75994 14.65 1.46994C14.94 1.17994 15.42 1.17994 15.71 1.46994L19.34 5.09994C19.63 5.38994 19.63 5.86994 19.34 6.15994C19.2 6.29994 19 6.37994 18.81 6.37994Z" fill="#353535"/>
<path d="M20.21 10.6C20.14 10.6 20.07 10.6 20 10.6H19.77H4C3.3 10.61 2.5 10.61 1.92 10.03C1.46 9.57998 1.25 8.87998 1.25 7.84998C1.25 5.09998 3.26 5.09998 4.22 5.09998H19.78C20.74 5.09998 22.75 5.09998 22.75 7.84998C22.75 8.88998 22.54 9.57998 22.08 10.03C21.56 10.55 20.86 10.6 20.21 10.6ZM4.22 9.09998H20.01C20.46 9.10998 20.88 9.10998 21.02 8.96998C21.09 8.89998 21.24 8.65998 21.24 7.84998C21.24 6.71998 20.96 6.59998 19.77 6.59998H4.22C3.03 6.59998 2.75 6.71998 2.75 7.84998C2.75 8.65998 2.91 8.89998 2.97 8.96998C3.11 9.09998 3.54 9.09998 3.98 9.09998H4.22Z" fill="#353535"/>
<path d="M14.89 22.75H8.86C5.28 22.75 4.48 20.62 4.17 18.77L2.76 10.12C2.69 9.71 2.97 9.33 3.38 9.26C3.79 9.19 4.17 9.47 4.24 9.88L5.65 18.52C5.94 20.29 6.54 21.25 8.86 21.25H14.89C17.46 21.25 17.75 20.35 18.08 18.61L19.76 9.86C19.84 9.45 20.23 9.18 20.64 9.27C21.05 9.35 21.31 9.74 21.23 10.15L19.55 18.9C19.16 20.93 18.51 22.75 14.89 22.75Z" fill="#353535"/>
</svg>
