<svg width="24" height="24" viewBox="0 0 24 24" fill="none" xmlns="http://www.w3.org/2000/svg">
<path d="M14.1098 17.61C13.9198 17.61 13.7298 17.54 13.5798 17.39C13.2898 17.1 13.2898 16.62 13.5798 16.33L16.6198 13.29C16.9098 13 17.3898 13 17.6798 13.29C17.9698 13.58 17.9698 14.06 17.6798 14.35L14.6398 17.39C14.4998 17.53 14.3098 17.61 14.1098 17.61Z" fill="#353535"/>
<path d="M17.1498 14.5701H6.83984C6.42984 14.5701 6.08984 14.2301 6.08984 13.8201C6.08984 13.4101 6.42984 13.0701 6.83984 13.0701H17.1498C17.5598 13.0701 17.8998 13.4101 17.8998 13.8201C17.8998 14.2301 17.5698 14.5701 17.1498 14.5701Z" fill="#353535"/>
<path d="M6.85004 10.93C6.66004 10.93 6.47004 10.86 6.32004 10.71C6.03004 10.42 6.03004 9.93996 6.32004 9.64996L9.36002 6.60996C9.65002 6.31996 10.13 6.31996 10.42 6.60996C10.71 6.89996 10.71 7.37998 10.42 7.66998L7.38004 10.71C7.23004 10.86 7.04004 10.93 6.85004 10.93Z" fill="#353535"/>
<path d="M17.1498 10.9299H6.83984C6.42984 10.9299 6.08984 10.5899 6.08984 10.1799C6.08984 9.76993 6.42984 9.42993 6.83984 9.42993H17.1498C17.5598 9.42993 17.8998 9.76993 17.8998 10.1799C17.8998 10.5899 17.5698 10.9299 17.1498 10.9299Z" fill="#353535"/>
<path d="M12 22.75C6.07 22.75 1.25 17.93 1.25 12C1.25 6.07 6.07 1.25 12 1.25C17.93 1.25 22.75 6.07 22.75 12C22.75 17.93 17.93 22.75 12 22.75ZM12 2.75C6.9 2.75 2.75 6.9 2.75 12C2.75 17.1 6.9 21.25 12 21.25C17.1 21.25 21.25 17.1 21.25 12C21.25 6.9 17.1 2.75 12 2.75Z" fill="#353535"/>
</svg>
