<svg width="24" height="24" viewBox="0 0 24 24" fill="none" xmlns="http://www.w3.org/2000/svg">
<path d="M12 22.75C6.07 22.75 1.25 17.93 1.25 12C1.25 6.07 6.07 1.25 12 1.25C17.93 1.25 22.75 6.07 22.75 12C22.75 17.93 17.93 22.75 12 22.75ZM12 2.75C6.9 2.75 2.75 6.9 2.75 12C2.75 17.1 6.9 21.25 12 21.25C17.1 21.25 21.25 17.1 21.25 12C21.25 6.9 17.1 2.75 12 2.75Z" fill="#353535"/>
<path d="M11.9999 15.01C11.8099 15.01 11.6199 14.94 11.4699 14.79L7.93991 11.26C7.64991 10.97 7.64991 10.49 7.93991 10.2C8.22991 9.91004 8.70991 9.91004 8.99991 10.2L11.9999 13.2L14.9999 10.2C15.2899 9.91004 15.7699 9.91004 16.0599 10.2C16.3499 10.49 16.3499 10.97 16.0599 11.26L12.5299 14.79C12.3799 14.94 12.1899 15.01 11.9999 15.01Z" fill="#353535"/>
</svg>
