<svg width="24" height="24" viewBox="0 0 24 24" fill="none" xmlns="http://www.w3.org/2000/svg">
<path d="M12 22.75C6.07 22.75 1.25 17.93 1.25 12C1.25 6.07 6.07 1.25 12 1.25C17.93 1.25 22.75 6.07 22.75 12C22.75 17.93 17.93 22.75 12 22.75ZM12 2.75C6.9 2.75 2.75 6.9 2.75 12C2.75 17.1 6.9 21.25 12 21.25C17.1 21.25 21.25 17.1 21.25 12C21.25 6.9 17.1 2.75 12 2.75Z" fill="#353535"/>
<path d="M15.5299 14.01C15.3399 14.01 15.1499 13.94 14.9999 13.79L11.9999 10.79L8.99991 13.79C8.70991 14.08 8.22991 14.08 7.93991 13.79C7.64991 13.5 7.64991 13.02 7.93991 12.73L11.4699 9.20004C11.7599 8.91004 12.2399 8.91004 12.5299 9.20004L16.0599 12.73C16.3499 13.02 16.3499 13.5 16.0599 13.79C15.9099 13.94 15.7199 14.01 15.5299 14.01Z" fill="#353535"/>
</svg>
