<svg width="24" height="24" viewBox="0 0 24 24" fill="none" xmlns="http://www.w3.org/2000/svg">
<path d="M15 22.75H9C3.57 22.75 1.25 20.43 1.25 15V9C1.25 3.57 3.57 1.25 9 1.25H15C20.43 1.25 22.75 3.57 22.75 9V15C22.75 20.43 20.43 22.75 15 22.75ZM9 2.75C4.39 2.75 2.75 4.39 2.75 9V15C2.75 19.61 4.39 21.25 9 21.25H15C19.61 21.25 21.25 19.61 21.25 15V9C21.25 4.39 19.61 2.75 15 2.75H9Z" fill="#353535"/>
<path d="M15.5299 14.21C15.3399 14.21 15.1499 14.14 14.9999 13.99L11.9999 10.99L8.99991 13.99C8.70991 14.28 8.22991 14.28 7.93991 13.99C7.64991 13.7 7.64991 13.22 7.93991 12.93L11.4699 9.4C11.7599 9.11 12.2399 9.11 12.5299 9.4L16.0599 12.93C16.3499 13.22 16.3499 13.7 16.0599 13.99C15.9099 14.14 15.7199 14.21 15.5299 14.21Z" fill="#353535"/>
</svg>
