<svg width="24" height="24" viewBox="0 0 24 24" fill="none" xmlns="http://www.w3.org/2000/svg">
<path d="M12 22.75C6.07 22.75 1.25 17.93 1.25 12C1.25 6.07 6.07 1.25 12 1.25C17.93 1.25 22.75 6.07 22.75 12C22.75 17.93 17.93 22.75 12 22.75ZM12 2.75C6.9 2.75 2.75 6.9 2.75 12C2.75 17.1 6.9 21.25 12 21.25C17.1 21.25 21.25 17.1 21.25 12C21.25 6.9 17.1 2.75 12 2.75Z" fill="#353535"/>
<path d="M10.7399 16.28C10.5499 16.28 10.3599 16.21 10.2099 16.06C9.91993 15.77 9.91993 15.29 10.2099 15L13.2099 12L10.2099 9.00003C9.91993 8.71003 9.91993 8.23003 10.2099 7.94003C10.4999 7.65003 10.9799 7.65003 11.2699 7.94003L14.7999 11.47C15.0899 11.76 15.0899 12.24 14.7999 12.53L11.2699 16.06C11.1199 16.21 10.9299 16.28 10.7399 16.28Z" fill="#353535"/>
</svg>
