<svg width="24" height="24" viewBox="0 0 24 24" fill="none" xmlns="http://www.w3.org/2000/svg">
<path d="M12.005 22.7326C6.08732 22.7326 1.27734 17.9227 1.27734 12.005C1.27734 6.08732 6.08732 1.27734 12.005 1.27734C17.9227 1.27734 22.7326 6.08732 22.7326 12.005C22.7326 17.9227 17.9127 22.7326 12.005 22.7326ZM12.005 2.77423C6.9156 2.77423 2.77423 6.9156 2.77423 12.005C2.77423 17.0944 6.9156 21.2358 12.005 21.2358C17.0944 21.2358 21.2358 17.0944 21.2358 12.005C21.2358 6.9156 17.0944 2.77423 12.005 2.77423Z" fill="#353535"/>
<path d="M14.3003 12.953C14.1007 12.953 13.9111 12.8731 13.7714 12.7334L5.60841 4.55048C5.31901 4.26108 5.31901 3.78208 5.60841 3.49268C5.8978 3.20329 6.3768 3.20329 6.6662 3.49268L13.5618 10.3983L13.5718 7.66399C13.5718 7.25485 13.9111 6.91555 14.3203 6.91555C14.7294 6.88561 15.0687 7.25485 15.0687 7.66399L15.0587 12.2045C15.0587 12.5039 14.8791 12.7833 14.5997 12.8931C14.4999 12.933 14.4001 12.953 14.3003 12.953Z" fill="#353535"/>
<path d="M17.8628 20.7268C17.6732 20.7268 17.4836 20.657 17.3339 20.5073L10.4383 13.6017L10.4283 16.336C10.4283 16.7451 10.089 17.0844 9.67984 17.0844C9.27069 17.0844 8.9314 16.7451 8.9314 16.336L8.94138 11.7954C8.94138 11.4961 9.121 11.2166 9.40042 11.1069C9.67984 10.9871 9.99917 11.057 10.2187 11.2665L18.3817 19.4495C18.6711 19.7389 18.6711 20.2179 18.3817 20.5073C18.252 20.657 18.0524 20.7268 17.8628 20.7268Z" fill="#353535"/>
</svg>
