<svg width="24" height="24" viewBox="0 0 24 24" fill="none" xmlns="http://www.w3.org/2000/svg">
<path d="M15 22.75H9C3.57 22.75 1.25 20.43 1.25 15V9C1.25 3.57 3.57 1.25 9 1.25H15C20.43 1.25 22.75 3.57 22.75 9V15C22.75 20.43 20.43 22.75 15 22.75ZM9 2.75C4.39 2.75 2.75 4.39 2.75 9V15C2.75 19.61 4.39 21.25 9 21.25H15C19.61 21.25 21.25 19.61 21.25 15V9C21.25 4.39 19.61 2.75 15 2.75H9Z" fill="#353535"/>
<path d="M14.8298 14.09H10.5898C10.1798 14.09 9.83984 13.75 9.83984 13.34C9.83984 12.93 10.1798 12.59 10.5898 12.59H14.0798V9.09998C14.0798 8.68998 14.4198 8.34998 14.8298 8.34998C15.2398 8.34998 15.5798 8.68998 15.5798 9.09998V13.34C15.5798 13.76 15.2398 14.09 14.8298 14.09Z" fill="#353535"/>
<path d="M14.8299 14.09C14.6399 14.09 14.4499 14.02 14.2999 13.87L8.63986 8.21001C8.34986 7.92001 8.34986 7.44 8.63986 7.15C8.92986 6.86 9.40986 6.86 9.69986 7.15L15.3599 12.81C15.6499 13.1 15.6499 13.58 15.3599 13.87C15.2099 14.02 15.0199 14.09 14.8299 14.09Z" fill="#353535"/>
<path d="M12 18.23C9.88995 18.23 7.76995 17.89 5.75995 17.22C5.36995 17.09 5.15995 16.66 5.28995 16.27C5.41995 15.88 5.84996 15.66 6.23996 15.8C9.95996 17.04 14.05 17.04 17.77 15.8C18.16 15.67 18.59 15.88 18.72 16.27C18.85 16.66 18.64 17.09 18.25 17.22C16.23 17.9 14.11 18.23 12 18.23Z" fill="#353535"/>
</svg>
