<svg width="24" height="24" viewBox="0 0 24 24" fill="none" xmlns="http://www.w3.org/2000/svg">
<path d="M16.8701 19.0601H8.87012C5.70012 19.0601 3.12012 16.4801 3.12012 13.3101C3.12012 10.1401 5.70012 7.56006 8.87012 7.56006H19.8701C20.2801 7.56006 20.6201 7.90006 20.6201 8.31006C20.6201 8.72006 20.2801 9.06006 19.8701 9.06006H8.87012C6.53012 9.06006 4.62012 10.9701 4.62012 13.3101C4.62012 15.6501 6.53012 17.5601 8.87012 17.5601H16.8701C17.2801 17.5601 17.6201 17.9001 17.6201 18.3101C17.6201 18.7201 17.2901 19.0601 16.8701 19.0601Z" fill="#353535"/>
<path d="M17.57 11.56C17.38 11.56 17.19 11.49 17.04 11.34C16.75 11.05 16.75 10.57 17.04 10.28L19.07 8.25001L17.04 6.22C16.75 5.93 16.75 5.45 17.04 5.16C17.33 4.87 17.81 4.87 18.1 5.16L20.66 7.72C20.95 8.01 20.95 8.49 20.66 8.78L18.1 11.34C17.95 11.49 17.76 11.56 17.57 11.56Z" fill="#353535"/>
</svg>
