<svg width="24" height="24" viewBox="0 0 24 24" fill="none" xmlns="http://www.w3.org/2000/svg">
<path d="M21.27 8.76001C21.27 9.78001 20.8 10.7 20.04 11.3C19.49 11.75 18.78 12.02 18.01 12.02C16.22 12.02 14.76 10.56 14.76 8.77001C14.76 7.88001 15.12 7.07001 15.72 6.48001V6.47001C16.31 5.88001 17.12 5.51001 18.01 5.51001C19.81 5.51001 21.27 6.97001 21.27 8.76001Z" fill="#353535"/>
<path d="M20.18 18.7301C19.13 19.6901 17.78 20.2201 16.35 20.2201H5.97001C3.23001 20.0201 2.01001 17.9101 2.01001 16.0301C2.01001 14.3501 2.98001 12.4901 5.11001 11.9701C4.18001 8.39009 5.96001 5.89009 8.04001 4.70009C10.1 3.53009 13 3.34009 15.18 4.95009C14.99 5.09009 14.82 5.24009 14.65 5.41009L14.22 5.86009V5.92009C13.6 6.73009 13.26 7.72009 13.26 8.76009C13.26 11.3801 15.4 13.5101 18.02 13.5101C19.1 13.5101 20.15 13.1401 20.97 12.4701C21.12 12.3501 21.27 12.2201 21.4 12.0801C22.39 14.1601 22.25 16.9201 20.18 18.7301Z" fill="#353535"/>
</svg>
