<svg width="24" height="24" viewBox="0 0 24 24" fill="none" xmlns="http://www.w3.org/2000/svg">
<path d="M11.5 21.75C5.85 21.75 1.25 17.15 1.25 11.5C1.25 5.85 5.85 1.25 11.5 1.25C11.91 1.25 12.25 1.59 12.25 2C12.25 2.41 11.91 2.75 11.5 2.75C6.67 2.75 2.75 6.68 2.75 11.5C2.75 16.32 6.67 20.25 11.5 20.25C16.33 20.25 20.25 16.32 20.25 11.5C20.25 11.09 20.59 10.75 21 10.75C21.41 10.75 21.75 11.09 21.75 11.5C21.75 17.15 17.15 21.75 11.5 21.75Z" fill="#353535"/>
<path d="M21.9999 22.75C21.8099 22.75 21.6199 22.68 21.4699 22.53L19.4699 20.53C19.1799 20.24 19.1799 19.76 19.4699 19.47C19.7599 19.18 20.2399 19.18 20.5299 19.47L22.5299 21.47C22.8199 21.76 22.8199 22.24 22.5299 22.53C22.3799 22.68 22.1899 22.75 21.9999 22.75Z" fill="#353535"/>
<path d="M17.5001 9.54C16.5801 9.54 14.4401 8.42 13.7801 6.36C13.3301 4.95 13.8501 3.1 15.4801 2.57C16.1801 2.34 16.9101 2.45 17.4901 2.82C18.0601 2.45 18.8101 2.35 19.5101 2.57C21.1401 3.1 21.6701 4.95 21.2101 6.36C20.5601 8.46 18.3101 9.54 17.5001 9.54ZM15.2101 5.91C15.6701 7.36 17.2301 8.02 17.5101 8.05C17.8301 8.02 19.3601 7.28 19.7801 5.92C20.0101 5.19 19.7801 4.25 19.0501 4.01C18.7401 3.91 18.3201 3.97 18.1201 4.26C17.9801 4.47 17.7601 4.59 17.5101 4.6C17.2901 4.61 17.0301 4.49 16.8901 4.29C16.6601 3.96 16.2401 3.91 15.9401 4C15.2201 4.24 14.9801 5.18 15.2101 5.91Z" fill="#353535"/>
</svg>
