<svg width="24" height="24" viewBox="0 0 24 24" fill="none" xmlns="http://www.w3.org/2000/svg">
<path d="M14.2 12.45H9.19995C8.78995 12.45 8.44995 12.11 8.44995 11.7C8.44995 11.29 8.78995 10.95 9.19995 10.95H14.2C14.61 10.95 14.95 11.29 14.95 11.7C14.95 12.11 14.61 12.45 14.2 12.45Z" fill="#353535"/>
<path d="M11.7 14.95C11.29 14.95 10.95 14.61 10.95 14.2V9.20001C10.95 8.79001 11.29 8.45001 11.7 8.45001C12.11 8.45001 12.45 8.79001 12.45 9.20001V14.2C12.45 14.61 12.11 14.95 11.7 14.95Z" fill="#353535"/>
<path d="M11.5 21.75C5.85 21.75 1.25 17.15 1.25 11.5C1.25 5.85 5.85 1.25 11.5 1.25C17.15 1.25 21.75 5.85 21.75 11.5C21.75 17.15 17.15 21.75 11.5 21.75ZM11.5 2.75C6.67 2.75 2.75 6.68 2.75 11.5C2.75 16.32 6.67 20.25 11.5 20.25C16.33 20.25 20.25 16.32 20.25 11.5C20.25 6.68 16.33 2.75 11.5 2.75Z" fill="#353535"/>
<path d="M21.9999 22.75C21.8099 22.75 21.6199 22.68 21.4699 22.53L19.4699 20.53C19.1799 20.24 19.1799 19.76 19.4699 19.47C19.7599 19.18 20.2399 19.18 20.5299 19.47L22.5299 21.47C22.8199 21.76 22.8199 22.24 22.5299 22.53C22.3799 22.68 22.1899 22.75 21.9999 22.75Z" fill="#353535"/>
</svg>
