<svg width="24" height="24" viewBox="0 0 24 24" fill="none" xmlns="http://www.w3.org/2000/svg">
<path d="M12 10.07C10.4 10.07 9.08997 8.76 9.08997 7.16C9.08997 5.56 10.4 4.25 12 4.25C13.6 4.25 14.91 5.56 14.91 7.16C14.91 8.76 13.6 10.07 12 10.07ZM12 5.75C11.22 5.75 10.59 6.38 10.59 7.16C10.59 7.94 11.22 8.57 12 8.57C12.78 8.57 13.41 7.94 13.41 7.16C13.41 6.38 12.78 5.75 12 5.75Z" fill="#353535"/>
<path d="M6.79 19.7499C5.19 19.7499 3.88 18.4399 3.88 16.8399C3.88 15.2399 5.19 13.9299 6.79 13.9299C8.39 13.9299 9.7 15.2399 9.7 16.8399C9.7 18.4399 8.39 19.7499 6.79 19.7499ZM6.79 15.4299C6.01 15.4299 5.38 16.0599 5.38 16.8399C5.38 17.6199 6.01 18.2499 6.79 18.2499C7.57 18.2499 8.2 17.6199 8.2 16.8399C8.2 16.0599 7.56 15.4299 6.79 15.4299Z" fill="#353535"/>
<path d="M17.21 19.7499C15.61 19.7499 14.3 18.4399 14.3 16.8399C14.3 15.2399 15.61 13.9299 17.21 13.9299C18.81 13.9299 20.12 15.2399 20.12 16.8399C20.12 18.4399 18.82 19.7499 17.21 19.7499ZM17.21 15.4299C16.43 15.4299 15.8 16.0599 15.8 16.8399C15.8 17.6199 16.43 18.2499 17.21 18.2499C17.99 18.2499 18.62 17.6199 18.62 16.8399C18.62 16.0599 17.99 15.4299 17.21 15.4299Z" fill="#353535"/>
</svg>
