<svg width="24" height="24" viewBox="0 0 24 24" fill="none" xmlns="http://www.w3.org/2000/svg">
<path d="M10.84 13.54H9.34C8.19 13.54 7.26 12.58 7.26 11.39C7.26 10.98 7.6 10.64 8.01 10.64C8.42 10.64 8.76 10.98 8.76 11.39C8.76 11.75 9.02 12.04 9.34 12.04H10.84C11.07 12.04 11.25 11.83 11.25 11.57C11.25 11.22 11.19 11.2 10.96 11.12L8.55 10.28C7.68 9.97995 7.25 9.36995 7.25 8.41995C7.25 7.33995 8.11 6.44995 9.16 6.44995H10.66C11.81 6.44995 12.74 7.40995 12.74 8.59995C12.74 9.00995 12.4 9.34995 11.99 9.34995C11.58 9.34995 11.24 9.00995 11.24 8.59995C11.24 8.23995 10.98 7.94995 10.66 7.94995H9.16C8.93 7.94995 8.75 8.15995 8.75 8.41995C8.75 8.76995 8.81 8.78995 9.04 8.86995L11.45 9.70995C12.32 10.02 12.74 10.63 12.74 11.57C12.75 12.66 11.89 13.54 10.84 13.54Z" fill="#353535"/>
<path d="M10 14.3401C9.59 14.3401 9.25 14.0001 9.25 13.5901V12.8501C9.25 12.4401 9.59 12.1001 10 12.1001C10.41 12.1001 10.75 12.4401 10.75 12.8501V13.5901C10.75 14.0101 10.41 14.3401 10 14.3401Z" fill="#353535"/>
<path d="M10 7.93991C9.59 7.93991 9.25 7.59991 9.25 7.18991V6.40991C9.25 5.99991 9.59 5.65991 10 5.65991C10.41 5.65991 10.75 5.99991 10.75 6.40991V7.18991C10.75 7.59991 10.41 7.93991 10 7.93991Z" fill="#353535"/>
<path d="M9.99 18.72C5.17 18.72 1.25 14.8 1.25 9.97999C1.25 5.15999 5.17 1.23999 9.99 1.23999C14.81 1.23999 18.73 5.15999 18.73 9.97999C18.73 14.8 14.8 18.72 9.99 18.72ZM9.99 2.74999C6 2.74999 2.75 5.99999 2.75 9.98999C2.75 13.98 6 17.22 9.99 17.22C13.98 17.22 17.23 13.97 17.23 9.97999C17.23 5.98999 13.98 2.74999 9.99 2.74999Z" fill="#353535"/>
<path d="M17.02 22.72C15.17 22.72 13.43 21.82 12.36 20.3C12.12 19.96 12.2 19.49 12.54 19.25C12.88 19.01 13.35 19.09 13.59 19.43C14.38 20.55 15.66 21.21 17.02 21.21C19.34 21.21 21.22 19.33 21.22 17.01C21.22 15.66 20.56 14.38 19.46 13.59C19.12 13.35 19.05 12.88 19.29 12.54C19.53 12.2 20 12.13 20.34 12.37C21.83 13.44 22.72 15.17 22.72 17.01C22.72 20.17 20.17 22.72 17.02 22.72Z" fill="#353535"/>
</svg>
