<svg width="24" height="24" viewBox="0 0 24 24" fill="none" xmlns="http://www.w3.org/2000/svg">
<path d="M17.7402 22.75H12.2602C11.8502 22.75 11.5102 22.41 11.5102 22C11.5102 21.59 11.8502 21.25 12.2602 21.25H17.7402C19.4002 21.25 20.7502 19.9 20.7502 18.24V17.8H19.6002C18.0902 17.8 16.8102 16.68 16.6902 15.24C16.6102 14.41 16.9102 13.6 17.5102 13.01C18.0202 12.49 18.7202 12.2 19.4702 12.2H20.7402V11.51C20.7402 9.85001 19.3902 8.5 17.7302 8.5H6.25023C4.59023 8.5 3.24023 9.85001 3.24023 11.51V13.24C3.24023 13.65 2.90023 13.99 2.49023 13.99C2.08023 13.99 1.74023 13.65 1.74023 13.24V11.51C1.74023 9.02001 3.76023 7 6.25023 7H17.7302C20.2202 7 22.2402 9.02001 22.2402 11.51V12.95C22.2402 13.36 21.9002 13.7 21.4902 13.7H19.4702C19.1202 13.7 18.8002 13.83 18.5702 14.07C18.2802 14.35 18.1402 14.73 18.1802 15.11C18.2402 15.77 18.8702 16.3 19.5902 16.3H21.4902C21.9002 16.3 22.2402 16.64 22.2402 17.05V18.24C22.2502 20.73 20.2302 22.75 17.7402 22.75Z" fill="#353535"/>
<path d="M2.5 13.16C2.09 13.16 1.75 12.82 1.75 12.41V7.84006C1.75 6.35006 2.69 5.00001 4.08 4.47001L12.02 1.47001C12.84 1.16001 13.75 1.27005 14.46 1.77005C15.18 2.27005 15.6 3.08005 15.6 3.95005V7.75003C15.6 8.16003 15.26 8.50003 14.85 8.50003C14.44 8.50003 14.1 8.16003 14.1 7.75003V3.95005C14.1 3.57005 13.92 3.22003 13.6 3.00003C13.28 2.78003 12.9 2.73003 12.54 2.87003L4.60001 5.87003C3.79001 6.18003 3.24001 6.97006 3.24001 7.84006V12.41C3.25001 12.83 2.91 13.16 2.5 13.16Z" fill="#353535"/>
<path d="M19.6 17.7999C18.09 17.7999 16.81 16.6799 16.69 15.2399C16.61 14.4099 16.91 13.5999 17.51 13.0099C18.02 12.4899 18.72 12.2 19.47 12.2H21.55C22.54 12.23 23.3 13.0099 23.3 13.9699V16.03C23.3 16.99 22.54 17.7699 21.58 17.7999H19.6ZM21.53 13.7H19.48C19.13 13.7 18.81 13.8299 18.58 14.0699C18.29 14.3499 18.15 14.7299 18.19 15.1099C18.25 15.7699 18.88 16.2999 19.6 16.2999H21.56C21.69 16.2999 21.81 16.18 21.81 16.03V13.9699C21.81 13.8199 21.69 13.71 21.53 13.7Z" fill="#353535"/>
<path d="M14 12.75H7C6.59 12.75 6.25 12.41 6.25 12C6.25 11.59 6.59 11.25 7 11.25H14C14.41 11.25 14.75 11.59 14.75 12C14.75 12.41 14.41 12.75 14 12.75Z" fill="#353535"/>
<path d="M9.5 19.69C9.09 19.69 8.75 19.35 8.75 18.94V17.66C8.75 17.44 8.57 17.25 8.34 17.25H3C2.59 17.25 2.25 16.91 2.25 16.5C2.25 16.09 2.59 15.75 3 15.75H8.34C9.39 15.75 10.25 16.61 10.25 17.66V18.94C10.25 19.35 9.91 19.69 9.5 19.69Z" fill="#353535"/>
<path d="M4.21994 18.4699C4.02994 18.4699 3.83994 18.4 3.68994 18.25L2.46994 17.03C2.17994 16.74 2.17994 16.2599 2.46994 15.9699L3.68994 14.75C3.97994 14.46 4.45994 14.46 4.74994 14.75C5.03994 15.04 5.03994 15.52 4.74994 15.81L4.05994 16.5L4.74994 17.19C5.03994 17.48 5.03994 17.96 4.74994 18.25C4.59994 18.4 4.40994 18.4699 4.21994 18.4699Z" fill="#353535"/>
<path d="M9.5 22.5301H4.16C3.11 22.5301 2.25 21.6701 2.25 20.6201V19.3401C2.25 18.9301 2.59 18.5901 3 18.5901C3.41 18.5901 3.75 18.9301 3.75 19.3401V20.6201C3.75 20.8401 3.93 21.0301 4.16 21.0301H9.5C9.91 21.0301 10.25 21.3701 10.25 21.7801C10.25 22.1901 9.91 22.5301 9.5 22.5301Z" fill="#353535"/>
<path d="M8.28021 23.75C8.09021 23.75 7.90021 23.68 7.75021 23.53C7.46021 23.24 7.46021 22.7599 7.75021 22.4699L8.44022 21.78L7.75021 21.09C7.46021 20.8 7.46021 20.32 7.75021 20.03C8.04021 19.74 8.52021 19.74 8.81021 20.03L10.0302 21.25C10.3202 21.54 10.3202 22.02 10.0302 22.31L8.81021 23.53C8.67021 23.68 8.47021 23.75 8.28021 23.75Z" fill="#353535"/>
</svg>
