<svg width="24" height="24" viewBox="0 0 24 24" fill="none" xmlns="http://www.w3.org/2000/svg">
<path d="M21.6999 6.38989H14.4299C14.0199 6.38989 13.6799 6.04989 13.6799 5.63989C13.6799 5.22989 14.0199 4.88989 14.4299 4.88989H21.6999C22.1099 4.88989 22.4499 5.22989 22.4499 5.63989C22.4499 6.04989 22.1099 6.38989 21.6999 6.38989Z" fill="#353535"/>
<path d="M9.58005 6.38989H2.30005C1.89005 6.38989 1.55005 6.04989 1.55005 5.63989C1.55005 5.22989 1.89005 4.88989 2.30005 4.88989H9.57005C9.98005 4.88989 10.32 5.22989 10.32 5.63989C10.32 6.04989 9.99005 6.38989 9.58005 6.38989Z" fill="#353535"/>
<path d="M21.6999 16.0801H14.4299C14.0199 16.0801 13.6799 15.7401 13.6799 15.3301C13.6799 14.9201 14.0199 14.5801 14.4299 14.5801H21.6999C22.1099 14.5801 22.4499 14.9201 22.4499 15.3301C22.4499 15.7401 22.1099 16.0801 21.6999 16.0801Z" fill="#353535"/>
<path d="M21.6999 22.1399H14.4299C14.0199 22.1399 13.6799 21.7999 13.6799 21.3899C13.6799 20.9799 14.0199 20.6399 14.4299 20.6399H21.6999C22.1099 20.6399 22.4499 20.9799 22.4499 21.3899C22.4499 21.7999 22.1099 22.1399 21.6999 22.1399Z" fill="#353535"/>
<path d="M18.0901 10.02C17.6801 10.02 17.3401 9.68 17.3401 9.27V2C17.3401 1.59 17.6801 1.25 18.0901 1.25C18.5001 1.25 18.8401 1.59 18.8401 2V9.27C18.8401 9.69 18.5101 10.02 18.0901 10.02Z" fill="#353535"/>
<path d="M2.29999 22.7499C2.10999 22.7499 1.91999 22.6799 1.76999 22.5299C1.47999 22.2399 1.47999 21.7599 1.76999 21.4699L9.03999 14.1999C9.32999 13.9099 9.80999 13.9099 10.1 14.1999C10.39 14.4899 10.39 14.9699 10.1 15.2599L2.82999 22.5299C2.68999 22.6799 2.49999 22.7499 2.29999 22.7499Z" fill="#353535"/>
<path d="M9.58 22.7499C9.39 22.7499 9.2 22.6799 9.05 22.5299L1.78 15.2599C1.49 14.9699 1.49 14.4899 1.78 14.1999C2.07 13.9099 2.55 13.9099 2.84 14.1999L10.11 21.4699C10.4 21.7599 10.4 22.2399 10.11 22.5299C9.96 22.6799 9.77 22.7499 9.58 22.7499Z" fill="#353535"/>
</svg>
