<svg width="24" height="24" viewBox="0 0 24 24" fill="none" xmlns="http://www.w3.org/2000/svg">
<path d="M14.8902 18.22H6.10019C5.58019 18.22 5.09018 18.17 4.65018 18.07C4.42018 18.04 4.14019 17.96 3.85019 17.85C2.52019 17.35 0.950195 16.12 0.950195 13.06V7.90997C0.950195 4.63997 2.83019 2.76001 6.10019 2.76001H14.8902C17.6502 2.76001 19.4302 4.07998 19.9102 6.47998C20.0002 6.91998 20.0402 7.38997 20.0402 7.90997V13.06C20.0402 16.35 18.1702 18.22 14.8902 18.22ZM6.11017 4.28003C3.65017 4.28003 2.46017 5.46999 2.46017 7.92999V13.08C2.46017 14.87 3.09019 15.97 4.38019 16.46C4.58019 16.53 4.7702 16.58 4.9502 16.61C5.3302 16.69 5.70017 16.73 6.11017 16.73H14.9002C17.3602 16.73 18.5502 15.54 18.5502 13.08V7.92999C18.5502 7.50999 18.5202 7.13999 18.4502 6.79999C18.1102 5.09999 16.9502 4.28003 14.9002 4.28003H6.11017Z" fill="#353535"/>
<path d="M17.8901 21.2198H9.10009C8.25009 21.2198 7.49008 21.0998 6.84008 20.8498C5.37008 20.2998 4.41007 19.1398 4.08007 17.4798C4.03007 17.2298 4.11009 16.9698 4.29009 16.7998C4.47009 16.6198 4.7301 16.5498 4.9801 16.6098C5.3101 16.6798 5.68009 16.7198 6.10009 16.7198H14.8901C17.3501 16.7198 18.5401 15.5299 18.5401 13.0699V7.91984C18.5401 7.49984 18.5101 7.12984 18.4401 6.78984C18.3901 6.53984 18.4701 6.28985 18.6401 6.10985C18.8201 5.92985 19.0701 5.84983 19.3201 5.90983C21.7201 6.39983 23.0401 8.17984 23.0401 10.9198V16.0699C23.0401 19.3499 21.1701 21.2198 17.8901 21.2198ZM5.9201 18.2198C6.2401 18.7998 6.72009 19.2099 7.38009 19.4499C7.86009 19.6299 8.44007 19.7198 9.11007 19.7198H17.9001C20.3601 19.7198 21.5501 18.5299 21.5501 16.0699V10.9198C21.5501 9.33984 21.0601 8.28985 20.0501 7.73985C20.0501 7.79985 20.0501 7.85984 20.0501 7.91984V13.0699C20.0501 16.3399 18.1701 18.2198 14.9001 18.2198H6.11007C6.04007 18.2198 5.9801 18.2198 5.9201 18.2198Z" fill="#353535"/>
<path d="M10.4999 13.8899C8.62988 13.8899 7.10986 12.3699 7.10986 10.4999C7.10986 8.62988 8.62988 7.10986 10.4999 7.10986C12.3699 7.10986 13.8899 8.62988 13.8899 10.4999C13.8899 12.3699 12.3699 13.8899 10.4999 13.8899ZM10.4999 8.60986C9.45988 8.60986 8.60986 9.45988 8.60986 10.4999C8.60986 11.5399 9.45988 12.3899 10.4999 12.3899C11.5399 12.3899 12.3899 11.5399 12.3899 10.4999C12.3899 9.45988 11.5399 8.60986 10.4999 8.60986Z" fill="#353535"/>
<path d="M4.78027 13.4501C4.37027 13.4501 4.03027 13.1101 4.03027 12.7001V8.30005C4.03027 7.89005 4.37027 7.55005 4.78027 7.55005C5.19027 7.55005 5.53027 7.89005 5.53027 8.30005V12.7001C5.53027 13.1101 5.20027 13.4501 4.78027 13.4501Z" fill="#353535"/>
<path d="M16.21 13.4501C15.8 13.4501 15.46 13.1101 15.46 12.7001V8.30005C15.46 7.89005 15.8 7.55005 16.21 7.55005C16.62 7.55005 16.96 7.89005 16.96 8.30005V12.7001C16.96 13.1101 16.63 13.4501 16.21 13.4501Z" fill="#353535"/>
</svg>
