<svg width="24" height="24" viewBox="0 0 24 24" fill="none" xmlns="http://www.w3.org/2000/svg">
<path d="M12.0701 21.9801C10.6601 21.9801 9.24009 21.4401 8.17009 20.3701L3.64009 15.8401C2.54009 14.7401 1.96009 13.2201 2.03009 11.6701L2.27009 6.66008C2.38009 4.27008 4.27009 2.38008 6.67009 2.26008L11.6701 2.02008C13.2301 1.95008 14.7401 2.53008 15.8401 3.63008L20.3701 8.16008C22.5201 10.3101 22.5201 13.8201 20.3701 15.9701L15.9801 20.3601C14.9001 21.4401 13.4901 21.9801 12.0701 21.9801ZM4.70009 14.7701L9.23009 19.3001C10.8001 20.8701 13.3501 20.8701 14.9201 19.3001L19.3101 14.9101C20.8801 13.3401 20.8801 10.7901 19.3101 9.22008L14.7701 4.70008C13.9701 3.90008 12.8801 3.48008 11.7301 3.53008L6.73009 3.77008C5.11009 3.84008 3.84009 5.11008 3.76009 6.73008L3.52009 11.7401C3.47009 12.8601 3.90009 13.9701 4.70009 14.7701Z" fill="#353535"/>
<path d="M9.5 12.75C7.71 12.75 6.25 11.29 6.25 9.5C6.25 7.71 7.71 6.25 9.5 6.25C11.29 6.25 12.75 7.71 12.75 9.5C12.75 11.29 11.29 12.75 9.5 12.75ZM9.5 7.75C8.54 7.75 7.75 8.54 7.75 9.5C7.75 10.46 8.54 11.25 9.5 11.25C10.46 11.25 11.25 10.46 11.25 9.5C11.25 8.54 10.46 7.75 9.5 7.75Z" fill="#353535"/>
<path d="M12.9999 17.7499C12.8099 17.7499 12.6199 17.6799 12.4699 17.5299C12.1799 17.2399 12.1799 16.7599 12.4699 16.4699L16.4699 12.4699C16.7599 12.1799 17.2399 12.1799 17.5299 12.4699C17.8199 12.7599 17.8199 13.2399 17.5299 13.5299L13.5299 17.5299C13.3799 17.6799 13.1899 17.7499 12.9999 17.7499Z" fill="#353535"/>
</svg>
