<svg width="24" height="24" viewBox="0 0 24 24" fill="none" xmlns="http://www.w3.org/2000/svg">
<path d="M16.6901 22.75H7.31012C3.14012 22.75 1.87012 21.48 1.87012 17.31V16.85C1.87012 16.44 2.21012 16.1 2.62012 16.1C3.50012 16.1 4.22012 15.38 4.22012 14.5C4.22012 13.62 3.50012 12.9 2.62012 12.9C2.21012 12.9 1.87012 12.56 1.87012 12.15V11.69C1.87012 7.52 3.14012 6.25 7.31012 6.25H16.6901C20.8601 6.25 22.1301 7.52 22.1301 11.69V12.63C22.1301 13.04 21.7901 13.38 21.3801 13.38C20.5001 13.38 19.7801 14.1 19.7801 14.98C19.7801 15.86 20.5001 16.57 21.3801 16.57C21.7901 16.57 22.1301 16.91 22.1301 17.32C22.1201 21.48 20.8501 22.75 16.6901 22.75ZM3.38012 17.51C3.40012 20.69 4.03012 21.25 7.32012 21.25H16.7001C19.8201 21.25 20.5401 20.74 20.6301 17.97C19.2901 17.63 18.2901 16.42 18.2901 14.97C18.2901 13.52 19.2901 12.3 20.6401 11.96V11.68C20.6401 8.33 20.0501 7.74 16.7001 7.74H7.31012C4.03012 7.74 3.40012 8.31 3.37012 11.48C4.72012 11.82 5.72012 13.04 5.72012 14.49C5.72012 15.94 4.72012 17.17 3.38012 17.51Z" fill="#353535"/>
<path d="M10 10.25C9.59 10.25 9.25 9.91 9.25 9.5V7C9.25 6.59 9.59 6.25 10 6.25C10.41 6.25 10.75 6.59 10.75 7V9.5C10.75 9.91 10.41 10.25 10 10.25Z" fill="#353535"/>
<path d="M10 16.9201C9.59 16.9201 9.25 16.5801 9.25 16.1701V12.8401C9.25 12.4301 9.59 12.0901 10 12.0901C10.41 12.0901 10.75 12.4301 10.75 12.8401V16.1701C10.75 16.5801 10.41 16.9201 10 16.9201Z" fill="#353535"/>
<path d="M10 22.75C9.59 22.75 9.25 22.41 9.25 22V19.5C9.25 19.09 9.59 18.75 10 18.75C10.41 18.75 10.75 19.09 10.75 19.5V22C10.75 22.41 10.41 22.75 10 22.75Z" fill="#353535"/>
<path d="M16.3299 7.74989H7.23993C6.93993 7.74989 6.65993 7.56989 6.54993 7.28989C6.43993 7.00989 6.49993 6.67989 6.70993 6.46989L9.63993 3.53989C12.3399 0.839893 13.9899 0.839893 16.6799 3.53989L17.2799 4.13989C17.4199 4.27989 17.4999 4.46989 17.4999 4.66989C17.4999 4.86989 17.4199 5.05989 17.2799 5.19989C16.8799 5.59989 16.7699 6.18989 16.9999 6.69989C17.1099 6.92989 17.0899 7.19989 16.9499 7.41989C16.8199 7.61989 16.5799 7.74989 16.3299 7.74989ZM9.04993 6.24989H15.3799C15.3599 5.71989 15.4899 5.18989 15.7599 4.72989L15.6299 4.59989C13.5399 2.50989 12.7999 2.50989 10.7099 4.59989L9.04993 6.24989Z" fill="#353535"/>
</svg>
