<svg width="24" height="24" viewBox="0 0 24 24" fill="none" xmlns="http://www.w3.org/2000/svg">
<path d="M17 20.75H7C2.59 20.75 1.25 19.41 1.25 15V14.5C1.25 14.09 1.59 13.75 2 13.75C2.96 13.75 3.75 12.96 3.75 12C3.75 11.04 2.96 10.25 2 10.25C1.59 10.25 1.25 9.91 1.25 9.5V9C1.25 4.59 2.59 3.25 7 3.25H17C21.41 3.25 22.75 4.59 22.75 9V10C22.75 10.41 22.41 10.75 22 10.75C21.04 10.75 20.25 11.54 20.25 12.5C20.25 13.46 21.04 14.25 22 14.25C22.41 14.25 22.75 14.59 22.75 15C22.75 19.41 21.41 20.75 17 20.75ZM2.75 15.16C2.77 18.6 3.48 19.25 7 19.25H17C20.34 19.25 21.15 18.66 21.24 15.66C19.81 15.32 18.75 14.03 18.75 12.5C18.75 10.97 19.82 9.68 21.25 9.34V9C21.25 5.43 20.57 4.75 17 4.75H7C3.48 4.75 2.77 5.4 2.75 8.84C4.18 9.18 5.25 10.47 5.25 12C5.25 13.53 4.18 14.82 2.75 15.16Z" fill="#353535"/>
<path d="M15 15.8799C14.44 15.8799 13.99 15.4299 13.99 14.8799C13.99 14.3299 14.44 13.8799 14.99 13.8799C15.54 13.8799 15.99 14.3299 15.99 14.8799C15.99 15.4299 15.56 15.8799 15 15.8799Z" fill="#353535"/>
<path d="M8.99999 10.8799C8.43999 10.8799 7.98999 10.4299 7.98999 9.87988C7.98999 9.32988 8.43999 8.87988 8.98999 8.87988C9.53999 8.87988 9.98999 9.32988 9.98999 9.87988C9.98999 10.4299 9.55999 10.8799 8.99999 10.8799Z" fill="#353535"/>
<path d="M8.63007 16.4299C8.44007 16.4299 8.25007 16.3599 8.10007 16.2099C7.81007 15.9199 7.81007 15.4399 8.10007 15.1499L14.8301 8.41989C15.1201 8.12989 15.6001 8.12989 15.8901 8.41989C16.1801 8.70989 16.1801 9.18989 15.8901 9.47989L9.16007 16.2099C9.02007 16.3599 8.82007 16.4299 8.63007 16.4299Z" fill="#353535"/>
</svg>
