<svg width="24" height="24" viewBox="0 0 24 24" fill="none" xmlns="http://www.w3.org/2000/svg">
<path d="M17.3799 20.75H10.9099C10.4999 20.75 10.1599 20.41 10.1599 20C10.1599 19.59 10.4999 19.25 10.9099 19.25H17.3799C20.4399 19.25 21.1599 18.75 21.2399 16.03C19.9199 15.69 18.9399 14.49 18.9399 13.07C18.9399 11.64 19.9199 10.43 21.2499 10.09V9.82996C21.2499 6.53996 20.6699 5.95996 17.3799 5.95996H11.7499V12C11.7499 12.41 11.4099 12.75 10.9999 12.75C10.5899 12.75 10.2499 12.41 10.2499 12V5.20996C10.2499 4.79996 10.5899 4.45996 10.9999 4.45996H17.3799C21.4999 4.45996 22.7499 5.70996 22.7499 9.82996V10.75C22.7499 11.16 22.4099 11.5 21.9999 11.5C21.1399 11.5 20.4399 12.2 20.4399 13.07C20.4399 13.93 21.1399 14.63 21.9999 14.63C22.4099 14.63 22.7499 14.97 22.7499 15.38C22.7499 19.5 21.4999 20.75 17.3799 20.75Z" fill="#353535"/>
<path d="M10.9999 20.75H8.22995C6.20995 20.75 5.16995 19.23 4.21995 16.95L4.02995 16.49C3.95995 16.31 3.95995 16.1 4.03995 15.92C4.11995 15.74 4.26995 15.59 4.44995 15.52C4.84995 15.36 5.15995 15.05 5.32995 14.66C5.49995 14.26 5.49995 13.82 5.32995 13.42C4.99995 12.58 4.04995 12.19 3.20995 12.52C3.01995 12.6 2.81995 12.59 2.62995 12.51C2.44995 12.43 2.29995 12.28 2.22995 12.1L2.05995 11.67C0.459948 7.77997 1.15995 6.10997 5.04995 4.49997L7.68995 3.41997C8.06995 3.25997 8.50995 3.44997 8.66995 3.82997L11.6999 11.17C11.7399 11.26 11.7599 11.36 11.7599 11.46V14C11.7599 14.41 11.4199 14.75 11.0099 14.75C10.5999 14.75 10.2599 14.41 10.2599 14V11.6L7.55995 5.08997L5.61995 5.88997C2.53995 7.15997 2.16995 7.93997 3.37995 10.94C4.76995 10.74 6.16995 11.49 6.71995 12.84C7.03995 13.61 7.03995 14.46 6.70995 15.23C6.48995 15.76 6.12995 16.21 5.66995 16.54C6.62995 18.8 7.32995 19.25 8.21995 19.25H10.2399V17C10.2399 16.59 10.5799 16.25 10.9899 16.25C11.3999 16.25 11.7399 16.59 11.7399 17V20C11.7499 20.41 11.4099 20.75 10.9999 20.75Z" fill="#353535"/>
<path d="M8.17 20.75H8C7.59 20.75 7.25 20.41 7.25 20C7.25 19.59 7.59 19.25 8 19.25H8.17C8.58 19.25 8.92 19.59 8.92 20C8.92 20.41 8.58 20.75 8.17 20.75Z" fill="#353535"/>
</svg>
