<svg width="24" height="24" viewBox="0 0 24 24" fill="none" xmlns="http://www.w3.org/2000/svg">
<path d="M5.19994 10.4601C5.00994 10.4601 4.80994 10.3801 4.66994 10.2401C4.45994 10.0201 4.38994 9.70012 4.50994 9.42012L6.36994 4.98012C6.40994 4.89012 6.42994 4.83012 6.45994 4.78012C7.93994 1.37012 9.82994 0.540121 13.1699 1.82012C13.3599 1.89012 13.5099 2.04012 13.5899 2.23012C13.6699 2.42012 13.6699 2.63012 13.5899 2.82012L10.6599 9.62012C10.5399 9.90012 10.2699 10.0701 9.96994 10.0701H7.11994C6.54994 10.0701 6.00994 10.1801 5.48994 10.4001C5.39994 10.4401 5.29994 10.4601 5.19994 10.4601ZM10.6099 2.75012C9.36994 2.75012 8.60994 3.56012 7.81994 5.40012C7.80994 5.43012 7.78994 5.46012 7.77994 5.49012L6.46994 8.60012C6.68994 8.58012 6.89994 8.57012 7.11994 8.57012H9.46994L11.8799 2.97012C11.4099 2.82012 10.9899 2.75012 10.6099 2.75012Z" fill="#353535"/>
<path d="M18.29 10.27C18.22 10.27 18.14 10.26 18.07 10.24C17.69 10.13 17.29 10.07 16.87 10.07H9.96998C9.71998 10.07 9.47998 9.93999 9.33998 9.72999C9.20998 9.51999 9.17998 9.24999 9.27998 9.01999L12.18 2.28999C12.33 1.92999 12.77 1.67999 13.14 1.80999C13.26 1.84999 13.37 1.89999 13.49 1.94999L15.85 2.93999C17.23 3.50999 18.15 4.10999 18.75 4.82999C18.87 4.96999 18.97 5.11999 19.07 5.27999C19.18 5.44999 19.28 5.64999 19.35 5.85999C19.38 5.92999 19.43 6.05999 19.46 6.19999C19.74 7.14999 19.6 8.30999 19 9.80999C18.87 10.09 18.59 10.27 18.29 10.27ZM11.11 8.56999H16.88C17.2 8.56999 17.51 8.59999 17.82 8.64999C18.1 7.77999 18.16 7.10999 18 6.56999C17.98 6.47999 17.96 6.43999 17.95 6.39999C17.89 6.23999 17.85 6.14999 17.8 6.06999C17.73 5.95999 17.68 5.86999 17.6 5.77999C17.17 5.25999 16.41 4.77999 15.27 4.30999L13.3 3.48999L11.11 8.56999Z" fill="#353535"/>
<path d="M15.9 22.7501H8.1C7.82 22.7501 7.56 22.7301 7.3 22.7001C3.79 22.4701 1.79 20.4601 1.55 16.9101C1.52 16.6901 1.5 16.4201 1.5 16.1501V14.2001C1.5 11.9501 2.84 9.92007 4.91 9.02007C5.62 8.72007 6.36 8.57007 7.13 8.57007H16.89C17.46 8.57007 18.01 8.65007 18.52 8.81007C20.87 9.52007 22.52 11.7401 22.52 14.2001V16.1501C22.52 16.3701 22.51 16.5801 22.5 16.7801C22.28 20.6901 20 22.7501 15.9 22.7501ZM7.12 10.0701C6.55 10.0701 6.01 10.1801 5.49 10.4001C3.97 11.0601 2.99 12.5501 2.99 14.2001V16.1501C2.99 16.3601 3.01 16.5701 3.03 16.7701C3.22 19.6201 4.62 21.0201 7.43 21.2101C7.68 21.2401 7.88 21.2601 8.09 21.2601H15.89C19.19 21.2601 20.81 19.8101 20.97 16.7101C20.98 16.5301 20.99 16.3501 20.99 16.1501V14.2001C20.99 12.3901 19.78 10.7701 18.06 10.2401C17.68 10.1301 17.28 10.0701 16.86 10.0701H7.12Z" fill="#353535"/>
<path d="M2.23999 14.95C1.82999 14.95 1.48999 14.61 1.48999 14.2V11.27C1.48999 8.12005 3.71999 5.40005 6.79999 4.80005C7.06999 4.75005 7.34999 4.85004 7.52999 5.06004C7.69999 5.27004 7.74999 5.57005 7.63999 5.82005L5.88999 10C5.80999 10.18 5.66999 10.32 5.49999 10.4C3.97999 11.06 2.99999 12.55 2.99999 14.2C2.98999 14.61 2.65999 14.95 2.23999 14.95ZM5.59999 6.82005C4.31999 7.54005 3.38999 8.80005 3.09999 10.27C3.53999 9.82005 4.04999 9.44004 4.62999 9.16004L5.59999 6.82005Z" fill="#353535"/>
<path d="M21.7599 14.95C21.3499 14.95 21.0099 14.61 21.0099 14.2C21.0099 12.39 19.7999 10.77 18.0799 10.24C17.8799 10.18 17.7099 10.04 17.6199 9.85002C17.5299 9.66002 17.5199 9.44002 17.5999 9.25002C18.0699 8.08002 18.1899 7.23002 17.9999 6.57002C17.9799 6.48002 17.9599 6.44002 17.9499 6.40002C17.8199 6.11002 17.8899 5.77002 18.1199 5.55002C18.3499 5.33002 18.6999 5.28002 18.9799 5.43002C21.1599 6.57002 22.5099 8.81002 22.5099 11.27V14.2C22.5099 14.61 22.1699 14.95 21.7599 14.95ZM19.2499 9.09002C19.8799 9.38002 20.4399 9.79002 20.9099 10.28C20.7199 9.30002 20.2499 8.41002 19.5599 7.71002C19.5099 8.13002 19.4099 8.59002 19.2499 9.09002Z" fill="#353535"/>
</svg>
