<svg width="24" height="24" viewBox="0 0 24 24" fill="none" xmlns="http://www.w3.org/2000/svg">
<path d="M22 21.25C22 21.66 21.66 22 21.25 22H2.75C2.34 22 2 21.66 2 21.25C2 20.84 2.34 20.5 2.75 20.5H21.25C21.66 20.5 22 20.84 22 21.25Z" fill="#353535"/>
<path d="M15.3899 4.52001L4.64994 15.26C4.23994 15.67 3.57994 15.67 3.17994 15.26H3.16994C1.77994 13.86 1.77994 11.6 3.16994 10.21L10.3199 3.06001C11.7199 1.66001 13.9799 1.66001 15.3799 3.06001C15.7899 3.45001 15.7899 4.12001 15.3899 4.52001Z" fill="#353535"/>
<path d="M20.8199 8.48995L17.7699 5.43995C17.3599 5.02995 16.6999 5.02995 16.2999 5.43995L5.55994 16.1799C5.14994 16.5799 5.14994 17.2399 5.55994 17.6499L8.60994 20.7099C10.0099 22.0999 12.2699 22.0999 13.6699 20.7099L20.8099 13.5599C22.2299 12.1599 22.2299 9.88995 20.8199 8.48995ZM12.7599 17.5199L11.5499 18.7399C11.2999 18.9899 10.8899 18.9899 10.6299 18.7399C10.3799 18.4899 10.3799 18.0799 10.6299 17.8199L11.8499 16.5999C12.0899 16.3599 12.5099 16.3599 12.7599 16.5999C13.0099 16.8499 13.0099 17.2799 12.7599 17.5199ZM16.7299 13.5499L14.2899 15.9999C14.0399 16.2399 13.6299 16.2399 13.3699 15.9999C13.1199 15.7499 13.1199 15.3399 13.3699 15.0799L15.8199 12.6299C16.0599 12.3899 16.4799 12.3899 16.7299 12.6299C16.9799 12.8899 16.9799 13.2999 16.7299 13.5499Z" fill="#353535"/>
</svg>
