<svg width="24" height="24" viewBox="0 0 24 24" fill="none" xmlns="http://www.w3.org/2000/svg">
<path d="M21.9201 16.75C21.5901 19.41 19.4101 21.59 16.7501 21.92C15.1401 22.12 13.6401 21.68 12.4701 20.82C11.8001 20.33 11.9601 19.29 12.7601 19.05C15.7701 18.14 18.1401 15.76 19.0601 12.75C19.3001 11.96 20.3401 11.8 20.8301 12.46C21.6801 13.64 22.1201 15.14 21.9201 16.75Z" fill="#353535"/>
<path d="M9.99 2C5.58 2 2 5.58 2 9.99C2 14.4 5.58 17.98 9.99 17.98C14.4 17.98 17.98 14.4 17.98 9.99C17.97 5.58 14.4 2 9.99 2ZM9.05 8.87L11.46 9.71C12.33 10.02 12.75 10.63 12.75 11.57C12.75 12.65 11.89 13.54 10.84 13.54H10.75V13.59C10.75 14 10.41 14.34 10 14.34C9.59 14.34 9.25 14 9.25 13.59V13.53C8.14 13.48 7.25 12.55 7.25 11.39C7.25 10.98 7.59 10.64 8 10.64C8.41 10.64 8.75 10.98 8.75 11.39C8.75 11.75 9.01 12.04 9.33 12.04H10.83C11.06 12.04 11.24 11.83 11.24 11.57C11.24 11.22 11.18 11.2 10.95 11.12L8.54 10.28C7.68 9.98 7.25 9.37 7.25 8.42C7.25 7.34 8.11 6.45 9.16 6.45H9.25V6.41C9.25 6 9.59 5.66 10 5.66C10.41 5.66 10.75 6 10.75 6.41V6.47C11.86 6.52 12.75 7.45 12.75 8.61C12.75 9.02 12.41 9.36 12 9.36C11.59 9.36 11.25 9.02 11.25 8.61C11.25 8.25 10.99 7.96 10.67 7.96H9.17C8.94 7.96 8.76 8.17 8.76 8.43C8.75 8.77 8.81 8.79 9.05 8.87Z" fill="#353535"/>
</svg>
