<svg width="24" height="24" viewBox="0 0 24 24" fill="none" xmlns="http://www.w3.org/2000/svg">
<path d="M13.49 13.38H11C10.7 13.38 10.46 13.62 10.46 13.92C10.46 14.22 10.7 14.46 11 14.46H13.49C13.79 14.46 14.03 14.22 14.03 13.92C14.03 13.62 13.79 13.38 13.49 13.38Z" fill="#353535"/>
<path d="M9.4399 13.38H8.1899C7.8899 13.38 7.6499 13.62 7.6499 13.92C7.6499 14.22 7.8899 14.46 8.1899 14.46H9.4399C9.7399 14.46 9.9799 14.22 9.9799 13.92C9.9799 13.62 9.7399 13.38 9.4399 13.38Z" fill="#353535"/>
<path d="M18.54 4.21994L13.04 2.15994C12.47 1.94994 11.54 1.94994 10.97 2.15994L5.47005 4.21994C4.41005 4.61994 3.55005 5.85994 3.55005 6.98994V15.0899C3.55005 15.8999 4.08005 16.9699 4.73005 17.4499L10.23 21.5599C11.2 22.2899 12.79 22.2899 13.76 21.5599L19.26 17.4499C19.91 16.9599 20.4401 15.8999 20.4401 15.0899V6.98994C20.4501 5.85994 19.59 4.61994 18.54 4.21994ZM18.17 13.6499C18.15 15.7199 17.58 16.2399 15.43 16.2399H8.58005C6.39005 16.2399 5.84005 15.6999 5.84005 13.5299V11.1999C5.84005 10.9199 6.06005 10.6999 6.34005 10.6999H17.67C17.95 10.6999 18.17 10.9199 18.17 11.1999V13.6499ZM18.17 9.10994C18.17 9.38994 17.95 9.60994 17.67 9.60994H6.34005C6.06005 9.60994 5.84005 9.38994 5.84005 9.10994V8.46994C5.84005 6.50994 6.30005 5.87994 8.01005 5.76994C8.19005 5.76994 8.38005 5.75994 8.58005 5.75994H15.43C17.62 5.75994 18.17 6.29994 18.17 8.46994V9.10994Z" fill="#353535"/>
</svg>
