<svg width="24" height="24" viewBox="0 0 24 24" fill="none" xmlns="http://www.w3.org/2000/svg">
<path d="M17.19 4.96C17.19 4.97 17.19 4.97 17.19 4.98C16.94 4.97 16.69 4.96 16.42 4.96H8.71997L9.78997 3.9C10.77 2.91 11.85 2 13.1 2C14.36 2 15.44 2.91 16.42 3.9L16.98 4.46C17.12 4.59 17.19 4.77 17.19 4.96Z" fill="#353535"/>
<path d="M20.84 13.17C21.23 13.17 21.54 12.85 21.54 12.45V11.57C21.54 7.63995 20.34 6.44995 16.42 6.44995H10.12H7.57996C3.65996 6.44995 2.45996 7.64995 2.45996 11.57V12C2.45996 12.4 2.76996 12.71 3.15996 12.71C3.99996 12.71 4.66996 13.39 4.66996 14.22C4.66996 15.05 3.99996 15.74 3.15996 15.74C2.76996 15.74 2.45996 16.05 2.45996 16.45V16.88C2.45996 20.81 3.65996 22 7.57996 22H10.11H16.41C20.33 22 21.53 20.8 21.53 16.88C21.53 16.49 21.22 16.17 20.83 16.17C19.99 16.17 19.32 15.5 19.32 14.67C19.33 13.84 20 13.17 20.84 13.17ZM10.82 18.86C10.82 19.25 10.5 19.57 10.11 19.57C9.71996 19.57 9.39996 19.25 9.39996 18.86V16.18C9.39996 15.79 9.71996 15.47 10.11 15.47C10.5 15.47 10.82 15.79 10.82 16.18V18.86ZM10.82 12.27C10.82 12.66 10.5 12.98 10.11 12.98C9.71996 12.98 9.39996 12.66 9.39996 12.27V9.58995C9.39996 9.19995 9.71996 8.87995 10.11 8.87995C10.5 8.87995 10.82 9.19995 10.82 9.58995V12.27Z" fill="#353535"/>
</svg>
