<svg width="24" height="24" viewBox="0 0 24 24" fill="none" xmlns="http://www.w3.org/2000/svg">
<path d="M11.94 2.20995L9.52995 7.81995H7.11995C6.71995 7.81995 6.32995 7.84995 5.94995 7.92995L6.94995 5.52995L6.98995 5.43995L7.04995 5.27995C7.07995 5.20995 7.09995 5.14995 7.12995 5.09995C8.28995 2.40995 9.58995 1.56995 11.94 2.20995Z" fill="#353535"/>
<path d="M18.7301 8.09002L18.7101 8.08002C18.1101 7.91002 17.5001 7.82002 16.8801 7.82002H10.6201L12.8701 2.59002L12.9001 2.52002C13.0401 2.57002 13.1901 2.64002 13.3401 2.69002L15.5501 3.62002C16.7801 4.13002 17.6401 4.66002 18.1701 5.30002C18.2601 5.42002 18.3401 5.53002 18.4201 5.66002C18.5101 5.80002 18.5801 5.94002 18.6201 6.09002C18.6601 6.18002 18.6901 6.26002 18.7101 6.35002C18.8601 6.86002 18.8701 7.44002 18.7301 8.09002Z" fill="#353535"/>
<path d="M18.29 9.51995C17.84 9.38995 17.37 9.31995 16.88 9.31995H7.11999C6.43999 9.31995 5.79999 9.44995 5.19999 9.70995C3.45999 10.4599 2.23999 12.1899 2.23999 14.1999V16.1499C2.23999 16.3899 2.25999 16.6199 2.28999 16.8599C2.50999 20.0399 4.20999 21.7399 7.38999 21.9499C7.61999 21.9799 7.84999 21.9999 8.09999 21.9999H15.9C19.6 21.9999 21.55 20.2399 21.74 16.7399C21.75 16.5499 21.76 16.3499 21.76 16.1499V14.1999C21.76 11.9899 20.29 10.1299 18.29 9.51995ZM14.5 16.1899H12.75V17.9999C12.75 18.4099 12.41 18.7499 12 18.7499C11.59 18.7499 11.25 18.4099 11.25 17.9999V16.1899H9.49999C9.08999 16.1899 8.74999 15.8599 8.74999 15.4399C8.74999 15.0299 9.08999 14.6899 9.49999 14.6899H11.25V12.9999C11.25 12.5899 11.59 12.2499 12 12.2499C12.41 12.2499 12.75 12.5899 12.75 12.9999V14.6899H14.5C14.91 14.6899 15.25 15.0299 15.25 15.4399C15.25 15.8599 14.91 16.1899 14.5 16.1899Z" fill="#353535"/>
</svg>
