<svg width="24" height="24" viewBox="0 0 24 24" fill="none" xmlns="http://www.w3.org/2000/svg">
<path d="M1.23035 21.6817L1.99035 20.9217C1.59035 20.3217 1.36035 19.6017 1.36035 18.8317C1.36035 16.7217 3.07035 15.0117 5.18035 15.0117C7.29035 15.0117 9.00035 16.7117 9.00035 18.8217C9.00035 20.9317 7.29035 22.6417 5.18035 22.6417C4.41035 22.6417 3.69035 22.4117 3.09035 22.0117L2.33035 22.7717C2.17035 22.9217 1.97035 23.0017 1.77035 23.0017C1.57035 23.0017 1.37035 22.9217 1.22035 22.7717C0.920347 22.4717 0.920347 21.9817 1.23035 21.6817Z" fill="#353535"/>
<path d="M21.5005 12.5H19.0005C17.9005 12.5 17.0005 13.4 17.0005 14.5C17.0005 15.6 17.9005 16.5 19.0005 16.5H21.5005C21.7805 16.5 22.0005 16.28 22.0005 16V13C22.0005 12.72 21.7805 12.5 21.5005 12.5Z" fill="#353535"/>
<path d="M16.5305 5.40003C16.8305 5.69003 16.5805 6.14003 16.1604 6.14003L7.88045 6.13003C7.40045 6.13003 7.16045 5.55003 7.50045 5.21003L9.25045 3.45003C10.7305 1.98003 13.1205 1.98003 14.6005 3.45003L16.4904 5.36003C16.5005 5.37003 16.5205 5.39003 16.5305 5.40003Z" fill="#353535"/>
<path d="M21.8706 18.66C21.2606 20.72 19.5006 22 17.1006 22H10.6006C10.2106 22 9.9606 21.57 10.1206 21.21C10.4206 20.51 10.6106 19.72 10.6106 19C10.6106 15.97 8.1406 13.5 5.1106 13.5C4.3506 13.5 3.6106 13.66 2.9306 13.96C2.5606 14.12 2.1106 13.87 2.1106 13.47V12C2.1106 9.28 3.7506 7.38 6.3006 7.06C6.5506 7.02 6.8206 7 7.1006 7H17.1006C17.3606 7 17.6106 7.01 17.8506 7.05C19.8706 7.28 21.3306 8.51 21.8706 10.34C21.9706 10.67 21.7306 11 21.3906 11H19.1006C16.9306 11 15.2106 12.98 15.6806 15.23C16.0106 16.87 17.5306 18 19.2006 18H21.3906C21.7406 18 21.9706 18.34 21.8706 18.66Z" fill="#353535"/>
</svg>
