<svg width="24" height="24" viewBox="0 0 24 24" fill="none" xmlns="http://www.w3.org/2000/svg">
<path d="M22 12.62V14.68C22 15.24 21.54 15.7 20.97 15.7H19.04C17.96 15.7 16.97 14.91 16.88 13.83C16.82 13.2 17.06 12.61 17.48 12.2C17.85 11.82 18.36 11.6 18.92 11.6H20.97C21.54 11.6 22 12.06 22 12.62Z" fill="#353535"/>
<path d="M15.38 13.96C15.29 12.91 15.67 11.88 16.43 11.13C17.07 10.48 17.96 10.1 18.92 10.1H19.49C19.77 10.1 20 9.87002 19.96 9.59002C19.69 7.65002 18.01 6.15002 16 6.15002H6C3.79 6.15002 2 7.94002 2 10.15V17.15C2 19.36 3.79 21.15 6 21.15H16C18.02 21.15 19.69 19.65 19.96 17.71C20 17.43 19.77 17.2 19.49 17.2H19.04C17.14 17.2 15.54 15.78 15.38 13.96ZM13 11.9H7C6.59 11.9 6.25 11.57 6.25 11.15C6.25 10.73 6.59 10.4 7 10.4H13C13.41 10.4 13.75 10.74 13.75 11.15C13.75 11.56 13.41 11.9 13 11.9Z" fill="#353535"/>
<path d="M14.2099 3.97998C14.4699 4.24998 14.2399 4.64998 13.8599 4.64998H6.02991C4.93991 4.64998 3.91991 4.96998 3.06991 5.51998C2.67991 5.76998 2.14991 5.49998 2.33991 5.06998C2.89991 3.75998 4.20991 2.84998 5.71991 2.84998H11.3399C12.4999 2.84998 13.5299 3.25998 14.2099 3.97998Z" fill="#353535"/>
</svg>
