<svg width="24" height="24" viewBox="0 0 24 24" fill="none" xmlns="http://www.w3.org/2000/svg">
<path d="M15 22.75H9C3.57 22.75 1.25 20.43 1.25 15V9C1.25 3.57 3.57 1.25 9 1.25H15C20.43 1.25 22.75 3.57 22.75 9V15C22.75 20.43 20.43 22.75 15 22.75ZM9 2.75C4.39 2.75 2.75 4.39 2.75 9V15C2.75 19.61 4.39 21.25 9 21.25H15C19.61 21.25 21.25 19.61 21.25 15V9C21.25 4.39 19.61 2.75 15 2.75H9Z" fill="#353535"/>
<path d="M10.0901 18.25C9.47012 18.25 8.86012 18.02 8.39012 17.55L6.45012 15.61C5.51012 14.67 5.51012 13.15 6.45012 12.21L12.2001 6.46C13.1401 5.52 14.6601 5.52 15.6001 6.46L17.5401 8.39999C18.4801 9.33999 18.4801 10.86 17.5401 11.8L11.7901 17.55C11.3201 18.01 10.7101 18.25 10.0901 18.25ZM7.52012 14.55L9.46013 16.49C9.81013 16.84 10.3901 16.84 10.7401 16.49L16.4901 10.74C16.8401 10.39 16.8401 9.81 16.4901 9.46L14.5501 7.52C14.2001 7.17 13.6201 7.17 13.2701 7.52L7.52012 13.27C7.17012 13.62 7.17012 14.19 7.52012 14.55Z" fill="#353535"/>
<path d="M13.5802 15.44C13.3902 15.44 13.2002 15.37 13.0502 15.22L8.77023 10.94C8.48023 10.65 8.48023 10.17 8.77023 9.87998C9.06023 9.58998 9.54023 9.58998 9.83023 9.87998L14.1102 14.16C14.4002 14.45 14.4002 14.93 14.1102 15.22C13.9702 15.37 13.7702 15.44 13.5802 15.44Z" fill="#353535"/>
</svg>
