<svg width="24" height="24" viewBox="0 0 24 24" fill="none" xmlns="http://www.w3.org/2000/svg">
<path d="M21 22.75H3C2.59 22.75 2.25 22.41 2.25 22C2.25 21.59 2.59 21.25 3 21.25H21C21.41 21.25 21.75 21.59 21.75 22C21.75 22.41 21.41 22.75 21 22.75Z" fill="#353535"/>
<path d="M21 2.75H3C2.59 2.75 2.25 2.41 2.25 2C2.25 1.59 2.59 1.25 3 1.25H21C21.41 1.25 21.75 1.59 21.75 2C21.75 2.41 21.41 2.75 21 2.75Z" fill="#353535"/>
<path d="M12 18.75C11.59 18.75 11.25 18.41 11.25 18V6C11.25 5.59 11.59 5.25 12 5.25C12.41 5.25 12.75 5.59 12.75 6V18C12.75 18.41 12.41 18.75 12 18.75Z" fill="#353535"/>
<path d="M14.8301 8.47002C14.6401 8.47002 14.4501 8.40002 14.3001 8.25002L12.0001 5.95002L9.70011 8.25002C9.41011 8.54002 8.93011 8.54002 8.64011 8.25002C8.35011 7.96002 8.35011 7.48002 8.64011 7.19002L11.4701 4.36002C11.7501 4.08002 12.2501 4.08002 12.5301 4.36002L15.3601 7.19002C15.6501 7.48002 15.6501 7.96002 15.3601 8.25002C15.2101 8.40002 15.0201 8.47002 14.8301 8.47002Z" fill="#353535"/>
<path d="M12.0001 19.47C11.8001 19.47 11.6101 19.39 11.4701 19.25L8.64011 16.42C8.35011 16.13 8.35011 15.65 8.64011 15.36C8.93011 15.07 9.41011 15.07 9.70011 15.36L12.0001 17.66L14.3001 15.36C14.5901 15.07 15.0701 15.07 15.3601 15.36C15.6501 15.65 15.6501 16.13 15.3601 16.42L12.5301 19.25C12.3901 19.39 12.2001 19.47 12.0001 19.47Z" fill="#353535"/>
</svg>
