<svg width="24" height="24" viewBox="0 0 24 24" fill="none" xmlns="http://www.w3.org/2000/svg">
<path d="M18.61 6.67995C18.2 6.67995 17.86 6.33995 17.86 5.92995V4.41995C17.86 3.81995 17.37 3.31995 16.76 3.31995H3.82999C3.22999 3.31995 2.72999 3.80995 2.72999 4.41995V5.92995C2.72999 6.33995 2.38999 6.67995 1.97999 6.67995C1.56999 6.67995 1.23999 6.33995 1.23999 5.92995V4.41995C1.23999 2.98995 2.40999 1.81995 3.83999 1.81995H16.76C18.19 1.81995 19.36 2.97995 19.36 4.41995V5.92995C19.36 6.33995 19.02 6.67995 18.61 6.67995Z" fill="#353535"/>
<path d="M10.3 18.8499C9.89005 18.8499 9.55005 18.5099 9.55005 18.0999V3.31995C9.55005 2.90995 9.89005 2.56995 10.3 2.56995C10.71 2.56995 11.05 2.90995 11.05 3.31995V18.0999C11.05 18.5199 10.71 18.8499 10.3 18.8499Z" fill="#353535"/>
<path d="M12.4799 18.85H6.8999C6.4899 18.85 6.1499 18.51 6.1499 18.1C6.1499 17.69 6.4899 17.35 6.8999 17.35H12.4799C12.8899 17.35 13.2299 17.69 13.2299 18.1C13.2299 18.51 12.8899 18.85 12.4799 18.85Z" fill="#353535"/>
<path d="M22.0099 13.2C21.5999 13.2 21.2599 12.86 21.2599 12.45V11.65C21.2599 11.34 20.9999 11.08 20.6899 11.08H13.6799C13.2699 11.08 12.9299 10.74 12.9299 10.33C12.9299 9.91996 13.2699 9.57996 13.6799 9.57996H20.6899C21.8299 9.57996 22.7599 10.51 22.7599 11.65V12.45C22.7599 12.87 22.4299 13.2 22.0099 13.2Z" fill="#353535"/>
<path d="M16.0801 22.18C15.6701 22.18 15.3301 21.84 15.3301 21.43V10.87C15.3301 10.46 15.6701 10.12 16.0801 10.12C16.4901 10.12 16.8301 10.46 16.8301 10.87V21.43C16.8301 21.84 16.4901 22.18 16.0801 22.18Z" fill="#353535"/>
<path d="M18.2199 22.1801H13.9399C13.5299 22.1801 13.1899 21.8401 13.1899 21.4301C13.1899 21.0201 13.5299 20.6801 13.9399 20.6801H18.2199C18.6299 20.6801 18.9699 21.0201 18.9699 21.4301C18.9699 21.8401 18.6299 22.1801 18.2199 22.1801Z" fill="#353535"/>
</svg>
