<svg width="24" height="24" viewBox="0 0 24 24" fill="none" xmlns="http://www.w3.org/2000/svg">
<path d="M15 22.75H9C3.57 22.75 1.25 20.43 1.25 15V9C1.25 3.57 3.57 1.25 9 1.25H15C20.43 1.25 22.75 3.57 22.75 9V15C22.75 20.43 20.43 22.75 15 22.75ZM9 2.75C4.39 2.75 2.75 4.39 2.75 9V15C2.75 19.61 4.39 21.25 9 21.25H15C19.61 21.25 21.25 19.61 21.25 15V9C21.25 4.39 19.61 2.75 15 2.75H9Z" fill="#353535"/>
<path d="M7.00002 9.63002C6.73002 9.63002 6.46002 9.48002 6.33002 9.22002C6.14002 8.85002 6.29002 8.40002 6.66002 8.21002C10 6.54002 13.99 6.54002 17.33 8.21002C17.7 8.40002 17.85 8.85002 17.67 9.22002C17.48 9.59002 17.04 9.74002 16.66 9.56002C13.74 8.10002 10.25 8.10002 7.33002 9.56002C7.23002 9.61002 7.11002 9.63002 7.00002 9.63002Z" fill="#353535"/>
<path d="M12 17.0401C11.59 17.0401 11.25 16.7001 11.25 16.2901V7.93005C11.25 7.52005 11.59 7.18005 12 7.18005C12.41 7.18005 12.75 7.52005 12.75 7.93005V16.3001C12.75 16.7101 12.41 17.0401 12 17.0401Z" fill="#353535"/>
</svg>
