<svg width="24" height="24" viewBox="0 0 24 24" fill="none" xmlns="http://www.w3.org/2000/svg">
<path d="M6.18001 22.75C6.08001 22.75 5.97002 22.74 5.88001 22.73L3.71001 22.43C2.67001 22.29 1.73001 21.36 1.57001 20.3L1.27001 18.11C1.17001 17.41 1.47001 16.5 1.97001 15.99L6.36001 11.6C5.65001 8.76002 6.47002 5.76001 8.56002 3.69001C11.8 0.460015 17.07 0.450015 20.32 3.69001C21.89 5.26002 22.75 7.35001 22.75 9.57001C22.75 11.79 21.89 13.88 20.32 15.45C18.22 17.53 15.23 18.35 12.41 17.63L8.01002 22.02C7.59001 22.46 6.84001 22.75 6.18001 22.75ZM14.43 2.76001C12.68 2.76001 10.94 3.42001 9.61001 4.75001C7.81001 6.54001 7.16001 9.16002 7.91001 11.6C7.99001 11.87 7.92001 12.15 7.72001 12.35L3.02001 17.05C2.85001 17.22 2.71001 17.66 2.74001 17.89L3.04001 20.08C3.10001 20.46 3.51002 20.89 3.89001 20.94L6.07001 21.24C6.31001 21.28 6.75001 21.14 6.92001 20.97L11.64 16.26C11.84 16.06 12.13 16 12.39 16.08C14.8 16.84 17.43 16.19 19.23 14.39C20.51 13.11 21.22 11.39 21.22 9.57001C21.22 7.74002 20.51 6.03001 19.23 4.75001C17.93 3.43001 16.18 2.76001 14.43 2.76001Z" fill="#353535"/>
<path d="M9.18996 20.54C8.99996 20.54 8.80996 20.47 8.65996 20.32L6.35996 18.02C6.06996 17.73 6.06996 17.25 6.35996 16.96C6.64996 16.67 7.12996 16.67 7.41996 16.96L9.71996 19.26C10.01 19.55 10.01 20.03 9.71996 20.32C9.56996 20.47 9.37996 20.54 9.18996 20.54Z" fill="#353535"/>
<path d="M14.5 11.75C13.26 11.75 12.25 10.74 12.25 9.5C12.25 8.26 13.26 7.25 14.5 7.25C15.74 7.25 16.75 8.26 16.75 9.5C16.75 10.74 15.74 11.75 14.5 11.75ZM14.5 8.75C14.09 8.75 13.75 9.09 13.75 9.5C13.75 9.91 14.09 10.25 14.5 10.25C14.91 10.25 15.25 9.91 15.25 9.5C15.25 9.09 14.91 8.75 14.5 8.75Z" fill="#353535"/>
</svg>
