<svg width="24" height="24" viewBox="0 0 24 24" fill="none" xmlns="http://www.w3.org/2000/svg">
<path d="M12.0001 19.25C10.9801 19.25 10.0401 18.79 9.42005 17.98C9.17005 17.65 9.23005 17.18 9.56005 16.93C9.89005 16.68 10.3601 16.74 10.6101 17.07C10.9401 17.51 11.4501 17.75 12.0001 17.75C12.9601 17.75 13.7501 16.96 13.7501 16C13.7501 15.61 13.6301 15.24 13.3901 14.94C13.1401 14.61 13.2001 14.14 13.5301 13.89C13.8601 13.64 14.3301 13.7 14.5801 14.03C15.0201 14.6 15.2501 15.28 15.2501 16C15.2501 17.79 13.7901 19.25 12.0001 19.25Z" fill="#353535"/>
<path d="M17 22.75H7C6.63 22.75 6.28 22.74 5.95 22.72C5.54 22.7 5.22 22.34 5.24 21.93C5.26 21.52 5.61 21.22 6.03 21.22C6.33 21.24 6.65 21.24 6.99 21.24H16.99C20.56 21.24 21.24 20.56 21.24 16.99V14.99C21.24 11.48 20.5 10.91 17.95 10.76C17.65 10.74 17.33 10.74 16.99 10.74H7C3.43 10.74 2.75 11.42 2.75 14.99V16.99C2.75 18.73 2.95 19.76 3.41 20.32C3.67 20.64 3.62 21.12 3.29 21.37C2.97 21.63 2.5 21.58 2.24 21.25C1.54 20.4 1.25 19.16 1.25 17V15C1.25 10.59 2.59 9.25 7 9.25H17C17.37 9.25 17.72 9.26 18.04 9.28C22 9.5 22.75 11.46 22.75 15V17C22.75 21.41 21.41 22.75 17 22.75Z" fill="#353535"/>
<path d="M6 10.75C5.59 10.75 5.25 10.41 5.25 10V8C5.25 5.1 5.95 1.25 12 1.25C16.07 1.25 18.18 2.58 18.64 5.44C18.71 5.85 18.43 6.23 18.02 6.3C17.61 6.37 17.23 6.09 17.16 5.68C16.91 4.16 16.12 2.75 12 2.75C7.64 2.75 6.75 4.85 6.75 8V10C6.75 10.41 6.41 10.75 6 10.75Z" fill="#353535"/>
<path d="M1.99994 22.75C1.80994 22.75 1.61994 22.68 1.46994 22.53C1.17994 22.24 1.17994 21.76 1.46994 21.47L21.4699 1.47C21.7599 1.18 22.2399 1.18 22.5299 1.47C22.8199 1.76 22.8199 2.24 22.5299 2.53L2.52994 22.53C2.37994 22.68 2.18994 22.75 1.99994 22.75Z" fill="#353535"/>
</svg>
