<svg width="24" height="24" viewBox="0 0 24 24" fill="none" xmlns="http://www.w3.org/2000/svg">
<path d="M12 22.76C10.91 22.76 9.82999 22.44 8.97999 21.81L7.38999 20.62C7.05999 20.37 6.98999 19.9 7.23999 19.57C7.48999 19.24 7.95999 19.17 8.28999 19.42L9.87999 20.61C11.03 21.47 12.98 21.47 14.13 20.61L18.43 17.4C19.19 16.83 19.85 15.5 19.85 14.56V7.12C19.85 6.71 20.19 6.37 20.6 6.37C21.01 6.37 21.35 6.71 21.35 7.12V14.55C21.35 15.97 20.46 17.74 19.32 18.59L15.02 21.8C14.17 22.44 13.09 22.76 12 22.76Z" fill="#353535"/>
<path d="M5.33002 18.9C5.17002 18.9 5.02002 18.85 4.88002 18.75L4.68002 18.6C3.54002 17.75 2.65002 15.97 2.65002 14.56V7.12C2.65002 5.58 3.78002 3.94 5.23002 3.4L10.22 1.53C11.21 1.16 12.77 1.16 13.76 1.53L18.76 3.4C18.97 3.48 19.17 3.58 19.37 3.7C19.72 3.92 19.83 4.38 19.61 4.73C19.39 5.08 18.93 5.19 18.58 4.97C18.47 4.9 18.36 4.84 18.24 4.8L13.24 2.93C12.58 2.68 11.41 2.68 10.75 2.93L5.76002 4.81C4.90002 5.13 4.15002 6.21 4.15002 7.13V14.56C4.15002 15.51 4.82002 16.84 5.57002 17.4L5.77002 17.55C6.10002 17.8 6.17002 18.27 5.92002 18.6C5.79002 18.79 5.56002 18.9 5.33002 18.9Z" fill="#353535"/>
<path d="M1.99994 22.75C1.80994 22.75 1.61994 22.68 1.46994 22.53C1.17994 22.24 1.17994 21.76 1.46994 21.47L21.4699 1.47C21.7599 1.18 22.2399 1.18 22.5299 1.47C22.8199 1.76 22.8199 2.24 22.5299 2.53L2.52994 22.53C2.37994 22.68 2.18994 22.75 1.99994 22.75Z" fill="#353535"/>
</svg>
