<svg width="24" height="24" viewBox="0 0 24 24" fill="none" xmlns="http://www.w3.org/2000/svg">
<path d="M12 22.76C10.91 22.76 9.83002 22.44 8.98002 21.81L4.68002 18.6C3.54002 17.75 2.65002 15.97 2.65002 14.56V7.12C2.65002 5.58 3.78002 3.94 5.23002 3.4L10.22 1.53C11.21 1.16 12.77 1.16 13.76 1.53L18.75 3.4C20.2 3.94 21.33 5.58 21.33 7.12V14.55C21.33 15.97 20.44 17.74 19.3 18.59L15 21.8C14.17 22.44 13.09 22.76 12 22.76ZM10.75 2.94L5.76002 4.81C4.91002 5.13 4.16002 6.21 4.16002 7.13V14.56C4.16002 15.51 4.83002 16.84 5.58002 17.4L9.88002 20.61C11.03 21.47 12.97 21.47 14.13 20.61L18.43 17.4C19.19 16.83 19.85 15.51 19.85 14.56V7.12C19.85 6.21 19.1 5.13 18.25 4.8L13.26 2.93C12.58 2.69 11.42 2.69 10.75 2.94Z" fill="#353535"/>
</svg>
