<svg width="24" height="24" viewBox="0 0 24 24" fill="none" xmlns="http://www.w3.org/2000/svg">
<path d="M13.81 16.48C13.62 16.48 13.43 16.41 13.28 16.26L9.73996 12.72C9.44996 12.43 9.44996 11.95 9.73996 11.66C10.03 11.37 10.51 11.37 10.8 11.66L14.34 15.2C14.63 15.49 14.63 15.97 14.34 16.26C14.19 16.4 14 16.48 13.81 16.48Z" fill="#353535"/>
<path d="M10.2299 16.52C10.0399 16.52 9.84992 16.45 9.69992 16.3C9.40992 16.01 9.40992 15.53 9.69992 15.24L13.2399 11.7C13.5299 11.41 14.0099 11.41 14.2999 11.7C14.5899 11.99 14.5899 12.47 14.2999 12.76L10.7599 16.3C10.6199 16.44 10.4199 16.52 10.2299 16.52Z" fill="#353535"/>
<path d="M17 22.75H7C2.59 22.75 1.25 21.41 1.25 17V7C1.25 2.59 2.59 1.25 7 1.25H8.5C10.25 1.25 10.8 1.82 11.5 2.75L13 4.75C13.33 5.19 13.38 5.25 14 5.25H17C21.41 5.25 22.75 6.59 22.75 11V17C22.75 21.41 21.41 22.75 17 22.75ZM7 2.75C3.43 2.75 2.75 3.43 2.75 7V17C2.75 20.57 3.43 21.25 7 21.25H17C20.57 21.25 21.25 20.57 21.25 17V11C21.25 7.43 20.57 6.75 17 6.75H14C12.72 6.75 12.3 6.31 11.8 5.65L10.3 3.65C9.78 2.96 9.63 2.75 8.5 2.75H7Z" fill="#353535"/>
</svg>
