<svg width="24" height="24" viewBox="0 0 24 24" fill="none" xmlns="http://www.w3.org/2000/svg">
<path d="M12 17.88C11.75 17.88 11.49 17.79 11.29 17.61L8.70995 15.35C7.73995 14.5 7.60995 13.04 8.41995 12.03C9.23995 11.01 10.7 10.82 11.75 11.61L12 11.8L12.26 11.6C13.31 10.81 14.77 11 15.59 12.02C16.4 13.03 16.27 14.49 15.3 15.34L12.72 17.6C12.51 17.79 12.25 17.88 12 17.88ZM9.68995 14.22L12 16.24L14.31 14.22C14.68 13.9 14.73 13.35 14.42 12.97C14.11 12.58 13.56 12.51 13.16 12.81L12.45 13.34C12.18 13.54 11.82 13.54 11.55 13.34L10.84 12.81C10.45 12.51 9.88995 12.58 9.57995 12.97C9.27995 13.35 9.32995 13.9 9.68995 14.22Z" fill="#353535"/>
<path d="M17 22.75H7C2.59 22.75 1.25 21.41 1.25 17V7C1.25 2.59 2.59 1.25 7 1.25H8.5C10.25 1.25 10.8 1.82 11.5 2.75L13 4.75C13.33 5.19 13.38 5.25 14 5.25H17C21.41 5.25 22.75 6.59 22.75 11V17C22.75 21.41 21.41 22.75 17 22.75ZM7 2.75C3.42 2.75 2.75 3.43 2.75 7V17C2.75 20.57 3.42 21.25 7 21.25H17C20.58 21.25 21.25 20.57 21.25 17V11C21.25 7.43 20.58 6.75 17 6.75H14C12.72 6.75 12.3 6.31 11.8 5.65L10.3 3.65C9.78 2.96 9.62 2.75 8.5 2.75H7Z" fill="#353535"/>
</svg>
