<svg width="24" height="24" viewBox="0 0 24 24" fill="none" xmlns="http://www.w3.org/2000/svg">
<path d="M18.29 22.75H5.70995C2.30995 22.75 2.12995 20.88 1.97995 19.37L1.57995 14.36C1.48995 13.39 1.76995 12.42 2.38995 11.64C3.12995 10.74 4.17995 10.25 5.30995 10.25H18.69C19.8 10.25 20.85 10.74 21.5599 11.59L21.7299 11.82C22.27 12.56 22.51 13.46 22.42 14.37L22.02 19.36C21.87 20.88 21.69 22.75 18.29 22.75ZM5.30995 11.75C4.63995 11.75 3.99995 12.05 3.57995 12.57L3.50995 12.64C3.18995 13.05 3.01995 13.63 3.07995 14.23L3.47995 19.24C3.61995 20.7 3.67995 21.25 5.70995 21.25H18.29C20.33 21.25 20.38 20.7 20.52 19.23L20.92 14.22C20.9799 13.63 20.8099 13.04 20.42 12.58L20.32 12.46C19.8699 11.99 19.3 11.75 18.68 11.75H5.30995Z" fill="#353535"/>
<path d="M20.5 12.22C20.09 12.22 19.75 11.88 19.75 11.47V9.68003C19.75 6.70003 19.23 6.18003 16.25 6.18003H13.7C12.57 6.18003 12.18 5.78003 11.75 5.21003L10.46 3.50003C10.02 2.92003 9.92 2.78003 9.02 2.78003H7.75C4.77 2.78003 4.25 3.30003 4.25 6.28003V11.43C4.25 11.84 3.91 12.18 3.5 12.18C3.09 12.18 2.75 11.84 2.75 11.43V6.28003C2.75 2.45003 3.92 1.28003 7.75 1.28003H9.03C10.57 1.28003 11.05 1.78003 11.67 2.60003L12.95 4.30003C13.22 4.66003 13.24 4.68003 13.71 4.68003H16.26C20.09 4.68003 21.26 5.85003 21.26 9.68003V11.47C21.25 11.88 20.91 12.22 20.5 12.22Z" fill="#353535"/>
<path d="M14.5699 17.75H9.42993C9.01993 17.75 8.67993 17.41 8.67993 17C8.67993 16.59 9.01993 16.25 9.42993 16.25H14.5699C14.9799 16.25 15.3199 16.59 15.3199 17C15.3199 17.41 14.9899 17.75 14.5699 17.75Z" fill="#353535"/>
</svg>
