<svg width="24" height="24" viewBox="0 0 24 24" fill="none" xmlns="http://www.w3.org/2000/svg">
<path d="M19.73 16.1001C19.73 16.0701 19.75 16.0401 19.75 16.0001V6.50005C19.75 4.98005 18.52 3.75005 17 3.75005H13.07L14.48 2.58005C14.8 2.31005 14.84 1.84005 14.58 1.52005C14.31 1.20005 13.84 1.16005 13.52 1.42005L10.52 3.92005C10.35 4.06005 10.25 4.27005 10.25 4.50005C10.25 4.73005 10.35 4.93005 10.52 5.08005L13.52 7.58005C13.66 7.70005 13.83 7.75005 14 7.75005C14.21 7.75005 14.43 7.66005 14.58 7.48005C14.85 7.16005 14.8 6.69005 14.48 6.42005L13.07 5.25005H17C17.69 5.25005 18.25 5.81005 18.25 6.50005V16.0001C18.25 16.0401 18.27 16.0701 18.27 16.1001C16.97 16.4301 16 17.6001 16 19.0001C16 20.6601 17.34 22.0001 19 22.0001C20.66 22.0001 22 20.6601 22 19.0001C22 17.6001 21.03 16.4301 19.73 16.1001Z" fill="#353535"/>
<path d="M13.48 18.92L10.48 16.42C10.16 16.15 9.69 16.2 9.42 16.52C9.15 16.84 9.2 17.31 9.52 17.58L10.93 18.75H7C6.31 18.75 5.75 18.19 5.75 17.5V8C5.75 7.96 5.73 7.93 5.73 7.9C7.03 7.57 8 6.4 8 5C8 3.34 6.66 2 5 2C3.34 2 2 3.34 2 5C2 6.4 2.97 7.57 4.27 7.9C4.27 7.93 4.25 7.96 4.25 8V17.5C4.25 19.02 5.48 20.25 7 20.25H10.93L9.52 21.42C9.2 21.69 9.16 22.16 9.42 22.48C9.57 22.66 9.78 22.75 10 22.75C10.17 22.75 10.34 22.69 10.48 22.58L13.48 20.08C13.65 19.94 13.75 19.73 13.75 19.5C13.75 19.27 13.65 19.07 13.48 18.92Z" fill="#353535"/>
</svg>
