<svg width="24" height="24" viewBox="0 0 24 24" fill="none" xmlns="http://www.w3.org/2000/svg">
<path d="M5.75 16.11V7.89C7.04 7.56 8 6.4 8 5C8 3.34 6.66 2 5 2C3.34 2 2 3.34 2 5C2 6.4 2.96 7.56 4.25 7.89V16.1C2.96 16.44 2 17.6 2 19C2 20.66 3.34 22 5 22C6.66 22 8 20.66 8 19C8 17.6 7.04 16.44 5.75 16.11Z" fill="#353535"/>
<path d="M19.75 16.1101V6.50005C19.75 4.98005 18.52 3.75005 17 3.75005H14.07L15.48 2.58005C15.8 2.31005 15.84 1.84005 15.58 1.52005C15.31 1.20005 14.84 1.16005 14.52 1.42005L11.52 3.92005C11.35 4.06005 11.25 4.27005 11.25 4.50005C11.25 4.73005 11.35 4.93005 11.52 5.08005L14.52 7.58005C14.66 7.70005 14.83 7.75005 15 7.75005C15.21 7.75005 15.43 7.66005 15.58 7.48005C15.85 7.16005 15.8 6.69005 15.48 6.42005L14.07 5.25005H17C17.69 5.25005 18.25 5.81005 18.25 6.50005V16.1101C16.96 16.4401 16 17.6001 16 19.0001C16 20.6601 17.34 22.0001 19 22.0001C20.66 22.0001 22 20.6601 22 19.0001C22 17.6001 21.04 16.4401 19.75 16.1101Z" fill="#353535"/>
</svg>
