<svg width="24" height="24" viewBox="0 0 24 24" fill="none" xmlns="http://www.w3.org/2000/svg">
<path d="M20.95 4.13C20.66 3.71 20.29 3.34 19.87 3.05C18.92 2.36 17.68 2 16.19 2H7.81C4.37 2 2.24 3.94 2.03 7.22H21.98C21.9 5.99 21.55 4.95 20.95 4.13Z" fill="#353535"/>
<path d="M2 16.19C2 17.68 2.36 18.92 3.05 19.87C3.34 20.29 3.71 20.66 4.13 20.95C5.08 21.64 6.32 22 7.81 22H16.19C19.83 22 22 19.83 22 16.19V8.71997H2V16.19ZM8.91 14.44L11.47 11.88C11.76 11.59 12.24 11.59 12.53 11.88L15.09 14.44C15.24 14.59 15.31 14.78 15.31 14.97C15.31 15.16 15.24 15.35 15.09 15.5C14.8 15.79 14.32 15.79 14.03 15.5L12 13.48L9.97 15.5C9.68 15.79 9.2 15.79 8.91 15.5C8.62 15.21 8.62 14.74 8.91 14.44Z" fill="#353535"/>
</svg>
