<svg width="24" height="24" viewBox="0 0 24 24" fill="none" xmlns="http://www.w3.org/2000/svg">
<path d="M8.96997 16.75C8.57997 16.75 8.23997 16.72 7.91997 16.67C4.11997 16.17 1.21997 12.87 1.21997 9C1.21997 4.73 4.69997 1.25 8.96997 1.25C12.84 1.25 16.14 4.14 16.64 7.97C16.69 8.27 16.72 8.61 16.72 9C16.72 13.27 13.25 16.75 8.96997 16.75ZM8.96997 2.75C5.51997 2.75 2.71997 5.55 2.71997 9C2.71997 12.12 5.04997 14.78 8.13997 15.19C8.39997 15.23 8.66997 15.25 8.96997 15.25C12.42 15.25 15.22 12.45 15.22 9C15.22 8.7 15.2 8.43 15.16 8.19C14.75 5.08 12.1 2.75 8.96997 2.75Z" fill="#353535"/>
<path d="M14.97 22.75C11.1 22.75 7.80001 19.86 7.30001 16.03C7.27001 15.79 7.35001 15.56 7.52001 15.39C7.69001 15.22 7.94001 15.15 8.17001 15.19C8.41001 15.23 8.67001 15.25 8.97001 15.25C12.42 15.25 15.22 12.45 15.22 8.99998C15.22 8.69998 15.2 8.42998 15.16 8.18998C15.12 7.95998 15.2 7.71998 15.36 7.54998C15.52 7.37998 15.75 7.28998 16 7.32998C19.83 7.82998 22.72 11.13 22.72 15C22.72 19.27 19.25 22.75 14.97 22.75ZM8.98001 16.75C9.74001 19.37 12.17 21.25 14.97 21.25C18.42 21.25 21.22 18.45 21.22 15C21.22 12.2 19.34 9.75998 16.72 9.00998C16.72 13.27 13.25 16.75 8.98001 16.75Z" fill="#353535"/>
<path d="M15.43 16.16C15.24 16.16 15.05 16.09 14.9 15.95L13.6 14.67C13.31 14.38 13.3 13.9 13.59 13.61C13.88 13.32 14.35 13.31 14.65 13.6L15.95 14.88C16.24 15.17 16.25 15.65 15.96 15.94C15.82 16.08 15.62 16.16 15.43 16.16Z" fill="#353535"/>
<path d="M16.97 12.7499C16.78 12.7499 16.59 12.6799 16.44 12.5299L15.44 11.5299C15.15 11.2399 15.15 10.7599 15.44 10.4699C15.73 10.1799 16.21 10.1799 16.5 10.4699L17.5 11.4699C17.79 11.7599 17.79 12.2399 17.5 12.5299C17.36 12.6799 17.17 12.7499 16.97 12.7499Z" fill="#353535"/>
<path d="M11.97 17.7499C11.78 17.7499 11.59 17.6799 11.44 17.5299L10.44 16.5299C10.15 16.2399 10.15 15.7599 10.44 15.4699C10.73 15.1799 11.21 15.1799 11.5 15.4699L12.5 16.4699C12.79 16.7599 12.79 17.2399 12.5 17.5299C12.36 17.6799 12.17 17.7499 11.97 17.7499Z" fill="#353535"/>
</svg>
