<svg width="24" height="24" viewBox="0 0 24 24" fill="none" xmlns="http://www.w3.org/2000/svg">
<path d="M10.43 18.3699C10.28 18.3699 10.14 18.3299 10.01 18.2399C9.79997 18.0999 9.67997 17.8699 9.67997 17.6199C9.67997 17.4699 9.66997 17.3099 9.64997 17.1499C9.55997 16.4399 9.23997 15.8199 8.69997 15.2799C8.15997 14.7399 7.48997 14.3999 6.76997 14.3099C6.64997 14.2999 6.47997 14.2899 6.31997 14.2999C6.05997 14.3199 5.81997 14.2099 5.66997 13.9999C5.51997 13.7999 5.47997 13.5299 5.55997 13.2899C5.70997 12.8799 5.92997 12.5099 6.18997 12.2099L7.72997 10.2699C10.38 6.95992 15.75 2.97992 19.68 1.39992C20.51 1.07992 21.4 1.26992 22.01 1.86992C22.64 2.49992 22.83 3.39992 22.5 4.21992C20.92 8.15992 16.95 13.5199 13.64 16.1699L11.67 17.7499C11.3 18.0199 11 18.1899 10.7 18.3099C10.62 18.3499 10.52 18.3699 10.43 18.3699ZM7.53997 12.9399C8.37997 13.1599 9.12997 13.5999 9.75997 14.2299C10.39 14.8499 10.81 15.5699 11.02 16.3699L12.71 15.0099C15.85 12.4999 19.62 7.40992 21.11 3.66992C21.26 3.29992 21.05 3.03992 20.95 2.94992C20.88 2.87992 20.62 2.65992 20.22 2.80992C16.5 4.30992 11.41 8.07992 8.88997 11.2199L7.53997 12.9399Z" fill="#353535"/>
<path d="M4.07999 22.7501C3.32999 22.7501 2.60999 22.4501 2.06999 21.9101C1.44999 21.2901 1.14999 20.4301 1.24999 19.5501L1.51999 17.0901C1.77999 14.6501 3.77999 12.8401 6.25999 12.7901C6.44999 12.7801 6.69999 12.7901 6.92999 12.8101C8.01999 12.9501 8.98999 13.4401 9.76999 14.2201C10.54 14.9901 11 15.9101 11.14 16.9401C11.17 17.1601 11.19 17.4001 11.19 17.6101C11.19 18.9301 10.68 20.1601 9.75999 21.0901C8.98999 21.8501 7.99999 22.3201 6.87999 22.4601L4.40999 22.7301C4.29999 22.7401 4.18999 22.7501 4.07999 22.7501ZM6.44999 14.3001C6.40999 14.3001 6.35999 14.3001 6.31999 14.3001C4.80999 14.3301 3.20999 15.3601 3.00999 17.2601L2.73999 19.7201C2.68999 20.1401 2.83999 20.5501 3.12999 20.8501C3.41999 21.1401 3.82999 21.2901 4.23999 21.2401L6.69999 20.9701C7.46999 20.8701 8.15999 20.5501 8.67999 20.0301C9.31999 19.3901 9.67999 18.5301 9.67999 17.6101C9.67999 17.4601 9.66999 17.3001 9.64999 17.1401C9.55999 16.4301 9.23999 15.8101 8.69999 15.2701C8.15999 14.7301 7.48999 14.3901 6.76999 14.3001C6.68999 14.3001 6.56999 14.3001 6.44999 14.3001Z" fill="#353535"/>
<path d="M14.24 15.22C13.83 15.22 13.49 14.88 13.49 14.47C13.49 12.27 11.7 10.49 9.51001 10.49C9.10001 10.49 8.76001 10.15 8.76001 9.73999C8.76001 9.32999 9.09001 8.98999 9.50001 8.98999C12.52 8.98999 14.98 11.45 14.98 14.47C14.99 14.89 14.65 15.22 14.24 15.22Z" fill="#353535"/>
</svg>
