<svg width="24" height="24" viewBox="0 0 24 24" fill="none" xmlns="http://www.w3.org/2000/svg">
<path d="M10.43 18.3699C10.28 18.3699 10.14 18.3299 10.01 18.2399C9.8 18.0999 9.68 17.8699 9.68 17.6199C9.68 17.4699 9.67 17.3099 9.65 17.1499C9.56 16.4399 9.24 15.8199 8.7 15.2799C8.16 14.7399 7.49 14.3999 6.77 14.3099C6.65 14.2999 6.48 14.2899 6.32 14.2999C6.06 14.3199 5.82 14.2099 5.67 13.9999C5.52 13.7999 5.48 13.5299 5.56 13.2899C5.71 12.8799 5.93 12.5099 6.19 12.2099L7.73 10.2699C10.38 6.95992 15.75 2.97992 19.68 1.39992C20.52 1.07992 21.4 1.26992 22.01 1.86992C22.64 2.49992 22.83 3.39992 22.5 4.21992C20.92 8.15992 16.95 13.5199 13.64 16.1699L11.67 17.7499C11.3 18.0199 11 18.1899 10.7 18.3099C10.62 18.3499 10.52 18.3699 10.43 18.3699ZM7.54 12.9399C8.38 13.1599 9.13 13.5999 9.76 14.2299C10.39 14.8499 10.81 15.5699 11.02 16.3699L12.71 15.0099C15.85 12.4999 19.62 7.40992 21.11 3.66992C21.26 3.29992 21.05 3.03992 20.95 2.94992C20.88 2.87992 20.62 2.65992 20.22 2.80992C16.5 4.30992 11.41 8.07992 8.89 11.2199L7.54 12.9399Z" fill="#353535"/>
<path d="M4.07999 22.7501C3.32999 22.7501 2.60999 22.4501 2.06999 21.9101C1.44999 21.2901 1.14999 20.4301 1.24999 19.5501L1.51999 17.0901C1.77999 14.6501 3.77999 12.8401 6.25999 12.7901C6.44999 12.7801 6.69999 12.7901 6.92999 12.8101C8.01999 12.9501 8.98999 13.4401 9.76999 14.2201C10.54 14.9901 11 15.9101 11.14 16.9401C11.17 17.1601 11.19 17.4001 11.19 17.6101C11.19 18.9301 10.68 20.1601 9.75999 21.0901C8.98999 21.8501 7.99999 22.3201 6.87999 22.4601L4.40999 22.7301C4.29999 22.7401 4.18999 22.7501 4.07999 22.7501ZM6.44999 14.3001C6.40999 14.3001 6.35999 14.3001 6.31999 14.3001C4.80999 14.3301 3.20999 15.3601 3.00999 17.2601L2.73999 19.7201C2.68999 20.1401 2.83999 20.5501 3.12999 20.8501C3.41999 21.1401 3.82999 21.2901 4.23999 21.2401L6.69999 20.9701C7.46999 20.8701 8.15999 20.5501 8.67999 20.0301C9.31999 19.3901 9.67999 18.5301 9.67999 17.6101C9.67999 17.4601 9.66999 17.3001 9.64999 17.1401C9.55999 16.4301 9.23999 15.8101 8.69999 15.2701C8.15999 14.7301 7.48999 14.3901 6.76999 14.3001C6.68999 14.3001 6.56999 14.3001 6.44999 14.3001Z" fill="#353535"/>
<path d="M14.24 15.22C13.83 15.22 13.49 14.88 13.49 14.47C13.49 12.27 11.7 10.49 9.51001 10.49C9.10001 10.49 8.76001 10.15 8.76001 9.73999C8.76001 9.32999 9.09001 8.98999 9.50001 8.98999C12.52 8.98999 14.98 11.45 14.98 14.47C14.99 14.89 14.65 15.22 14.24 15.22Z" fill="#353535"/>
<path d="M15.68 22.7299C14.75 22.7299 13.82 22.2899 12.93 21.3999C12.64 21.1099 12.64 20.6299 12.93 20.3399C13.22 20.0499 13.7 20.0499 13.99 20.3399C15.17 21.5199 16.18 21.5199 17.36 20.3399L20.32 17.3799C21.51 16.1899 21.51 15.1799 20.32 13.9999L19.58 13.2699C19.29 12.9799 19.28 12.4999 19.57 12.2099C19.86 11.9099 20.34 11.9099 20.63 12.1999L21.37 12.9299C23.15 14.7099 23.15 16.6599 21.37 18.4399L18.41 21.3999C17.54 22.2799 16.61 22.7299 15.68 22.7299Z" fill="#353535"/>
<path d="M3.11001 11.26C2.92001 11.26 2.72001 11.19 2.58001 11.04C0.82001 9.27001 0.82001 7.31001 2.58001 5.54001L5.54001 2.58001C7.30001 0.82001 9.28001 0.82001 11.04 2.58001L11.78 3.32001C12.07 3.61001 12.07 4.09001 11.78 4.38001C11.49 4.67001 11.01 4.67001 10.72 4.38001L9.97001 3.64001C8.79001 2.46001 7.77001 2.46001 6.60001 3.64001L3.64001 6.60001C2.46001 7.79001 2.46001 8.80001 3.64001 9.99001C3.93001 10.28 3.93001 10.76 3.64001 11.05C3.49001 11.19 3.30001 11.26 3.11001 11.26Z" fill="#353535"/>
<path d="M7.54999 8.30004C7.35999 8.30004 7.16999 8.23004 7.01999 8.08004C6.72999 7.79004 6.72999 7.31004 7.01999 7.02004L10.72 3.32004C11.01 3.03004 11.49 3.03004 11.78 3.32004C12.07 3.61004 12.07 4.09004 11.78 4.38004L8.07999 8.08004C7.92999 8.23004 7.73999 8.30004 7.54999 8.30004Z" fill="#353535"/>
<path d="M17.16 16.4299C16.97 16.4299 16.78 16.3599 16.63 16.2099C16.34 15.9199 16.34 15.4399 16.63 15.1499L19.59 12.1899C19.88 11.8999 20.36 11.8999 20.65 12.1899C20.94 12.4799 20.94 12.9599 20.65 13.2499L17.69 16.2099C17.55 16.3599 17.36 16.4299 17.16 16.4299Z" fill="#353535"/>
</svg>
