<svg width="24" height="24" viewBox="0 0 24 24" fill="none" xmlns="http://www.w3.org/2000/svg">
<path d="M12 22.72C6.09 22.72 1.28 17.91 1.28 12C1.28 6.09003 6.09 1.28003 12 1.28003C14.65 1.28003 17.19 2.26003 19.15 4.03003C21.42 6.04003 22.72 8.95003 22.72 12C22.72 15.05 21.42 17.96 19.14 19.98C17.19 21.75 14.65 22.72 12 22.72ZM12 2.78003C6.91 2.78003 2.78 6.92003 2.78 12C2.78 17.08 6.92 21.22 12 21.22C14.28 21.22 16.46 20.38 18.15 18.85C20.11 17.11 21.23 14.62 21.23 11.99C21.23 9.36003 20.11 6.87003 18.16 5.14003C16.46 3.62003 14.28 2.78003 12 2.78003Z" fill="#353535"/>
<path d="M10.44 18.9099C10.07 18.9099 9.68 18.8299 9.3 18.6799C6.56 17.5799 4.78 14.9499 4.78 11.9999C4.78 9.04989 6.55 6.41989 9.3 5.31989C10.17 4.96989 11.05 5.01989 11.71 5.45989C12.35 5.88989 12.71 6.64989 12.73 7.59989V16.3899V16.3999C12.72 17.3499 12.36 18.1199 11.71 18.5399C11.34 18.7899 10.9 18.9099 10.44 18.9099ZM10.44 6.58989C10.26 6.58989 10.06 6.62989 9.86 6.70989C7.68 7.57989 6.28 9.65989 6.28 11.9999C6.28 14.3399 7.68 16.4199 9.86 17.2899C10.26 17.4499 10.64 17.4499 10.88 17.2999C11.16 17.1099 11.22 16.6999 11.23 16.3899V7.60989C11.23 7.30989 11.16 6.88989 10.88 6.69989C10.76 6.62989 10.61 6.58989 10.44 6.58989Z" fill="#353535"/>
</svg>
