<svg width="24" height="24" viewBox="0 0 24 24" fill="none" xmlns="http://www.w3.org/2000/svg">
<path d="M10.06 21.58C9.06001 21.58 8.05001 20.9 6.70001 19.56L3.24001 16.1C0.300006 13.16 0.600006 12.03 3.24001 9.37995L8.81001 3.79995C10.78 1.82995 12.41 0.679952 15.53 3.79995L18.99 7.25995C21.8 10.07 21.12 11.85 18.99 13.98L13.42 19.55C12.07 20.9 11.07 21.58 10.06 21.58ZM4.30001 15.03L7.76001 18.49C9.88001 20.61 10.23 20.62 12.36 18.49L17.93 12.92C19.6 11.25 20.03 10.42 17.93 8.31995L14.47 4.85995C12.28 2.66995 11.62 3.11995 9.87001 4.85995L4.30001 10.43C2.18001 12.56 2.00001 12.73 4.30001 15.03Z" fill="#353535"/>
<path d="M20.14 21.4599C19 21.4599 18.1 21.0199 17.66 20.2499C17.22 19.4799 17.31 18.4799 17.9 17.4999L18.56 16.4099C18.95 15.7699 19.52 15.3999 20.14 15.3999C20.76 15.3999 21.34 15.7699 21.72 16.4099L22.38 17.4999C22.97 18.4799 23.05 19.4799 22.62 20.2499C22.19 21.0199 21.27 21.4599 20.14 21.4599ZM20.14 16.8999C20.09 16.8999 19.97 16.9799 19.84 17.1799L19.18 18.2699C18.88 18.7699 18.8 19.2199 18.96 19.5099C19.12 19.7999 19.55 19.9599 20.13 19.9599C20.71 19.9599 21.14 19.7999 21.3 19.5099C21.46 19.2199 21.38 18.7799 21.08 18.2699L20.42 17.1799C20.31 16.9699 20.19 16.8999 20.14 16.8999Z" fill="#353535"/>
<path d="M2.00001 12.9901C1.67001 12.9901 1.37001 12.7701 1.28001 12.4401C1.17001 12.0401 1.41001 11.6301 1.81001 11.5201C7.48001 9.98011 13.49 9.93011 19.19 11.3901L19.69 11.5201C20.09 11.6201 20.33 12.0301 20.23 12.4301C20.13 12.8301 19.72 13.0701 19.32 12.9701L18.82 12.8401C13.37 11.4401 7.63001 11.4901 2.21001 12.9701C2.13001 12.9901 2.06001 12.9901 2.00001 12.9901Z" fill="#353535"/>
</svg>
