<svg width="24" height="24" viewBox="0 0 24 24" fill="none" xmlns="http://www.w3.org/2000/svg">
<path d="M14.15 22.7501H9.87C8.85 22.7501 7.91 22.3201 7.31 21.5601C6.78 20.9001 6.59 20.0601 6.77 19.2601L7.46 16.1801C7.54 15.8401 7.84 15.6001 8.19 15.6001H15.83C16.18 15.6001 16.48 15.8401 16.56 16.1801L17.26 19.2601C17.45 20.1201 17.27 20.9501 16.75 21.6001C16.17 22.3301 15.22 22.7501 14.15 22.7501ZM8.79 17.1001L8.23 19.6001C8.15 19.9601 8.24 20.3201 8.48 20.6301C8.79 21.0201 9.31 21.2501 9.87 21.2501H14.16C14.77 21.2501 15.29 21.0401 15.58 20.6701C15.82 20.3801 15.89 20.0001 15.8 19.6001L15.24 17.1001H8.79Z" fill="#353535"/>
<path d="M8.19 17.1C8.01 17.1 7.83 17.04 7.69 16.91L4.75 14.3C2.82 12.71 2.66 11.17 4.25 9.15L9.44 2.57C10.11 1.72 11.03 1.25 12.01 1.25C13 1.25 13.91 1.72 14.58 2.57L19.77 9.15C21.34 11.14 21.2 12.59 19.27 14.3L16.33 16.91C16.02 17.18 15.54 17.16 15.27 16.85C15 16.54 15.02 16.07 15.33 15.79L18.27 13.18C19.59 12.01 19.65 11.43 18.59 10.08L13.41 3.5C12.65 2.53 11.38 2.53 10.62 3.5L5.43 10.08C4.34 11.46 4.39 12.07 5.72 13.16L8.68 15.79C8.99 16.06 9.02 16.54 8.74 16.85C8.6 17.01 8.4 17.1 8.19 17.1Z" fill="#353535"/>
<path d="M12.01 7.71992C11.6 7.71992 11.26 7.37992 11.26 6.96992V2.66992C11.26 2.25992 11.6 1.91992 12.01 1.91992C12.42 1.91992 12.76 2.25992 12.76 2.66992V6.96992C12.76 7.37992 12.42 7.71992 12.01 7.71992Z" fill="#353535"/>
<path d="M14.15 22.7501H9.87C8.85 22.7501 7.91 22.3201 7.31 21.5601C6.78 20.9001 6.59 20.0601 6.77 19.2601L7.46 16.1801C7.54 15.8401 7.84 15.6001 8.19 15.6001H15.83C16.18 15.6001 16.48 15.8401 16.56 16.1801L17.26 19.2601C17.45 20.1201 17.27 20.9501 16.75 21.6001C16.17 22.3301 15.22 22.7501 14.15 22.7501ZM8.79 17.1001L8.23 19.6001C8.15 19.9601 8.24 20.3201 8.48 20.6301C8.79 21.0201 9.31 21.2501 9.87 21.2501H14.16C14.77 21.2501 15.29 21.0401 15.58 20.6701C15.82 20.3801 15.89 20.0001 15.8 19.6001L15.24 17.1001H8.79Z" fill="#353535"/>
<path d="M8.19 17.1C8.01 17.1 7.83 17.04 7.69 16.91L4.75 14.3C2.82 12.71 2.66 11.17 4.25 9.15L9.44 2.57C10.11 1.72 11.03 1.25 12.01 1.25C13 1.25 13.91 1.72 14.58 2.57L19.77 9.15C21.34 11.14 21.2 12.59 19.27 14.3L16.33 16.91C16.02 17.18 15.54 17.16 15.27 16.85C15 16.54 15.02 16.07 15.33 15.79L18.27 13.18C19.59 12.01 19.65 11.43 18.59 10.08L13.41 3.5C12.65 2.53 11.38 2.53 10.62 3.5L5.43 10.08C4.34 11.46 4.39 12.07 5.72 13.16L8.68 15.79C8.99 16.06 9.02 16.54 8.74 16.85C8.6 17.01 8.4 17.1 8.19 17.1Z" fill="#353535"/>
<path d="M12.01 7.71992C11.6 7.71992 11.26 7.37992 11.26 6.96992V2.66992C11.26 2.25992 11.6 1.91992 12.01 1.91992C12.42 1.91992 12.76 2.25992 12.76 2.66992V6.96992C12.76 7.37992 12.42 7.71992 12.01 7.71992Z" fill="#353535"/>
</svg>
