<svg width="24" height="24" viewBox="0 0 24 24" fill="none" xmlns="http://www.w3.org/2000/svg">
<path d="M13.2698 23.25H10.7498C10.0498 23.25 9.41978 22.9499 8.99978 22.4399C8.62978 21.9799 8.48978 21.39 8.61978 20.83L9.02978 19.02C9.10978 18.68 9.40978 18.4399 9.75978 18.4399H14.2598C14.6098 18.4399 14.9098 18.68 14.9898 19.02L15.3998 20.83C15.5298 21.43 15.4098 22.01 15.0398 22.47C14.6298 22.96 13.9898 23.25 13.2698 23.25ZM10.3598 19.92L10.0798 21.15C10.0498 21.3 10.1098 21.42 10.1698 21.49C10.2998 21.65 10.5098 21.74 10.7498 21.74H13.2698C13.5298 21.74 13.7498 21.66 13.8698 21.51C13.9498 21.41 13.9698 21.29 13.9398 21.14L13.6598 19.91H10.3598V19.92Z" fill="#353535"/>
<path d="M14.26 19.92C14.05 19.92 13.85 19.84 13.7 19.67C13.43 19.36 13.45 18.89 13.76 18.61L15.49 17.0699C16.18 16.4599 16.15 16.31 15.64 15.67L12.59 11.8C12.42 11.59 12.22 11.47 12.01 11.47C11.8 11.47 11.6 11.59 11.43 11.8L8.38002 15.67C7.84002 16.36 7.85002 16.51 8.51002 17.05L10.26 18.61C10.57 18.88 10.6 19.36 10.32 19.67C10.04 19.98 9.57002 20.01 9.26002 19.73L7.53002 18.1899C6.27002 17.1599 6.16002 16.06 7.20002 14.74L10.25 10.87C10.7 10.3 11.34 9.96997 12.01 9.96997C12.68 9.96997 13.32 10.3 13.77 10.87L16.82 14.74C17.85 16.04 17.75 17.0799 16.49 18.1899L14.76 19.73C14.61 19.86 14.43 19.92 14.26 19.92Z" fill="#353535"/>
<path d="M12.0098 14.4001C11.5998 14.4001 11.2598 14.0601 11.2598 13.6501V11.1201C11.2598 10.7101 11.5998 10.3701 12.0098 10.3701C12.4198 10.3701 12.7598 10.7101 12.7598 11.1201V13.6501C12.7598 14.0701 12.4198 14.4001 12.0098 14.4001Z" fill="#353535"/>
<path d="M12 6.29003C11.5 6.29003 11 6.10002 10.62 5.72002L9.84002 4.94006C9.08002 4.18006 9.08002 2.94005 9.84002 2.18005L10.62 1.40008C11.38 0.640078 12.62 0.640078 13.38 1.40008L14.16 2.18005C14.92 2.94005 14.92 4.18006 14.16 4.94006L13.38 5.72002C13 6.10002 12.5 6.29003 12 6.29003ZM12 2.33007C11.88 2.33007 11.77 2.37008 11.68 2.46008L10.9 3.24004C10.82 3.32004 10.77 3.44005 10.77 3.56005C10.77 3.68005 10.82 3.79006 10.9 3.88006L11.68 4.66003C11.85 4.83003 12.15 4.83003 12.32 4.66003L13.1 3.88006C13.18 3.80006 13.23 3.68005 13.23 3.56005C13.23 3.44005 13.18 3.33004 13.1 3.24004L12.32 2.46008C12.23 2.38008 12.12 2.33007 12 2.33007Z" fill="#353535"/>
<path d="M20.55 14.0601H19.45C18.37 14.0601 17.5 13.18 17.5 12.11V11.0101C17.5 9.93007 18.38 9.06006 19.45 9.06006H20.55C21.63 9.06006 22.5 9.94007 22.5 11.0101V12.11C22.5 13.19 21.62 14.0601 20.55 14.0601ZM19.45 10.5601C19.2 10.5601 19 10.7601 19 11.0101V12.11C19 12.36 19.2 12.5601 19.45 12.5601H20.55C20.8 12.5601 21 12.36 21 12.11V11.0101C21 10.7601 20.8 10.5601 20.55 10.5601H19.45Z" fill="#353535"/>
<path d="M4.55 14.0601H3.45C2.37 14.0601 1.5 13.18 1.5 12.11V11.0101C1.5 9.93007 2.38 9.06006 3.45 9.06006H4.55C5.63 9.06006 6.5 9.94007 6.5 11.0101V12.11C6.5 13.19 5.62 14.0601 4.55 14.0601ZM3.45 10.5601C3.2 10.5601 3 10.7601 3 11.0101V12.11C3 12.36 3.2 12.5601 3.45 12.5601H4.55C4.8 12.5601 5 12.36 5 12.11V11.0101C5 10.7601 4.8 10.5601 4.55 10.5601H3.45Z" fill="#353535"/>
<path d="M18.5402 10.8499C18.3502 10.8499 18.1602 10.78 18.0102 10.63L12.7102 5.32999C12.4202 5.03999 12.4202 4.55999 12.7102 4.26999C13.0002 3.97999 13.4802 3.97999 13.7702 4.26999L19.0702 9.56998C19.3602 9.85998 19.3602 10.34 19.0702 10.63C18.9202 10.78 18.7302 10.8499 18.5402 10.8499Z" fill="#353535"/>
<path d="M5.4599 10.8499C5.2699 10.8499 5.0799 10.78 4.9299 10.63C4.6399 10.34 4.6399 9.85998 4.9299 9.56998L10.2299 4.26999C10.5199 3.97999 10.9999 3.97999 11.2899 4.26999C11.5799 4.55999 11.5799 5.03999 11.2899 5.32999L5.9899 10.63C5.8399 10.78 5.6499 10.8499 5.4599 10.8499Z" fill="#353535"/>
</svg>
