<svg width="24" height="24" viewBox="0 0 24 24" fill="none" xmlns="http://www.w3.org/2000/svg">
<path d="M11.72 22.75H7.22C3.07 22.75 1.22 20.9 1.22 16.75V12.25C1.22 8.1 3.07 6.25 7.22 6.25H11.72C15.87 6.25 17.72 8.1 17.72 12.25V16.75C17.72 20.9 15.87 22.75 11.72 22.75ZM7.22 7.75C3.9 7.75 2.72 8.93 2.72 12.25V16.75C2.72 20.07 3.9 21.25 7.22 21.25H11.72C15.04 21.25 16.22 20.07 16.22 16.75V12.25C16.22 8.93 15.04 7.75 11.72 7.75H7.22Z" fill="#353535"/>
<path d="M16.97 13.72C16.78 13.72 16.6 13.65 16.46 13.52C16.3 13.38 16.22 13.18 16.22 12.97V12.25C16.22 8.93001 15.04 7.75001 11.72 7.75001H11C10.79 7.75001 10.59 7.66001 10.45 7.51001C10.31 7.35001 10.24 7.15001 10.26 6.94001C10.55 3.70001 13.22 1.26001 16.48 1.26001C19.6 1.26001 22.26 3.59001 22.66 6.68001C22.7 6.92001 22.73 7.21001 22.73 7.51001C22.73 10.77 20.29 13.44 17.05 13.73C17.02 13.72 17 13.72 16.97 13.72ZM11.89 6.25001C15.86 6.30001 17.67 8.10001 17.72 12.08C19.76 11.54 21.22 9.69001 21.22 7.50001C21.22 7.29001 21.2 7.09001 21.17 6.90001C20.86 4.52001 18.84 2.75001 16.47 2.75001C14.28 2.75001 12.44 4.21001 11.89 6.25001Z" fill="#353535"/>
</svg>
