<svg width="24" height="24" viewBox="0 0 24 24" fill="none" xmlns="http://www.w3.org/2000/svg">
<path d="M22 9.75C21.59 9.75 21.25 9.41 21.25 9V7C21.25 4.42 19.58 2.75 17 2.75H7C4.42 2.75 2.75 4.42 2.75 7V9C2.75 9.41 2.41 9.75 2 9.75C1.59 9.75 1.25 9.41 1.25 9V7C1.25 3.56 3.56 1.25 7 1.25H17C20.44 1.25 22.75 3.56 22.75 7V9C22.75 9.41 22.41 9.75 22 9.75Z" fill="#353535"/>
<path d="M17 22.75H7C3.56 22.75 1.25 20.44 1.25 17V15C1.25 14.59 1.59 14.25 2 14.25C2.41 14.25 2.75 14.59 2.75 15V17C2.75 19.58 4.42 21.25 7 21.25H17C19.58 21.25 21.25 19.58 21.25 17V15C21.25 14.59 21.59 14.25 22 14.25C22.41 14.25 22.75 14.59 22.75 15V17C22.75 20.44 20.44 22.75 17 22.75Z" fill="#353535"/>
<path d="M16.4 8.20996L12.64 6.17996C12.24 5.96996 11.77 5.96996 11.37 6.17996L7.60003 8.20996C7.33003 8.35996 7.16003 8.64996 7.16003 8.96996C7.16003 9.29996 7.33003 9.58996 7.60003 9.73996L11.36 11.77C11.56 11.88 11.78 11.93 12 11.93C12.22 11.93 12.44 11.88 12.64 11.77L16.4 9.73996C16.67 9.58996 16.84 9.29996 16.84 8.96996C16.84 8.64996 16.67 8.35996 16.4 8.20996Z" fill="#353535"/>
<path d="M10.74 12.4699L7.24 10.7199C6.97 10.5899 6.66 10.5999 6.4 10.7599C6.15 10.9199 6 11.1899 6 11.4899V14.7999C6 15.3699 6.32 15.8899 6.83 16.1399L10.33 17.8899C10.45 17.9499 10.58 17.9799 10.72 17.9799C10.88 17.9799 11.03 17.9399 11.17 17.8499C11.43 17.6899 11.58 17.4199 11.58 17.1199V13.8099C11.57 13.2399 11.26 12.7299 10.74 12.4699Z" fill="#353535"/>
<path d="M17.59 10.7599C17.33 10.5999 17.02 10.5899 16.75 10.7199L13.25 12.4699C12.74 12.7299 12.42 13.2399 12.42 13.8099V17.1199C12.42 17.4199 12.57 17.6899 12.83 17.8499C12.97 17.9399 13.12 17.9799 13.28 17.9799C13.41 17.9799 13.54 17.9499 13.67 17.8899L17.17 16.1399C17.68 15.8799 18 15.3699 18 14.7999V11.4899C18 11.1899 17.85 10.9199 17.59 10.7599Z" fill="#353535"/>
</svg>
