<svg width="24" height="24" viewBox="0 0 24 24" fill="none" xmlns="http://www.w3.org/2000/svg">
<path d="M17.6 5.31003L11.95 2.27003C11.35 1.95003 10.64 1.95003 10.04 2.27003L4.39998 5.31003C3.98998 5.54003 3.72998 5.98003 3.72998 6.46003C3.72998 6.95003 3.97998 7.39003 4.39998 7.61003L10.05 10.65C10.35 10.81 10.68 10.89 11 10.89C11.32 10.89 11.66 10.81 11.95 10.65L17.6 7.61003C18.01 7.39003 18.27 6.95003 18.27 6.46003C18.27 5.98003 18.01 5.54003 17.6 5.31003Z" fill="#353535"/>
<path d="M9.12 11.7101L3.87 9.09009C3.46 8.88009 3 8.91009 2.61 9.14009C2.23 9.38009 2 9.79009 2 10.2401V15.2001C2 16.0601 2.48 16.8301 3.25 17.2201L8.5 19.8401C8.68 19.9301 8.88 19.9801 9.08 19.9801C9.31 19.9801 9.55 19.9101 9.76 19.7901C10.14 19.5501 10.37 19.1401 10.37 18.6901V13.7301C10.36 12.8701 9.88 12.1001 9.12 11.7101Z" fill="#353535"/>
<path d="M20 10.2401V12.7001C19.52 12.5601 19.01 12.5001 18.5 12.5001C17.14 12.5001 15.81 12.9701 14.76 13.8101C13.32 14.9401 12.5 16.6501 12.5 18.5001C12.5 18.9901 12.56 19.4801 12.69 19.9501C12.54 19.9301 12.39 19.8701 12.25 19.7801C11.87 19.5501 11.64 19.1401 11.64 18.6901V13.7301C11.64 12.8701 12.12 12.1001 12.88 11.7101L18.13 9.09009C18.54 8.88009 19 8.91009 19.39 9.14009C19.77 9.38009 20 9.79009 20 10.2401Z" fill="#353535"/>
<path d="M21.98 15.65C21.16 14.64 19.91 14 18.5 14C17.44 14 16.46 14.37 15.69 14.99C14.65 15.81 14 17.08 14 18.5C14 19.91 14.64 21.16 15.65 21.98C16.42 22.62 17.42 23 18.5 23C19.64 23 20.67 22.57 21.47 21.88C22.4 21.05 23 19.85 23 18.5C23 17.42 22.62 16.42 21.98 15.65ZM19.53 18.78C19.53 19.04 19.39 19.29 19.17 19.42L17.76 20.26C17.64 20.33 17.51 20.37 17.37 20.37C17.12 20.37 16.87 20.24 16.73 20.01C16.52 19.65 16.63 19.19 16.99 18.98L18.03 18.36V17.1C18.03 16.69 18.37 16.35 18.78 16.35C19.19 16.35 19.53 16.69 19.53 17.1V18.78Z" fill="#353535"/>
</svg>
