<svg width="24" height="24" viewBox="0 0 24 24" fill="none" xmlns="http://www.w3.org/2000/svg">
<path d="M17.6 5.31003L11.95 2.27003C11.35 1.95003 10.64 1.95003 10.04 2.27003L4.39998 5.31003C3.98998 5.54003 3.72998 5.98003 3.72998 6.46003C3.72998 6.95003 3.97998 7.39003 4.39998 7.61003L10.05 10.65C10.35 10.81 10.68 10.89 11 10.89C11.32 10.89 11.66 10.81 11.95 10.65L17.6 7.61003C18.01 7.39003 18.27 6.95003 18.27 6.46003C18.27 5.98003 18.01 5.54003 17.6 5.31003Z" fill="#353535"/>
<path d="M9.12 11.7101L3.87 9.09009C3.46 8.88009 3 8.91009 2.61 9.14009C2.23 9.38009 2 9.79009 2 10.2401V15.2001C2 16.0601 2.48 16.8301 3.25 17.2201L8.5 19.8401C8.68 19.9301 8.88 19.9801 9.08 19.9801C9.31 19.9801 9.55 19.9101 9.76 19.7901C10.14 19.5501 10.37 19.1401 10.37 18.6901V13.7301C10.36 12.8701 9.88 12.1001 9.12 11.7101Z" fill="#353535"/>
<path d="M20 10.2401V12.7001C19.52 12.5601 19.01 12.5001 18.5 12.5001C17.14 12.5001 15.81 12.9701 14.76 13.8101C13.32 14.9401 12.5 16.6501 12.5 18.5001C12.5 18.9901 12.56 19.4801 12.69 19.9501C12.54 19.9301 12.39 19.8701 12.25 19.7801C11.87 19.5501 11.64 19.1401 11.64 18.6901V13.7301C11.64 12.8701 12.12 12.1001 12.88 11.7101L18.13 9.09009C18.54 8.88009 19 8.91009 19.39 9.14009C19.77 9.38009 20 9.79009 20 10.2401Z" fill="#353535"/>
<path d="M21.68 15.3199C20.79 14.4299 19.61 13.9799 18.44 13.9999C17.31 14.0099 16.18 14.4599 15.32 15.3199C14.72 15.9099 14.33 16.6499 14.14 17.4199C14.03 17.8399 13.99 18.2699 14.02 18.6999V18.7499C14.02 18.8199 14.03 18.8799 14.04 18.9599C14.04 18.9599 14.04 18.9599 14.05 18.9699V18.9999C14.14 19.9799 14.56 20.9299 15.32 21.6799C16.48 22.8399 18.11 23.2299 19.58 22.8599C20.02 22.7499 20.45 22.5699 20.85 22.3299C21.15 22.1599 21.43 21.9399 21.68 21.6799C22.43 20.9299 22.86 19.9799 22.95 18.9899C22.96 18.9899 22.96 18.9699 22.96 18.9599C22.98 18.8899 22.98 18.8099 22.98 18.7399C22.98 18.7299 22.99 18.7099 22.99 18.6899C23.05 17.4799 22.61 16.2399 21.68 15.3199ZM20.23 20.2099C19.94 20.4999 19.47 20.4999 19.17 20.2099L18.51 19.5499L17.83 20.2299C17.53 20.5299 17.06 20.5299 16.77 20.2299C16.47 19.9399 16.47 19.4699 16.77 19.1699L17.45 18.4899L16.79 17.8299C16.5 17.5299 16.5 17.0599 16.79 16.7699C17.09 16.4699 17.56 16.4699 17.86 16.7699L18.51 17.4299L19.14 16.7899C19.44 16.4999 19.91 16.4999 20.21 16.7899C20.5 17.0899 20.5 17.5599 20.21 17.8599L19.57 18.4899L20.23 19.1399C20.53 19.4399 20.53 19.9099 20.23 20.2099Z" fill="#353535"/>
</svg>
