<svg width="24" height="24" viewBox="0 0 24 24" fill="none" xmlns="http://www.w3.org/2000/svg">
<path d="M17.54 8.81001C19.1747 8.81001 20.5 7.48478 20.5 5.85001C20.5 4.21525 19.1747 2.89001 17.54 2.89001C15.9052 2.89001 14.58 4.21525 14.58 5.85001C14.58 7.48478 15.9052 8.81001 17.54 8.81001Z" fill="#353535"/>
<path d="M6.46 8.81001C8.09476 8.81001 9.42 7.48478 9.42 5.85001C9.42 4.21525 8.09476 2.89001 6.46 2.89001C4.82524 2.89001 3.5 4.21525 3.5 5.85001C3.5 7.48478 4.82524 8.81001 6.46 8.81001Z" fill="#353535"/>
<path d="M17.54 21.1099C19.1747 21.1099 20.5 19.7847 20.5 18.1499C20.5 16.5152 19.1747 15.1899 17.54 15.1899C15.9052 15.1899 14.58 16.5152 14.58 18.1499C14.58 19.7847 15.9052 21.1099 17.54 21.1099Z" fill="#353535"/>
<path d="M6.46 21.1099C8.09476 21.1099 9.42 19.7847 9.42 18.1499C9.42 16.5152 8.09476 15.1899 6.46 15.1899C4.82524 15.1899 3.5 16.5152 3.5 18.1499C3.5 19.7847 4.82524 21.1099 6.46 21.1099Z" fill="#353535"/>
</svg>
