<svg width="24" height="24" viewBox="0 0 24 24" fill="none" xmlns="http://www.w3.org/2000/svg">
<path d="M2 9.75C1.59 9.75 1.25 9.41 1.25 9V6.5C1.25 3.6 3.61 1.25 6.5 1.25H9C9.41 1.25 9.75 1.59 9.75 2C9.75 2.41 9.41 2.75 9 2.75H6.5C4.43 2.75 2.75 4.43 2.75 6.5V9C2.75 9.41 2.41 9.75 2 9.75Z" fill="#353535"/>
<path d="M22 9.75C21.59 9.75 21.25 9.41 21.25 9V6.5C21.25 4.43 19.57 2.75 17.5 2.75H15C14.59 2.75 14.25 2.41 14.25 2C14.25 1.59 14.59 1.25 15 1.25H17.5C20.39 1.25 22.75 3.6 22.75 6.5V9C22.75 9.41 22.41 9.75 22 9.75Z" fill="#353535"/>
<path d="M17.5 22.75H16C15.59 22.75 15.25 22.41 15.25 22C15.25 21.59 15.59 21.25 16 21.25H17.5C19.57 21.25 21.25 19.57 21.25 17.5V16C21.25 15.59 21.59 15.25 22 15.25C22.41 15.25 22.75 15.59 22.75 16V17.5C22.75 20.4 20.39 22.75 17.5 22.75Z" fill="#353535"/>
<path d="M9 22.75H6.5C3.61 22.75 1.25 20.4 1.25 17.5V15C1.25 14.59 1.59 14.25 2 14.25C2.41 14.25 2.75 14.59 2.75 15V17.5C2.75 19.57 4.43 21.25 6.5 21.25H9C9.41 21.25 9.75 21.59 9.75 22C9.75 22.41 9.41 22.75 9 22.75Z" fill="#353535"/>
<path d="M8.5 11.3801C10.0906 11.3801 11.38 10.0907 11.38 8.50012C11.38 6.90954 10.0906 5.62012 8.5 5.62012C6.90942 5.62012 5.62 6.90954 5.62 8.50012C5.62 10.0907 6.90942 11.3801 8.5 11.3801Z" fill="#353535"/>
<path d="M7.5 18.3801C8.53829 18.3801 9.38 17.5384 9.38 16.5001C9.38 15.4618 8.53829 14.6201 7.5 14.6201C6.4617 14.6201 5.62 15.4618 5.62 16.5001C5.62 17.5384 6.4617 18.3801 7.5 18.3801Z" fill="#353535"/>
<path d="M16.5 9.38012C17.5383 9.38012 18.38 8.53841 18.38 7.50012C18.38 6.46182 17.5383 5.62012 16.5 5.62012C15.4617 5.62012 14.62 6.46182 14.62 7.50012C14.62 8.53841 15.4617 9.38012 16.5 9.38012Z" fill="#353535"/>
<path d="M15.5 18.3801C17.0906 18.3801 18.38 17.0907 18.38 15.5001C18.38 13.9095 17.0906 12.6201 15.5 12.6201C13.9094 12.6201 12.62 13.9095 12.62 15.5001C12.62 17.0907 13.9094 18.3801 15.5 18.3801Z" fill="#353535"/>
</svg>
