<svg width="24" height="24" viewBox="0 0 24 24" fill="none" xmlns="http://www.w3.org/2000/svg">
<path d="M18.5 4.11007L13.51 2.24007C12.68 1.93007 11.32 1.93007 10.49 2.24007L5.50003 4.11007C4.35003 4.54007 3.41003 5.90007 3.41003 7.12007V14.5501C3.41003 15.7301 4.19003 17.2801 5.14003 17.9901L9.44003 21.2001C10.85 22.2601 13.17 22.2601 14.58 21.2001L18.88 17.9901C19.83 17.2801 20.61 15.7301 20.61 14.5501V7.12007C20.59 5.90007 19.65 4.54007 18.5 4.11007ZM11.93 7.03007C13.11 7.03007 14.07 7.99007 14.07 9.17007C14.07 10.3301 13.16 11.2601 12.01 11.3001H11.99H11.97C11.95 11.3001 11.93 11.3001 11.91 11.3001C10.71 11.2601 9.81003 10.3301 9.81003 9.17007C9.80003 7.99007 10.76 7.03007 11.93 7.03007ZM14.19 16.3601C13.58 16.7601 12.79 16.9701 12 16.9701C11.21 16.9701 10.41 16.7701 9.81003 16.3601C9.24003 15.9801 8.93003 15.4601 8.92003 14.8901C8.92003 14.3301 9.24003 13.7901 9.81003 13.4101C11.02 12.6101 12.99 12.6101 14.2 13.4101C14.77 13.7901 15.09 14.3101 15.09 14.8801C15.08 15.4401 14.76 15.9801 14.19 16.3601Z" fill="#353535"/>
</svg>
