<svg width="24" height="24" viewBox="0 0 24 24" fill="none" xmlns="http://www.w3.org/2000/svg">
<path d="M20.91 11.1201V6.73007C20.91 5.91007 20.29 4.98007 19.52 4.67007L13.95 2.39007C12.7 1.88007 11.29 1.88007 10.04 2.39007L4.46997 4.67007C3.70997 4.98007 3.08997 5.91007 3.08997 6.73007V11.1201C3.08997 16.0101 6.63997 20.5901 11.49 21.9301C11.82 22.0201 12.18 22.0201 12.51 21.9301C17.36 20.5901 20.91 16.0101 20.91 11.1201ZM12.75 12.8701V15.5001C12.75 15.9101 12.41 16.2501 12 16.2501C11.59 16.2501 11.25 15.9101 11.25 15.5001V12.8701C10.24 12.5501 9.49997 11.6101 9.49997 10.5001C9.49997 9.12007 10.62 8.00007 12 8.00007C13.38 8.00007 14.5 9.12007 14.5 10.5001C14.5 11.6201 13.76 12.5501 12.75 12.8701Z" fill="#353535"/>
</svg>
