<svg width="24" height="24" viewBox="0 0 24 24" fill="none" xmlns="http://www.w3.org/2000/svg">
<path d="M18.51 8.25005C19.01 8.25005 19.41 7.85005 19.41 7.35005V2.70005C19.41 2.20005 19.01 1.80005 18.51 1.80005C18.01 1.80005 17.61 2.20005 17.61 2.70005V7.35005C17.61 7.84005 18.02 8.25005 18.51 8.25005Z" fill="#353535"/>
<path d="M12 15.75C11.5 15.75 11.1 16.15 11.1 16.65V21.3C11.1 21.8 11.5 22.2 12 22.2C12.5 22.2 12.9 21.8 12.9 21.3V16.65C12.9 16.16 12.5 15.75 12 15.75Z" fill="#353535"/>
<path d="M5.48997 8.25005C5.98997 8.25005 6.38997 7.85005 6.38997 7.35005V2.70005C6.38997 2.20005 5.98997 1.80005 5.48997 1.80005C4.98997 1.80005 4.58997 2.20005 4.58997 2.70005V7.35005C4.58997 7.84005 4.98997 8.25005 5.48997 8.25005Z" fill="#353535"/>
<path d="M7.34998 10.17H3.62998C3.12998 10.17 2.72998 10.57 2.72998 11.07C2.72998 11.57 3.12998 11.97 3.62998 11.97H4.58998V21.3C4.58998 21.8 4.98998 22.2 5.48998 22.2C5.98998 22.2 6.38998 21.8 6.38998 21.3V11.97H7.34998C7.84998 11.97 8.24998 11.57 8.24998 11.07C8.24998 10.57 7.83998 10.17 7.34998 10.17Z" fill="#353535"/>
<path d="M20.37 10.17H16.65C16.15 10.17 15.75 10.57 15.75 11.07C15.75 11.57 16.15 11.97 16.65 11.97H17.61V21.3C17.61 21.8 18.01 22.2 18.51 22.2C19.01 22.2 19.41 21.8 19.41 21.3V11.97H20.37C20.87 11.97 21.27 11.57 21.27 11.07C21.27 10.57 20.87 10.17 20.37 10.17Z" fill="#353535"/>
<path d="M13.86 12.03H12.9V2.70005C12.9 2.20005 12.5 1.80005 12 1.80005C11.5 1.80005 11.1 2.20005 11.1 2.70005V12.03H10.14C9.63999 12.03 9.23999 12.43 9.23999 12.93C9.23999 13.43 9.63999 13.83 10.14 13.83H13.86C14.36 13.83 14.76 13.43 14.76 12.93C14.76 12.43 14.36 12.03 13.86 12.03Z" fill="#353535"/>
</svg>
