<svg width="24" height="24" viewBox="0 0 24 24" fill="none" xmlns="http://www.w3.org/2000/svg">
<path d="M9.54004 16.67C9.13004 16.67 8.79004 16.33 8.79004 15.92V12.53L8.60004 12.75C8.32004 13.06 7.85004 13.08 7.54004 12.81C7.23004 12.53 7.21004 12.06 7.48004 11.75L8.98004 10.08C9.19004 9.84996 9.52004 9.76996 9.81004 9.87996C10.1 9.98996 10.29 10.27 10.29 10.58V15.93C10.29 16.34 9.96004 16.67 9.54004 16.67Z" fill="#353535"/>
<path d="M12.0001 3.47998C11.9201 3.47998 11.8401 3.48998 11.7601 3.48998L12.5801 2.46998C12.8401 2.14998 12.7901 1.66998 12.4601 1.41998C12.1401 1.15998 11.6701 1.20998 11.4101 1.53998L9.44012 3.99998C9.43012 4.00998 9.43012 4.01998 9.42012 4.03998C9.39012 4.07998 9.37012 4.12998 9.35012 4.16998C9.33012 4.21998 9.31012 4.25998 9.30012 4.29998C9.29012 4.34998 9.29012 4.38998 9.29012 4.43998C9.29012 4.48998 9.29012 4.53998 9.29012 4.58998C9.29012 4.60998 9.29012 4.61998 9.29012 4.63998C9.30012 4.66998 9.32012 4.68998 9.33012 4.72998C9.35012 4.77998 9.36012 4.81998 9.39012 4.85998C9.42012 4.89998 9.45012 4.93998 9.49012 4.97998C9.51012 4.99998 9.53012 5.02998 9.55012 5.04998C9.56012 5.05998 9.58012 5.05998 9.59012 5.06998C9.62012 5.08998 9.65012 5.10998 9.69012 5.11998C9.74012 5.14998 9.79012 5.16998 9.84012 5.17998C9.88012 5.19998 9.91012 5.19998 9.95012 5.19998C9.98012 5.19998 10.0001 5.20998 10.0301 5.20998C10.0501 5.20998 10.0801 5.19998 10.1001 5.18998C10.1301 5.18998 10.1601 5.18998 10.2001 5.18998C10.8401 5.03998 11.4401 4.96998 12.0101 4.96998C16.5001 4.96998 20.1501 8.61998 20.1501 13.11C20.1501 17.6 16.5001 21.25 12.0101 21.25C7.52012 21.25 3.87012 17.6 3.87012 13.11C3.87012 11.37 4.44012 9.68998 5.52012 8.24998C5.77012 7.91998 5.70012 7.44998 5.37012 7.19998C5.04012 6.94998 4.57012 7.01998 4.32012 7.34998C3.04012 9.04998 2.37012 11.04 2.37012 13.11C2.37012 18.42 6.69012 22.75 12.0101 22.75C17.3301 22.75 21.6501 18.43 21.6501 13.11C21.6501 7.78998 17.3101 3.47998 12.0001 3.47998Z" fill="#353535"/>
<path d="M14 16.6699C12.48 16.6699 11.25 15.4399 11.25 13.9199V12.5699C11.25 11.0499 12.48 9.81995 14 9.81995C15.52 9.81995 16.75 11.0499 16.75 12.5699V13.9199C16.75 15.4399 15.52 16.6699 14 16.6699ZM14 11.3299C13.31 11.3299 12.75 11.8899 12.75 12.5799V13.9299C12.75 14.6199 13.31 15.1799 14 15.1799C14.69 15.1799 15.25 14.6199 15.25 13.9299V12.5799C15.25 11.8899 14.69 11.3299 14 11.3299Z" fill="#353535"/>
</svg>
