<svg width="24" height="24" viewBox="0 0 24 24" fill="none" xmlns="http://www.w3.org/2000/svg">
<path d="M14.4299 16.9199H12.1399C11.7299 16.9199 11.3899 16.5799 11.3899 16.1699C11.3899 15.7599 11.7299 15.4199 12.1399 15.4199H14.4299C14.8599 15.4199 15.2099 15.0699 15.2099 14.6399C15.2099 14.2099 14.8599 13.8599 14.4299 13.8599H12.1399C11.8999 13.8599 11.6699 13.7399 11.5299 13.5499C11.3899 13.3599 11.3499 13.0999 11.4299 12.8699L12.1899 10.5799C12.2899 10.2699 12.5799 10.0699 12.8999 10.0699H15.9599C16.3699 10.0699 16.7099 10.4099 16.7099 10.8199C16.7099 11.2299 16.3699 11.5699 15.9599 11.5699H13.4399L13.1799 12.3599H14.4299C15.6899 12.3599 16.7099 13.3799 16.7099 14.6399C16.7099 15.8999 15.6799 16.9199 14.4299 16.9199Z" fill="#353535"/>
<path d="M9.53992 16.92C9.12992 16.92 8.78992 16.58 8.78992 16.17V12.78L8.59992 13C8.31992 13.31 7.84992 13.33 7.53992 13.06C7.23992 12.78 7.20992 12.31 7.48992 12L8.98992 10.33C9.19992 10.1 9.52992 10.02 9.81992 10.13C10.1099 10.24 10.2999 10.52 10.2999 10.83V16.18C10.2899 16.59 9.95992 16.92 9.53992 16.92Z" fill="#353535"/>
<path d="M12.0001 3.48006C11.9201 3.48006 11.8401 3.49006 11.7601 3.49006L12.5801 2.47006C12.8401 2.15006 12.7901 1.67006 12.4601 1.42006C12.1301 1.17006 11.6701 1.21006 11.4101 1.54006L9.4401 4.00006C9.4301 4.01006 9.4301 4.02006 9.4201 4.04006C9.3901 4.08006 9.3701 4.13006 9.3501 4.17006C9.3301 4.22006 9.3101 4.26006 9.3001 4.30006C9.2901 4.35006 9.2901 4.39006 9.2901 4.44006C9.2901 4.49006 9.2901 4.54006 9.2901 4.59006C9.2901 4.61006 9.2901 4.62006 9.2901 4.64006C9.3001 4.67006 9.3201 4.69006 9.3301 4.72006C9.3501 4.77006 9.3701 4.81006 9.3901 4.86006C9.4201 4.90006 9.4501 4.94006 9.4901 4.97006C9.5101 5.00006 9.5201 5.03006 9.5501 5.05006C9.5701 5.06006 9.5801 5.07006 9.6001 5.08006C9.6201 5.10006 9.6501 5.11006 9.6801 5.12006C9.7301 5.15006 9.7901 5.17006 9.8401 5.18006C9.8801 5.20006 9.9101 5.20006 9.9401 5.20006C9.9701 5.20006 9.9901 5.21006 10.0201 5.21006C10.0501 5.21006 10.0701 5.20006 10.0901 5.19006C10.1201 5.19006 10.1501 5.20006 10.1801 5.19006C10.8201 5.04006 11.4201 4.97006 11.9901 4.97006C16.4801 4.97006 20.1301 8.62006 20.1301 13.1101C20.1301 17.6001 16.4801 21.2501 11.9901 21.2501C7.5001 21.2501 3.8501 17.6001 3.8501 13.1101C3.8501 11.3701 4.4201 9.69006 5.5001 8.25006C5.7501 7.92006 5.6801 7.45006 5.3501 7.20006C5.0201 6.95006 4.5501 7.02006 4.3001 7.35006C3.0201 9.05006 2.3501 11.0401 2.3501 13.1101C2.3501 18.4201 6.6701 22.7501 11.9901 22.7501C17.3101 22.7501 21.6301 18.4301 21.6301 13.1101C21.6301 7.79006 17.3101 3.48006 12.0001 3.48006Z" fill="#353535"/>
</svg>
