<svg width="24" height="24" viewBox="0 0 24 24" fill="none" xmlns="http://www.w3.org/2000/svg">
<path d="M15.7201 9.69002C13.6701 7.63002 10.3301 7.63002 8.28011 9.69002C6.22011 11.75 6.22011 15.08 8.28011 17.13C10.3401 19.19 13.6701 19.19 15.7201 17.13C17.7801 15.07 17.7801 11.74 15.7201 9.69002ZM12.5301 13.94L10.9401 15.53C10.7901 15.68 10.6001 15.75 10.4101 15.75C10.2201 15.75 10.0201 15.68 9.88011 15.53C9.59011 15.24 9.59011 14.76 9.88011 14.46L11.4701 12.87C11.7601 12.58 12.2401 12.58 12.5401 12.87C12.8301 13.17 12.8301 13.65 12.5301 13.94Z" fill="#353535"/>
<path d="M19.6001 5.80997C19.3801 5.58997 19.1001 5.46997 18.7901 5.46997C18.4801 5.46997 18.2001 5.58997 17.9801 5.79997C17.5301 6.24997 17.5301 6.96997 17.9801 7.41997C18.2001 7.63997 18.4801 7.75997 18.7901 7.75997C19.1001 7.75997 19.3801 7.63997 19.6001 7.42997C19.8201 7.20997 19.9401 6.92997 19.9401 6.61997C19.9401 6.30997 19.8201 6.01997 19.6001 5.80997Z" fill="#353535"/>
<path d="M6.02006 19.39C5.80006 19.17 5.52006 19.05 5.21006 19.05C4.90006 19.05 4.62006 19.17 4.40006 19.38C4.18006 19.6 4.06006 19.8801 4.06006 20.1901C4.06006 20.5001 4.18006 20.78 4.40006 21C4.62006 21.22 4.92006 21.33 5.21006 21.33C5.50006 21.33 5.80006 21.22 6.02006 20.99C6.46006 20.56 6.46006 19.83 6.02006 19.39Z" fill="#353535"/>
<path d="M22.4099 12.6C22.1999 12.38 21.9099 12.27 21.5999 12.26C21.2899 12.26 21.0099 12.38 20.7899 12.6C20.3399 13.05 20.3399 13.77 20.7899 14.22C21.0099 14.44 21.3099 14.55 21.5999 14.55C21.8899 14.55 22.1899 14.44 22.4099 14.22C22.8599 13.77 22.8599 13.04 22.4099 12.6Z" fill="#353535"/>
<path d="M3.20994 12.6C2.76994 12.16 2.03994 12.15 1.58994 12.6C1.13994 13.05 1.13994 13.77 1.58994 14.22C1.80994 14.44 2.10994 14.55 2.39994 14.55C2.68994 14.55 2.98994 14.44 3.20994 14.22C3.64994 13.77 3.64994 13.04 3.20994 12.6Z" fill="#353535"/>
<path d="M19.6001 19.39C19.1501 18.94 18.4301 18.94 17.9801 19.39C17.5301 19.84 17.5301 20.56 17.9801 21.01C18.2001 21.23 18.5001 21.34 18.7901 21.34C19.0801 21.34 19.3801 21.23 19.6001 21.01C19.8201 20.79 19.9401 20.5 19.9401 20.2C19.9401 19.89 19.8201 19.6 19.6001 19.39Z" fill="#353535"/>
<path d="M6.02006 5.80997C5.80006 5.58997 5.52006 5.46997 5.21006 5.46997C4.90006 5.46997 4.62006 5.58997 4.40006 5.79997C4.18006 6.01997 4.06006 6.29997 4.06006 6.60997C4.06006 6.91997 4.18006 7.20997 4.40006 7.41997C4.62006 7.63997 4.90006 7.75997 5.21006 7.75997C5.52006 7.75997 5.80006 7.63997 6.02006 7.42997C6.46006 6.97997 6.46006 6.24997 6.02006 5.80997Z" fill="#353535"/>
<path d="M12.8101 2.99998C12.8101 2.98998 12.8101 2.98998 12.8101 2.99998C12.3601 2.54998 11.6401 2.54998 11.1901 2.99998C10.9701 3.21998 10.8501 3.50998 10.8501 3.80998C10.8501 4.11998 10.9701 4.39998 11.1801 4.61998C11.4001 4.83998 11.6801 4.95998 11.9901 4.95998C12.3001 4.95998 12.5801 4.83998 12.8001 4.61998C13.2601 4.16998 13.2601 3.43998 12.8101 2.99998Z" fill="#353535"/>
</svg>
