<svg width="24" height="24" viewBox="0 0 24 24" fill="none" xmlns="http://www.w3.org/2000/svg">
<path d="M14.4299 16.9199H12.1399C11.7299 16.9199 11.3899 16.5799 11.3899 16.1699C11.3899 15.7599 11.7299 15.4199 12.1399 15.4199H14.4299C14.8599 15.4199 15.2099 15.0699 15.2099 14.6399C15.2099 14.2099 14.8599 13.8599 14.4299 13.8599H12.1399C11.8999 13.8599 11.6699 13.7399 11.5299 13.5499C11.3899 13.3599 11.3499 13.0999 11.4299 12.8699L12.1899 10.5799C12.2899 10.2699 12.5799 10.0699 12.8999 10.0699H15.9599C16.3699 10.0699 16.7099 10.4099 16.7099 10.8199C16.7099 11.2299 16.3699 11.5699 15.9599 11.5699H13.4399L13.1799 12.3599H14.4299C15.6899 12.3599 16.7099 13.3799 16.7099 14.6399C16.7099 15.8999 15.6799 16.9199 14.4299 16.9199Z" fill="#353535"/>
<path d="M9.53992 16.92C9.12992 16.92 8.78992 16.58 8.78992 16.17V12.78L8.59992 13C8.31992 13.31 7.84992 13.33 7.53992 13.06C7.23992 12.78 7.20992 12.31 7.48992 12L8.98992 10.33C9.19992 10.1 9.52992 10.02 9.81992 10.13C10.1099 10.24 10.2999 10.52 10.2999 10.83V16.18C10.2899 16.59 9.95992 16.92 9.53992 16.92Z" fill="#353535"/>
<path d="M19.6901 7.35002C19.4401 7.02002 18.9701 6.95002 18.6401 7.20002C18.3101 7.45002 18.2401 7.92002 18.4901 8.25002C19.5701 9.69002 20.1401 11.37 20.1401 13.11C20.1401 17.6 16.4901 21.25 12.0001 21.25C7.5101 21.25 3.8601 17.6 3.8601 13.11C3.8601 8.62002 7.5101 4.98002 12.0001 4.98002C12.5801 4.98002 13.1701 5.05002 13.8101 5.20002C13.8401 5.21002 13.8701 5.20002 13.9001 5.20002C13.9301 5.20002 13.9501 5.22002 13.9701 5.22002C14.0001 5.22002 14.0201 5.21002 14.0501 5.21002C14.0801 5.21002 14.1101 5.20002 14.1501 5.19002C14.2101 5.18002 14.2601 5.15002 14.3101 5.13002C14.3401 5.11002 14.3701 5.10002 14.4001 5.08002C14.4101 5.07002 14.4301 5.07002 14.4401 5.06002C14.4701 5.04002 14.4801 5.01002 14.5001 4.99002C14.5401 4.95002 14.5701 4.92002 14.6001 4.87002C14.6301 4.83002 14.6401 4.78002 14.6601 4.73002C14.6701 4.70002 14.6901 4.67002 14.7001 4.64002C14.7001 4.62002 14.7001 4.61002 14.7001 4.59002C14.7101 4.54002 14.7101 4.49002 14.7001 4.44002C14.7001 4.39002 14.7001 4.35002 14.6901 4.30002C14.6801 4.26002 14.6601 4.22002 14.6401 4.17002C14.6201 4.12002 14.6001 4.07002 14.5701 4.03002C14.5701 4.02002 14.5701 4.01002 14.5601 4.00002L12.5801 1.53002C12.3201 1.21002 11.8501 1.15002 11.5301 1.41002C11.2101 1.67002 11.1601 2.14002 11.4101 2.46002L12.2301 3.48002C12.1501 3.48002 12.0701 3.47002 11.9901 3.47002C6.6801 3.47002 2.3501 7.79002 2.3501 13.11C2.3501 18.43 6.6701 22.75 11.9901 22.75C17.3101 22.75 21.6301 18.43 21.6301 13.11C21.6401 11.04 20.9601 9.05002 19.6901 7.35002Z" fill="#353535"/>
</svg>
