<svg width="24" height="24" viewBox="0 0 24 24" fill="none" xmlns="http://www.w3.org/2000/svg">
<path d="M16.4201 6.42001V7.58001L9.14008 14.86C8.18008 13.99 7.58008 12.71 7.58008 11.34V6.42001C7.58008 4.36001 8.98008 2.65002 10.8801 2.16002C11.0701 2.11002 11.2501 2.27002 11.2501 2.46001V4.00001C11.2501 4.41001 11.5901 4.75002 12.0001 4.75002C12.4101 4.75002 12.7501 4.41001 12.7501 4.00001V2.46001C12.7501 2.27002 12.9301 2.11002 13.1201 2.16002C15.0201 2.65002 16.4201 4.36001 16.4201 6.42001Z" fill="#353535"/>
<path d="M19.81 9.81V11.4C19.81 15.47 16.68 18.82 12.7 19.17V21.3C12.7 21.69 12.39 22 12 22C11.61 22 11.3 21.69 11.3 21.3V19.17C10.21 19.07 9.18001 18.75 8.26001 18.24L9.29001 17.21C10.11 17.59 11.03 17.81 12 17.81C15.54 17.81 18.42 14.93 18.42 11.4V9.81C18.42 9.43 18.73 9.12 19.12 9.12C19.5 9.12 19.81 9.43 19.81 9.81Z" fill="#353535"/>
<path d="M16.42 10.08V11.53C16.42 14.11 14.2 16.18 11.56 15.93C11.28 15.9 11 15.85 10.74 15.76L16.42 10.08Z" fill="#353535"/>
<path d="M21.7701 2.23C21.4701 1.93 20.9801 1.93 20.6801 2.23L7.23012 15.68C6.20012 14.55 5.58012 13.05 5.58012 11.4V9.81001C5.58012 9.43001 5.27012 9.12 4.88012 9.12C4.50012 9.12 4.19012 9.43001 4.19012 9.81001V11.4C4.19012 13.43 4.97012 15.28 6.24012 16.67L2.22012 20.69C1.92012 20.99 1.92012 21.48 2.22012 21.78C2.38012 21.92 2.57012 22 2.77012 22C2.97012 22 3.16012 21.92 3.31012 21.77L21.7701 3.31C22.0801 3.01 22.0801 2.53 21.7701 2.23Z" fill="#353535"/>
</svg>
