<svg width="24" height="24" viewBox="0 0 24 24" fill="none" xmlns="http://www.w3.org/2000/svg">
<path d="M17.6199 5.72L7.00988 16.33C6.27988 15.34 5.87988 14.13 5.87988 12.82V8.11C5.87988 6.27 6.69988 4.62 7.99988 3.5V7.64C7.99988 8.03 8.31988 8.35 8.69988 8.35C9.08988 8.35 9.40988 8.03 9.40988 7.64V2.57C9.86988 2.34 10.3599 2.18 10.8699 2.09V5.75C10.8699 6.15 11.1899 6.46 11.5799 6.46C11.9699 6.46 12.2899 6.15 12.2899 5.75V2C14.6799 2.11 16.7399 3.61 17.6199 5.72Z" fill="#353535"/>
<path d="M18.1199 8.88V12.82C18.1199 16.19 15.3699 18.94 11.9999 18.94C11.8199 18.94 11.6399 18.93 11.4599 18.91C11.3799 18.91 11.2999 18.9 11.2299 18.89C11.0999 18.87 10.9699 18.85 10.8499 18.83C10.7999 18.83 10.7599 18.81 10.6999 18.8C10.5599 18.77 10.4199 18.73 10.2899 18.69C10.0699 18.63 9.85991 18.55 9.65991 18.47C9.52991 18.42 9.40991 18.37 9.28991 18.3C9.25991 18.29 9.23991 18.27 9.20991 18.26C9.10991 18.21 9.00991 18.16 8.90991 18.09L18.1199 8.88Z" fill="#353535"/>
<path d="M21.7499 11V13C21.7499 18.38 17.3799 22.75 11.9999 22.75C9.87993 22.75 7.84993 22.07 6.17993 20.82L7.25993 19.74C8.63993 20.72 10.2799 21.25 11.9999 21.25C16.5499 21.25 20.2499 17.55 20.2499 13V11C20.2499 10.59 20.5899 10.25 20.9999 10.25C21.4099 10.25 21.7499 10.59 21.7499 11Z" fill="#353535"/>
<path d="M21.7699 2.23C21.4699 1.93 20.9799 1.93 20.6799 2.23L2.22988 20.69C1.92988 20.99 1.92988 21.48 2.22988 21.78C2.37988 21.92 2.56988 22 2.76988 22C2.96988 22 3.15988 21.92 3.30988 21.77L21.7699 3.31C22.0799 3.01 22.0799 2.53 21.7699 2.23Z" fill="#353535"/>
</svg>
