<svg width="24" height="24" viewBox="0 0 24 24" fill="none" xmlns="http://www.w3.org/2000/svg">
<path d="M21.72 6.28001V7.45001C21.72 8.43001 21.33 9.27001 20.64 9.76001C20.21 10.08 19.68 10.23 19.13 10.23C18.79 10.23 18.45 10.18 18.1 10.06L12.72 8.27001V18C12.72 20.62 10.59 22.75 7.96997 22.75C5.34997 22.75 3.21997 20.62 3.21997 18C3.21997 15.38 5.34997 13.25 7.96997 13.25C9.22997 13.25 10.37 13.75 11.22 14.55V4.00001C11.22 3.03001 11.62 2.19001 12.31 1.69001C13 1.20001 13.92 1.09001 14.84 1.39001L19.26 2.87001C20.62 3.32001 21.72 4.85001 21.72 6.28001Z" fill="#353535"/>
</svg>
