<svg width="24" height="24" viewBox="0 0 24 24" fill="none" xmlns="http://www.w3.org/2000/svg">
<path d="M7 3.24995V20.75C7 21.3899 6.39 21.9 5.77 21.7299C3.37 21.0499 2 19.09 2 16.1899V7.80995C2 4.90995 3.37 2.94995 5.77 2.26995C6.39 2.09995 7 2.59995 7 3.24995Z" fill="#353535"/>
<path d="M12.47 14.37C12.09 14.37 11.79 14.68 11.79 15.05C11.79 15.42 12.1 15.73 12.47 15.73C12.85 15.73 13.16 15.42 13.16 15.05C13.16 14.68 12.85 14.37 12.47 14.37Z" fill="#353535"/>
<path d="M17.5201 13.45C17.1401 13.45 16.8301 13.76 16.8301 14.14C16.8301 14.52 17.1401 14.82 17.5201 14.82C17.9001 14.82 18.2101 14.51 18.2101 14.14C18.2101 13.77 17.9001 13.45 17.5201 13.45Z" fill="#353535"/>
<path d="M16.19 2H9.5C8.95 2 8.5 2.45 8.5 3V21C8.5 21.55 8.95 22 9.5 22H16.19C19.4 22 22 19.4 22 16.19V7.81C22 4.6 19.4 2 16.19 2ZM19.6 9.74V14.14C19.6 14.15 19.59 14.16 19.59 14.17C19.57 15.3 18.65 16.21 17.52 16.21C16.38 16.21 15.45 15.28 15.45 14.14C15.45 13 16.38 12.07 17.52 12.07C17.76 12.07 17.99 12.12 18.21 12.2V10.65L14.54 11.65V15.07C14.54 15.08 14.53 15.09 14.53 15.1C14.51 16.23 13.59 17.14 12.46 17.14C11.32 17.14 10.39 16.21 10.39 15.07C10.39 13.93 11.32 13 12.46 13C12.7 13 12.93 13.05 13.15 13.13V11.13V9.5C13.15 8.64 13.68 7.94 14.51 7.73L17.26 6.97C18.12 6.74 18.65 6.97 18.95 7.2C19.38 7.53 19.59 8.05 19.59 8.75V9.74H19.6Z" fill="#353535"/>
</svg>
