<svg width="24" height="24" viewBox="0 0 24 24" fill="none" xmlns="http://www.w3.org/2000/svg">
<path d="M20.8901 5.17995V16.4799C20.8901 18.4599 19.2801 20.0699 17.3001 20.0699C15.3301 20.0699 13.7101 18.4599 13.7101 16.4799C13.7101 14.5099 15.3301 12.8999 17.3001 12.8999C18.1401 12.8999 18.8901 13.1899 19.5001 13.6699V7.71995L10.2901 10.3399V18.4099C10.2901 20.3899 8.67011 21.9999 6.70011 21.9999C4.72011 21.9999 3.11011 20.3899 3.11011 18.4099C3.11011 16.4399 4.72011 14.8299 6.70011 14.8299C7.53011 14.8299 8.28011 15.1199 8.89011 15.5899V6.74995C8.89011 5.27995 9.78011 4.13995 11.1901 3.75995L16.9701 2.17995C18.1401 1.85995 19.1301 1.96995 19.8301 2.50995C20.5401 3.03995 20.8901 3.93995 20.8901 5.17995Z" fill="#353535"/>
</svg>
