<svg width="24" height="24" viewBox="0 0 24 24" fill="none" xmlns="http://www.w3.org/2000/svg">
<path d="M22 3.75H2C1.59 3.75 1.25 3.41 1.25 3C1.25 2.59 1.59 2.25 2 2.25H22C22.41 2.25 22.75 2.59 22.75 3C22.75 3.41 22.41 3.75 22 3.75Z" fill="#353535"/>
<path d="M11 9.75H2C1.59 9.75 1.25 9.41 1.25 9C1.25 8.59 1.59 8.25 2 8.25H11C11.41 8.25 11.75 8.59 11.75 9C11.75 9.41 11.41 9.75 11 9.75Z" fill="#353535"/>
<path d="M8 15.75H2C1.59 15.75 1.25 15.41 1.25 15C1.25 14.59 1.59 14.25 2 14.25H8C8.41 14.25 8.75 14.59 8.75 15C8.75 15.41 8.41 15.75 8 15.75Z" fill="#353535"/>
<path d="M6 21.75H2C1.59 21.75 1.25 21.41 1.25 21C1.25 20.59 1.59 20.25 2 20.25H6C6.41 20.25 6.75 20.59 6.75 21C6.75 21.41 6.41 21.75 6 21.75Z" fill="#353535"/>
<path d="M21.8599 7.67996C21.2699 7.22996 20.4599 7.13996 19.5099 7.39996L15.1599 8.57996C13.9899 8.89996 13.2699 9.84996 13.2699 11.05V13.6V17.28C12.8499 17.04 12.3599 16.89 11.8399 16.89C10.2299 16.89 8.90991 18.2 8.90991 19.82C8.90991 21.43 10.2199 22.75 11.8399 22.75C13.4599 22.75 14.7699 21.44 14.7699 19.82V14.17L21.2499 12.4V15.83C20.8299 15.59 20.3399 15.44 19.8199 15.44C18.2099 15.44 16.8899 16.75 16.8899 18.37C16.8899 19.98 18.1999 21.3 19.8199 21.3C21.4399 21.3 22.7499 19.99 22.7499 18.37V11.42V9.86996C22.7499 8.85996 22.4499 8.11996 21.8599 7.67996ZM11.8399 21.25C11.0499 21.25 10.4099 20.61 10.4099 19.82C10.4099 19.03 11.0499 18.39 11.8399 18.39C12.6299 18.39 13.2699 19.03 13.2699 19.82C13.2699 20.61 12.6299 21.25 11.8399 21.25ZM19.8199 19.8C19.0299 19.8 18.3899 19.16 18.3899 18.37C18.3899 17.58 19.0299 16.94 19.8199 16.94C20.6099 16.94 21.2499 17.58 21.2499 18.37C21.2499 19.16 20.6099 19.8 19.8199 19.8Z" fill="#353535"/>
</svg>
