<svg width="24" height="24" viewBox="0 0 24 24" fill="none" xmlns="http://www.w3.org/2000/svg">
<path d="M14.5399 13.67C14.1799 13.67 13.8899 13.96 13.8899 14.32C13.8899 14.68 14.1799 14.97 14.5399 14.97C14.8999 14.97 15.1899 14.68 15.1899 14.32C15.1799 13.96 14.8899 13.67 14.5399 13.67Z" fill="#353535"/>
<path d="M9.05991 14.66C8.69991 14.66 8.40991 14.95 8.40991 15.31C8.40991 15.67 8.69991 15.96 9.05991 15.96C9.41991 15.96 9.70991 15.67 9.70991 15.31C9.70991 14.95 9.41991 14.66 9.05991 14.66Z" fill="#353535"/>
<path d="M16.19 2H7.81C4.17 2 2 4.17 2 7.81V16.18C2 19.83 4.17 22 7.81 22H16.18C19.82 22 21.99 19.83 21.99 16.19V7.81C22 4.17 19.83 2 16.19 2ZM16.88 9.55V14.31C16.88 15.6 15.83 16.65 14.54 16.65C13.25 16.65 12.2 15.6 12.2 14.31C12.2 13.02 13.25 11.97 14.54 11.97C14.77 11.97 14.98 12.01 15.19 12.07V10.65L11.41 11.68V15.3C11.41 15.31 11.4 15.32 11.4 15.33C11.39 16.61 10.34 17.64 9.06 17.64C7.77 17.64 6.72 16.59 6.72 15.3C6.72 14.01 7.77 12.96 9.06 12.96C9.29 12.96 9.5 13 9.71 13.06V11.03V9.29C9.71 8.32 10.31 7.53 11.25 7.28L14.24 6.46C15.2 6.2 15.8 6.45 16.14 6.71C16.47 6.97 16.88 7.48 16.88 8.48V9.55Z" fill="#353535"/>
</svg>
