<svg width="24" height="24" viewBox="0 0 24 24" fill="none" xmlns="http://www.w3.org/2000/svg">
<path d="M17.49 9.60001L5.6 16.77C4.9 17.19 4 16.69 4 15.87V7.87001C4 4.38001 7.77 2.20001 10.8 3.94001L15.39 6.58001L17.48 7.78001C18.17 8.19001 18.18 9.19001 17.49 9.60001Z" fill="#353535"/>
<path d="M18.0901 15.46L14.0401 17.8L10.0001 20.13C8.55005 20.96 6.91005 20.79 5.72005 19.95C5.14005 19.55 5.21006 18.66 5.82006 18.3L18.5301 10.68C19.1301 10.32 19.9201 10.66 20.0301 11.35C20.2801 12.9 19.6401 14.57 18.0901 15.46Z" fill="#353535"/>
</svg>
