<svg width="24" height="24" viewBox="0 0 24 24" fill="none" xmlns="http://www.w3.org/2000/svg">
<path d="M19.07 19.82C18.88 19.82 18.69 19.75 18.54 19.6C18.25 19.31 18.25 18.83 18.54 18.54C22.15 14.93 22.15 9.05999 18.54 5.46C18.25 5.17 18.25 4.69 18.54 4.4C18.83 4.11 19.31 4.11 19.6 4.4C23.79 8.59 23.79 15.41 19.6 19.6C19.45 19.75 19.26 19.82 19.07 19.82Z" fill="#353535"/>
<path d="M4.93007 19.82C4.74007 19.82 4.55007 19.75 4.40007 19.6C0.210068 15.41 0.210068 8.59 4.40007 4.4C4.69007 4.11 5.17007 4.11 5.46007 4.4C5.75007 4.69 5.75007 5.17 5.46007 5.46C1.85007 9.06999 1.85007 14.94 5.46007 18.54C5.75007 18.83 5.75007 19.31 5.46007 19.6C5.31007 19.75 5.12007 19.82 4.93007 19.82Z" fill="#353535"/>
<path d="M12 22.71C10.75 22.7 9.56 22.5 8.45 22.11C8.06 21.97 7.85 21.54 7.99 21.15C8.13 20.76 8.55 20.55 8.95 20.69C9.91 21.02 10.93 21.2 12.01 21.2C13.08 21.2 14.11 21.02 15.06 20.69C15.45 20.56 15.88 20.76 16.02 21.15C16.16 21.54 15.95 21.97 15.56 22.11C14.44 22.5 13.25 22.71 12 22.71Z" fill="#353535"/>
<path d="M15.3 3.34004C15.22 3.34004 15.13 3.33004 15.05 3.30004C14.1 2.96004 13.07 2.79004 12 2.79004C10.93 2.79004 9.91 2.97004 8.95 3.30004C8.55 3.43004 8.13 3.23004 7.99 2.84004C7.85 2.45004 8.06 2.02004 8.45 1.88004C9.57 1.49004 10.76 1.29004 12 1.29004C13.24 1.29004 14.44 1.49004 15.55 1.88004C15.94 2.02004 16.15 2.45004 16.01 2.84004C15.9 3.15004 15.61 3.34004 15.3 3.34004Z" fill="#353535"/>
<path d="M8.73999 12V10.33C8.73999 8.25002 10.21 7.40002 12.01 8.44002L13.46 9.28002L14.91 10.12C16.71 11.16 16.71 12.86 14.91 13.9L13.46 14.74L12.01 15.58C10.21 16.62 8.73999 15.77 8.73999 13.69V12Z" fill="#353535"/>
</svg>
