<svg width="24" height="24" viewBox="0 0 24 24" fill="none" xmlns="http://www.w3.org/2000/svg">
<path d="M19.6299 7.24003C19.9299 7.71003 19.7699 8.34003 19.2899 8.63003L18.6999 8.98003L5.58991 16.84C5.10991 17.13 4.47991 16.97 4.19991 16.48C3.19991 14.74 2.74991 12.62 3.13991 10.4C3.79991 6.63003 6.89991 3.63003 10.6899 3.09003C14.4399 2.56003 17.8299 4.36003 19.6299 7.24003Z" fill="#353535"/>
<path d="M20.8899 13.4301C20.2099 17.6801 16.4499 20.9301 12.1399 21.0001C10.2399 21.0301 8.47991 20.4801 7.01991 19.4901C6.39991 19.0801 6.41991 18.1601 7.05991 17.7801L19.4699 10.4901C20.1199 10.1101 20.9199 10.5501 20.9799 11.3001C21.0299 12.0001 20.9999 12.7101 20.8899 13.4301Z" fill="#353535"/>
</svg>
