<svg width="24" height="24" viewBox="0 0 24 24" fill="none" xmlns="http://www.w3.org/2000/svg">
<path d="M3.91 17.1801C3.72 17.1801 3.53 17.11 3.38 16.96C2.01 15.58 1.25 13.7601 1.25 11.8301C1.25 7.82005 4.5 4.56005 8.5 4.56005L14.57 4.58005L13.48 3.54005C13.18 3.25005 13.17 2.78005 13.46 2.48005C13.75 2.18005 14.22 2.17005 14.52 2.46005L16.96 4.80005C17.18 5.01005 17.25 5.34005 17.14 5.62005C17.03 5.90005 16.75 6.09005 16.44 6.09005L8.5 6.07005C5.33 6.07005 2.75 8.66005 2.75 11.8401C2.75 13.3701 3.35 14.8201 4.44 15.9101C4.73 16.2001 4.73 16.68 4.44 16.97C4.29 17.1101 4.1 17.1801 3.91 17.1801Z" fill="#353535"/>
<path d="M9.9999 21.75C9.8099 21.75 9.6299 21.68 9.4799 21.54L7.0399 19.2C6.8199 18.99 6.7499 18.66 6.8599 18.38C6.9799 18.1 7.2599 17.95 7.5599 17.91L15.5099 17.93C18.6799 17.93 21.2599 15.34 21.2599 12.16C21.2599 10.63 20.6599 9.18 19.5699 8.09C19.2799 7.8 19.2799 7.32 19.5699 7.03C19.8599 6.74 20.3399 6.74 20.6299 7.03C21.9999 8.41 22.7599 10.23 22.7599 12.16C22.7599 16.17 19.5099 19.43 15.5099 19.43L9.4399 19.41L10.5299 20.45C10.8299 20.74 10.8399 21.21 10.5499 21.51C10.3899 21.67 10.1999 21.75 9.9999 21.75Z" fill="#353535"/>
<path d="M12.25 15.4199C11.84 15.4199 11.5 15.0799 11.5 14.6699V11.2799L11.31 11.4899C11.03 11.7999 10.56 11.8199 10.25 11.5499C9.94 11.2799 9.92 10.7999 10.19 10.4899L11.69 8.81995C11.9 8.58995 12.23 8.50995 12.52 8.61995C12.81 8.73995 13 9.00995 13 9.32995V14.6799C13 15.0899 12.66 15.4199 12.25 15.4199Z" fill="#353535"/>
</svg>
