<svg width="24" height="24" viewBox="0 0 24 24" fill="none" xmlns="http://www.w3.org/2000/svg">
<path d="M21.98 15.65C21.16 14.64 19.91 14 18.5 14C17.44 14 16.46 14.37 15.69 14.99C14.65 15.81 14 17.08 14 18.5C14 19.91 14.64 21.16 15.65 21.98C16.42 22.62 17.42 23 18.5 23C19.64 23 20.67 22.57 21.47 21.88C22.4 21.05 23 19.85 23 18.5C23 17.42 22.62 16.42 21.98 15.65ZM19.53 18.78C19.53 19.04 19.39 19.29 19.17 19.42L17.76 20.26C17.64 20.33 17.51 20.37 17.37 20.37C17.12 20.37 16.87 20.24 16.73 20.01C16.52 19.65 16.63 19.19 16.99 18.98L18.03 18.36V17.1C18.03 16.69 18.37 16.35 18.78 16.35C19.19 16.35 19.53 16.69 19.53 17.1V18.78Z" fill="#353535"/>
<path d="M14.73 5.86V2.5C14.73 2.22 14.51 2 14.23 2H9.77002C9.49002 2 9.27002 2.22 9.27002 2.5V5.86C9.27002 6.14 9.49002 6.36 9.77002 6.36H14.23C14.51 6.36 14.73 6.14 14.73 5.86Z" fill="#353535"/>
<path d="M7.24998 2.01997C4.68998 2.17997 2.93998 3.49997 2.28998 5.69997C2.18998 6.02997 2.42998 6.35997 2.76998 6.35997H7.26998C7.54998 6.35997 7.76998 6.13997 7.76998 5.85997V2.51997C7.76998 2.23997 7.52998 1.99997 7.24998 2.01997Z" fill="#353535"/>
<path d="M16.75 2.00996C19.31 2.16996 21.06 3.48996 21.71 5.68996C21.81 6.01996 21.57 6.34996 21.23 6.34996H16.73C16.45 6.34996 16.23 6.12996 16.23 5.84996V2.50996C16.23 2.22996 16.47 1.98996 16.75 2.00996Z" fill="#353535"/>
<path d="M22 8.35998V12.74C22 13.11 21.61 13.35 21.28 13.18C20.44 12.74 19.48 12.5 18.5 12.5C16.89 12.5 15.32 13.16 14.2 14.31C13.1 15.43 12.5 16.92 12.5 18.5C12.5 19.31 12.82 20.35 13.22 21.22C13.38 21.57 13.14 22 12.75 22H7.81C4.6 22 2 19.4 2 16.19V8.35998C2 8.07998 2.22 7.85999 2.5 7.85999H21.5C21.78 7.85999 22 8.07998 22 8.35998Z" fill="#353535"/>
</svg>
