<svg width="24" height="24" viewBox="0 0 24 24" fill="none" xmlns="http://www.w3.org/2000/svg">
<path d="M21.98 15.65C21.16 14.64 19.91 14 18.5 14C17.44 14 16.46 14.37 15.69 14.99C14.65 15.81 14 17.08 14 18.5C14 19.34 14.24 20.14 14.65 20.82C14.92 21.27 15.26 21.66 15.66 21.98H15.67C16.44 22.62 17.43 23 18.5 23C19.64 23 20.67 22.58 21.46 21.88C21.81 21.58 22.11 21.22 22.35 20.82C22.76 20.14 23 19.34 23 18.5C23 17.42 22.62 16.42 21.98 15.65ZM20.76 17.94L18.36 20.16C18.22 20.29 18.03 20.36 17.85 20.36C17.66 20.36 17.47 20.29 17.32 20.14L16.21 19.03C15.92 18.74 15.92 18.26 16.21 17.97C16.5 17.68 16.98 17.68 17.27 17.97L17.87 18.57L19.74 16.84C20.04 16.56 20.52 16.58 20.8 16.88C21.09 17.19 21.07 17.66 20.76 17.94Z" fill="#353535"/>
<path d="M14.73 5.86V2.5C14.73 2.22 14.51 2 14.23 2H9.77002C9.49002 2 9.27002 2.22 9.27002 2.5V5.86C9.27002 6.14 9.49002 6.36 9.77002 6.36H14.23C14.51 6.36 14.73 6.14 14.73 5.86Z" fill="#353535"/>
<path d="M7.24998 2.01997C4.68998 2.17997 2.93998 3.49997 2.28998 5.69997C2.18998 6.02997 2.42998 6.35997 2.76998 6.35997H7.26998C7.54998 6.35997 7.76998 6.13997 7.76998 5.85997V2.51997C7.76998 2.23997 7.52998 1.99997 7.24998 2.01997Z" fill="#353535"/>
<path d="M16.75 2.00996C19.31 2.16996 21.06 3.48996 21.71 5.68996C21.81 6.01996 21.57 6.34996 21.23 6.34996H16.73C16.45 6.34996 16.23 6.12996 16.23 5.84996V2.50996C16.23 2.22996 16.47 1.98996 16.75 2.00996Z" fill="#353535"/>
<path d="M22 8.35998V12.74C22 13.11 21.61 13.35 21.28 13.18C20.44 12.74 19.48 12.5 18.5 12.5C16.89 12.5 15.32 13.16 14.2 14.31C13.1 15.43 12.5 16.92 12.5 18.5C12.5 19.31 12.82 20.35 13.22 21.22C13.38 21.57 13.14 22 12.75 22H7.81C4.6 22 2 19.4 2 16.19V8.35998C2 8.07998 2.22 7.85999 2.5 7.85999H21.5C21.78 7.85999 22 8.07998 22 8.35998Z" fill="#353535"/>
</svg>
