<svg width="24" height="24" viewBox="0 0 24 24" fill="none" xmlns="http://www.w3.org/2000/svg">
<path d="M22.5299 13.4201L21.0799 11.9701L22.4799 10.5701C22.7699 10.2801 22.7699 9.80005 22.4799 9.51005C22.1899 9.22005 21.7099 9.22005 21.4199 9.51005L20.0199 10.9101L18.5699 9.46005C18.2799 9.17005 17.7999 9.17005 17.5099 9.46005C17.2199 9.75005 17.2199 10.2301 17.5099 10.5201L18.9599 11.9701L17.4699 13.4601C17.1799 13.7501 17.1799 14.2301 17.4699 14.5201C17.6199 14.6701 17.8099 14.7401 17.9999 14.7401C18.1899 14.7401 18.3799 14.6701 18.5299 14.5201L20.0199 13.0301L21.4699 14.4801C21.6199 14.6301 21.8099 14.7001 21.9999 14.7001C22.1899 14.7001 22.3799 14.6301 22.5299 14.4801C22.8199 14.1901 22.8199 13.7201 22.5299 13.4201Z" fill="#353535"/>
<path d="M14.02 3.77997C12.9 3.15997 11.47 3.31997 10.01 4.22997L7.09 6.05997C6.89 6.17997 6.66 6.24997 6.43 6.24997H5.5H5C2.58 6.24997 1.25 7.57997 1.25 9.99997V14C1.25 16.42 2.58 17.75 5 17.75H5.5H6.43C6.66 17.75 6.89 17.82 7.09 17.94L10.01 19.77C10.89 20.32 11.75 20.59 12.55 20.59C13.07 20.59 13.57 20.47 14.02 20.22C15.13 19.6 15.75 18.31 15.75 16.59V7.40997C15.75 5.68997 15.13 4.39997 14.02 3.77997Z" fill="#353535"/>
</svg>
