<svg width="24" height="24" viewBox="0 0 24 24" fill="none" xmlns="http://www.w3.org/2000/svg">
<path d="M22 3.25H2C1.59 3.25 1.25 2.91 1.25 2.5C1.25 2.09 1.59 1.75 2 1.75H22C22.41 1.75 22.75 2.09 22.75 2.5C22.75 2.91 22.41 3.25 22 3.25Z" fill="#353535"/>
<path d="M3.66998 2.5V14.47C3.66998 15.45 4.12998 16.38 4.91998 16.97L10.13 20.87C11.24 21.7 12.77 21.7 13.88 20.87L19.09 16.97C19.88 16.38 20.34 15.45 20.34 14.47V2.5H3.66998ZM16 13.75H7.99998C7.58998 13.75 7.24998 13.41 7.24998 13C7.24998 12.59 7.58998 12.25 7.99998 12.25H16C16.41 12.25 16.75 12.59 16.75 13C16.75 13.41 16.41 13.75 16 13.75ZM16 8.75H7.99998C7.58998 8.75 7.24998 8.41 7.24998 8C7.24998 7.59 7.58998 7.25 7.99998 7.25H16C16.41 7.25 16.75 7.59 16.75 8C16.75 8.41 16.41 8.75 16 8.75Z" fill="#353535"/>
</svg>
