<svg width="24" height="24" viewBox="0 0 24 24" fill="none" xmlns="http://www.w3.org/2000/svg">
<path d="M14.35 2H9.64999C8.60999 2 7.75999 2.84 7.75999 3.88V4.82C7.75999 5.86 8.59999 6.7 9.63999 6.7H14.35C15.39 6.7 16.23 5.86 16.23 4.82V3.88C16.24 2.84 15.39 2 14.35 2Z" fill="#353535"/>
<path d="M17.24 4.81998C17.24 6.40998 15.94 7.70998 14.35 7.70998H9.64999C8.05999 7.70998 6.75999 6.40998 6.75999 4.81998C6.75999 4.25998 6.15999 3.90998 5.65999 4.16998C4.24999 4.91998 3.28999 6.40998 3.28999 8.11998V17.53C3.28999 19.99 5.29999 22 7.75999 22H16.24C18.7 22 20.71 19.99 20.71 17.53V8.11998C20.71 6.40998 19.75 4.91998 18.34 4.16998C17.84 3.90998 17.24 4.25998 17.24 4.81998ZM15.34 12.73L11.34 16.73C11.19 16.88 11 16.95 10.81 16.95C10.62 16.95 10.43 16.88 10.28 16.73L8.77999 15.23C8.48999 14.94 8.48999 14.46 8.77999 14.17C9.06999 13.88 9.54999 13.88 9.83999 14.17L10.81 15.14L14.28 11.67C14.57 11.38 15.05 11.38 15.34 11.67C15.63 11.96 15.63 12.44 15.34 12.73Z" fill="#353535"/>
</svg>
