<svg width="24" height="24" viewBox="0 0 24 24" fill="none" xmlns="http://www.w3.org/2000/svg">
<path d="M14.35 2H9.65001C8.61001 2 7.76001 2.84 7.76001 3.88V4.82C7.76001 5.86 8.60001 6.7 9.64001 6.7H14.35C15.39 6.7 16.23 5.86 16.23 4.82V3.88C16.24 2.84 15.39 2 14.35 2Z" fill="#353535"/>
<path d="M17.24 4.81998C17.24 6.40998 15.94 7.70998 14.35 7.70998H9.65001C8.06001 7.70998 6.76001 6.40998 6.76001 4.81998C6.76001 4.25998 6.16001 3.90998 5.66001 4.16998C4.25001 4.91998 3.29001 6.40998 3.29001 8.11998V17.53C3.29001 19.99 5.30001 22 7.76001 22H16.24C18.7 22 20.71 19.99 20.71 17.53V8.11998C20.71 6.40998 19.75 4.91998 18.34 4.16998C17.84 3.90998 17.24 4.25998 17.24 4.81998ZM15.75 17C15.75 17.41 15.41 17.75 15 17.75H12C11.59 17.75 11.25 17.41 11.25 17C11.25 16.59 11.59 16.25 12 16.25H13.19L8.47001 11.53C8.18001 11.24 8.18001 10.76 8.47001 10.47C8.76001 10.18 9.24001 10.18 9.53001 10.47L14.25 15.19V14C14.25 13.59 14.59 13.25 15 13.25C15.41 13.25 15.75 13.59 15.75 14V17Z" fill="#353535"/>
</svg>
