<svg width="24" height="24" viewBox="0 0 24 24" fill="none" xmlns="http://www.w3.org/2000/svg">
<path d="M14.35 2H9.65001C8.61001 2 7.76001 2.84 7.76001 3.88V4.82C7.76001 5.86 8.60001 6.7 9.64001 6.7H14.35C15.39 6.7 16.23 5.86 16.23 4.82V3.88C16.24 2.84 15.39 2 14.35 2Z" fill="#353535"/>
<path d="M17.24 4.81998C17.24 6.40998 15.94 7.70998 14.35 7.70998H9.65001C8.06001 7.70998 6.76001 6.40998 6.76001 4.81998C6.76001 4.25998 6.16001 3.90998 5.66001 4.16998C4.25001 4.91998 3.29001 6.40998 3.29001 8.11998V17.53C3.29001 19.99 5.30001 22 7.76001 22H16.24C18.7 22 20.71 19.99 20.71 17.53V8.11998C20.71 6.40998 19.75 4.91998 18.34 4.16998C17.84 3.90998 17.24 4.25998 17.24 4.81998ZM15.53 17.53C15.38 17.68 15.19 17.75 15 17.75C14.81 17.75 14.62 17.68 14.47 17.53L9.75001 12.81V14C9.75001 14.41 9.41001 14.75 9.00001 14.75C8.59001 14.75 8.25001 14.41 8.25001 14V11C8.25001 10.59 8.59001 10.25 9.00001 10.25H12C12.41 10.25 12.75 10.59 12.75 11C12.75 11.41 12.41 11.75 12 11.75H10.81L15.53 16.47C15.82 16.76 15.82 17.24 15.53 17.53Z" fill="#353535"/>
</svg>
