<svg width="24" height="24" viewBox="0 0 24 24" fill="none" xmlns="http://www.w3.org/2000/svg">
<path d="M20 19.26H10.93C10.48 19.26 10.11 18.89 10.11 18.44C10.11 17.99 10.48 17.62 10.93 17.62H20C20.45 17.62 20.82 17.99 20.82 18.44C20.82 18.9 20.45 19.26 20 19.26Z" fill="#353535"/>
<path d="M20 12.97H10.93C10.48 12.97 10.11 12.6 10.11 12.15C10.11 11.7 10.48 11.33 10.93 11.33H20C20.45 11.33 20.82 11.7 20.82 12.15C20.82 12.6 20.45 12.97 20 12.97Z" fill="#353535"/>
<path d="M20 6.67003H10.93C10.48 6.67003 10.11 6.30003 10.11 5.85003C10.11 5.40003 10.48 5.03003 10.93 5.03003H20C20.45 5.03003 20.82 5.40003 20.82 5.85003C20.82 6.30003 20.45 6.67003 20 6.67003Z" fill="#353535"/>
<path d="M4.90999 8.03004C4.68999 8.03004 4.47999 7.94004 4.32999 7.79004L3.41999 6.88004C3.09999 6.56004 3.09999 6.04004 3.41999 5.72004C3.73999 5.40004 4.25999 5.40004 4.57999 5.72004L4.90999 6.05004L7.04999 3.91004C7.36999 3.59004 7.88999 3.59004 8.20999 3.91004C8.52999 4.23004 8.52999 4.75004 8.20999 5.07004L5.48999 7.79004C5.32999 7.94004 5.12999 8.03004 4.90999 8.03004Z" fill="#353535"/>
<path d="M4.90999 14.33C4.69999 14.33 4.48999 14.25 4.32999 14.09L3.41999 13.18C3.09999 12.86 3.09999 12.34 3.41999 12.02C3.73999 11.7 4.25999 11.7 4.57999 12.02L4.90999 12.35L7.04999 10.21C7.36999 9.88997 7.88999 9.88997 8.20999 10.21C8.52999 10.53 8.52999 11.05 8.20999 11.37L5.48999 14.09C5.32999 14.25 5.11999 14.33 4.90999 14.33Z" fill="#353535"/>
<path d="M4.90999 20.33C4.69999 20.33 4.48999 20.25 4.32999 20.09L3.41999 19.18C3.09999 18.86 3.09999 18.34 3.41999 18.02C3.73999 17.7 4.25999 17.7 4.57999 18.02L4.90999 18.35L7.04999 16.21C7.36999 15.89 7.88999 15.89 8.20999 16.21C8.52999 16.53 8.52999 17.05 8.20999 17.37L5.48999 20.09C5.32999 20.25 5.11999 20.33 4.90999 20.33Z" fill="#353535"/>
</svg>
