<svg width="24" height="24" viewBox="0 0 24 24" fill="none" xmlns="http://www.w3.org/2000/svg">
<path d="M12 22.75C11.3 22.75 10.59 22.48 10.06 21.95L8.34998 20.26C7.92998 19.84 7.35001 19.61 6.76001 19.61H6C3.93 19.61 2.25 17.94 2.25 15.89V4.97C2.25 2.92 3.93 1.25 6 1.25H18C20.07 1.25 21.75 2.92 21.75 4.97V15.88C21.75 17.93 20.07 19.6 18 19.6H17.24C16.65 19.6 16.07 19.84 15.65 20.25L13.94 21.94C13.41 22.48 12.7 22.75 12 22.75ZM6 2.75C4.76 2.75 3.75 3.75 3.75 4.97V15.88C3.75 17.11 4.76 18.1 6 18.1H6.76001C7.75001 18.1 8.70997 18.5 9.40997 19.19L11.12 20.88C11.61 21.36 12.4 21.36 12.89 20.88L14.6 19.19C15.3 18.5 16.26 18.1 17.25 18.1H18C19.24 18.1 20.25 17.1 20.25 15.88V4.97C20.25 3.74 19.24 2.75 18 2.75H6Z" fill="#353535"/>
<path d="M12.0698 9.69999C12.0498 9.69999 12.0198 9.69999 11.9998 9.69999C11.9698 9.69999 11.9298 9.69999 11.8998 9.69999C10.4398 9.64999 9.2998 8.46999 9.2998 6.99999C9.2998 5.50999 10.5098 4.29999 11.9998 4.29999C13.4898 4.29999 14.6998 5.50999 14.6998 6.99999C14.6898 8.46999 13.5498 9.64999 12.0898 9.69999C12.0898 9.69999 12.0798 9.69999 12.0698 9.69999ZM11.9998 5.79999C11.3398 5.79999 10.7998 6.33999 10.7998 6.99999C10.7998 7.64999 11.3098 8.17999 11.9498 8.19999C11.9498 8.18999 12.0098 8.18999 12.0798 8.19999C12.7098 8.15999 13.1998 7.63999 13.1998 6.99999C13.1998 6.33999 12.6598 5.79999 11.9998 5.79999Z" fill="#353535"/>
<path d="M12 16.7C10.86 16.7 9.72002 16.4 8.83002 15.81C7.99002 15.25 7.5 14.44 7.5 13.58C7.5 12.72 7.98002 11.9 8.83002 11.34C10.61 10.16 13.39 10.16 15.16 11.34C16 11.9 16.49 12.72 16.49 13.57C16.49 14.43 16.01 15.24 15.16 15.81C14.28 16.41 13.14 16.7 12 16.7ZM9.65997 12.59C9.22997 12.88 9 13.23 9 13.58C9 13.93 9.23997 14.28 9.65997 14.57C10.93 15.42 13.06 15.42 14.33 14.57C14.76 14.28 15 13.93 14.99 13.58C14.99 13.23 14.75 12.88 14.33 12.59C13.07 11.74 10.93 11.74 9.65997 12.59Z" fill="#353535"/>
</svg>
